<svg xmlns="http://www.w3.org/2000/svg" viewBox="0 0 160.21 125.61"><defs><style>.cls-1,.cls-3{fill:#75bcad;stroke:#75bcad;}.cls-1,.cls-10,.cls-2,.cls-3,.cls-5,.cls-6,.cls-7,.cls-8,.cls-9{stroke-miterlimit:10;}.cls-1{stroke-width:0.75px;}.cls-2{fill:#5fb390;stroke:#5fb390;}.cls-2,.cls-3{stroke-width:0.75px;}.cls-4{fill:#1d1d1b;}.cls-5{fill:#8bc4c9;stroke:#8bc4c9;}.cls-5,.cls-6,.cls-7,.cls-8{stroke-width:0.75px;}.cls-6{fill:#d7d7d7;stroke:#d7d7d7;}.cls-7{fill:#582d29;stroke:#582d29;}.cls-8{fill:#54a6a8;stroke:#54a6a8;}.cls-10,.cls-9{fill:none;stroke:#1d1d1b;}.cls-9{stroke-width:2px;}.cls-10{stroke-width:2.03px;}</style></defs><g id="Capa_9" data-name="Capa 9"><path class="cls-1" d="M74.48,2C86.19,26.47,41.62,17.46,39.26,65.31,38.06,89.44,57.32,104.13,59.87,106c14.73,10.8,34.16,17.57,53,6.31,12.4-7.39,19.76-17.38,21.68-20.65a53.28,53.28,0,0,0,6.77-19.32A49.25,49.25,0,0,0,139,47.29,50.47,50.47,0,0,0,125.09,27.4C105.45,10.34,94.45,16.82,90.71,14.27,81,7.63,73-1,74.48,2Z"/><path class="cls-2" d="M76.58,77.31c.63-4.58,14.37-5.58,21.85-12,2.41-2.06,2.55-2.83,2.67-8.8,0-.77,1.24,1.7,1.16,3.64-.08,1.65,1.67,4.52-9.94,12C89.7,73.86,80.71,78.25,78.94,77,78.31,76.5,76.45,78.28,76.58,77.31Z"/><path class="cls-2" d="M91.55,12.54c-.17-1.28,10.55-5.8,17.64-5.36,2.07.13,6.39,9.52,5.68,10.58s-4.49-1.82-13-3.58C95,12.75,91.66,13.36,91.55,12.54Z"/><path class="cls-3" d="M54.71,37.76A13.8,13.8,0,0,1,44.45,25.57c-.43-5.36-3.17-12,1.61-14.45,7.43-3.8,20.38,3.17,21.42,4,1.46,1.16,4.55,3.62,5,7.35C73.47,29.87,63.89,39.87,54.71,37.76Z"/><path class="cls-2" d="M45.32,10.21c-.27-.16-6,8.59,2.69,24.37,2.14,3.89,7.83,5.31,8.15,4.81s-7.51-10.65-8.65-14.72C45.58,17.7,45.57,10.37,45.32,10.21Z"/><path class="cls-2" d="M49.22,36.59C37.86,54.5,37.39,68.16,42.94,83.11c8.82,23.8,33.91,40,64.43,31.42C120,111,128.5,102.76,128.9,101.42c.27-.89-8.83,7.93-22.73,9.63-16.23,2-40.14-5-50.8-25.4-11.52-22.08,2-47,2-47C53.36,38.06,49.89,35.52,49.22,36.59Z"/><path class="cls-2" d="M120,110.21c-5.85,3.12,8.32,13.94,23-14.51,7.84-15.17,3-31.89,1.55-26.13C141.84,80,131.58,104,120,110.21Z"/><path class="cls-2" d="M135.84,36.28c-1.56,3,4.45,18.58,9.29,13,.44-.52,9.73-4.81,7.35-10.26S138.55,31.05,135.84,36.28Z"/></g><g id="Capa_10" data-name="Capa 10"><path class="cls-4" d="M2.79,51.63l10.4-2,1.5-.29A1.88,1.88,0,0,0,16,47a1.92,1.92,0,0,0-2.3-1.31l-10.4,2L1.8,48a1.87,1.87,0,0,0-1.31,2.3,1.92,1.92,0,0,0,2.3,1.31Z"/><path class="cls-4" d="M2.55,45.68,10.22,53l1.1,1.05A1.87,1.87,0,0,0,14,51.41L6.3,44.08,5.21,43a1.91,1.91,0,0,0-2.66,0,1.91,1.91,0,0,0,0,2.65Z"/><path class="cls-4" d="M95.85,45.25a34.07,34.07,0,0,0,7.76-7.49,6,6,0,0,0,1.2-3.21,1.88,1.88,0,1,0-3.75,0s0,.2,0,.22.12-.57,0-.32a.43.43,0,0,0,0,.12c-.06.23-.33.7,0,.11a10.83,10.83,0,0,1-.59,1l-.37.53.12-.16a1.71,1.71,0,0,1-.11.14l-.27.33c-.33.39-.67.76-1,1.13a46,46,0,0,1-4.21,3.8l-.73.58L94,42,94,42a2,2,0,0,0-.86,1.12,1.87,1.87,0,0,0,2.75,2.12Z"/><path class="cls-4" d="M103.26,76.7l3.09-5.93.44-.85a1.25,1.25,0,1,0-2.16-1.26l-3.08,5.93-.44.85a1.25,1.25,0,1,0,2.15,1.26Z"/><path class="cls-4" d="M111.52,31.17c.66,2.5,3.61,3.08,5.8,3.33a33.61,33.61,0,0,0,6.5,0c.49,0,1-.08,1.49-.14a1.92,1.92,0,0,0,1.87-1.87c0-.92-.83-2-1.87-1.88-1.21.15-2.42.23-3.63.27s-2.14,0-3.2,0l-.76-.05-.4-.05-.16,0c-.24,0,.49.09.11,0a10.8,10.8,0,0,1-1.37-.3l-.36-.11-.13-.05c-.29-.09.35.18.17.07a5.61,5.61,0,0,0-.54-.29c-.19-.09.35.34.09.06l-.07-.07c-.18-.14.12-.15.14.2,0-.06-.1-.15-.13-.2s.16.46.06.11a1.87,1.87,0,1,0-3.61,1Z"/><path class="cls-4" d="M100,71.84l5.36,2.78.76.4a1.25,1.25,0,0,0,1.26-2.16l-5.36-2.79-.76-.39A1.25,1.25,0,1,0,100,71.84Z"/><path class="cls-4" d="M136.81,63.93,139.9,58l.44-.84a1.25,1.25,0,0,0-2.16-1.26l-3.09,5.93-.44.84a1.28,1.28,0,0,0,.45,1.71,1.26,1.26,0,0,0,1.71-.44Z"/><path class="cls-4" d="M133.59,59.06l5.35,2.79.77.39A1.25,1.25,0,1,0,141,60.09l-5.36-2.79-.76-.4a1.25,1.25,0,1,0-1.26,2.16Z"/><path class="cls-5" d="M59.58,18.28c-1.17,2.53,5.2,9.18,7.74,8.13,1.7-.7,3-5.35.19-8.13S60.34,16.63,59.58,18.28Z"/><path class="cls-5" d="M97.71,60.43c.17-.85-2.28-2.78-4.78-2.18-1.6.39-3.12,1.79-2.86,2.53C90.55,62.17,97.46,61.75,97.71,60.43Z"/><path class="cls-6" d="M111.58,61.76c3.22-.25.48-15.75-2.32-18.32-1.77-1.61-1.68,6.15-3,4.39-.8-1.09-2.71,0-5.16-1.81C100.68,45.7,106.67,62.15,111.58,61.76Z"/><path class="cls-6" d="M127.61,56.27c3-.24.45-14.51-2.13-16.87-1.63-1.48-1.55,5.66-2.74,4-.73-1-2.49,0-4.75-1.66C117.59,41.48,123.09,56.62,127.61,56.27Z"/><path class="cls-7" d="M117.26,72c3.09.78,9.29-2.32,13.93-3.68,3-.86-1.88-3.64-7.22-2.71S114.26,71.27,117.26,72Z"/><path class="cls-8" d="M119.16,43.28c3.55,11.77,5.48,12.31,7.61,12.67,1.78.3,2.42,1.17.49-.41C126.55,55,118.1,39.77,119.16,43.28Z"/><path class="cls-8" d="M102.9,48c3.55,11.77,6,11.21,7.61,12.67,1.29,1.17,3.36,1.52,1.42-.06C111.22,60,101.84,44.45,102.9,48Z"/></g><g id="Capa_2" data-name="Capa 2"><g id="Capa_11" data-name="Capa 11"><path class="cls-4" d="M50,100.91c-1,2.59-2.79,8.36-6.62,6.55-2.41-1.14-4-3.75-5.14-6-3.37-6.61-4.64-14.23-5.64-21.51-1.1-8-1.72-16.15-3.16-24.15a59.61,59.61,0,0,0-3-11.16c-1.12-2.84-2.56-5.84-4.95-7.84C15,31.27,11.18,42,8.12,46c-.88,1.16,1.09,2.29,2,1.15,1.83-2.4,3.05-5.21,4.9-7.59.69-.9,1.68-2.09,2.94-2.08,1.55,0,2.91,1.6,3.76,2.74a29.54,29.54,0,0,1,4.27,10,101.32,101.32,0,0,1,2.26,12c1.1,8,1.73,16.08,3.14,24,1.18,6.64,2.86,14,6.95,19.54,1.67,2.25,4.23,4.66,7.27,4.24,3.9-.53,5.42-5.44,6.66-8.54.54-1.35-1.65-1.94-2.19-.6Z"/></g><g id="Capa_1" data-name="Capa 1"><path class="cls-9" d="M92.29,13.73a51.49,51.49,0,0,1,23.91,5.94C109,1.6,109.48,6.51,100.39,8.77a24.11,24.11,0,0,0-8.56,3.61A.75.75,0,0,0,92.29,13.73Z"/><path class="cls-10" d="M112.07,48.09c1.5,4,3.49,12.83,0,13.89-3.28,1-9.23-6.22-10.3-15-.42-3.43,2.09.5,4.5-.28,2.15-.71,1.1-6.24,3.23-3.52C111.28,45.37,111.17,45.68,112.07,48.09Z"/><path class="cls-10" d="M128.57,43.42c1.5,4,3.49,12.82,0,13.89-3.29,1-9.23-6.22-10.31-15-.42-3.42,2.1.51,4.5-.28,2.16-.7,1.1-6.23,3.24-3.51C127.77,40.7,127.67,41,128.57,43.42Z"/><path class="cls-10" d="M133.13,68.33c2.06-1.42-3.92-3.43-8.78-3-4.51.42-10.94,8.25-7.61,7.74C123.54,72.06,128.28,71.66,133.13,68.33Z"/><path class="cls-9" d="M72.21,17c3.51-1.36,3.85-3.71,1.66-13.78-1.45-6.63,9,4.47,15.48,9.55,1.2.93,4,.81,4,.81a52,52,0,0,1,48.24,64"/><path class="cls-9" d="M74.89,25.62a15.1,15.1,0,0,0-2.49-8.34l-.29.11a15,15,0,0,1,2.18,4.77,15.17,15.17,0,0,1,.6,4.23l-.1-.37a14.06,14.06,0,0,0-2.58-8.26c-2.75-4-7.52-5.19-12.53-6.58C34.64,4.25,44.47,18,44.47,26.39c0,3.88,1.56,12.28,12.5,13.15L48.2,36.12c-6.66,9.7-9.82,19.44-9.39,29.82,1.2,28.7,23.3,52,52,52A52,52,0,0,0,141.13,79.3c.16-.58.31-1.16.44-1.75-.13.59-.28,1.17-.44,1.75A52.08,52.08,0,0,1,131,98.71"/></g><g id="Capa_4" data-name="Capa 4"><path class="cls-3" d="M83.85,122.74C75,116.49,88.3,82.92,96.75,78.65c3.43-1.74,6.77-2,7.56-1.08,9.24,10.85-2.31,44.16-15.36,46A7,7,0,0,1,83.85,122.74Z"/><path class="cls-2" d="M83.1,99.92c-2.11,2.81-4,20.76.78,22.72,3.82,1.57,10.06-.89,13.19-6.08,13.11-21.71,11.65-34.94,11.17-35.06-.27-.07.47,6.33-5.14,20.91-3.89,10.1-8.18,14-12.91,15.61a8.31,8.31,0,0,1-5.8-.91C80.91,115,82.14,108.85,83.1,99.92Z"/><path class="cls-5" d="M92.55,93.36c.86.8,5.72-1.24,5.83-4.51,0-1.1-.45-2.69-1.34-2.85C95.08,85.65,91.49,92.38,92.55,93.36Z"/><path class="cls-9" d="M108.57,85.79a40.47,40.47,0,0,1-1.06,9.93c-.26,1.18-.58,2.39-1,3.63-.47,1.63-1,3.29-1.69,5-.42,1.07-.87,2.13-1.33,3.16a55,55,0,0,1-3.72,6.84,31.41,31.41,0,0,1-7.66,8.6c-2.16,1.54-4.28,2.26-6.12,2l-.24-.12-.2-.06a4.68,4.68,0,0,0-.84-.2,4.93,4.93,0,0,1-1.47-1A6.66,6.66,0,0,1,82.2,122a12.05,12.05,0,0,1-1.2-3.19,15.52,15.52,0,0,1-.32-1.91c0-.12,0-.26-.05-.4a27.68,27.68,0,0,1-.11-4.13A51.41,51.41,0,0,1,84.2,96.22q1-2.52,2.11-4.81s0,0,0,0c.26-.48.51-1,.77-1.46.09-.19.19-.37.29-.55,4.89-9,11.21-14.59,15.84-13.68a4.05,4.05,0,0,1,.64.17l.19.07a4.5,4.5,0,0,1,1.27.73C107.34,78.27,108.42,81.53,108.57,85.79Z"/><path class="cls-9" d="M148.74,79.05a40.31,40.31,0,0,1-2.07,9.78c-.38,1.15-.81,2.32-1.3,3.51q-1,2.37-2.19,4.77c-.53,1-1.08,2-1.65,3-3.92,6.7-8.66,11.81-12.88,14.21-2.31,1.31-4.48,1.82-6.29,1.34l-.23-.13-.18-.08a4.9,4.9,0,0,0-.81-.29,5,5,0,0,1-1.37-1.18,7.08,7.08,0,0,1-.93-1.54,9.85,9.85,0,0,1-.57-1.69,52,52,0,0,0,24.64-42.5,5.74,5.74,0,0,1,1.51.23,3.38,3.38,0,0,1,.63.23.76.76,0,0,1,.18.09,4.16,4.16,0,0,1,1.19.86C148.27,71.45,149,74.81,148.74,79.05Z"/><path class="cls-4" d="M72.45,64.23A53.32,53.32,0,0,1,83.86,58.8c3.91-1.31,8.52-2.72,12.69-2.3A6.74,6.74,0,0,1,101.38,59a5.39,5.39,0,0,1-.08,5.79c-2,3.46-5.92,5.55-9.48,7-4.64,1.88-9.5,3.31-14.27,4.85-1.53.49-.88,2.9.66,2.41,4.9-1.58,9.91-3,14.67-5,4-1.67,8.36-4.06,10.58-8s1.22-8.87-3-11-9.69-.81-14.11.38a56,56,0,0,0-15.16,6.63c-1.37.85-.11,3,1.26,2.16Z"/><path class="cls-4" d="M135.21,37c1.83-.59,3.67-1.16,5.54-1.67,1.71-.47,3.73-1.2,5.54-1,2.84.37,5,2.4,4.84,5.37-.15,2.78-2.2,5.13-4.07,7-1.5,1.51-3.55,2.26-5.47,3.22-1.44.71-.17,2.87,1.26,2.15,2-1,4.09-1.79,5.72-3.35,2.27-2.17,4.5-4.94,5-8.13a7.34,7.34,0,0,0-4.32-8c-2.42-1.06-4.67-.8-7.16-.22s-5,1.39-7.51,2.18c-1.52.49-.87,2.91.67,2.41Z"/></g></g></svg>