<svg xmlns="http://www.w3.org/2000/svg" viewBox="0 0 160.21 125.61"><defs><style>.cls-1{fill:#afcdce;stroke:#afcdce;}.cls-1,.cls-2,.cls-4,.cls-5,.cls-6,.cls-7,.cls-8{stroke-miterlimit:10;}.cls-1,.cls-2{stroke-width:0.75px;}.cls-2{fill:#8bc4c9;stroke:#8bc4c9;}.cls-3{fill:#1d1d1b;}.cls-4{fill:#d7d7d7;stroke:#d7d7d7;}.cls-4,.cls-5{stroke-width:0.75px;}.cls-5{fill:#582d29;stroke:#582d29;}.cls-6,.cls-7,.cls-8{fill:none;stroke:#1d1d1b;}.cls-6{stroke-width:2px;}.cls-7{stroke-width:2.03px;}.cls-8{stroke-width:1.82px;}</style></defs><g id="Capa_9" data-name="Capa 9"><path class="cls-1" d="M73.87,1.83c11.91,24.45-32.62,15.44-35,63.31-1.21,24.13,18.37,38.83,21,40.7,15,10.8,34.75,17.57,53.94,6.31,12.61-7.39,20.09-17.39,22-20.66a52.89,52.89,0,0,0,6.89-19.32,48.53,48.53,0,0,0-2.36-25.06,50.43,50.43,0,0,0-14.18-19.89c-20-17.07-31.17-10.59-35-13.14C81.26,7.44,72.4-1.19,73.87,1.83Z"/><path class="cls-2" d="M91.52,13.12c-.17-1.28,10.55-5.8,17.64-5.36,2.07.13,6.39,9.52,5.68,10.58s-4.49-1.82-13-3.58C95,13.33,91.63,13.94,91.52,13.12Z"/><path class="cls-2" d="M49.19,37.17C37.83,55.08,37.36,68.74,42.91,83.69c8.82,23.8,33.91,40,64.43,31.42,12.65-3.57,21.13-11.77,21.53-13.1.27-.9-8.83,7.92-22.73,9.62-16.23,2-40.14-5-50.8-25.4-11.52-22.08,2-47,2-47C53.33,38.64,49.86,36.1,49.19,37.17Z"/><path class="cls-1" d="M54.87,36.8A13.83,13.83,0,0,1,44.61,24.6c-.43-5.36-3.17-12,1.62-14.45,7.43-3.8,20.37,3.17,21.42,4,1.46,1.17,4.54,3.62,5,7.36C73.64,28.9,64.05,38.9,54.87,36.8Z"/><path class="cls-2" d="M45.29,10.8c-.27-.17-6,8.58,2.69,24.36,2.14,3.89,7.83,5.31,8.15,4.81s-7.51-10.65-8.65-14.72C45.55,18.28,45.54,11,45.29,10.8Z"/><path class="cls-2" d="M120.35,111.09c-6,3,8.52,13.64,23.56-14.22,8-14.85,2.13-32.16.61-26.53C141.74,80.58,132.23,105,120.35,111.09Z"/><path class="cls-2" d="M78.85,74.42c4-2.27-.12-15.41,3.08-24.73,1-3,1.69-3.42,7.19-5.74.71-.3-2-.52-3.8.27-1.51.68-4.82.11-7.5,13.68-.61,3.06-1.37,13,.49,14.2C79,72.51,78,74.9,78.85,74.42Z"/><path class="cls-2" d="M126.13,26c6.39,2.9,14.32,28.26,16.84,21.1.22-.64-2.13-13.36-4.26-18.39C134.35,18.43,120.77,23.59,126.13,26Z"/></g><g id="Capa_10" data-name="Capa 10"><path class="cls-3" d="M1.49,28.26,12.08,28l1.53,0a1.88,1.88,0,0,0,0-3.75L3,24.47l-1.53,0a1.88,1.88,0,0,0,0,3.75Z"/><path class="cls-3" d="M2.33,22.19,8.7,30.68l.91,1.21a1.92,1.92,0,0,0,2.56.67A1.89,1.89,0,0,0,12.84,30L6.47,21.51,5.56,20.3A1.92,1.92,0,0,0,3,19.63a1.89,1.89,0,0,0-.67,2.56Z"/><path class="cls-3" d="M103.62,76.7l3.09-5.93.44-.85A1.25,1.25,0,1,0,105,68.66l-3.09,5.93-.44.85a1.25,1.25,0,0,0,2.16,1.26Z"/><path class="cls-3" d="M100.4,71.84l5.35,2.78.77.4a1.25,1.25,0,0,0,1.26-2.16l-5.36-2.79-.76-.39a1.25,1.25,0,1,0-1.26,2.16Z"/><path class="cls-3" d="M137.17,63.93,140.26,58l.44-.84a1.25,1.25,0,0,0-2.16-1.26l-3.09,5.93-.44.84a1.25,1.25,0,0,0,2.16,1.27Z"/><path class="cls-3" d="M134,59.06l5.35,2.79.76.39a1.25,1.25,0,1,0,1.27-2.15L136,57.3l-.76-.4A1.25,1.25,0,1,0,134,59.06Z"/><path class="cls-4" d="M125,49.44c2.51-1.6,3.29-2.13,2.73-4.81-.44-2.16-4.15-6-6.41-6.42-1.22-.21-1.61,3.49-1.07,8.79C120.27,47.51,120.71,52.15,125,49.44Z"/><path class="cls-4" d="M109.1,56.41c2.51-1.6,3.29-2.13,2.73-4.81-.44-2.16-4.15-6-6.41-6.42-1.23-.21-1.61,3.49-1.07,8.79C104.4,54.47,104.84,59.12,109.1,56.41Z"/><path class="cls-5" d="M120.32,67.83c7.94.38,4.91-4.21,8.33-7.16,2.34-2-1.05,3.32-6.39,4.25S117.23,67.68,120.32,67.83Z"/></g><g id="Capa_2" data-name="Capa 2"><g id="Capa_1" data-name="Capa 1"><path class="cls-6" d="M92.65,13.73a51.49,51.49,0,0,1,23.91,5.94c-7.24-18.07-6.72-13.16-15.81-10.9a24.24,24.24,0,0,0-8.57,3.61A.75.75,0,0,0,92.65,13.73Z"/><path class="cls-6" d="M72.57,17c3.51-1.36,3.85-3.71,1.66-13.78-1.45-6.63,9,4.47,15.48,9.55,1.2.93,4,.81,4,.81a52,52,0,0,1,48.24,64"/><path class="cls-6" d="M75.25,25.62a15.1,15.1,0,0,0-2.49-8.34l-.29.11a15,15,0,0,1,2.18,4.77,15.17,15.17,0,0,1,.6,4.23l-.1-.37a14.06,14.06,0,0,0-2.58-8.26c-2.75-4-7.52-5.19-12.53-6.58C35,4.25,44.83,18,44.83,26.39c0,3.88,1.56,12.28,12.5,13.15l-8.77-3.42c-6.66,9.7-9.82,19.44-9.39,29.82,1.2,28.7,23.3,52,52,52A52,52,0,0,0,141.49,79.3c.16-.58.31-1.16.44-1.75-.13.59-.28,1.17-.44,1.75a52.08,52.08,0,0,1-10.1,19.41"/><path class="cls-3" d="M109.87,31.64c.63,1.56,1.42,3.3,3,4.08a5,5,0,0,0,4.31-.25c1.25-.55,2.44-1.25,3.7-1.81-.43.19.19-.08.27-.11l.61-.21a11.82,11.82,0,0,1,1.29-.37l.7-.14c.22,0,.23,0,0,0l.37,0a11.42,11.42,0,0,1,1.55,0,1.88,1.88,0,1,0,0-3.75,14.47,14.47,0,0,0-5.41.89,40.66,40.66,0,0,0-4.07,1.9l-.74.36c-.3.15.43-.15-.06,0l-.29.11-.37.1c-.41.12.16,0,.09,0s-.21,0-.3,0c-.47,0,.37.07.08,0a.92.92,0,0,1-.25-.08c.31.14.38.17.21.08a.65.65,0,0,1-.16-.09c-.25-.19.31.35,0,0a3.44,3.44,0,0,0-.27-.27l.07.09-.15-.21c-.07-.12-.15-.24-.21-.36a5.93,5.93,0,0,1-.29-.56l-.15-.31c.07.17.06.14,0-.07a1.94,1.94,0,0,0-2.31-1.31,1.89,1.89,0,0,0-1.31,2.31Z"/><path class="cls-3" d="M102.17,35.47l.31.39c-.19-.25,0,0,.08.1a7.62,7.62,0,0,1,.48.77s.16.3.15.3-.15-.45,0-.06c0,.09,0,.18.08.27s0,.09,0,.13,0-.39,0-.25a1.92,1.92,0,0,0,0,.24c0,.3.06-.25,0-.19a1.42,1.42,0,0,0,0,.22c-.06.31.19-.32,0-.14l-.13.24c-.15.28.17-.19.1-.12s-.25.27-.39.4-.28.25-.42.37.33-.24.06,0l-.3.22-1.22.86a25.71,25.71,0,0,0-3,2.33,14.64,14.64,0,0,0-3,4,1.93,1.93,0,0,0,.68,2.57,1.89,1.89,0,0,0,2.56-.68,12.73,12.73,0,0,1,1.24-2c-.19.26,0,0,.1-.11l.36-.41c.23-.25.48-.5.73-.74s.45-.41.69-.61l.37-.3c.34-.27-.15.1.1-.08l1.42-1c1.72-1.19,3.86-2.64,3.69-5a7.64,7.64,0,0,0-2.15-4.26,1.87,1.87,0,0,0-2.65,2.65Z"/><path class="cls-7" d="M110.57,56.78c-3.29,1-5.55,6-6.63-2.83-.42-3.42-.83-8.18,1.58-9,2.15-.7,4.26,2.27,6.15,5.17C113.39,52.78,114,55.71,110.57,56.78Z"/><path class="cls-8" d="M126.28,48.85c-3,.86-5.16,5.35-6.82-2.23-.53-2.42-.79-8.77,1.42-9.44,2-.59,5.34,3.43,7.11,6C129.59,45.45,129.45,48,126.28,48.85Z"/><path class="cls-7" d="M128.65,60.67c.92-2.33-1.21,1-5.42,3.61-3.87,2.37-9.74,1.59-6.49,2.48C125.61,69.2,125.66,68.18,128.65,60.67Z"/></g><g id="Capa_4" data-name="Capa 4"><path class="cls-1" d="M84.21,122.74c-8.85-6.25,4.44-39.82,12.89-44.09,3.44-1.74,6.78-2,7.56-1.08,9.25,10.85-2.31,44.16-15.35,46A7,7,0,0,1,84.21,122.74Z"/><path class="cls-2" d="M83.46,99.92c-2.11,2.81-4,20.76.78,22.72,3.82,1.57,10.06-.89,13.19-6.08,13.11-21.71,11.65-34.94,11.17-35.06-.28-.07.46,6.33-5.14,20.91-3.89,10.1-8.18,14-12.91,15.61a8.31,8.31,0,0,1-5.8-.91C81.27,115,82.49,108.85,83.46,99.92Z"/><path class="cls-6" d="M108.93,85.79a40.47,40.47,0,0,1-1.06,9.93c-.27,1.18-.59,2.39-1,3.63-.48,1.63-1,3.29-1.69,5-.42,1.07-.88,2.13-1.33,3.16a55,55,0,0,1-3.72,6.84,31.43,31.43,0,0,1-7.67,8.6c-2.16,1.54-4.27,2.26-6.12,2a1.79,1.79,0,0,0-.24-.12L86,124.7a4.89,4.89,0,0,0-.84-.2,5.1,5.1,0,0,1-1.48-1A7,7,0,0,1,82.56,122a12.05,12.05,0,0,1-1.2-3.19,17.63,17.63,0,0,1-.33-1.91c0-.12,0-.26,0-.4a27.68,27.68,0,0,1-.11-4.13,51.41,51.41,0,0,1,3.68-16.18q1-2.52,2.11-4.81s0,0,0,0c.26-.48.52-1,.78-1.46.09-.19.19-.37.29-.55,4.88-9,11.21-14.59,15.83-13.68a3.89,3.89,0,0,1,.65.17l.19.07a4.5,4.5,0,0,1,1.27.73C107.69,78.27,108.78,81.53,108.93,85.79Z"/><path class="cls-6" d="M149.1,79.05A40.31,40.31,0,0,1,147,88.83c-.38,1.15-.81,2.32-1.3,3.51q-1,2.37-2.19,4.77c-.53,1-1.08,2-1.65,3-3.92,6.7-8.66,11.81-12.88,14.21-2.31,1.31-4.48,1.82-6.29,1.34l-.23-.13-.18-.08a4.9,4.9,0,0,0-.81-.29,5,5,0,0,1-1.37-1.18,7.08,7.08,0,0,1-.93-1.54,9.85,9.85,0,0,1-.57-1.69,52,52,0,0,0,24.64-42.5,5.74,5.74,0,0,1,1.51.23,3.38,3.38,0,0,1,.63.23.76.76,0,0,1,.18.09,4.16,4.16,0,0,1,1.19.86C148.63,71.45,149.37,74.81,149.1,79.05Z"/><path class="cls-3" d="M79.87,73.85a53.62,53.62,0,0,1-1.36-13.18A51.45,51.45,0,0,1,79.08,54a18.11,18.11,0,0,1,1.63-5.8,6.39,6.39,0,0,1,4-3.37,5.43,5.43,0,0,1,5.11,2c2.75,3,3.39,7.63,3.58,11.52.24,5,0,10-.1,15a1.25,1.25,0,0,0,2.5,0c.11-5.19.39-10.44.06-15.63-.28-4.44-1.22-9.42-4.4-12.76a7.59,7.59,0,0,0-10.94-.46c-3.43,3.2-3.92,8.59-4.28,13a55.68,55.68,0,0,0,1.27,17.12c.36,1.57,2.77.91,2.41-.66Z"/><path class="cls-3" d="M125.93,25.87c1.19-2.56,4.65-3,7-1.77,2.92,1.56,4.52,5,5.47,8a59.77,59.77,0,0,1,1.85,9.65c.46,3.27,1,6.53,1.43,9.81.2,1.57,2.7,1.59,2.5,0-.48-3.89-1.15-7.76-1.68-11.64a40.49,40.49,0,0,0-2.88-11.58c-1.5-3.27-4.05-6.55-7.78-7.29-3.08-.61-6.7.6-8.07,3.54-.68,1.44,1.47,2.72,2.16,1.26Z"/><path class="cls-3" d="M50.66,99.12a21.11,21.11,0,0,1-2.79,5.6c-1.25,1.55-2.89,1.6-4.5.58-2.6-1.66-4.18-4.82-5.36-7.55-3.44-8-4.47-16.86-5.47-25.4-1-8.75-1.72-17.74-4.26-26.22-.85-2.83-1.75-6.11-3.86-8.3a27.57,27.57,0,0,0-3-2.5c-1-.79-2.23-1.85-3.57-1.83-1.77,0-3.37,1.09-5.17,1-3.08-.07-4.47-3.54-5.27-6-.46-1.38-2.65-.79-2.19.6.9,2.76,2.26,5.93,5.11,7.17A8.31,8.31,0,0,0,16,36.25a4.37,4.37,0,0,1,2.13-.4c1.29.35,2.52,1.78,3.54,2.6,2.62,2.11,3.52,5.38,4.44,8.5,2.72,9.21,3.3,19,4.49,28.45C31.72,84,33,93.12,37,101c1.53,3,3.94,6.55,7.47,7.25,4.92,1,6.93-4.92,8.35-8.47.54-1.36-1.65-2-2.19-.61Z"/></g></g></svg>