<svg xmlns="http://www.w3.org/2000/svg" viewBox="0 0 160.21 125.61"><defs><style>.cls-1{fill:#8bc4c9;stroke:#8bc4c9;}.cls-1,.cls-2,.cls-4,.cls-5,.cls-6,.cls-7,.cls-8,.cls-9{stroke-miterlimit:10;}.cls-1,.cls-2{stroke-width:0.75px;}.cls-2{fill:#75bcad;stroke:#75bcad;}.cls-3{fill:#1d1d1b;}.cls-4{fill:#d7d7d7;stroke:#d7d7d7;}.cls-4,.cls-5{stroke-width:0.75px;}.cls-5{fill:#582d29;stroke:#582d29;}.cls-6,.cls-7{fill:#81bcbc;stroke:#81bcbc;}.cls-6{stroke-width:1.11px;}.cls-7{stroke-width:1.03px;}.cls-8,.cls-9{fill:none;stroke:#1d1d1b;}.cls-8{stroke-width:2px;}.cls-9{stroke-width:2.03px;}</style></defs><g id="Capa_9" data-name="Capa 9"><path class="cls-1" d="M74.66,2C86.57,26.48,42,17.47,39.63,65.33,38.42,89.47,58,104.16,60.59,106c15,10.81,34.75,17.58,53.94,6.32C127.14,105,134.62,95,136.58,91.69a53,53,0,0,0,6.89-19.33,48.53,48.53,0,0,0-2.37-25,50.25,50.25,0,0,0-14.17-19.9C107,10.35,95.76,16.83,92,14.27,82.05,7.64,73.19-1,74.66,2Z"/><path class="cls-2" d="M72.81,69.39C77.4,68.94,78.94,55.25,85.65,48c2.16-2.33,2.93-2.45,8.9-2.33.77,0-1.65-1.31-3.59-1.3-1.66,0-4.45-1.85-12.4,9.47C76.77,56.42,72,65.22,73.25,67.05,73.68,67.69,71.83,69.48,72.81,69.39Z"/><path class="cls-2" d="M49.78,36.39C38.42,54.31,38,68,43.5,82.92c8.82,23.79,33.92,40,64.44,31.41,12.65-3.56,21.12-11.76,21.52-13.1.27-.9-8.83,7.93-22.72,9.63-16.24,2-40.15-5-50.81-25.4-11.51-22.09,2-47,2-47C53.93,37.86,50.46,35.33,49.78,36.39Z"/><path class="cls-2" d="M91.92,12.54c-.17-1.28,10.55-5.8,17.64-5.36,2.07.13,6.39,9.52,5.68,10.58s-4.49-1.82-13-3.58C95.37,12.75,92,13.36,91.92,12.54Z"/><path class="cls-1" d="M55.08,37.76A13.82,13.82,0,0,1,44.82,25.57c-.43-5.36-3.17-12,1.61-14.45,7.44-3.8,20.38,3.17,21.42,4,1.47,1.16,4.55,3.62,5,7.35C73.85,29.87,64.26,39.87,55.08,37.76Z"/><path class="cls-2" d="M45.69,10.21c-.27-.16-6,8.59,2.69,24.37,2.14,3.89,7.84,5.31,8.15,4.81S49,28.74,47.89,24.67C46,17.7,46,10.37,45.69,10.21Z"/><path class="cls-2" d="M120.76,110.5c-6,3.06,8.51,13.65,23.56-14.21,8-14.85,2.13-32.16.6-26.53C142.15,80,132.64,104.44,120.76,110.5Z"/><path class="cls-2" d="M132.73,32.6c1.54,3.29,9.29,21.68,11.8,14.52.23-.64,8.82-19.28,4.88-23.74C142,15,130.22,27.28,132.73,32.6Z"/></g><g id="Capa_10" data-name="Capa 10"><path class="cls-3" d="M4.75,44.39l7.08-7.91,1-1.12a1.88,1.88,0,1,0-2.66-2.65L3.11,40.62l-1,1.12a1.91,1.91,0,0,0,0,2.65,1.9,1.9,0,0,0,2.65,0Z"/><path class="cls-3" d="M1.38,39.63l10.53,1.19,1.52.18a1.89,1.89,0,0,0,1.87-1.88,1.93,1.93,0,0,0-1.87-1.87L2.9,36.05l-1.52-.17A1.87,1.87,0,0,0-.49,37.75a1.93,1.93,0,0,0,1.87,1.88Z"/><path class="cls-3" d="M99.12,46.34c2.13-2.24,4.22-4.52,6.23-6.87.72-.84,1.42-1.7,2.09-2.59a1.88,1.88,0,0,0-.67-2.56,1.94,1.94,0,0,0-2.57.67c0,.07-.11.14-.16.22s.3-.39.09-.12l-.42.53-.87,1c-.67.78-1.35,1.55-2,2.31-1.18,1.33-2.39,2.64-3.6,3.93l-.74.79a1.87,1.87,0,0,0,2.65,2.65Z"/><path class="cls-3" d="M104,76.93,107.05,71l.44-.84a1.25,1.25,0,0,0-2.16-1.26l-3.09,5.93-.44.84A1.25,1.25,0,0,0,104,76.93Z"/><path class="cls-3" d="M113.13,34a56,56,0,0,0,12.87.57,1.92,1.92,0,0,0,1.88-1.88A1.9,1.9,0,0,0,126,30.84c-1.42.07-2.84.09-4.26.09s-2.62,0-3.93-.12c-.66,0-1.32-.09-2-.16l-.52-.06s-.61-.08-.19,0l-1-.16a1.87,1.87,0,1,0-1,3.61Z"/><path class="cls-3" d="M100.74,72.06l5.35,2.79.76.39a1.25,1.25,0,1,0,1.26-2.15l-5.35-2.79-.76-.4a1.25,1.25,0,0,0-1.26,2.16Z"/><path class="cls-3" d="M137.51,64.15l3.09-5.93.44-.85a1.25,1.25,0,0,0-2.16-1.26l-3.09,5.94-.44.84a1.25,1.25,0,1,0,2.16,1.26Z"/><path class="cls-3" d="M134.28,59.29l5.36,2.78.76.4a1.25,1.25,0,0,0,1.26-2.16l-5.35-2.79-.76-.39a1.25,1.25,0,1,0-1.27,2.16Z"/><path class="cls-4" d="M112,61.76c3.22-.25,0-15.33-2.32-18.32-1.68-2.13-4.65-2.89-5.94-4.64-.79-1.09-2,1.06-1.74,6.19C102,45.54,107,62.15,112,61.76Z"/><path class="cls-4" d="M128.47,55.73c3-.23,0-14-2.62-16.33-1.63-1.48-4.16-6-6.42-6.41-1.22-.21-1.61,3.48-1.06,8.79C118.42,42.28,123.94,56.09,128.47,55.73Z"/><path class="cls-5" d="M117.63,72c11,6.84,12.77-.51,16.19-3.47,2.35-2-4.14-3.85-9.48-2.92S115,70.39,117.63,72Z"/><path class="cls-6" d="M118.26,34.39c3.42,20.15,5.82,20.91,8.49,21.33,2.22.36,2.95,1.82.65-.76C126.55,54,117.24,28.39,118.26,34.39Z"/><path class="cls-7" d="M102.57,40.5c3.25,18.56,6.22,17.47,8,19.67,1.43,1.76,3.85,2.17,1.69-.21C111.46,59.09,101.6,35,102.57,40.5Z"/></g><g id="Capa_2" data-name="Capa 2"><g id="Capa_1" data-name="Capa 1"><path class="cls-8" d="M93,14a51.59,51.59,0,0,1,23.91,5.95C109.66,1.83,110.18,6.73,101.09,9a24.06,24.06,0,0,0-8.57,3.61A.75.75,0,0,0,93,14Z"/><path class="cls-9" d="M112.77,48.32c1.5,4,3.48,12.82,0,13.89s-9.23-6.22-10.31-15c-.42-3.42-1.22-7.61,1.19-8.39,2.16-.71,4.66,1.7,6.55,4.6A16.25,16.25,0,0,1,112.77,48.32Z"/><path class="cls-9" d="M128.51,42.51c1.5,4,3.49,12.83,0,13.89-3.29,1-9.23-6.22-10.31-15-.42-3.43-1.21-7.62,1.19-8.4,2.16-.7,4.66,1.7,6.55,4.6A16.37,16.37,0,0,1,128.51,42.51Z"/><path class="cls-9" d="M133.82,68.55c1.38-2.09-3.91-3.42-8.77-3-4.52.42-10.62,6.21-7.62,7.74C125.63,77.51,129.37,75.31,133.82,68.55Z"/><path class="cls-8" d="M72.9,17.22c3.51-1.36,3.85-3.71,1.66-13.78C73.11-3.19,83.52,7.91,90,13c1.2.93,4,.81,4,.81a52,52,0,0,1,48.24,64"/><path class="cls-8" d="M75.58,25.85a15.1,15.1,0,0,0-2.49-8.34l-.29.11A15,15,0,0,1,75,22.39a15.17,15.17,0,0,1,.6,4.23l-.1-.37A14.06,14.06,0,0,0,72.9,18c-2.75-4-7.52-5.19-12.53-6.58-25-6.93-15.21,6.81-15.21,15.21,0,3.88,1.56,12.28,12.5,13.15l-8.77-3.42c-6.66,9.7-9.82,19.44-9.39,29.82,1.2,28.7,23.3,52,52,52a52,52,0,0,0,50.29-38.67c.16-.58.31-1.16.44-1.75-.13.59-.28,1.17-.44,1.75a52.08,52.08,0,0,1-10.1,19.41"/></g><g id="Capa_4" data-name="Capa 4"><path class="cls-3" d="M51.43,100.88c-1.17,2.91-3.06,8.76-7.19,6.24-2.56-1.57-4.13-4.61-5.31-7.26-3.45-7.75-4.52-16.47-5.52-24.81-1-8.64-1.71-17.45-4-25.88a30.56,30.56,0,0,0-4.6-10.42c-1.59-2.1-4.65-4.79-7.42-3.08-1.87,1.16-2.9,3.48-4.17,5.19-.42.57-1.13,1.66-1.91,1.76s-1.59-1.37-2-2c-.7-1.27-2.66-.13-1.95,1.15,1,1.88,2.85,4,5.2,2.77,1.86-1,3-3.12,4.11-4.77a7.29,7.29,0,0,1,1.74-2.08c1.33-.87,3,.68,3.92,1.66,2.75,3.06,4.07,7.41,5.07,11.31,2.34,9.12,2.92,18.6,4.13,27.91,1.09,8.34,2.4,17.13,6.47,24.62,1.55,2.85,4,6.23,7.39,6.81,4.82.82,6.78-5,8.17-8.51.55-1.35-1.65-1.94-2.18-.6Z"/><path class="cls-1" d="M84.55,123C75.7,116.71,89,83.14,97.44,78.88c3.44-1.74,6.77-2,7.56-1.08,9.25,10.85-2.31,44.15-15.36,46A6.93,6.93,0,0,1,84.55,123Z"/><path class="cls-2" d="M83.8,100.14c-2.11,2.82-4,20.77.77,22.73,3.83,1.57,10.06-.9,13.19-6.08,13.11-21.71,11.66-34.94,11.18-35.06-.28-.07.46,6.32-5.15,20.9-3.88,10.11-8.18,14-12.91,15.62a8.37,8.37,0,0,1-5.79-.92C81.61,115.2,82.83,109.08,83.8,100.14Z"/><path class="cls-8" d="M109.27,86A40,40,0,0,1,108.2,96c-.26,1.18-.58,2.38-.94,3.62-.48,1.64-1,3.29-1.69,5-.43,1.07-.88,2.13-1.34,3.15a53.7,53.7,0,0,1-3.71,6.84,31.14,31.14,0,0,1-7.67,8.6c-2.16,1.54-4.27,2.27-6.12,2l-.24-.11-.19-.06a6.07,6.07,0,0,0-.84-.21,4.82,4.82,0,0,1-1.48-1,7.24,7.24,0,0,1-1.08-1.43,12.26,12.26,0,0,1-1.2-3.2,15,15,0,0,1-.33-1.9c0-.13,0-.27,0-.41a25.08,25.08,0,0,1-.11-4.12A51.35,51.35,0,0,1,84.9,96.45c.65-1.68,1.35-3.29,2.1-4.81,0,0,0,0,0,0,.26-.49.52-1,.78-1.47a5.61,5.61,0,0,1,.29-.54c4.88-9,11.21-14.6,15.83-13.68a2.86,2.86,0,0,1,.64.16l.2.07a4.35,4.35,0,0,1,1.26.74C108,78.5,109.11,81.76,109.27,86Z"/><path class="cls-8" d="M149.44,79.27a40.31,40.31,0,0,1-2.07,9.78c-.38,1.15-.81,2.32-1.3,3.51q-1,2.37-2.19,4.77c-.53,1-1.08,2-1.65,3-3.92,6.7-8.66,11.81-12.88,14.21-2.31,1.31-4.48,1.82-6.29,1.34l-.23-.13-.18-.08a4.9,4.9,0,0,0-.81-.29,5,5,0,0,1-1.37-1.18,7.08,7.08,0,0,1-.93-1.54A9.85,9.85,0,0,1,119,111a52,52,0,0,0,24.64-42.5,5.74,5.74,0,0,1,1.51.23,3.38,3.38,0,0,1,.63.23.76.76,0,0,1,.18.09,4.16,4.16,0,0,1,1.19.86C149,71.67,149.71,75,149.44,79.27Z"/><path class="cls-3" d="M73.56,69.1a54,54,0,0,1,3.73-11.84c1.62-3.59,3.58-7.47,6.32-10.34S91,43,93.2,47.16c2,3.76.63,8.71-.73,12.43-1.77,4.83-4.15,9.48-6.35,14.13-.68,1.45,1.48,2.72,2.16,1.26,2.22-4.71,4.6-9.42,6.44-14.3,1.63-4.32,2.88-9.61,1-14a7.57,7.57,0,0,0-10.48-4c-4.1,1.89-6.63,6.56-8.64,10.37a56.23,56.23,0,0,0-5.43,15.41c-.3,1.57,2.11,2.24,2.41.66Z"/><path class="cls-3" d="M133.38,31c1.26-1.93,2.57-3.83,4-5.67,1.59-2.1,3.21-4.22,6-4.47,4.21-.37,5.76,4.18,5.69,7.6-.08,4.16-1.7,8.12-3.38,11.86s-3.22,7.43-4.93,11.1c-.68,1.44,1.47,2.71,2.15,1.26,1.82-3.87,3.49-7.82,5.22-11.73,1.84-4.14,3.53-8.53,3.44-13.14-.08-3.88-1.89-8.29-6.05-9.27-3.39-.8-6.55.88-8.68,3.41a79.85,79.85,0,0,0-5.63,7.79c-.89,1.35,1.28,2.6,2.16,1.26Z"/></g></g></svg>