<svg xmlns="http://www.w3.org/2000/svg" viewBox="0 0 160.21 125.61"><defs><style>.cls-1,.cls-11{fill:#75bcad;stroke:#75bcad;}.cls-1,.cls-10,.cls-11,.cls-12,.cls-13,.cls-2,.cls-4,.cls-5,.cls-6,.cls-7,.cls-8,.cls-9{stroke-miterlimit:10;}.cls-1,.cls-2{stroke-width:0.75px;}.cls-12,.cls-2{fill:#5fb390;stroke:#5fb390;}.cls-3{fill:#1d1d1b;}.cls-10,.cls-4{fill:none;stroke:#1d1d1b;}.cls-4{stroke-width:2px;}.cls-13,.cls-5,.cls-6{fill:#8bc4c9;stroke:#8bc4c9;}.cls-5{stroke-width:0.48px;}.cls-6,.cls-7,.cls-8,.cls-9{stroke-width:0.75px;}.cls-7{fill:#d7d7d7;stroke:#d7d7d7;}.cls-8{fill:#582d29;stroke:#582d29;}.cls-9{fill:#54a6a8;stroke:#54a6a8;}.cls-10{stroke-width:2.03px;}.cls-11,.cls-12{stroke-width:0.76px;}.cls-13{stroke-width:0.75px;}</style></defs><g id="Capa_9" data-name="Capa 9"><path class="cls-1" d="M74.24,2.32C86,27.07,44.75,15.74,39.75,64,37.23,88.35,58,104.11,60.56,106c14.73,10.93,34.16,11.32,53,6.39,14-3.66,19.76-17.6,21.68-20.9A54.5,54.5,0,0,0,142,71.94a50.44,50.44,0,0,0-2.32-25.36c-.83-2.25-3.67-13.08-13.93-20.13C101.33,9.68,95.14,15.74,91.4,13.16,81.66,6.45,72.79-.73,74.24,2.32Z"/><path class="cls-2" d="M70.24,67c4.6-.35,6.43-14,13.28-21.09,2.2-2.28,3-2.38,8.94-2.15.77,0-1.62-1.34-3.56-1.36-1.65,0-4.41-2-12.59,9.2-1.85,2.51-6.76,11.22-5.58,13.07C71.15,65.31,69.26,67.06,70.24,67Z"/><path class="cls-2" d="M103.3,122.61c-5.4,3.85,13.23,3.55,24.58-6.9.5-.46,1.48-1-.9-6.45S114.08,114.94,103.3,122.61Z"/><path class="cls-2" d="M144.38,57.67c2.06,11-6.47,19.41,7,16,.66-.17,10.66-8.06,6.58-12.39C153.69,56.74,144.38,57.67,144.38,57.67Z"/><path class="cls-3" d="M49.19,98c-.8,2-1.58,4.46-3.15,6s-3.43.84-4.89-.39c-2.91-2.46-4.52-6.43-5.73-9.94-3.25-9.4-4-19.48-5.15-29.28-.59-5-1.22-9.9-2.28-14.77-1-4.38-2.23-8.93-4.69-12.72-1.53-2.36-5.06-6.2-8.21-4.28-1.63,1-2.15,3.21-2.48,4.94-.43,2.24-.47,4.58-1.08,6.77a3.26,3.26,0,0,1-.36.91c-.14.22.11-.12.14,0s0,0-.19-.11-.29-.22-.44-.35a11.31,11.31,0,0,1-1.45-1.71c-.85-1.17-2.82,0-2,1.14,1,1.36,2.91,4.15,5,3,1.51-.81,1.7-3.12,1.91-4.6a34.64,34.64,0,0,1,1.18-6.58c.22-.61.55-1.43,1.14-1.61,1.81-.54,3.83,2,4.68,3.26,2.76,4.07,4,9.11,4.95,13.86,1.06,5.32,1.68,10.71,2.3,16.09,1.15,9.94,2.06,20.27,6,29.58,1.49,3.52,3.65,7.72,7.34,9.37,5.54,2.47,8.07-4,9.67-8,.54-1.35-1.65-1.94-2.19-.6Z"/><path class="cls-4" d="M129.32,113.31c0,3-2.88,5.79-7.53,7.8s-11.32,3.3-18.6,3.3a59.34,59.34,0,0,1-7.7-.49,40.18,40.18,0,0,0,10-2.68c4.63-2,7.51-4.74,7.53-7.77a52,52,0,0,0,11.07-6.8C127.39,108.52,129.32,110.82,129.32,113.31Z"/><path class="cls-4" d="M113.06,113.47c0,3-2.9,5.77-7.53,7.77a40.18,40.18,0,0,1-10,2.68,56.87,56.87,0,0,1-8.56.62c-14.43,0-26.13-5-26.13-11.1a6.16,6.16,0,0,1,2-4.29A50.32,50.32,0,0,0,78,116.24a50.87,50.87,0,0,0,13.64,1.84A51.79,51.79,0,0,0,113.06,113.47Z"/><path class="cls-3" d="M71.18,66.53a53.49,53.49,0,0,1,4.6-11.48c1.89-3.48,4.14-7.2,7.12-9.86A7.5,7.5,0,0,1,88.32,43a5,5,0,0,1,4.11,3.32c1.57,3.93-.11,8.75-1.79,12.37-2.16,4.64-4.84,9.08-7.36,13.54a1.25,1.25,0,0,0,2.16,1.26c2.59-4.58,5.37-9.15,7.54-14,1.88-4.15,3.55-9.39,1.86-13.89a7.57,7.57,0,0,0-10.22-4.49c-4.22,1.7-7.06,6.11-9.37,9.82a56,56,0,0,0-6.48,14.87,1.25,1.25,0,0,0,2.41.66Z"/><path class="cls-3" d="M143.4,76.08a24.25,24.25,0,0,0,9.68-2c3.13-1.4,6.26-3.29,7.41-6.71s-.65-6.86-3.52-8.78c-1.77-1.17-4.18-1.47-6.21-1.87-2.43-.47-4.87-.85-7.31-1.21a1.29,1.29,0,0,0-1.54.88,1.24,1.24,0,0,0,.87,1.53,73.79,73.79,0,0,1,11.62,2.23,4.58,4.58,0,0,1,.79.29,6.27,6.27,0,0,1,1.44,1.07,5.12,5.12,0,0,1,1.73,3.6c0,3.36-3.15,5.16-5.78,6.45a21.26,21.26,0,0,1-9.18,2,1.25,1.25,0,0,0,0,2.5Z"/><path class="cls-2" d="M92.82,12.81c-.17-1.28,10.55-5.8,17.64-5.36,2.07.13,6.39,9.52,5.68,10.58s-4.49-1.82-13-3.58C96.27,13,92.93,13.63,92.82,12.81Z"/><path class="cls-1" d="M55.59,37.45A13.82,13.82,0,0,1,45.33,25.26c-.43-5.36-3.17-12,1.62-14.45,7.43-3.8,20.37,3.16,21.42,4,1.46,1.16,4.55,3.62,5,7.35C74.36,29.56,64.77,39.56,55.59,37.45Z"/><path class="cls-2" d="M46.21,9.78c-.28-.17-6,8.58,2.68,24.36C51,38,56.73,39.45,57.05,39S49.53,28.3,48.4,24.23C46.46,17.26,46.46,9.93,46.21,9.78Z"/><path class="cls-2" d="M49.85,36.66C38.48,54.58,38,68.24,43.56,83.19,52.39,107,77.48,123.2,108,114.6c12.65-3.56,21.12-11.76,21.52-13.1.27-.9-8.83,7.93-22.72,9.63-16.24,2-40.15-5-50.8-25.4-11.52-22.09,2-47,2-47C54,38.13,50.52,35.6,49.85,36.66Z"/></g><g id="Capa_10" data-name="Capa 10"><path class="cls-5" d="M90.77,46.2c.58-.08,1.74,1.49,1.2,3-.35,1-1.36,1.9-1.85,1.72C89.22,50.61,89.88,46.33,90.77,46.2Z"/><path class="cls-3" d="M8.19,48.36,9.24,37.81l.15-1.52a1.88,1.88,0,0,0-1.87-1.87,1.94,1.94,0,0,0-1.88,1.87l-1,10.55-.15,1.52a1.88,1.88,0,0,0,1.88,1.87,1.92,1.92,0,0,0,1.87-1.87Z"/><path class="cls-3" d="M2.48,46.89l9.23-5.26,1.3-.74a1.89,1.89,0,0,0,.68-2.56,1.92,1.92,0,0,0-2.57-.67L1.89,42.91l-1.3.74a1.9,1.9,0,0,0-.68,2.57,1.92,1.92,0,0,0,2.57.67Z"/><path class="cls-3" d="M96.39,45.17a34.07,34.07,0,0,0,7.76-7.49,6,6,0,0,0,1.2-3.21,1.88,1.88,0,1,0-3.75,0s0,.2,0,.22.12-.57,0-.32c0,0,0,.08,0,.12-.06.23-.33.7,0,.11-.19.35-.36.71-.58,1-.13.18-.26.35-.38.53l.12-.16s-.07.1-.11.14l-.27.33c-.33.39-.67.76-1,1.13a46,46,0,0,1-4.21,3.8l-.73.58c-.28.23.46-.35.17-.13l-.08.06a2.09,2.09,0,0,0-.86,1.12,1.93,1.93,0,0,0,.19,1.45,1.89,1.89,0,0,0,2.56.67Z"/><path class="cls-3" d="M103.81,76.62l3.08-5.93.44-.85a1.25,1.25,0,1,0-2.15-1.26l-3.09,5.93-.44.85a1.25,1.25,0,1,0,2.16,1.26Z"/><path class="cls-3" d="M112.06,31.08c.66,2.51,3.61,3.09,5.81,3.34a33.51,33.51,0,0,0,6.49,0c.5,0,1-.08,1.49-.14a1.93,1.93,0,0,0,1.88-1.87c0-.92-.84-2-1.88-1.88-1.2.15-2.42.22-3.63.27s-2.14,0-3.2,0l-.76-.05-.39,0-.17,0c-.24,0,.5.08.11,0a10.8,10.8,0,0,1-1.37-.3l-.36-.11-.13-.05c-.28-.09.35.18.17.07s-.36-.21-.53-.29.35.34.09.06L115.6,30c-.18-.14.12-.15.14.2,0-.06-.1-.15-.13-.2s.16.46.06.11a1.87,1.87,0,0,0-3.61,1Z"/><path class="cls-3" d="M100.58,71.76l5.36,2.78.76.4A1.25,1.25,0,0,0,108,72.78L102.61,70l-.77-.39a1.25,1.25,0,1,0-1.26,2.16Z"/><path class="cls-3" d="M137.36,63.85l3.08-5.94.44-.84a1.25,1.25,0,0,0-2.16-1.26l-3.08,5.93-.44.84a1.25,1.25,0,0,0,2.16,1.27Z"/><path class="cls-3" d="M134.13,59l5.36,2.79.76.39A1.25,1.25,0,1,0,141.51,60l-5.36-2.79-.76-.4A1.25,1.25,0,1,0,134.13,59Z"/><path class="cls-6" d="M60.46,18c-1.16,2.53,5.2,9.18,7.75,8.13,1.69-.7,3-5.35.19-8.13S61.22,16.32,60.46,18Z"/><path class="cls-7" d="M112.27,61.26c3.22-.25.48-15.76-2.32-18.32-1.77-1.62-1.68,6.14-3,4.38-.8-1.09-2.71,0-5.16-1.8C101.38,45.19,107.36,61.65,112.27,61.26Z"/><path class="cls-7" d="M128.69,56c3-.23.45-14.5-2.14-16.86-1.62-1.49-1.54,5.65-2.73,4-.73-1-2.49,0-4.75-1.66C118.66,41.23,124.17,56.38,128.69,56Z"/><path class="cls-8" d="M118.33,72.29c3.1.78,10.2,5,13.94-3.68,1.23-2.84-1.88-3.64-7.23-2.71S115.33,71.54,118.33,72.29Z"/><path class="cls-9" d="M119.59,42.9c3.55,11.78,5.48,12.32,7.62,12.67,1.77.3,2.41,1.18.48-.41C127,54.58,118.54,39.4,119.59,42.9Z"/><path class="cls-9" d="M103.08,47.32c3.54,11.78,6,11.22,7.61,12.67,1.29,1.17,3.35,1.53,1.42-.05C111.4,59.36,102,43.82,103.08,47.32Z"/></g><g id="Capa_2" data-name="Capa 2"><g id="Capa_1" data-name="Capa 1"><path class="cls-4" d="M92.83,13.65a51.46,51.46,0,0,1,23.91,5.94C109.51,1.52,110,6.42,100.93,8.69a24.11,24.11,0,0,0-8.56,3.61A.75.75,0,0,0,92.83,13.65Z"/><path class="cls-10" d="M112.62,48c1.49,4,3.48,12.83,0,13.89-3.29,1-9.23-6.22-10.31-15-.42-3.43,2.09.5,4.5-.28,2.16-.71,1.1-6.24,3.23-3.52C111.82,45.29,111.71,45.6,112.62,48Z"/><path class="cls-10" d="M129.11,43.34c1.5,4,3.49,12.82,0,13.89-3.28,1-9.23-6.22-10.3-15-.42-3.42,2.09.51,4.5-.28,2.15-.7,1.09-6.23,3.23-3.51C128.32,40.62,128.21,40.93,129.11,43.34Z"/><path class="cls-10" d="M133.67,68.25c1.17-2.22-3.92-3.43-8.78-3-4.51.42-10.68,6.37-7.61,7.74C125.3,76.61,130.21,74.81,133.67,68.25Z"/><path class="cls-4" d="M72.75,16.91c3.51-1.36,3.85-3.71,1.66-13.78C73-3.5,83.37,7.6,89.89,12.68c1.2.93,4,.81,4,.81a52,52,0,0,1,48.24,64"/><path class="cls-4" d="M75.43,25.54a15.1,15.1,0,0,0-2.49-8.34l-.29.11a15,15,0,0,1,2.18,4.77,15.17,15.17,0,0,1,.6,4.23l-.1-.37a14.06,14.06,0,0,0-2.58-8.26c-2.75-4-7.52-5.19-12.53-6.58C35.18,4.17,45,17.91,45,26.31c0,3.88,1.56,12.28,12.5,13.15L48.74,36c-6.66,9.7-9.82,19.44-9.39,29.82,1.2,28.7,23.3,52,52,52a52,52,0,0,0,50.29-38.67c.16-.58.31-1.16.44-1.75-.13.59-.28,1.17-.44,1.75a52.08,52.08,0,0,1-10.1,19.41"/></g><g id="Capa_4" data-name="Capa 4"><path class="cls-11" d="M62.25,111.74c2.45-10.56,39.19-11,46.48-4.84,3,2.52,4.5,5.5,3.94,6.58-6.63,12.68-42.45,14.65-49.24,3.29A6.85,6.85,0,0,1,62.25,111.74Z"/><path class="cls-12" d="M83.43,102.37c-3.46-.88-21.09,4.19-21.08,9.36,0,4.13,4.73,9,10.82,9.88,25.51,3.88,37.4-2.51,37.33-3,0-.28-5.78,2.84-21.67,3.2-11,.24-16.3-2.26-19.7-6a8.31,8.31,0,0,1-1.38-5.71C68.42,106.07,74.65,104.87,83.43,102.37Z"/><path class="cls-13" d="M93.26,108.61c-.41,1.1,3.38,4.82,6.5,3.68,1.06-.38,2.36-1.44,2.17-2.32C101.5,108,93.78,107.26,93.26,108.61Z"/><path class="cls-4" d="M113.1,113.25a4.53,4.53,0,0,1-.23,1.45c-.75,2.46-3.4,4.66-7.3,6.35a40.25,40.25,0,0,1-9.64,2.63,59.1,59.1,0,0,1-9,.67c-14.43,0-26.13-5-26.13-11.1a5.46,5.46,0,0,1,1.06-3.13c.1-.14.2-.29.32-.43a8.45,8.45,0,0,1,.65-.72,12.56,12.56,0,0,1,1.89-1.56,17,17,0,0,1,1.64-1c4.78-2.6,12.22-4.26,20.57-4.26a58.65,58.65,0,0,1,7.53.47c10.62,1.35,18.39,5.5,18.59,10.43v.08A.49.49,0,0,1,113.1,113.25Z"/></g></g></svg>