<svg xmlns="http://www.w3.org/2000/svg" viewBox="0 0 160.21 125.61"><defs><style>.cls-1,.cls-2{fill:#75bcad;stroke:#75bcad;}.cls-1,.cls-10,.cls-2,.cls-3,.cls-5,.cls-6,.cls-7,.cls-8,.cls-9{stroke-miterlimit:10;}.cls-1,.cls-3{stroke-width:0.75px;}.cls-2{stroke-width:0.75px;}.cls-3{fill:#5fb390;stroke:#5fb390;}.cls-4{fill:#1d1d1b;}.cls-5{fill:#8bc4c9;stroke:#8bc4c9;}.cls-5,.cls-6,.cls-7,.cls-8{stroke-width:0.75px;}.cls-6{fill:#d7d7d7;stroke:#d7d7d7;}.cls-7{fill:#582d29;stroke:#582d29;}.cls-8{fill:#54a6a8;stroke:#54a6a8;}.cls-10,.cls-9{fill:none;stroke:#1d1d1b;}.cls-9{stroke-width:2px;}.cls-10{stroke-width:2.03px;}</style></defs><g id="Capa_9" data-name="Capa 9"><path class="cls-1" d="M55.32,37.23A13.8,13.8,0,0,1,45.07,25c-.44-5.36-3.18-12,1.61-14.45,7.43-3.8,20.37,3.17,21.42,4,1.46,1.17,4.55,3.62,5,7.36C74.09,29.34,64.5,39.34,55.32,37.23Z"/><path class="cls-2" d="M74.74,3.22c11.71,24.44-33,14.05-35.35,61.9-1.19,24.12,19.13,38.67,21.68,40.54,14.73,10.8,34.16,11.19,53,6.31,14-3.61,19.76-17.38,21.68-20.65A53.79,53.79,0,0,0,142.55,72a49.37,49.37,0,0,0-2.32-25c-.83-2.23-3.67-12.93-13.94-19.89C101.84,10.48,95.65,16.48,91.9,13.93,82.17,7.29,73.3.2,74.74,3.22Z"/><path class="cls-3" d="M74.26,75.77C78.8,75,84,87.69,92.45,92.81c2.71,1.64,3.49,1.55,9.2-.2.73-.22-1.23,1.71-3.1,2.23-1.59.44-3.77,3-14.52-5.71-2.42-2-9.38-9.14-8.71-11.23C75.56,77.17,73.29,76,74.26,75.77Z"/><path class="cls-3" d="M92.55,13c-.17-1.28,10.55-5.8,17.65-5.36,2.06.13,6.38,9.52,5.67,10.58s-4.49-1.82-13-3.58C96,13.18,92.66,13.79,92.55,13Z"/><path class="cls-3" d="M45.94,9.68c-.28-.17-6,8.59,2.68,24.36,2.15,3.9,7.84,5.31,8.16,4.81S49.26,28.2,48.13,24.13C46.2,17.16,46.19,9.83,45.94,9.68Z"/><path class="cls-3" d="M49.45,36.44C38.08,54.35,37.62,68,43.17,83c8.82,23.8,33.91,40,64.43,31.42,12.65-3.57,21.13-11.77,21.53-13.1.27-.9-8.83,7.92-22.73,9.62-16.23,2-40.14-5-50.8-25.4-11.52-22.08,2-47,2-47C53.59,37.91,50.12,35.37,49.45,36.44Z"/><path class="cls-3" d="M103.68,122.13c-5.4,3.85,13.22,3.55,24.58-6.9.5-.46,1.48-1-.9-6.46S114.45,114.45,103.68,122.13Z"/></g><g id="Capa_10" data-name="Capa 10"><path class="cls-4" d="M2,48.55l10.4-2,1.5-.29a1.88,1.88,0,0,0,1.31-2.3,1.92,1.92,0,0,0-2.31-1.31l-10.4,2L1,44.93A1.9,1.9,0,0,0-.35,47.24,1.93,1.93,0,0,0,2,48.55Z"/><path class="cls-4" d="M1.72,42.6l7.67,7.32,1.09,1a1.87,1.87,0,0,0,2.65-2.65L5.47,41l-1.1-1A1.87,1.87,0,0,0,1.72,42.6Z"/><path class="cls-4" d="M96.51,45.2a34.07,34.07,0,0,0,7.76-7.49,6,6,0,0,0,1.2-3.21,1.88,1.88,0,1,0-3.75,0s0,.2,0,.22.12-.57,0-.32c0,0,0,.08,0,.12-.06.23-.33.7,0,.11a10.83,10.83,0,0,1-.59,1l-.37.53c-.17.24.12-.15.12-.16a1.71,1.71,0,0,1-.11.14c-.09.12-.18.22-.27.33-.33.39-.67.76-1,1.13a44.56,44.56,0,0,1-4.21,3.8l-.73.58c-.28.23.46-.35.17-.12l-.08.05a2,2,0,0,0-.86,1.12A1.93,1.93,0,0,0,94,44.53a1.89,1.89,0,0,0,2.56.67Z"/><path class="cls-4" d="M103.93,76.65,107,70.72l.44-.85a1.25,1.25,0,1,0-2.16-1.26l-3.08,5.94-.44.84a1.25,1.25,0,0,0,2.16,1.26Z"/><path class="cls-4" d="M112.18,31.12c.66,2.5,3.61,3.08,5.8,3.34a34.43,34.43,0,0,0,6.5,0c.5,0,1-.09,1.49-.15a1.94,1.94,0,0,0,1.88-1.87c0-.92-.84-2-1.88-1.88-1.2.15-2.42.23-3.63.27s-2.14,0-3.2,0l-.76-.06-.4,0-.16,0c-.24,0,.49.08.11,0a12.83,12.83,0,0,1-1.37-.29l-.36-.12-.13-.05c-.29-.09.35.18.17.07a5.61,5.61,0,0,0-.54-.29c-.19-.09.36.34.09.06l-.07-.07c-.18-.14.12-.15.14.2a1.13,1.13,0,0,0-.13-.2c0,.09.16.47.06.11a1.87,1.87,0,1,0-3.61,1Z"/><path class="cls-4" d="M100.7,71.79l5.36,2.78.76.4a1.25,1.25,0,0,0,1.26-2.16L102.72,70l-.76-.39a1.25,1.25,0,1,0-1.26,2.16Z"/><path class="cls-4" d="M137.47,63.88l3.09-5.94.44-.84a1.25,1.25,0,0,0-2.16-1.26l-3.09,5.93-.43.85a1.25,1.25,0,1,0,2.15,1.26Z"/><path class="cls-4" d="M134.25,59l5.36,2.79.76.4A1.25,1.25,0,0,0,141.63,60l-5.36-2.79-.76-.4A1.25,1.25,0,1,0,134.25,59Z"/><path class="cls-5" d="M60.2,17.74c-1.17,2.54,5.2,9.18,7.74,8.13,1.69-.7,3-5.35.19-8.13S61,16.09,60.2,17.74Z"/><path class="cls-5" d="M97.49,90c.85-.11,1.93-3,.58-5.23-.87-1.39-2.67-2.4-3.29-1.93C93.61,83.73,96.16,90.17,97.49,90Z"/><path class="cls-6" d="M112.39,61.81c3.22-.26.48-15.76-2.32-18.33-1.77-1.61-1.68,6.15-3,4.39-.8-1.09-2.71,0-5.16-1.8C101.49,45.74,107.48,62.19,112.39,61.81Z"/><path class="cls-6" d="M128.42,56.31c3-.23.45-14.5-2.13-16.86-1.63-1.49-1.55,5.65-2.74,4-.73-1-2.49,0-4.75-1.66C118.4,41.52,123.9,56.67,128.42,56.31Z"/><path class="cls-7" d="M118.07,72.07c3.09.77,9.29-2.33,13.93-3.68,3-.87-1.88-3.65-7.22-2.71S115.07,71.31,118.07,72.07Z"/><path class="cls-8" d="M120,43.32c3.55,11.78,5.48,12.31,7.61,12.67,1.78.3,2.42,1.17.49-.41C127.36,55,118.91,39.82,120,43.32Z"/><path class="cls-8" d="M103.71,48c3.55,11.77,6,11.22,7.61,12.67,1.29,1.17,3.36,1.53,1.42-.06C112,60,102.65,44.49,103.71,48Z"/></g><g id="Capa_2" data-name="Capa 2"><g id="Capa_11" data-name="Capa 11"><path class="cls-4" d="M49.21,97.83c-1,2.58-2.8,8.35-6.62,6.55-2.42-1.14-4-3.76-5.14-6-3.37-6.61-4.64-14.23-5.64-21.5-1.11-8-1.73-16.16-3.17-24.15a58.92,58.92,0,0,0-2.95-11.17c-1.12-2.83-2.57-5.84-5-7.83-6.59-5.5-10.4,5.21-13.45,9.22-.89,1.16,1.08,2.29,2,1.14,1.83-2.4,3.05-5.2,4.89-7.59.7-.9,1.69-2.09,2.94-2.08,1.55,0,2.92,1.6,3.76,2.75a29.48,29.48,0,0,1,4.28,10,99.51,99.51,0,0,1,2.25,12c1.11,8,1.73,16.08,3.15,24,1.18,6.65,2.85,14,7,19.55,1.66,2.24,4.23,4.65,7.26,4.24,3.9-.54,5.43-5.44,6.67-8.54.54-1.36-1.66-1.94-2.19-.6Z"/></g><g id="Capa_1" data-name="Capa 1"><path class="cls-9" d="M129.34,113.11c0,3-2.88,5.79-7.53,7.8s-11.32,3.3-18.6,3.3a59.34,59.34,0,0,1-7.7-.49,40.18,40.18,0,0,0,10-2.68c4.63-2,7.51-4.74,7.53-7.77a52,52,0,0,0,11.07-6.8C127.41,108.32,129.34,110.62,129.34,113.11Z"/><path class="cls-9" d="M113.08,113.27c0,3-2.9,5.77-7.53,7.77a40.18,40.18,0,0,1-10,2.68,56.87,56.87,0,0,1-8.56.62c-14.43,0-26.13-5-26.13-11.1a6.16,6.16,0,0,1,2-4.29A50.32,50.32,0,0,0,78,116a50.87,50.87,0,0,0,13.64,1.84A51.79,51.79,0,0,0,113.08,113.27Z"/><path class="cls-4" d="M86,66.28a53.69,53.69,0,0,1,8.49,9c2.4,3.23,5,7,6.07,10.88a7.39,7.39,0,0,1-.32,5.6,5,5,0,0,1-5,2.39c-4.13-.31-7.67-3.78-10.22-6.75C81.7,83.47,78.82,79.16,75.84,75c-.93-1.3-3.1-.05-2.16,1.26,3,4.22,6,8.56,9.31,12.53,2.93,3.47,6.82,7.06,11.5,7.72a7.57,7.57,0,0,0,8.88-6.77c.54-4.71-2.46-9.41-4.93-13.18A55.86,55.86,0,0,0,87.75,64.51c-1.22-1-3,.73-1.77,1.77Z"/><path class="cls-9" d="M93,13.68a51.61,51.61,0,0,1,23.91,5.94c-7.23-18.07-6.72-13.16-15.81-10.9a24,24,0,0,0-8.56,3.62A.75.75,0,0,0,93,13.68Z"/><path class="cls-10" d="M112.74,48c1.49,4,3.48,12.83,0,13.9s-9.23-6.23-10.31-15c-.42-3.42,2.09.5,4.5-.28,2.15-.7,1.1-6.24,3.23-3.52C111.94,45.33,111.83,45.63,112.74,48Z"/><path class="cls-10" d="M129.23,43.37c1.5,4,3.49,12.83,0,13.89C126,58.28,120,51,119,42.25c-.41-3.43,2.1.5,4.51-.29,2.15-.7,1.09-6.23,3.23-3.51C128.43,40.65,128.33,41,129.23,43.37Z"/><path class="cls-10" d="M133.79,68.28c2.06-1.42-3.92-3.42-8.78-3-4.51.43-10.94,8.26-7.61,7.74C124.21,72,128.94,71.61,133.79,68.28Z"/><path class="cls-9" d="M72.87,16.94c3.51-1.36,3.85-3.71,1.66-13.78-1.45-6.63,9,4.47,15.48,9.55,1.2.93,4,.81,4,.81a52,52,0,0,1,48.24,64"/><path class="cls-9" d="M131.69,98.67a52.08,52.08,0,0,0,10.1-19.41"/><path class="cls-9" d="M142.23,77.51c-.13.59-.28,1.17-.44,1.75a52.12,52.12,0,0,1-28.71,34"/><path class="cls-9" d="M62.86,109.13C49.19,99.78,40.22,83.89,39.47,65.9,39,55.52,42.2,45.78,48.86,36.08l.21.08,8.56,3.34a13.79,13.79,0,0,1-8.56-3.34c-3.31-3-3.94-7.34-3.94-9.81,0-8.4-9.83-22.14,15.21-15.21,5,1.39,9.78,2.61,12.53,6.58A14.83,14.83,0,0,1,75,22.12a15.17,15.17,0,0,1,.6,4.23l-.1-.37a15.3,15.3,0,0,0-2.68-8.63l.29-.11a15.1,15.1,0,0,1,2.49,8.34"/></g><g id="Capa_4" data-name="Capa 4"><path class="cls-1" d="M62.36,112c2.42-10.56,38.52-11,45.68-4.84,2.91,2.52,4.43,5.5,3.87,6.58-6.51,12.68-41.71,14.65-48.39,3.29A7,7,0,0,1,62.36,112Z"/><path class="cls-3" d="M83.18,102.66c-3.4-.89-20.73,4.19-20.72,9.36,0,4.13,4.65,9,10.64,9.88,25.06,3.87,36.75-2.51,36.68-3,0-.28-5.68,2.84-21.29,3.2-10.83.24-16-2.26-19.36-6a8.33,8.33,0,0,1-1.35-5.71C68.43,106.36,74.55,105.16,83.18,102.66Z"/><path class="cls-5" d="M92.84,108.9c-.41,1.1,3.32,4.82,6.39,3.68,1-.38,2.32-1.44,2.13-2.32C100.93,108.31,93.35,107.55,92.84,108.9Z"/><path class="cls-9" d="M113.09,113.41a4.53,4.53,0,0,1-.23,1.45c-.75,2.46-3.4,4.66-7.3,6.35a40.25,40.25,0,0,1-9.64,2.63,59.1,59.1,0,0,1-9,.67c-14.43,0-26.13-5-26.13-11.1a5.46,5.46,0,0,1,1.06-3.13c.1-.14.2-.29.32-.43a8.45,8.45,0,0,1,.65-.72,12.56,12.56,0,0,1,1.89-1.56,17,17,0,0,1,1.64-1c4.78-2.6,12.22-4.26,20.57-4.26a58.65,58.65,0,0,1,7.53.47c10.62,1.35,18.39,5.5,18.59,10.43v.08A.49.49,0,0,1,113.09,113.41Z"/></g></g></svg>