<svg xmlns="http://www.w3.org/2000/svg" viewBox="0 0 160.21 125.61"><defs><style>.cls-1,.cls-11,.cls-5{fill:#75bcad;stroke:#75bcad;}.cls-1,.cls-10,.cls-11,.cls-12,.cls-13,.cls-2,.cls-4,.cls-5,.cls-6,.cls-7,.cls-8,.cls-9{stroke-miterlimit:10;}.cls-1{stroke-width:0.75px;}.cls-12,.cls-2{fill:#5fb390;stroke:#5fb390;}.cls-2,.cls-5{stroke-width:0.75px;}.cls-3{fill:#1d1d1b;}.cls-10,.cls-4{fill:none;stroke:#1d1d1b;}.cls-4{stroke-width:2px;}.cls-13,.cls-6{fill:#8bc4c9;stroke:#8bc4c9;}.cls-6,.cls-7,.cls-8,.cls-9{stroke-width:0.75px;}.cls-7{fill:#d7d7d7;stroke:#d7d7d7;}.cls-8{fill:#582d29;stroke:#582d29;}.cls-9{fill:#54a6a8;stroke:#54a6a8;}.cls-10{stroke-width:2.03px;}.cls-11,.cls-12{stroke-width:0.76px;}.cls-13{stroke-width:0.75px;}</style></defs><g id="Capa_9" data-name="Capa 9"><path class="cls-1" d="M73.26,2C84.87,26.74,43.14,16.42,38.18,64.65c-2.51,24.38,19,39.14,21.51,41C74.3,116.61,93.58,117,112.3,112.07c13.86-3.66,19.6-17.6,21.5-20.91a54.73,54.73,0,0,0,6.72-19.55,50.8,50.8,0,0,0-2.3-25.35c-.83-2.26-3.64-13.08-13.83-20.13C100.14,9.36,92.57,16.44,88.86,13.86,79.2,7.14,71.82-1,73.26,2Z"/><path class="cls-2" d="M70,76.14c2.34-4,15.4.39,24.78-2.64,3-1,3.45-1.63,5.87-7.09.31-.7.49,2-.34,3.8-.71,1.5-.2,4.82-13.81,7.26-3.07.55-13,1.13-14.19-.75C71.93,76.06,69.52,77,70,76.14Z"/><path class="cls-2" d="M103.33,122.29c-5.39,3.85,13.23,3.55,24.58-6.9.5-.46,1.48-1-.9-6.45S114.11,114.61,103.33,122.29Z"/><path class="cls-2" d="M142.59,56.19c3.23,18.85-5.91,15.89,9.56,14.49,1.45-.13,10.27-7.63,6.19-12C154.08,54.21,142.59,56.19,142.59,56.19Z"/><path class="cls-3" d="M48.19,98c-.8,2-1.58,4.47-3.15,6s-3.43.84-4.89-.38c-2.91-2.46-4.52-6.44-5.73-10-3.25-9.39-4-19.47-5.15-29.28-.59-4.94-1.22-9.9-2.28-14.77-1-4.37-2.23-8.93-4.69-12.72-1.53-2.35-5.06-6.19-8.21-4.27-1.63,1-2.15,3.2-2.48,4.94-.43,2.23-.47,4.57-1.08,6.77a3.19,3.19,0,0,1-.36.9c-.14.23.11-.11.14,0s0,0-.19-.1l-.44-.36A11.31,11.31,0,0,1,8.23,43c-.85-1.16-2.82,0-2,1.15,1,1.35,2.91,4.15,5,3.05,1.51-.81,1.7-3.12,1.91-4.61a34.92,34.92,0,0,1,1.18-6.58c.22-.61.55-1.43,1.14-1.61,1.81-.54,3.83,2,4.68,3.27,2.76,4.06,4,9.11,4.95,13.86,1.06,5.31,1.68,10.71,2.3,16.09,1.15,9.93,2.06,20.27,6,29.57,1.49,3.53,3.65,7.72,7.34,9.37,5.54,2.48,8.07-4,9.67-8,.54-1.36-1.65-1.95-2.19-.61Z"/><path class="cls-4" d="M128.32,113.24c0,3-2.88,5.79-7.53,7.8s-11.32,3.3-18.6,3.3a59.34,59.34,0,0,1-7.7-.49,40.18,40.18,0,0,0,10-2.68c4.63-2,7.51-4.74,7.53-7.77a52,52,0,0,0,11.07-6.8C126.39,108.45,128.32,110.75,128.32,113.24Z"/><path class="cls-4" d="M112.06,113.4c0,3-2.9,5.77-7.53,7.77a40.18,40.18,0,0,1-10,2.68,56.87,56.87,0,0,1-8.56.62c-14.43,0-26.13-5-26.13-11.1a6.16,6.16,0,0,1,2-4.29A50.32,50.32,0,0,0,77,116.17,50.87,50.87,0,0,0,90.63,118,51.79,51.79,0,0,0,112.06,113.4Z"/><path class="cls-3" d="M70.19,63.18a53.65,53.65,0,0,1,13.19-1.29,51.34,51.34,0,0,1,6.67.6,18.22,18.22,0,0,1,5.8,1.66,6.43,6.43,0,0,1,3.35,4,5.46,5.46,0,0,1-2,5.11c-3,2.73-7.64,3.34-11.54,3.51-5,.22-10,0-15-.17a1.25,1.25,0,0,0,0,2.5c5.19.14,10.45.45,15.63.14,4.45-.26,9.43-1.17,12.79-4.34a7.6,7.6,0,0,0,.5-10.94c-3.19-3.44-8.58-4-13-4.34a56,56,0,0,0-17.13,1.19c-1.57.35-.91,2.76.66,2.41Z"/><path class="cls-3" d="M143.15,73.19c3.37,0,7-.06,10.2-1.35,3.32-1.35,6.7-3.74,7.37-7.49a7.87,7.87,0,0,0-4.43-8.19c-2-.94-4.57-1-6.77-1.3-1.46-.17-2.93-.31-4.4-.44l-1.71-.17-.71-.07-.22,0c-.38,0,.05,0-.12,0a1.3,1.3,0,0,0-1.54.87,1.25,1.25,0,0,0,.87,1.54c4,.58,8.11.6,12.09,1.45.39.09.76.18,1.14.29.09,0,.46.19.2.06a7.23,7.23,0,0,1,.66.4,5.9,5.9,0,0,1,2.46,3.4c.83,3.53-2.61,5.84-5.31,7.16-2.93,1.43-6.6,1.36-9.78,1.38a1.25,1.25,0,0,0,0,2.5Z"/><path class="cls-2" d="M90.27,13.26C90.1,12,100.82,7.46,107.91,7.9c2.07.13,6.39,9.52,5.68,10.59s-4.49-1.83-13-3.59C93.72,13.47,90.38,14.08,90.27,13.26Z"/><path class="cls-5" d="M53.82,37.52a13.81,13.81,0,0,1-10.26-12.2c-.43-5.36-3.17-12,1.61-14.45,7.44-3.8,20.38,3.17,21.42,4,1.46,1.17,4.55,3.63,5,7.36C72.58,29.63,63,39.63,53.82,37.52Z"/><path class="cls-2" d="M44.43,10c-.27-.16-6,8.59,2.69,24.36,2.14,3.9,7.83,5.31,8.15,4.82s-7.51-10.66-8.65-14.73C44.69,17.45,44.68,10.12,44.43,10Z"/><path class="cls-2" d="M47.56,37.5C36.19,55.42,35.73,69.08,41.27,84c8.83,23.8,33.92,40,64.44,31.42,12.65-3.56,21.12-11.76,21.52-13.1.27-.9-8.83,7.93-22.72,9.63-16.24,2-40.15-5-50.81-25.41-11.51-22.08,2-47,2-47C51.7,39,48.23,36.44,47.56,37.5Z"/></g><g id="Capa_10" data-name="Capa 10"><path class="cls-6" d="M94.42,67.47c.48-.72-1-3.45-3.57-3.86-1.62-.25-3.57.45-3.62,1.23C87.14,66.31,93.68,68.58,94.42,67.47Z"/><path class="cls-3" d="M8.19,49.42,9.24,38.88l.15-1.52a1.88,1.88,0,0,0-1.87-1.88,1.94,1.94,0,0,0-1.88,1.88l-1,10.54-.15,1.52A1.88,1.88,0,0,0,6.32,51.3a1.92,1.92,0,0,0,1.87-1.88Z"/><path class="cls-3" d="M2.48,48l9.23-5.25L13,42a1.88,1.88,0,1,0-1.89-3.24L1.89,44l-1.3.74a1.89,1.89,0,0,0-.68,2.56A1.92,1.92,0,0,0,2.48,48Z"/><path class="cls-3" d="M105.55,46.46c1.18-.25,2.36-.56,3.52-.9a27,27,0,0,0,6.27-2.49,6,6,0,0,0,2.45-2.3,1.91,1.91,0,0,0-.68-2.56,1.89,1.89,0,0,0-2.56.67c0,.1-.34.52-.11.22s0-.05,0,0-.13.14-.2.2l-.23.2c-.07.07.38-.27.09-.07l-.58.37a11.38,11.38,0,0,1-1.25.65l-.31.15c-.07,0-.43.18-.15.07s-.15.06-.22.08l-.39.16a46.24,46.24,0,0,1-5.41,1.65l-1.21.28a1.89,1.89,0,0,0-1.31,2.31,1.92,1.92,0,0,0,2.31,1.3Z"/><path class="cls-3" d="M103.71,77.17l5.3-4.06.76-.58a1.44,1.44,0,0,0,.58-.75,1.28,1.28,0,0,0-.13-1,1.25,1.25,0,0,0-1.71-.45l-5.3,4.06-.76.59a1.33,1.33,0,0,0-.58.74,1.32,1.32,0,0,0,.13,1,1.26,1.26,0,0,0,1.71.44Z"/><path class="cls-3" d="M125.42,40.21c-.49,2.62,1.73,4.41,3.73,5.64a36.88,36.88,0,0,0,6.25,2.89l1.42.5a1.89,1.89,0,0,0,2.3-1.31,1.92,1.92,0,0,0-1.31-2.31l-1-.35-1.09-.41-.56-.22-.33-.14-.18-.07.15.06c-1-.43-2-.87-2.88-1.38a14.58,14.58,0,0,1-1.37-.82c-.21-.13-.41-.28-.61-.42s.37.31.06,0a3.47,3.47,0,0,1-.29-.25c-.18-.16-.34-.33-.51-.5s.18.27.07.09l-.18-.28-.05-.09c-.15-.23.09.2.09.25a.79.79,0,0,0-.08-.26c-.11-.27,0,.54,0,.18s-.07.34,0,.16a1.93,1.93,0,0,0-1.31-2.31,1.9,1.9,0,0,0-2.31,1.31Z"/><path class="cls-3" d="M102.87,71.27l3.67,4.78.53.7a1.34,1.34,0,0,0,.75.57,1.24,1.24,0,0,0,1-.13,1.27,1.27,0,0,0,.45-1.71l-3.67-4.78L105,70a1.38,1.38,0,0,0-.74-.58,1.32,1.32,0,0,0-1,.13,1.27,1.27,0,0,0-.45,1.71Z"/><path class="cls-3" d="M134.35,80.84l5.3-4.07.76-.58a1.44,1.44,0,0,0,.58-.75,1.28,1.28,0,0,0-.13-1,1.26,1.26,0,0,0-1.71-.45l-5.3,4.06-.76.59a1.38,1.38,0,0,0-.58.74,1.32,1.32,0,0,0,.13,1,1.27,1.27,0,0,0,1.71.45Z"/><path class="cls-3" d="M133.51,74.93l3.67,4.79.53.69a1.34,1.34,0,0,0,.75.57,1.24,1.24,0,0,0,1-.13,1.27,1.27,0,0,0,.45-1.71l-3.67-4.78-.53-.69a1.32,1.32,0,0,0-.74-.57,1.25,1.25,0,0,0-1.42,1.83Z"/><path class="cls-6" d="M58.69,18c-1.17,2.54,5.2,9.18,7.74,8.13,1.7-.7,3-5.35.19-8.13S59.45,16.38,58.69,18Z"/><path class="cls-7" d="M112.08,68.17c3,1.21,7.46-13.89,6.1-17.44-.86-2.23-4.25,4.76-4.62,2.61-.23-1.33-2.42-1.21-3.81-3.92C109.5,48.93,107.51,66.32,112.08,68.17Z"/><path class="cls-7" d="M129.45,70c2.75,1.15,7-12.7,5.79-16-.77-2.06-4,4.33-4.27,2.35-.2-1.23-2.22-1.14-3.47-3.65C127.27,52.22,125.26,68.21,129.45,70Z"/><path class="cls-8" d="M113.85,80.94c3.1.77,6.19,4.77,11.36,2.32,2.8-1.33,11,.39-3.1-6.45C117.29,74.47,110.85,80.19,113.85,80.94Z"/><path class="cls-9" d="M127.85,54.54c-2.21,12.1-.74,13.45,1,14.75,1.44,1.07,1.61,2.14.61-.15C129.1,68.3,128.51,50.94,127.85,54.54Z"/><path class="cls-9" d="M110.47,51.94c-2.07,12.12.38,12.72,1.16,14.74.64,1.62,2.33,2.86,1.3.58C112.55,66.42,111.09,48.33,110.47,51.94Z"/></g><g id="Capa_2" data-name="Capa 2"><g id="Capa_1" data-name="Capa 1"><path class="cls-4" d="M91.31,13.71a51.55,51.55,0,0,1,23.91,5.94C108,1.59,108.51,6.49,99.42,8.76a24.06,24.06,0,0,0-8.57,3.61A.75.75,0,0,0,91.31,13.71Z"/><path class="cls-10" d="M118.72,56c-.34,4.26-2.27,13.09-5.85,12.6-3.41-.47-5.72-9.55-3-18,1.07-3.28,1.68,1.34,4.2,1.65,2.25.28,3.63-5.18,4.42-1.82C119.15,53.17,118.92,53.4,118.72,56Z"/><path class="cls-10" d="M135.64,58.72c-.34,4.26-2.27,13.09-5.84,12.6-3.41-.47-5.73-9.54-3-18,1.06-3.28,1.68,1.34,4.19,1.65,2.25.28,3.64-5.18,4.42-1.81C136.07,55.92,135.84,56.15,135.64,58.72Z"/><path class="cls-10" d="M129.22,83.21c2.34-.9-2.09-4.76-6.69-6.4-4.27-1.53-13.41,2.84-10.17,3.79C119,82.53,117.33,87.78,129.22,83.21Z"/><path class="cls-4" d="M71.23,17c3.51-1.36,3.85-3.71,1.66-13.78-1.45-6.63,9,4.47,15.48,9.55,1.2.93,4,.81,4,.81a52,52,0,0,1,48.24,64"/><path class="cls-4" d="M73.91,25.61a15.1,15.1,0,0,0-2.49-8.34l-.29.11a15,15,0,0,1,2.18,4.77,15.17,15.17,0,0,1,.6,4.23l-.1-.37a14.06,14.06,0,0,0-2.58-8.26c-2.75-4-7.52-5.19-12.53-6.58C33.66,4.24,43.49,18,43.49,26.38c0,3.88,1.56,12.28,12.5,13.15l-8.77-3.42c-6.66,9.7-9.82,19.44-9.39,29.82,1.2,28.7,23.3,52,52,52a52,52,0,0,0,50.29-38.67c.16-.58.31-1.16.44-1.75-.13.59-.28,1.17-.44,1.75a52.08,52.08,0,0,1-10.1,19.41"/></g><g id="Capa_4" data-name="Capa 4"><path class="cls-11" d="M61,111.8c2.45-10.56,39.2-11,46.48-4.84,3,2.52,4.51,5.51,3.94,6.59-6.63,12.67-42.45,14.65-49.24,3.29A6.89,6.89,0,0,1,61,111.8Z"/><path class="cls-12" d="M82.18,102.43c-3.47-.88-21.1,4.19-21.09,9.36,0,4.13,4.73,9,10.82,9.89,25.51,3.87,37.4-2.51,37.33-3,0-.28-5.78,2.84-21.67,3.19-11,.25-16.3-2.25-19.69-6a8.2,8.2,0,0,1-1.38-5.71C67.16,106.13,73.39,104.94,82.18,102.43Z"/><path class="cls-13" d="M92,108.68c-.41,1.09,3.38,4.81,6.5,3.68,1.06-.39,2.37-1.44,2.17-2.33C100.24,108.08,92.52,107.32,92,108.68Z"/><path class="cls-4" d="M111.84,113.31a4.53,4.53,0,0,1-.23,1.45c-.75,2.46-3.4,4.66-7.3,6.35a40.25,40.25,0,0,1-9.64,2.63,59.1,59.1,0,0,1-9,.67c-14.43,0-26.13-5-26.13-11.1a5.46,5.46,0,0,1,1.06-3.13c.1-.14.2-.29.32-.43a8.45,8.45,0,0,1,.65-.72,12.56,12.56,0,0,1,1.89-1.56,17,17,0,0,1,1.64-1c4.78-2.6,12.22-4.26,20.57-4.26a58.65,58.65,0,0,1,7.53.47c10.62,1.35,18.39,5.5,18.59,10.43v.08A.49.49,0,0,1,111.84,113.31Z"/></g></g></svg>