<svg xmlns="http://www.w3.org/2000/svg" viewBox="0 0 160.21 125.61"><defs><style>.cls-1{fill:#75bcad;stroke:#75bcad;}.cls-1,.cls-2,.cls-4,.cls-5,.cls-6,.cls-7,.cls-8,.cls-9{stroke-miterlimit:10;}.cls-1,.cls-2{stroke-width:0.75px;}.cls-2{fill:#5fb390;stroke:#5fb390;}.cls-3{fill:#1d1d1b;}.cls-4{fill:#8bc4c9;stroke:#8bc4c9;}.cls-4,.cls-5,.cls-7{stroke-width:0.75px;}.cls-5{fill:#d7d7d7;stroke:#d7d7d7;}.cls-6{fill:#582d29;stroke:#582d29;stroke-width:1.38px;}.cls-7{fill:#54a6a8;stroke:#54a6a8;}.cls-8,.cls-9{fill:none;stroke:#1d1d1b;}.cls-8{stroke-width:2px;}.cls-9{stroke-width:2.03px;}</style></defs><g id="Capa_9" data-name="Capa 9"><path class="cls-1" d="M55,39.16A13.8,13.8,0,0,1,44.78,27c-.43-5.36-3.17-12,1.61-14.45,7.43-3.8,20.38,3.16,21.42,4,1.46,1.16,4.55,3.62,5,7.35C73.8,31.27,64.22,41.27,55,39.16Z"/><path class="cls-1" d="M73.17,4.55c12.1,20-35.68,32.06-34.75,62.32.76,24.5,18.52,39.46,21.07,41.36,14.73,10.93,34.16,11.32,53,6.38,14-3.65,19.76-17.59,21.68-20.9A54.38,54.38,0,0,0,141,74.16a50.41,50.41,0,0,0-2.32-25.35c-.83-2.26-3.67-13.09-13.94-20.13C100.26,11.9,94.07,18,90.33,15.39,80.59,8.67,71.42,1.66,73.17,4.55Z"/><path class="cls-2" d="M75.24,74.35C76.78,70,65,62.82,61.31,53.69c-1.2-2.94-1-3.69,1.65-9,.34-.69-1.88.94-2.69,2.71-.69,1.5-3.56,3.25,3.33,15.23,1.56,2.7,7.54,10.72,9.71,10.38C74.07,72.85,74.91,75.28,75.24,74.35Z"/><path class="cls-2" d="M91,14.77C90.8,13.5,101.52,9,108.62,9.42c2.06.13,6.39,9.52,5.68,10.58s-4.49-1.82-13-3.58C94.42,15,91.08,15.6,91,14.77Z"/><path class="cls-2" d="M44.88,11.48c-.28-.16-6,8.59,2.68,24.37,2.15,3.89,7.84,5.31,8.16,4.81S48.2,30,47.07,25.94C45.13,19,45.13,11.63,44.88,11.48Z"/><path class="cls-2" d="M48,38.89C36.64,56.8,36.18,70.47,41.72,85.41c8.82,23.8,33.92,40,64.44,31.42,12.64-3.56,21.12-11.77,21.52-13.1.27-.9-8.83,7.92-22.73,9.62-16.23,2-40.14-5-50.8-25.4-11.51-22.08,2-47,2-47C52.14,40.36,48.68,37.82,48,38.89Z"/><path class="cls-1" d="M103.33,118.36C114,113.71,124.1,114.74,138.17,89c1.84-3.36,6.68,1.07,7.4,2.06,7.15,9.92-20.72,30.35-36.18,30C108.34,121,101.23,119.27,103.33,118.36Z"/><path class="cls-1" d="M57,119.38c-3.36-10.29,27.35-29.27,36.68-27.64,3.79.66,6.63,2.44,6.71,3.65.93,14.22-28.24,34-39.81,27.71A7,7,0,0,1,57,119.38Z"/><path class="cls-2" d="M116.49,112.55c-7.87,4.26-16.67,3.58-11.74,8s44.95-10.82,41.67-26.84c-.41-2-14.45,19.35-22.06,20.39C118.35,114.91,118.15,111.65,116.49,112.55Z"/><path class="cls-2" d="M68.12,102.41c-3.37,1-15.61,14.25-13,18.68,2.13,3.54,8.6,5.3,14.21,3C92.86,114.53,99.6,103,99.29,102.66c-.18-.22-3.41,5.35-16.62,13.69-9.15,5.78-14.9,6.31-19.68,4.81a8.37,8.37,0,0,1-4.1-4.2C57.37,113.17,62,109,68.12,102.41Z"/></g><g id="Capa_10" data-name="Capa 10"><path class="cls-3" d="M7.31,42.65l3.82-9.9.55-1.4A1.89,1.89,0,0,0,10.37,29a1.93,1.93,0,0,0-2.31,1.31l-3.82,9.9-.55,1.41A1.88,1.88,0,0,0,5,44a1.92,1.92,0,0,0,2.31-1.31Z"/><path class="cls-3" d="M2.21,39.72l10.3-2.62L14,36.74a1.9,1.9,0,0,0,1.31-2.31A1.92,1.92,0,0,0,13,33.12L2.66,35.73l-1.45.37a1.88,1.88,0,0,0,1,3.62Z"/><path class="cls-3" d="M95.61,47a34.44,34.44,0,0,0,7.75-7.49,6,6,0,0,0,1.2-3.22,1.88,1.88,0,0,0-1.87-1.87,1.92,1.92,0,0,0-1.88,1.87.87.87,0,0,1,0,.23s.12-.57,0-.33l0,.12c-.06.24-.33.71,0,.12-.2.35-.37.71-.59,1-.12.18-.25.35-.38.53s.12-.16.13-.16l-.12.14a3.92,3.92,0,0,1-.27.33c-.32.39-.66.76-1,1.13a46,46,0,0,1-4.21,3.8l-.72.58c-.29.22.45-.35.16-.13l-.07.06a2.06,2.06,0,0,0-.87,1.12A2,2,0,0,0,93,46.31a1.9,1.9,0,0,0,2.57.68Z"/><path class="cls-3" d="M103,78.44l3.09-5.94.44-.84a1.25,1.25,0,1,0-2.16-1.26l-3.09,5.93-.44.85A1.25,1.25,0,0,0,103,78.44Z"/><path class="cls-3" d="M111.27,32.9c.66,2.51,3.61,3.09,5.81,3.34a33.51,33.51,0,0,0,6.49,0c.5,0,1-.08,1.49-.14a1.92,1.92,0,0,0,1.88-1.88c0-.91-.83-2-1.88-1.87-1.2.14-2.42.22-3.63.26s-2.13,0-3.2,0l-.75-.06-.4,0-.17,0c-.23,0,.5.08.11,0a12.83,12.83,0,0,1-1.37-.29l-.35-.11-.13,0c-.29-.09.34.18.16.07s-.36-.21-.53-.29.35.34.09.06l-.08-.07c-.18-.14.12-.15.14.19,0,0-.1-.14-.12-.19s.15.46.06.11a1.88,1.88,0,0,0-3.62,1Z"/><path class="cls-3" d="M99.8,73.57l5.35,2.79.76.4a1.28,1.28,0,0,0,1.71-.45,1.26,1.26,0,0,0-.44-1.71l-5.36-2.79-.76-.4a1.28,1.28,0,0,0-1.71.45,1.26,1.26,0,0,0,.45,1.71Z"/><path class="cls-3" d="M136.57,65.66l3.09-5.93.44-.85a1.28,1.28,0,0,0-.45-1.71,1.27,1.27,0,0,0-1.71.45l-3.09,5.94-.44.84a1.25,1.25,0,1,0,2.16,1.26Z"/><path class="cls-3" d="M133.34,60.8l5.36,2.79.76.39a1.25,1.25,0,0,0,1.26-2.16L135.37,59l-.76-.4a1.25,1.25,0,0,0-1.27,2.16Z"/><path class="cls-4" d="M58.62,19.55c-1.17,2.53,5.2,9.18,7.74,8.13,1.69-.7,3-5.35.19-8.13S59.38,17.89,58.62,19.55Z"/><path class="cls-4" d="M64.88,49.17c.24-.83,3.3-1.43,5.25.25,1.24,1.07,2,3,1.39,3.56C70.46,54,64.5,50.45,64.88,49.17Z"/><path class="cls-4" d="M85.73,97.93c.21,1.15,5.32,2.42,7.37-.13.69-.87,1.25-2.43.63-3.09C92.36,93.25,85.47,96.51,85.73,97.93Z"/><path class="cls-5" d="M111.33,63.61c3.22-.25.48-15.75-2.33-18.32-1.76-1.61-1.67,6.15-3,4.39-.8-1.09-2.71,0-5.16-1.81C100.43,47.55,106.41,64,111.33,63.61Z"/><path class="cls-5" d="M127.49,57.73c3-.23.45-14.5-2.14-16.86-1.62-1.49-1.54,5.65-2.73,4-.73-1-2.49,0-4.75-1.66C117.46,42.94,123,58.09,127.49,57.73Z"/><path class="cls-6" d="M121.78,82.61c3.28,2.5,8.75,1.59,10.4-4.79.82-3.21-1.88-9.4-7.67-8.75C118.2,69.78,118.6,80.19,121.78,82.61Z"/><path class="cls-7" d="M119.17,45.13c3.54,11.77,5.48,12.31,7.61,12.67,1.77.3,2.42,1.17.48-.41C126.05,56.4,117.92,41,119.17,45.13Z"/><path class="cls-7" d="M102.65,49.81c3.55,11.77,6,11.21,7.61,12.67,1.29,1.17,3.36,1.52,1.42-.06C111,61.84,101.59,46.3,102.65,49.81Z"/></g><g id="Capa_2" data-name="Capa 2"><g id="Capa_1" data-name="Capa 1"><path class="cls-8" d="M92,15.47A51.43,51.43,0,0,1,116,21.41c-7.23-18.07-6.71-13.17-15.8-10.9a24.06,24.06,0,0,0-8.57,3.61A.75.75,0,0,0,92,15.47Z"/><path class="cls-9" d="M111.83,49.83c1.5,4,3.48,12.82,0,13.89s-9.23-6.22-10.31-15c-.42-3.42,2.09.51,4.5-.28,2.16-.7,1.1-6.23,3.24-3.51C111,47.11,110.93,47.42,111.83,49.83Z"/><path class="cls-9" d="M128.33,45.16c1.49,4,3.48,12.82,0,13.89s-9.23-6.22-10.31-15c-.42-3.42,2.09.5,4.5-.28,2.16-.7,1.1-6.23,3.23-3.52C127.53,42.44,127.42,42.74,128.33,45.16Z"/><path class="cls-8" d="M72,18.73C75.47,17.37,75.81,15,73.62,5c-1.45-6.63,9,4.47,15.48,9.55,1.2.93,4,.81,4,.81a52,52,0,0,1,48.24,64"/><path class="cls-8" d="M130.79,100.45A52.08,52.08,0,0,0,140.89,81"/><path class="cls-8" d="M141.33,79.29c-.13.59-.28,1.17-.44,1.75A52,52,0,0,1,90.6,119.71a51,51,0,0,1-9.41-.86"/><path class="cls-8" d="M59.49,109.1A55.13,55.13,0,0,1,38.57,67.68C38.14,57.3,41.3,47.56,48,37.86l.21.08,8.56,3.34a13.79,13.79,0,0,1-8.56-3.34c-3.31-3-3.94-7.34-3.94-9.81,0-8.4-9.83-22.14,15.21-15.21,5,1.39,9.78,2.61,12.53,6.58a14.83,14.83,0,0,1,2.08,4.4,15.17,15.17,0,0,1,.6,4.23l-.1-.37a15.3,15.3,0,0,0-2.68-8.63l.29-.11a15.1,15.1,0,0,1,2.49,8.34"/></g><g id="Capa_8" data-name="Capa 8"><path class="cls-9" d="M132,73.39c1.72,2.92-.78,10.18-5.64,10.64-4.51.42-8.32-5.27-7.59-8.56C120.85,65.9,127.77,66.3,132,73.39Z"/><path class="cls-8" d="M97.68,104.77a40.13,40.13,0,0,1-6.79,7.33c-.92.79-1.89,1.57-2.92,2.34q-2,1.55-4.33,3c-.81.51-1.63,1-2.45,1.44-.17.11-.33.2-.5.29-6.81,3.74-13.5,5.69-18.36,5.58-2.65-.06-4.77-.74-6.08-2.08l-.13-.23-.11-.16a5.94,5.94,0,0,0-.55-.67,5,5,0,0,1-.57-1.71,7.21,7.21,0,0,1,0-1.8,11.85,11.85,0,0,1,.95-3.28,15.45,15.45,0,0,1,.87-1.72,27,27,0,0,1,2.58-3.72l.21-.25A51.84,51.84,0,0,1,71.9,98.57c1.53-.95,3-1.82,4.57-2.59h0l1.5-.72.55-.26c9.28-4.27,17.71-5,20.87-1.51a4.15,4.15,0,0,1,.42.52,1.63,1.63,0,0,1,.11.17,4.52,4.52,0,0,1,.58,1.35C101.18,98,100.1,101.27,97.68,104.77Z"/><path class="cls-8" d="M144.36,101.58a40.13,40.13,0,0,1-6.79,7.33c-.92.79-1.9,1.57-2.92,2.34-1.36,1-2.8,2-4.33,3-7.81,4.87-15.75,7.44-21.31,7.31-2.65-.06-4.77-.74-6.08-2.08a1.71,1.71,0,0,0-.13-.23,1.77,1.77,0,0,0-.12-.17,3.92,3.92,0,0,0-.25-.32A52.15,52.15,0,0,0,138.59,88.1c3.36-.16,6,.55,7.5,2.19a4.15,4.15,0,0,1,.42.52,1.63,1.63,0,0,1,.11.17,4.26,4.26,0,0,1,.57,1.35C147.86,94.81,146.78,98.08,144.36,101.58Z"/><path class="cls-3" d="M75.67,73.44a53.69,53.69,0,0,1-9-8.48C64.12,61.88,61.26,58.2,60,54.31a7.14,7.14,0,0,1,.23-5.52,5.18,5.18,0,0,1,5.05-2.41c4.13.26,7.78,3.51,10.48,6.36,3.51,3.68,6.64,7.76,9.84,11.71,1,1.25,2.77-.53,1.77-1.77-3.29-4-6.5-8.26-10.13-12-3.15-3.25-7.26-6.5-12-6.79a7.58,7.58,0,0,0-8.22,7.61C57,56.22,60.31,60.74,63,64.33A57,57,0,0,0,74.41,75.6c1.29,1,2.54-1.21,1.26-2.16Z"/><path class="cls-3" d="M50.4,102.07a20,20,0,0,1-2.93,5.76c-1.33,1.52-3,1.33-4.59.26-2.69-1.87-4.3-5.28-5.48-8.23-3.32-8.31-4.3-17.39-5.32-26.21-.54-4.64-1-9.28-1.78-13.9a60.9,60.9,0,0,0-3-12.94c-.48-1.22-1.31-2.53-2.77-2.55-1.27,0-2.34,1-3.25,1.72-.18.14-.75.48-.8.66s1,.19,1,.25c0-.1-.24-.64-.3-.83-.3-1-.52-2.1-.74-3.16-.26-1.23-.51-2.46-.83-3.68a5,5,0,0,0-1-2.35c-1.06-1-2.73.09-3.74.67a15.36,15.36,0,0,1-2.18,1.19c-1.06.38-1.69-.19-2.35-1-.94-1.12-2.53.49-1.61,1.6A4.08,4.08,0,0,0,12.82,41a7.7,7.7,0,0,0,2-.88c.76-.43,1.65-.79,2.35-1.27s-.52-.17-.28-.48a2.59,2.59,0,0,0,.14.29c.09.39.29.89.4,1.33.29,1.11.52,2.24.76,3.37s.46,2.25.79,3.35a3.21,3.21,0,0,0,1.13,2c1.14.65,2.17-.67,3-1.31.3-.24,1-.91,1.39-.87s.84,1.47,1,1.89c3.05,9.23,3.63,19.17,4.8,28.75,1.08,8.92,2.28,18.26,6.36,26.39,1.51,3,3.82,6.57,7.29,7.5,5.1,1.38,7.25-4.75,8.7-8.39.54-1.36-1.65-1.94-2.18-.6Z"/></g></g></svg>