<svg xmlns="http://www.w3.org/2000/svg" viewBox="0 0 160.21 125.61"><defs><style>.cls-1{fill:#75bcad;stroke:#75bcad;}.cls-1,.cls-10,.cls-2,.cls-4,.cls-5,.cls-6,.cls-7,.cls-8,.cls-9{stroke-miterlimit:10;}.cls-1,.cls-2{stroke-width:0.75px;}.cls-2{fill:#5fb390;stroke:#5fb390;}.cls-3{fill:#1d1d1b;}.cls-4{fill:#8bc4c9;stroke:#8bc4c9;}.cls-4,.cls-5,.cls-7{stroke-width:0.75px;}.cls-5{fill:#d7d7d7;stroke:#d7d7d7;}.cls-6{fill:#582d29;stroke:#582d29;stroke-width:1.38px;}.cls-7{fill:#54a6a8;stroke:#54a6a8;}.cls-10,.cls-8,.cls-9{fill:none;stroke:#1d1d1b;}.cls-8{stroke-width:2px;}.cls-9{stroke-width:2.03px;}.cls-10{stroke-width:2.42px;}</style></defs><g id="Capa_9" data-name="Capa 9"><path class="cls-1" d="M57.15,38.75A13.81,13.81,0,0,1,46.89,26.56c-.43-5.37-3.17-12,1.61-14.46,7.44-3.79,20.38,3.17,21.42,4,1.47,1.17,4.55,3.63,5,7.36C75.91,30.86,66.33,40.86,57.15,38.75Z"/><path class="cls-1" d="M75.28,4.14c12.1,20-35.68,32.06-34.74,62.32.75,24.5,18.51,39.46,21.06,41.35,14.73,10.93,34.16,11.33,53,6.39,14-3.65,19.76-17.59,21.68-20.9a54.44,54.44,0,0,0,6.77-19.55,50.45,50.45,0,0,0-2.32-25.36c-.83-2.25-3.66-13.08-13.93-20.12C102.37,11.49,96.18,17.56,92.44,15,82.7,8.26,73.53,1.24,75.28,4.14Z"/><path class="cls-2" d="M86.31,78.53c-1.11-4.48-14.87-4-23-9.6-2.61-1.8-2.84-2.55-3.59-8.47-.1-.76-1,1.82-.76,3.74.25,1.63-1.19,4.67,11.16,10.9,2.78,1.4,12.18,4.8,13.81,3.33C84.51,77.91,86.55,79.48,86.31,78.53Z"/><path class="cls-2" d="M93.08,14.36c-.16-1.28,10.56-5.8,17.65-5.35,2.06.13,6.39,9.52,5.68,10.58s-4.49-1.83-13-3.58C96.54,14.58,93.19,15.19,93.08,14.36Z"/><path class="cls-2" d="M47,11.07c-.28-.16-6,8.59,2.68,24.37,2.15,3.89,7.84,5.3,8.16,4.81S50.31,29.6,49.18,25.52C47.25,18.56,47.24,11.22,47,11.07Z"/><path class="cls-2" d="M50.11,38.47C38.75,56.39,38.29,70.05,43.83,85c8.82,23.8,33.92,40,64.44,31.42,12.64-3.57,21.12-11.77,21.52-13.11.27-.89-8.83,7.93-22.73,9.63-16.23,2-40.14-5-50.8-25.4-11.51-22.08,2-47,2-47C54.26,40,50.79,37.41,50.11,38.47Z"/><path class="cls-1" d="M105.44,117.94c10.71-4.64,20.77-3.61,34.84-29.33,1.84-3.35,6.69,1.08,7.4,2.07,7.15,9.92-20.72,30.34-36.18,30C110.45,120.63,103.34,118.85,105.44,117.94Z"/><path class="cls-1" d="M59.15,119c-3.36-10.3,27.36-29.27,36.68-27.64,3.8.66,6.63,2.44,6.71,3.65.93,14.22-28.24,34-39.81,27.71A7,7,0,0,1,59.15,119Z"/><path class="cls-2" d="M118.6,112.14c-7.87,4.25-16.66,3.58-11.74,8s45-10.83,41.68-26.84c-.41-2-14.46,19.35-22.07,20.38C120.46,114.5,120.26,111.24,118.6,112.14Z"/><path class="cls-2" d="M70.24,102c-3.38,1-15.62,14.26-13,18.69,2.13,3.54,8.6,5.29,14.21,3,23.48-9.58,30.22-21.06,29.91-21.44-.18-.22-3.41,5.35-16.62,13.69-9.15,5.78-14.9,6.3-19.68,4.81a8.41,8.41,0,0,1-4.1-4.2C59.48,112.76,64.12,108.58,70.24,102Z"/></g><g id="Capa_10" data-name="Capa 10"><path class="cls-3" d="M5.54,41.82l6.71-8.21,1-1.18a1.91,1.91,0,0,0,0-2.65,1.89,1.89,0,0,0-2.65,0L3.86,38l-1,1.18a1.92,1.92,0,0,0,0,2.65,1.9,1.9,0,0,0,2.65,0Z"/><path class="cls-3" d="M1.93,37.15l10.58.72L14,38A1.87,1.87,0,0,0,15.9,36.1,1.92,1.92,0,0,0,14,34.22L3.46,33.51,1.93,33.4A1.89,1.89,0,0,0,.06,35.28a1.91,1.91,0,0,0,1.87,1.87Z"/><path class="cls-3" d="M102.45,40.45c1.16-.38,2.29-.82,3.41-1.29a27.36,27.36,0,0,0,6-3.14,6.38,6.38,0,0,0,2.42-2.92A1.89,1.89,0,0,0,113,30.79a1.94,1.94,0,0,0-2.31,1.31c-.08.23.27-.46.08-.17,0,.05-.07.12-.11.18a1.53,1.53,0,0,0-.14.21c.09-.19.29-.34.07-.11s-.26.27-.39.39l-.24.21-.11.09c-.24.2.3-.21.11-.08a26.67,26.67,0,0,1-2.51,1.53c-.46.24-.93.46-1.41.68l-.67.31-.36.16c-.13,0-.6.23,0,0-.78.3-1.54.62-2.32.91l-1.14.41a1.87,1.87,0,0,0,1,3.61Z"/><path class="cls-3" d="M99.37,72.59,104.19,68l.69-.65a1.25,1.25,0,1,0-1.77-1.77l-4.83,4.64-.68.65a1.25,1.25,0,0,0,1.77,1.77Z"/><path class="cls-3" d="M121.68,32.25c-.17,2.41,2.38,4,4.26,4.84a37.56,37.56,0,0,0,6.44,2.18c.48.12,1,.24,1.45.34a1.91,1.91,0,0,0,2.3-1.31,1.88,1.88,0,0,0-1.31-2.3c-1.19-.25-2.38-.57-3.54-.92s-2-.65-3-1a.84.84,0,0,0-.19-.08s.44.19.15.06l-.34-.15c-.25-.11-.49-.23-.74-.36a9.19,9.19,0,0,1-1.21-.72l-.14-.11c-.17-.1.38.33.14.12l-.24-.22-.21-.21c-.25-.28,0,0,0,.07a1.32,1.32,0,0,0-.16-.25c-.2-.3.1.38.07.16a.94.94,0,0,0-.06-.24c.18.33,0,.49.06.14a1.9,1.9,0,0,0-1.88-1.88,1.92,1.92,0,0,0-1.87,1.88Z"/><path class="cls-3" d="M97.86,67.07l4.19,4.36.59.62a1.27,1.27,0,0,0,1.77,0,1.29,1.29,0,0,0,0-1.77l-4.19-4.36-.59-.61a1.25,1.25,0,0,0-1.77,0,1.27,1.27,0,0,0,0,1.76Z"/><path class="cls-3" d="M135.24,71.21l4.82-4.64.69-.65A1.25,1.25,0,1,0,139,64.15l-4.83,4.64-.68.65a1.25,1.25,0,0,0,1.77,1.77Z"/><path class="cls-3" d="M133.73,65.69l4.19,4.36.59.62a1.25,1.25,0,0,0,1.77-1.77l-4.19-4.36-.59-.61a1.26,1.26,0,0,0-1.77,0,1.27,1.27,0,0,0,0,1.76Z"/><path class="cls-4" d="M60.73,19.14c-1.17,2.53,5.2,9.17,7.74,8.13,1.7-.7,3-5.35.2-8.13S61.49,17.48,60.73,19.14Z"/><path class="cls-4" d="M63.81,63.18c-.26-.82,2-3,4.53-2.67,1.62.22,3.29,1.44,3.11,2.21C71.12,64.15,64.2,64.47,63.81,63.18Z"/><path class="cls-4" d="M87.84,97.52c.21,1.14,5.32,2.42,7.37-.14.69-.86,1.25-2.42.63-3.08C94.47,92.84,87.58,96.09,87.84,97.52Z"/><path class="cls-5" d="M111.67,60.57c3.1.9,6-14.57,4.31-18-1.07-2.13-3.74,5.15-4.32,3-.36-1.3-2.54-1-4.19-3.51C107.17,41.68,106.94,59.19,111.67,60.57Z"/><path class="cls-5" d="M128.87,60.79c2.86.83,5.55-13.41,4-16.53-1-2-3.45,4.74-4,2.81-.33-1.2-2.34-.88-3.86-3.24C124.73,43.41,124.51,59.52,128.87,60.79Z"/><path class="cls-6" d="M116.28,78.07c3.28,2.5,8.28,3.54,9.93-2.84.83-3.21-.51-7.09-6.3-6.44C113.6,69.5,113.09,75.65,116.28,78.07Z"/><path class="cls-7" d="M125.54,46.06c-.85,12.26.77,13.45,2.64,14.54,1.55.91,1.85,1.95.6-.21C128,59,125.84,41.75,125.54,46.06Z"/><path class="cls-7" d="M108.44,44.58c-.85,12.27,1.65,12.62,2.64,14.55.79,1.55,2.59,2.61,1.34.45C112,58.78,108.7,40.93,108.44,44.58Z"/></g><g id="Capa_2" data-name="Capa 2"><g id="Capa_1" data-name="Capa 1"><path class="cls-8" d="M94,15.49a51.61,51.61,0,0,1,23.91,5.94c-7.23-18.06-6.72-13.16-15.81-10.89a23.93,23.93,0,0,0-8.56,3.61A.75.75,0,0,0,94,15.49Z"/><path class="cls-9" d="M116.8,48.36c.14,4.27-.8,13.27-4.41,13.18-3.44-.09-6.75-8.85-5-17.53.69-3.38,1.82,1.15,4.35,1.17,2.27,0,3-5.55,4.19-2.29C116.91,45.53,116.71,45.78,116.8,48.36Z"/><path class="cls-9" d="M133.92,49.21c.14,4.27-.8,13.26-4.4,13.17-3.44-.08-6.76-8.84-5-17.52.7-3.38,1.82,1.14,4.36,1.17,2.26,0,3-5.56,4.18-2.3C134,46.38,133.84,46.63,133.92,49.21Z"/><path class="cls-8" d="M73.92,18.76C77.43,17.4,77.77,15.05,75.58,5c-1.45-6.63,9,4.47,15.48,9.55,1.2.93,4,.81,4,.81a52,52,0,0,1,48.24,64"/><path class="cls-8" d="M132.74,100.48a52.08,52.08,0,0,0,10.1-19.41"/><path class="cls-8" d="M143.28,79.32c-.13.59-.28,1.17-.44,1.75a52,52,0,0,1-50.29,38.67,51.45,51.45,0,0,1-9.62-.9"/><path class="cls-8" d="M61.29,109A55.13,55.13,0,0,1,40.52,67.71c-.43-10.38,2.73-20.12,9.39-29.82l.21.08,8.56,3.34A13.79,13.79,0,0,1,50.12,38c-3.31-3-3.94-7.34-3.94-9.81C46.18,19.76,36.35,6,61.39,13c5,1.39,9.78,2.61,12.53,6.58A14.83,14.83,0,0,1,76,23.93a15.17,15.17,0,0,1,.6,4.23l-.1-.37a15.3,15.3,0,0,0-2.68-8.63l.29-.11a15.1,15.1,0,0,1,2.49,8.34"/></g><g id="Capa_8" data-name="Capa 8"><path class="cls-3" d="M49.88,100c-.9,2.27-2.43,7.52-5.73,6.86-2.27-.45-4-2.79-5.07-4.62-3.27-5.37-4.72-11.82-5.78-17.94-1.22-7-1.84-14.12-2.75-21.19-.45-3.53-1-7.07-1.68-10.57-.33-1.57-.69-3.13-1.13-4.68a12.61,12.61,0,0,0-1.13-3.35c-1.82-2.85-3.75,2-4.22,3.19-1,2.51-1.75,5.72-3.24,7.81,0,.06-.16.14-.18.2-.08.24-.08-.06,0,0-.14-.21.65.13.66.12s0,0-.14-.26-.24-.5-.34-.75c-.67-1.65-1.18-3.38-1.71-5.08-.42-1.34-.78-2.72-1.32-4a1.57,1.57,0,0,0-1-1.07c-1.15-.32-1.43.78-1.54,1.61a32,32,0,0,1-.73,4.12,7.35,7.35,0,0,1-.28.91c-.17.43-.25.22,0,.19s.46,0,.66,0,.09.2.07,0a4.3,4.3,0,0,0-.28-.52,12.93,12.93,0,0,1-.71-2.29A112.24,112.24,0,0,1,10.28,37c-.2-1.44-2.39-.83-2.18.6.35,2.45.71,4.89,1.14,7.32a36.7,36.7,0,0,0,1.59,6.64c.49,1.26,1.74,3.13,3.21,1.72a5.1,5.1,0,0,0,1.09-2.45c.18-.75.32-1.52.44-2.29.07-.46.14-.93.2-1.4,0-.27.07-.54.11-.81s0-.25-.25.29l-.8.33-.9-.48,0,0c-.06.12,0-.11,0,0a2.06,2.06,0,0,0,.2.54c.18.52.35,1.05.51,1.58.43,1.34.83,2.68,1.27,4a35,35,0,0,0,1.31,3.59c.32.72.71,1.52,1.56,1.71,1.89.42,2.89-2.24,3.45-3.56,1-2.27,1.68-4.63,2.64-6.9a11,11,0,0,1,.52-1.1l.27-.46s.06,0,0,0a1.81,1.81,0,0,1-.6,0s-.5-.26-.44-.27.2.5.19.5c.41,1.27.8,2.55,1.12,3.84a130.35,130.35,0,0,1,2.76,16.64c1.25,10.5,2,21.45,5.83,31.39,1.49,3.82,3.61,8.46,7.45,10.43a5.2,5.2,0,0,0,6.33-.83c1.86-1.88,2.78-4.62,3.74-7,.54-1.36-1.65-2-2.19-.61Z"/><path class="cls-10" d="M126.3,76.76c2.11-1.45-.15-7.24-4.12-7.85-4.5-.69-9.85,3.44-7.88,6.76C118.48,82.72,119.79,81.23,126.3,76.76Z"/><path class="cls-8" d="M99.44,104.74a40.13,40.13,0,0,1-6.79,7.33c-.92.79-1.89,1.57-2.92,2.34q-2,1.55-4.33,3c-.82.51-1.65,1-2.47,1.46l-.48.27c-6.81,3.74-13.5,5.69-18.36,5.58-2.65-.06-4.77-.74-6.08-2.08l-.13-.23-.11-.16a5.94,5.94,0,0,0-.55-.67,5,5,0,0,1-.57-1.71,7.21,7.21,0,0,1,0-1.8,11.85,11.85,0,0,1,1-3.28,15.45,15.45,0,0,1,.87-1.72A27,27,0,0,1,61,109.32l.25-.3A51.63,51.63,0,0,1,73.66,98.54c1.53-1,3-1.82,4.57-2.59h0l1.5-.72L80.3,95c9.28-4.27,17.71-5,20.87-1.51a4.15,4.15,0,0,1,.42.52,1.63,1.63,0,0,1,.11.17,4.52,4.52,0,0,1,.58,1.35C102.94,98,101.86,101.24,99.44,104.74Z"/><path class="cls-8" d="M146.13,101.55a40.13,40.13,0,0,1-6.79,7.33c-.92.79-1.9,1.57-2.92,2.34-1.36,1-2.8,2-4.33,3-7.81,4.87-15.75,7.44-21.31,7.31-2.65-.06-4.77-.74-6.08-2.08a1.71,1.71,0,0,0-.13-.23,1.77,1.77,0,0,0-.12-.17,3.92,3.92,0,0,0-.25-.32,52.15,52.15,0,0,0,36.16-30.63c3.36-.16,6,.55,7.5,2.19a4.15,4.15,0,0,1,.42.52,1.63,1.63,0,0,1,.11.17A4.26,4.26,0,0,1,149,92.3C149.63,94.78,148.55,98.05,146.13,101.55Z"/><path class="cls-3" d="M85.69,77.71a53.42,53.42,0,0,1-12.46-2.33c-3.72-1.17-7.86-2.63-11-5.08S58,63.5,61.66,61s8.77-1.69,12.74-.74c4.94,1.19,9.79,2.92,14.63,4.49,1.53.5,2.19-1.92.66-2.41-5-1.65-10.13-3.49-15.32-4.65-4.51-1-10.11-1.52-14.13,1.25a7.56,7.56,0,0,0-2,10.67c2.5,3.77,7.31,5.63,11.36,7.17a56.21,56.21,0,0,0,16.1,3.44c1.61.11,1.6-2.39,0-2.5Z"/></g></g></svg>