<svg xmlns="http://www.w3.org/2000/svg" viewBox="0 0 160.21 125.61"><defs><style>.cls-1,.cls-3{fill:#75bcad;stroke:#75bcad;}.cls-1,.cls-10,.cls-11,.cls-2,.cls-3,.cls-5,.cls-6,.cls-7,.cls-8,.cls-9{stroke-miterlimit:10;}.cls-1,.cls-2{stroke-width:0.75px;}.cls-2{fill:#5fb390;stroke:#5fb390;}.cls-3{stroke-width:0.74px;}.cls-4{fill:#1d1d1b;}.cls-5,.cls-6{fill:#8bc4c9;stroke:#8bc4c9;}.cls-5,.cls-7,.cls-8,.cls-9{stroke-width:0.75px;}.cls-6{stroke-width:0.74px;}.cls-7{fill:#d7d7d7;stroke:#d7d7d7;}.cls-8{fill:#582d29;stroke:#582d29;}.cls-9{fill:#54a6a8;stroke:#54a6a8;}.cls-10,.cls-11{fill:none;stroke:#1d1d1b;}.cls-10{stroke-width:2px;}.cls-11{stroke-width:2.03px;}</style></defs><g id="Capa_9" data-name="Capa 9"><path class="cls-1" d="M53.63,38.33A13.82,13.82,0,0,1,43.37,26.14c-.43-5.37-3.17-12,1.62-14.46,7.43-3.79,20.37,3.17,21.42,4,1.46,1.17,4.55,3.63,5,7.36C72.4,30.44,62.81,40.44,53.63,38.33Z"/><path class="cls-1" d="M72.76,3C86.83,24.85,37.13,23.37,37.41,65.65c.16,24.71,19.13,39.14,21.67,41,14.73,10.94,34.17,11.33,53,6.39,14-3.65,19.75-17.59,21.67-20.9a54.62,54.62,0,0,0,6.78-19.55,50.52,50.52,0,0,0-2.32-25.35c-.84-2.26-3.67-13.09-13.94-20.13-24.45-16.78-31-10.46-34.77-13C79.8,7.39,70.93.17,72.76,3Z"/><path class="cls-2" d="M76.51,65.51c1.29,4.43-10.86,10.92-15.09,19.83-1.37,2.86-1.19,3.62,1.12,9.12.3.71-1.82-1-2.53-2.85-.6-1.54-3.37-3.45,4.21-15C65.93,74,72.36,66.32,74.5,66.78,75.26,67,76.24,64.57,76.51,65.51Z"/><path class="cls-2" d="M91,14.17c-.17-1.28,10.55-5.8,17.64-5.36,2.07.13,6.39,9.52,5.68,10.58s-4.49-1.82-13-3.58C94.41,14.38,91.06,15,91,14.17Z"/><path class="cls-2" d="M43.7,10.75c-.28-.16-6,8.59,2.68,24.36,2.15,3.9,7.84,5.31,8.16,4.82S47,29.28,45.89,25.2C44,18.23,44,10.9,43.7,10.75Z"/><path class="cls-2" d="M47.34,37.76C36,55.68,35.51,69.34,41.05,84.29c8.83,23.8,33.92,40,64.44,31.42,12.65-3.57,21.13-11.77,21.53-13.11.27-.89-8.83,7.93-22.73,9.63-16.23,2-40.15-5-50.8-25.4-11.52-22.08,2-47,2-47C51.48,39.24,48,36.7,47.34,37.76Z"/><path class="cls-3" d="M65.83,111.25c3-10.34,38.81-8.79,45.56-2.24,2.75,2.66,4.08,5.7,3.47,6.74-7.17,12.2-42.18,12.19-48.16.56A7,7,0,0,1,65.83,111.25Z"/><path class="cls-2" d="M115.25,116.1c-3.26,5-14.15,9-11.62,8.65,10.33-1.55,9.94,1,18.07-4.77.55-.4,6.32-1.42,3.74-8.65C123.4,105.62,116.27,114.52,115.25,116.1Z"/><path class="cls-2" d="M142,65c.38,8-3.06,11.17-.52,10.84,15.48-2.07,14.4-15.92,10.41-17.06C144.62,56.73,141.86,63.12,142,65Z"/><path class="cls-2" d="M84.47,103.68c-3.35-1.07-20.93,3-21.21,8.18C63,116,67.4,121.07,73.32,122.33c24.81,5.27,36.83-.44,36.79-.93,0-.29-5.82,2.51-21.44,2-10.82-.37-15.86-3.16-19-7.08a8.33,8.33,0,0,1-1-5.78C69.53,106.54,75.71,105.69,84.47,103.68Z"/></g><g id="Capa_10" data-name="Capa 10"><path class="cls-4" d="M6.38,43l4.93-9.4.7-1.33a1.88,1.88,0,1,0-3.24-1.9l-4.93,9.4-.7,1.34A1.88,1.88,0,0,0,6.38,43Z"/><path class="cls-4" d="M1.48,39.26,12,37.85l1.49-.2a1.94,1.94,0,0,0,1.88-1.87c0-.91-.84-2-1.88-1.88L3,35.31l-1.49.2A1.93,1.93,0,0,0-.4,37.39c0,.9.84,2,1.88,1.87Z"/><path class="cls-4" d="M94.72,46.63a34.5,34.5,0,0,0,7.76-7.49,6,6,0,0,0,1.2-3.22,1.89,1.89,0,0,0-1.88-1.87,1.91,1.91,0,0,0-1.87,1.87.87.87,0,0,1,0,.23s.11-.57,0-.33c0,0,0,.09,0,.12-.06.24-.33.71,0,.12-.19.35-.36.71-.58,1-.12.18-.26.35-.38.53s.12-.16.13-.16l-.12.14L98.7,38c-.32.39-.67.76-1,1.13a46,46,0,0,1-4.21,3.8l-.73.58.17-.13-.08.06A2.09,2.09,0,0,0,92,44.51a1.88,1.88,0,0,0,2.75,2.12Z"/><path class="cls-4" d="M102.14,78.08l3.09-5.94.43-.84A1.25,1.25,0,1,0,103.51,70L100.42,76l-.44.85a1.25,1.25,0,0,0,2.16,1.26Z"/><path class="cls-4" d="M110.39,32.54c.66,2.51,3.61,3.09,5.81,3.34a33.51,33.51,0,0,0,6.49,0c.5,0,1-.08,1.49-.14a1.93,1.93,0,0,0,1.88-1.88c0-.91-.84-2-1.88-1.87-1.2.14-2.42.22-3.63.26s-2.13,0-3.2,0l-.76-.06-.39,0-.17,0c-.24,0,.5.08.11,0a12.83,12.83,0,0,1-1.37-.29l-.36-.11-.13,0c-.28-.09.35.18.17.07s-.36-.21-.53-.29.35.34.09.06l-.08-.07c-.18-.14.12-.15.14.19,0-.05-.1-.14-.12-.19s.15.46.06.11a1.88,1.88,0,0,0-3.62,1Z"/><path class="cls-4" d="M98.91,73.21,104.27,76l.76.4a1.25,1.25,0,1,0,1.26-2.16l-5.35-2.79-.77-.4a1.28,1.28,0,0,0-1.71.45,1.27,1.27,0,0,0,.45,1.71Z"/><path class="cls-4" d="M135.69,65.3l3.08-5.93.44-.85a1.25,1.25,0,0,0-2.16-1.26L134,63.2l-.44.84a1.25,1.25,0,1,0,2.16,1.26Z"/><path class="cls-4" d="M132.46,60.44l5.36,2.79.76.39a1.25,1.25,0,0,0,1.26-2.16l-5.36-2.78-.76-.4a1.25,1.25,0,1,0-1.26,2.16Z"/><path class="cls-5" d="M58,18.43c-1.17,2.53,5.2,9.17,7.74,8.13,1.69-.7,3-5.35.19-8.13S58.72,16.77,58,18.43Z"/><path class="cls-5" d="M64.72,90.06c.19.84,3.22,1.61,5.26,0,1.29-1,2.12-2.9,1.59-3.47C70.57,85.56,64.42,88.75,64.72,90.06Z"/><path class="cls-6" d="M101.32,110.62c-.47,1.06,3,5,6.12,4,1-.33,2.38-1.3,2.24-2.19C109.37,110.48,101.89,109.31,101.32,110.62Z"/><path class="cls-7" d="M111.23,62.83c3.23-.21.71-15.75-2-18.36-1.74-1.64-1.77,6.12-3,4.35-.78-1.11-2.71,0-5.14-1.89C100.57,46.6,106.32,63.14,111.23,62.83Z"/><path class="cls-7" d="M126.78,57.66c3-.22.5-14.51-2.07-16.88-1.62-1.49-1.57,5.65-2.75,4-.73-1-2.49,0-4.74-1.68C116.81,42.82,122.25,58,126.78,57.66Z"/><path class="cls-8" d="M117.08,73.75c3.1.77,9.29-2.32,13.94-3.68,3-.87-1.88-3.65-7.23-2.71S114.08,73,117.08,73.75Z"/><path class="cls-9" d="M118.25,44.63c3.5,11.79,5.43,12.34,7.56,12.7,1.77.31,2.41,1.19.48-.41C125.59,56.34,117.21,41.12,118.25,44.63Z"/><path class="cls-9" d="M101.79,49.07c3.37,11.83,5.84,11.31,7.43,12.78,1.27,1.19,3.33,1.58,1.42,0C109.93,61.23,100.78,45.55,101.79,49.07Z"/></g><g id="Capa_2" data-name="Capa 2"><g id="Capa_1" data-name="Capa 1"><path class="cls-10" d="M91.16,15.11a51.46,51.46,0,0,1,23.91,5.94C107.84,3,108.35,7.88,99.26,10.15a23.93,23.93,0,0,0-8.56,3.61A.75.75,0,0,0,91.16,15.11Z"/><path class="cls-11" d="M111,49.47c1.49,4,3.48,12.82,0,13.89-3.29,1-9.23-6.22-10.31-15-.42-3.42,2.09.51,4.5-.28,2.16-.7,1.1-6.23,3.24-3.51C110.15,46.75,110,47.06,111,49.47Z"/><path class="cls-11" d="M127.44,44.8c1.5,4,3.49,12.82,0,13.89-3.28,1-9.23-6.22-10.3-15-.42-3.42,2.09.5,4.5-.28,2.15-.7,1.09-6.23,3.23-3.52C126.65,42.08,126.54,42.38,127.44,44.8Z"/><path class="cls-11" d="M132,69.71c2.06-1.42-3.92-3.43-8.78-3-4.51.42-10.94,8.25-7.61,7.74C122.42,73.43,127.16,73,132,69.71Z"/><path class="cls-10" d="M71.08,18.37c3.51-1.36,3.85-3.71,1.66-13.78-1.45-6.63,9,4.47,15.48,9.55,1.2.93,4,.81,4,.81a52,52,0,0,1,48.24,64"/><path class="cls-10" d="M129.9,100.09A52.08,52.08,0,0,0,140,80.68"/><path class="cls-10" d="M140.44,78.93c-.13.59-.28,1.17-.44,1.75a52.16,52.16,0,0,1-24.3,31.73"/><path class="cls-10" d="M64,112.38c-15.29-9-25.49-25.82-26.29-45.06-.43-10.38,2.73-20.12,9.39-29.82l.21.08,8.56,3.34a13.79,13.79,0,0,1-8.56-3.34c-3.31-3-3.94-7.34-3.94-9.81,0-8.4-9.83-22.14,15.21-15.21,5,1.39,9.78,2.61,12.53,6.58a14.83,14.83,0,0,1,2.08,4.4,15.17,15.17,0,0,1,.6,4.23l-.1-.37A15.3,15.3,0,0,0,71,18.77l.29-.11A15.1,15.1,0,0,1,73.76,27"/></g><g id="Capa_7" data-name="Capa 7"><path class="cls-10" d="M116,114a4.53,4.53,0,0,1-.23,1.45c-.75,2.46-3.4,4.66-7.3,6.35a40.25,40.25,0,0,1-9.64,2.63c-1.2.18-2.44.33-3.72.44-1.69.15-3.44.23-5.24.23-9.2,0-17.3-2-22-5.07-2.22-1.46-3.66-3.16-4.06-5a2.44,2.44,0,0,0,0-.27,1.34,1.34,0,0,0,0-.2,4.82,4.82,0,0,0-.11-.85,5.12,5.12,0,0,1,.25-1.33c0-.14.11-.29.17-.43a7,7,0,0,1,1-1.53,11.65,11.65,0,0,1,2.54-2.28,17,17,0,0,1,1.64-1c4.78-2.6,12.22-4.26,20.57-4.26,1.8,0,3.55.07,5.25.22h0c.56.06,1.11.11,1.66.18l.6.07c9.62,1.22,16.91,4.75,18.33,9.06a4.23,4.23,0,0,1,.18.7,3.83,3.83,0,0,1,.08.67A1.34,1.34,0,0,1,116,114Z"/><path class="cls-10" d="M126.42,114a4.53,4.53,0,0,1-.23,1.45c-.75,2.46-3.4,4.66-7.3,6.35a40.25,40.25,0,0,1-9.64,2.63,59.1,59.1,0,0,1-9,.67c-1.79,0-3.53-.08-5.21-.23,1.28-.11,2.52-.26,3.72-.44a40.25,40.25,0,0,0,9.64-2.63c3.9-1.69,6.55-3.89,7.3-6.35A4.53,4.53,0,0,0,116,114a1.34,1.34,0,0,0,0-.2,3.83,3.83,0,0,0-.08-.67,51.9,51.9,0,0,0,7.06-4.66,7.83,7.83,0,0,1,3.39,4.66,3.83,3.83,0,0,1,.08.67A1.34,1.34,0,0,1,126.42,114Z"/><path class="cls-4" d="M85.71,75.81a53.83,53.83,0,0,1-8,9.4c-2.91,2.72-6.29,5.63-10,7.16a7.28,7.28,0,0,1-5.87.17,5.21,5.21,0,0,1-2.63-5.05c.14-4.07,3.06-7.79,5.74-10.61,3.5-3.69,7.4-7,11.17-10.44,1.2-1.08-.57-2.84-1.76-1.76-3.88,3.49-7.91,6.91-11.47,10.74C59.83,78.73,56.76,83,56.71,87.7A7.61,7.61,0,0,0,65,95.57c4.62-.3,8.73-3.66,12.15-6.5a56,56,0,0,0,10.74-12c.9-1.35-1.27-2.6-2.16-1.26Z"/><path class="cls-4" d="M50.38,102.53a20,20,0,0,1-2.93,5.76c-1.33,1.52-3,1.33-4.59.26-2.69-1.87-4.29-5.28-5.47-8.23C34.06,92,33.08,82.92,32.06,74.1c-.54-4.63-1.05-9.27-1.77-13.89a60.92,60.92,0,0,0-3.05-12.94c-.48-1.22-1.3-2.54-2.77-2.55-1.27,0-2.34,1-3.25,1.72-.17.14-.75.48-.8.66s1,.19,1,.25a5.77,5.77,0,0,0-.3-.83c-.31-1-.52-2.1-.75-3.16-.26-1.23-.5-2.46-.83-3.68a5,5,0,0,0-1-2.36c-1.06-1-2.74.1-3.75.67a14.48,14.48,0,0,1-2.18,1.2c-1.06.38-1.68-.19-2.35-1-.93-1.12-2.53.49-1.6,1.6a4.07,4.07,0,0,0,4.16,1.69,7.76,7.76,0,0,0,2-.88c.75-.43,1.64-.79,2.35-1.28s-.53-.17-.29-.47a2.64,2.64,0,0,0,.15.29c.08.39.28.89.39,1.33.29,1.11.52,2.24.76,3.37s.46,2.25.79,3.35a3.24,3.24,0,0,0,1.13,2c1.14.65,2.17-.67,3-1.31.3-.24,1-.91,1.39-.87s.84,1.47,1,1.89C28.46,58.11,29,68,30.21,77.63c1.08,8.92,2.29,18.26,6.37,26.39,1.51,3,3.82,6.57,7.28,7.5,5.1,1.38,7.25-4.75,8.71-8.39.54-1.36-1.65-1.95-2.19-.6Z"/></g><g id="Capa_4" data-name="Capa 4"><path class="cls-10" d="M142.51,62.31c4.7-4.7,8.76-5.7,11.27-3.56s2.08,4.87,1,7.5c-2.19,5.26-5.65,7.71-12.24,10.82"/></g></g></svg>