<svg xmlns="http://www.w3.org/2000/svg" viewBox="0 0 160.21 125.61"><defs><style>.cls-1{fill:#75bcad;stroke:#75bcad;}.cls-1,.cls-10,.cls-2,.cls-4,.cls-5,.cls-6,.cls-7,.cls-8,.cls-9{stroke-miterlimit:10;}.cls-1,.cls-2{stroke-width:0.75px;}.cls-2{fill:#5fb390;stroke:#5fb390;}.cls-3{fill:#1d1d1b;}.cls-4{fill:#8bc4c9;stroke:#8bc4c9;}.cls-4,.cls-5,.cls-6,.cls-7{stroke-width:0.75px;}.cls-5{fill:#d7d7d7;stroke:#d7d7d7;}.cls-6{fill:#582d29;stroke:#582d29;}.cls-7{fill:#54a6a8;stroke:#54a6a8;}.cls-10,.cls-8,.cls-9{fill:none;stroke:#1d1d1b;}.cls-8{stroke-width:2px;}.cls-9{stroke-width:2.03px;}.cls-10{stroke-width:1.81px;}</style></defs><g id="Capa_9" data-name="Capa 9"><path class="cls-1" d="M56.66,38.84A13.8,13.8,0,0,1,46.4,26.64c-.43-5.36-3.17-12,1.61-14.45,7.43-3.8,20.37,3.17,21.42,4,1.46,1.17,4.55,3.63,5,7.36C75.42,31,65.83,41,56.66,38.84Z"/><path class="cls-1" d="M75.78,3.52C89.85,25.35,40.15,23.88,40.43,66.16c.16,24.71,19.13,39.14,21.68,41,14.73,10.93,34.16,11.33,53,6.39,14-3.65,19.76-17.59,21.68-20.9a54.83,54.83,0,0,0,6.77-19.55,50.45,50.45,0,0,0-2.32-25.36c-.83-2.25-3.67-13.08-13.94-20.13-24.45-16.77-31-10.45-34.77-13C82.82,7.9,74,.67,75.78,3.52Z"/><path class="cls-2" d="M76.92,66.57c4.26,1.78,1.69,15.31,6,24.2C84.25,93.62,85,94,90.69,95.62c.74.21-2,.76-3.81.17-1.58-.49-4.8.46-9-12.7-1-3-2.89-12.77-1.18-14.16C77.25,68.45,76,66.19,76.92,66.57Z"/><path class="cls-2" d="M93.33,14.16c-.17-1.28,10.55-5.8,17.65-5.35,2.06.12,6.39,9.51,5.68,10.58s-4.49-1.83-13-3.58C96.78,14.38,93.44,15,93.33,14.16Z"/><path class="cls-2" d="M47.24,10.87c-.28-.16-6,8.59,2.68,24.36,2.15,3.9,7.84,5.31,8.16,4.82S50.56,29.4,49.43,25.32C47.49,18.35,47.49,11,47.24,10.87Z"/><path class="cls-2" d="M50.36,38.27C39,56.19,38.53,69.85,44.08,84.8c8.82,23.79,33.92,40,64.44,31.41,12.64-3.56,21.12-11.76,21.52-13.1.27-.9-8.83,7.93-22.73,9.63-16.23,2-40.14-5-50.8-25.4-11.51-22.08,2-47,2-47C54.5,39.74,51,37.21,50.36,38.27Z"/><path class="cls-1" d="M66.31,112.41c2.41-10.56,38.51-11,45.67-4.83,2.92,2.51,4.43,5.5,3.88,6.58-6.52,12.67-41.72,14.65-48.39,3.29A6.93,6.93,0,0,1,66.31,112.41Z"/><path class="cls-2" d="M112.2,118.68c-3.25,5-10.07,3.68-7.61,4.38,12,3.41,22.19.26,27.49-7.79.38-.57.86-2.87-3.62-6.79S113.23,117.1,112.2,118.68Z"/><path class="cls-2" d="M84.84,103.82c-3.41-.89-20.73,4.19-20.73,9.36,0,4.13,4.66,9,10.64,9.88,25.07,3.87,36.75-2.51,36.68-3,0-.28-5.67,2.84-21.29,3.2-10.83.24-16-2.26-19.36-6a8.39,8.39,0,0,1-1.35-5.71C70.08,107.52,76.2,106.32,84.84,103.82Z"/></g><g id="Capa_10" data-name="Capa 10"><path class="cls-3" d="M5.83,40.16,12.53,32l1-1.18a1.91,1.91,0,0,0,0-2.65,1.9,1.9,0,0,0-2.65,0l-6.7,8.21-1,1.18a1.91,1.91,0,0,0,0,2.65,1.89,1.89,0,0,0,2.65,0Z"/><path class="cls-3" d="M2.22,35.5l10.57.71,1.53.1a1.88,1.88,0,0,0,1.87-1.87,1.92,1.92,0,0,0-1.87-1.88L3.74,31.85l-1.52-.1A1.87,1.87,0,0,0,.35,33.62,1.91,1.91,0,0,0,2.22,35.5Z"/><path class="cls-3" d="M103.68,45.3a34.5,34.5,0,0,0,7.76-7.49,6,6,0,0,0,1.2-3.22,1.88,1.88,0,0,0-3.75,0s0,.2,0,.23.12-.57,0-.33c0,0,0,.09,0,.12-.06.24-.33.71,0,.12-.19.35-.36.71-.59,1.05l-.37.53.12-.16a1.71,1.71,0,0,0-.11.14l-.27.33c-.33.39-.67.76-1,1.13a46,46,0,0,1-4.21,3.8l-.73.58.17-.13-.08.06a2,2,0,0,0-.86,1.12,1.86,1.86,0,0,0,.19,1.44,1.88,1.88,0,0,0,2.56.68Z"/><path class="cls-3" d="M109.81,73.65l3.08-5.93.44-.85a1.25,1.25,0,1,0-2.16-1.26l-3.08,5.93-.44.85a1.27,1.27,0,0,0,.44,1.71,1.28,1.28,0,0,0,1.72-.45Z"/><path class="cls-3" d="M117.8,32.24c.66,2.51,3.61,3.09,5.81,3.34a33.51,33.51,0,0,0,6.49,0c.5,0,1-.08,1.49-.14a1.93,1.93,0,0,0,1.88-1.88c0-.91-.84-2-1.88-1.87-1.2.15-2.42.22-3.63.27s-2.14,0-3.2,0l-.76-.05-.39-.05-.17,0c-.24,0,.5.08.11,0a10.8,10.8,0,0,1-1.37-.3l-.36-.11-.13-.05c-.28-.09.35.18.17.07s-.36-.21-.53-.29.35.34.09.06l-.08-.07c-.18-.14.12-.15.14.2,0-.06-.1-.15-.13-.2s.16.46.07.11a1.88,1.88,0,0,0-3.62,1Z"/><path class="cls-3" d="M106.58,68.79l5.36,2.78.76.4A1.25,1.25,0,0,0,114,69.81L108.6,67l-.76-.39a1.25,1.25,0,1,0-1.26,2.16Z"/><path class="cls-3" d="M140.56,62.89,143.65,57l.44-.85a1.25,1.25,0,0,0-2.16-1.26l-3.09,5.94-.43.84a1.25,1.25,0,1,0,2.15,1.26Z"/><path class="cls-3" d="M137.34,58l5.36,2.78.76.4a1.25,1.25,0,0,0,1.26-2.16l-5.36-2.79-.76-.39A1.25,1.25,0,1,0,137.34,58Z"/><path class="cls-4" d="M61,18.93c-1.17,2.54,5.2,9.18,7.74,8.13,1.69-.69,3-5.34.19-8.13S61.74,17.28,61,18.93Z"/><path class="cls-4" d="M88.63,91.16c.77.38,3.28-1.49,3.33-4.07,0-1.63-.92-3.47-1.7-3.41C88.8,83.78,87.42,90.57,88.63,91.16Z"/><path class="cls-4" d="M102,109.77c-.41,1.1,3.31,4.82,6.38,3.68,1-.38,2.32-1.44,2.13-2.32C110,109.18,102.45,108.42,102,109.77Z"/><path class="cls-5" d="M121.17,60.13c3.23-.26.48-15.76-2.32-18.32-1.76-1.62-1.68,6.14-3,4.38-.8-1.09-2.71,0-5.16-1.8C110.28,44.06,116.26,60.52,121.17,60.13Z"/><path class="cls-5" d="M135.72,55.28c3-.24.45-14.51-2.14-16.87-1.62-1.48-1.54,5.66-2.73,4-.73-1-2.49,0-4.75-1.66C125.7,40.49,131.2,55.63,135.72,55.28Z"/><path class="cls-6" d="M124.24,72.19c3.09.78,9.29-2.32,13.93-3.67,3-.87-1.88-3.65-7.22-2.71S121.23,71.44,124.24,72.19Z"/><path class="cls-7" d="M127.14,42.29c3.55,11.77,5.48,12.31,7.61,12.67,1.78.3,2.42,1.17.49-.41C134.53,54,126.08,38.78,127.14,42.29Z"/><path class="cls-7" d="M111.53,46.52c3.54,11.77,6,11.21,7.61,12.66,1.29,1.17,3.35,1.53,1.42,0C119.85,58.55,110.47,43,111.53,46.52Z"/></g><g id="Capa_2" data-name="Capa 2"><path class="cls-3" d="M50.69,100.13c-.86,2.15-2.29,7.15-5.33,6.92-2.11-.16-3.83-2.22-4.92-3.83-3.28-4.83-4.81-10.87-5.92-16.53C32,73.62,32.14,60,28.3,47.14c-.48-1.6-.81-3-2.38-3.76a11.22,11.22,0,0,0-4-1,32.55,32.55,0,0,0-9.79.68,7.3,7.3,0,0,0-3,1.12,1.51,1.51,0,0,0,.06,2.54,3.66,3.66,0,0,0,2.36.11A26.14,26.14,0,0,0,15.22,46c2.68-.81,6.25-2,7.92-4.38,2.19-3.2-1.85-5.44-4.31-6.44-1.18-.49-2.06,1.56-.88,2.07.18.07.66.41.76.42s-.08-.19,0-.19c-.16,0,.44-.14-.06,0-.2.06-.42.3-.63.39a4.84,4.84,0,0,1-1.29.35,6.55,6.55,0,0,1-6.14-2.44C9.63,34.67,8,36.29,9,37.41a8.74,8.74,0,0,0,9.35,2.77,3.64,3.64,0,0,0,2.57-2.13c.35-1.3-.68-2.27-1.77-2.74l-.88,2.07c1.05.43,2.77,1.07,3.25,2.22a.69.69,0,0,1,0,.5,3.24,3.24,0,0,1-.7.85c-1.78,1.6-4.42,2.41-6.68,3a21.81,21.81,0,0,1-3.09.68,4.38,4.38,0,0,0-.86,0s.23,0,.4.21-.06,1,0,1.07-.09,0,.19-.12.14-.07.35-.14a10.64,10.64,0,0,1,1.65-.46,30.71,30.71,0,0,1,4.15-.59c2.48-.19,5.78-.49,8.07.7a1.65,1.65,0,0,1,.63.53,18.42,18.42,0,0,1,1.12,3.75,93.14,93.14,0,0,1,1.83,9.21c1.82,12,2.1,24.31,5.71,35.91C35.65,99.46,37.69,105,41.81,108c2,1.43,4.58,1.93,6.65.37,2.34-1.76,3.37-5,4.42-7.6.54-1.35-1.65-1.94-2.19-.6Z"/><g id="Capa_1" data-name="Capa 1"><path class="cls-8" d="M94.18,15.07A51.46,51.46,0,0,1,118.09,21c-7.23-18.07-6.71-13.17-15.8-10.9a24.06,24.06,0,0,0-8.57,3.61A.75.75,0,0,0,94.18,15.07Z"/><path class="cls-9" d="M121.2,46.85c1.49,4,3.48,12.82,0,13.89-3.29,1-9.23-6.22-10.31-15-.42-3.42,2.09.5,4.5-.28,2.15-.7,1.1-6.23,3.23-3.51C120.4,44.13,120.29,44.43,121.2,46.85Z"/><path class="cls-10" d="M135.75,43.1c1.41,3.48,3.32,11.14.16,12-3,.86-8.54-5.47-9.6-13.11-.42-3,1.92.46,4.13-.2,2-.59,1-5.4,2.95-3C135,40.73,134.9,41,135.75,43.1Z"/><path class="cls-9" d="M139.41,68.37c2.06-1.41-3.92-3.42-8.78-3-4.51.42-10.94,8.25-7.61,7.74C129.83,72.1,134.57,71.7,139.41,68.37Z"/><path class="cls-8" d="M74.1,18.33C77.61,17,78,14.62,75.76,4.55c-1.45-6.63,9,4.47,15.48,9.55,1.2.93,4,.81,4,.81a52,52,0,0,1,48.24,64"/><path class="cls-8" d="M132.92,100.05A52.08,52.08,0,0,0,143,80.64"/><path class="cls-8" d="M143.46,78.89c-.13.59-.28,1.17-.44,1.75a52.13,52.13,0,0,1-27.17,33.26"/><path class="cls-8" d="M64.66,110.89c-14-9.3-23.2-25.37-24-43.61-.43-10.38,2.73-20.12,9.39-29.82l.21.08,8.56,3.34a13.79,13.79,0,0,1-8.56-3.34c-3.3-3-3.94-7.33-3.94-9.81,0-8.4-9.83-22.14,15.21-15.21,5,1.39,9.78,2.61,12.53,6.58a14.83,14.83,0,0,1,2.08,4.4,15.17,15.17,0,0,1,.6,4.23l-.1-.37A15.3,15.3,0,0,0,74,18.73l.29-.11A15.1,15.1,0,0,1,76.78,27"/></g><g id="Capa_4" data-name="Capa 4"><path class="cls-8" d="M115.86,114a4.53,4.53,0,0,1-.23,1.45c-.75,2.46-3.4,4.66-7.3,6.35a40.25,40.25,0,0,1-9.64,2.63,59.1,59.1,0,0,1-9,.67c-14.43,0-26.13-5-26.13-11.1a5.46,5.46,0,0,1,1.06-3.13c.1-.14.2-.29.32-.43a11.65,11.65,0,0,1,2.54-2.28,17,17,0,0,1,1.64-1c4.78-2.6,12.22-4.26,20.57-4.26a58.65,58.65,0,0,1,7.53.47c10.62,1.35,18.39,5.5,18.59,10.43a.22.22,0,0,1,0,.08A.49.49,0,0,1,115.86,114Z"/><path class="cls-8" d="M132.31,113.82a4.53,4.53,0,0,1-.23,1.45c-.75,2.46-3.4,4.66-7.3,6.35-4.74,2-11.32,3.3-18.6,3.3a58,58,0,0,1-7.49-.47,40.25,40.25,0,0,0,9.64-2.63c3.9-1.69,6.55-3.89,7.3-6.35a4.53,4.53,0,0,0,.23-1.45,1.34,1.34,0,0,0,0-.2,52.07,52.07,0,0,0,10.72-6.94C130.16,108.78,132.31,111.2,132.31,113.82Z"/><path class="cls-3" d="M90.67,65.73a53.48,53.48,0,0,1,2.29,13c.18,4,.34,8.79-1.27,12.56A6.52,6.52,0,0,1,88,95.08a5.4,5.4,0,0,1-5.26-1.51c-3-2.82-4-7.33-4.42-11.23-.59-4.94-.7-10-.93-14.93-.08-1.6-2.58-1.61-2.5,0,.24,5.19.34,10.45,1,15.6.58,4.39,1.82,9.35,5.22,12.46,3.22,2.94,7.9,3.09,11-.18,3.2-3.44,3.37-8.79,3.43-13.23a56.24,56.24,0,0,0-2.42-17,1.26,1.26,0,0,0-2.42.67Z"/></g></g></svg>