<svg xmlns="http://www.w3.org/2000/svg" viewBox="0 0 160.21 125.61"><defs><style>.cls-1{fill:#75bcad;stroke:#75bcad;}.cls-1,.cls-2,.cls-4,.cls-5,.cls-6,.cls-7,.cls-8,.cls-9{stroke-miterlimit:10;}.cls-1,.cls-2{stroke-width:0.75px;}.cls-2{fill:#5fb390;stroke:#5fb390;}.cls-3{fill:#1d1d1b;}.cls-4{fill:#8bc4c9;stroke:#8bc4c9;}.cls-4,.cls-5,.cls-6,.cls-7{stroke-width:0.75px;}.cls-5{fill:#d7d7d7;stroke:#d7d7d7;}.cls-6{fill:#582d29;stroke:#582d29;}.cls-7{fill:#54a6a8;stroke:#54a6a8;}.cls-8,.cls-9{fill:none;stroke:#1d1d1b;}.cls-8{stroke-width:2px;}.cls-9{stroke-width:2.03px;}</style></defs><g id="Capa_9" data-name="Capa 9"><path class="cls-1" d="M76.05,1.59C90.11,23.43,40.42,22,40.69,64.24c.16,24.71,19.13,39.14,21.68,41,14.73,10.93,34.16,11.32,53,6.39,14-3.66,19.76-17.6,21.68-20.9a54.7,54.7,0,0,0,6.77-19.55,50.44,50.44,0,0,0-2.32-25.36c-.83-2.25-3.67-13.08-13.94-20.13-24.45-16.77-31-10.45-34.77-13C83.08,6,74.22-1.25,76.05,1.59Z"/><path class="cls-1" d="M57.34,37.21A13.8,13.8,0,0,1,47.08,25c-.43-5.36-3.17-12,1.61-14.45,7.43-3.8,20.37,3.17,21.42,4,1.46,1.17,4.55,3.62,5,7.36C76.1,29.32,66.51,39.32,57.34,37.21Z"/><path class="cls-2" d="M78,80.23c3.64-2.84,14.18,6,24,6.67,3.16.2,3.8-.24,8-4.43.55-.54-.29,2.08-1.71,3.41-1.21,1.13-2,4.4-15.51,1.66-3-.62-12.55-3.75-12.92-5.91C79.83,80.86,77.26,80.84,78,80.23Z"/><path class="cls-2" d="M93.92,12.43c-.17-1.28,10.55-5.8,17.64-5.35,2.07.13,6.39,9.52,5.68,10.58s-4.49-1.83-13-3.58C97.37,12.65,94,13.26,93.92,12.43Z"/><path class="cls-2" d="M47.82,9.14c-.27-.16-6,8.59,2.69,24.37,2.14,3.89,7.83,5.3,8.15,4.81S51.15,27.67,50,23.59C48.08,16.63,48.07,9.29,47.82,9.14Z"/><path class="cls-2" d="M50.94,36.54C39.58,54.46,39.12,68.12,44.66,83.07c8.82,23.8,33.92,40,64.44,31.42,12.65-3.57,21.12-11.77,21.52-13.11.27-.89-8.83,7.93-22.72,9.63-16.24,2-40.15-5-50.81-25.4-11.51-22.08,2-47,2-47C55.09,38,51.62,35.48,50.94,36.54Z"/><path class="cls-1" d="M127.64,104.78c17.73-16.67,5.37-15,21.72-18,3.76-.69,6.6,2.52,6.71,3.74,1.32,14.3-26.85,33.92-38.42,27.46C116.73,117.42,126,106.34,127.64,104.78Z"/><path class="cls-1" d="M60.38,112.27c2.41-10.56,38.51-11,45.67-4.84,2.92,2.52,4.43,5.5,3.87,6.58-6.51,12.67-41.71,14.65-48.38,3.29A6.91,6.91,0,0,1,60.38,112.27Z"/><path class="cls-2" d="M128.85,104.76c-2,5.63-24.38,8.9-12.26,15,5.93,3,41.17-11.15,40-27.46-.05-.68-24.56,25.59-29.82,22.82S129.48,103,128.85,104.76Z"/><path class="cls-2" d="M78.61,103.41c-3.4-.88-20.72,4.19-20.72,9.36,0,4.13,4.65,9,10.64,9.89,25.06,3.87,36.75-2.51,36.68-3,0-.28-5.68,2.84-21.29,3.19-10.83.25-16-2.26-19.36-6a8.39,8.39,0,0,1-1.35-5.71C63.86,107.11,70,105.92,78.61,103.41Z"/></g><g id="Capa_10" data-name="Capa 10"><path class="cls-3" d="M5.64,36.89l6.7-8.22,1-1.18a1.91,1.91,0,0,0,0-2.65,1.9,1.9,0,0,0-2.65,0L4,33.06,3,34.24a1.91,1.91,0,0,0,0,2.65,1.9,1.9,0,0,0,2.65,0Z"/><path class="cls-3" d="M2,32.22l10.57.71,1.53.11A1.89,1.89,0,0,0,16,31.16a1.91,1.91,0,0,0-1.87-1.87L3.55,28.58,2,28.47A1.88,1.88,0,0,0,.16,30.35,1.91,1.91,0,0,0,2,32.22Z"/><path class="cls-3" d="M101.16,44.27a34.19,34.19,0,0,0,7.75-7.48,6,6,0,0,0,1.2-3.22,1.88,1.88,0,0,0-1.87-1.87,1.91,1.91,0,0,0-1.88,1.87.87.87,0,0,1,0,.23s.12-.57,0-.33l0,.12c-.06.23-.33.71,0,.12-.2.35-.37.71-.59,1s-.25.36-.38.54.12-.16.13-.17l-.12.15a4,4,0,0,1-.26.32c-.33.39-.67.77-1,1.13a44.67,44.67,0,0,1-4.21,3.81l-.72.57c-.29.23.45-.34.16-.12l-.07.06a2,2,0,0,0-.87,1.12,2,2,0,0,0,.19,1.44,1.89,1.89,0,0,0,2.57.67Z"/><path class="cls-3" d="M109.6,73.4l3.09-5.93.44-.85A1.25,1.25,0,0,0,111,65.36l-3.09,5.94-.44.84a1.25,1.25,0,0,0,2.16,1.26Z"/><path class="cls-3" d="M116.82,30.19c.66,2.51,3.61,3.08,5.81,3.34a33.51,33.51,0,0,0,6.49,0c.5,0,1-.08,1.5-.14a1.92,1.92,0,0,0,1.87-1.88c0-.91-.83-2-1.87-1.87-1.21.14-2.43.22-3.64.26s-2.13,0-3.2,0l-.75-.06-.4,0-.17,0c-.23,0,.5.08.11,0a12.15,12.15,0,0,1-1.36-.29l-.36-.12-.13,0c-.29-.09.34.18.16.07l-.53-.3c-.19-.09.35.34.09.07a.3.3,0,0,0-.08-.08c-.18-.14.12-.15.14.2,0-.05-.1-.14-.12-.2,0,.1.15.47.06.11a1.9,1.9,0,0,0-2.31-1.31,1.93,1.93,0,0,0-1.31,2.31Z"/><path class="cls-3" d="M106.38,68.54l5.35,2.78.77.4a1.25,1.25,0,1,0,1.26-2.16l-5.36-2.79-.76-.39a1.25,1.25,0,0,0-1.26,2.16Z"/><path class="cls-3" d="M139.28,63.47l3.09-5.94.44-.84a1.25,1.25,0,0,0-2.16-1.26l-3.09,5.93-.44.84a1.25,1.25,0,0,0,2.16,1.27Z"/><path class="cls-3" d="M136.06,58.6l5.35,2.79.76.4a1.28,1.28,0,0,0,1.71-.45,1.26,1.26,0,0,0-.44-1.71l-5.36-2.79-.76-.4a1.25,1.25,0,1,0-1.26,2.16Z"/><path class="cls-4" d="M61.56,17.21c-1.16,2.53,5.2,9.17,7.74,8.13,1.7-.7,3-5.35.2-8.13S62.32,15.55,61.56,17.21Z"/><path class="cls-4" d="M105.21,82.08c.71-.49.3-3.59-1.91-4.9-1.41-.83-3.48-.9-3.81-.19C98.86,78.32,104.1,82.85,105.21,82.08Z"/><path class="cls-4" d="M141.81,92.2c.29.81,3.32,1.35,4.87-.42.9-1,1.25-2.77.64-3.24C146.18,87.68,141.41,91,141.81,92.2Z"/><path class="cls-4" d="M96,108.63c-.41,1.09,3.32,4.81,6.39,3.67,1-.38,2.32-1.44,2.13-2.32C104.11,108,96.52,107.27,96,108.63Z"/><path class="cls-5" d="M116.59,60.24c3.23-.25.49-15.76-2.32-18.32-1.76-1.62-1.68,6.14-3,4.38-.79-1.09-2.71,0-5.16-1.8C105.7,44.17,111.68,60.63,116.59,60.24Z"/><path class="cls-5" d="M132.76,54.74c3-.23.44-14.5-2.14-16.86-1.62-1.49-1.55,5.66-2.73,4-.74-1-2.5,0-4.75-1.67C122.73,40,128.24,55.1,132.76,54.74Z"/><path class="cls-6" d="M120.34,72.17c3.09.78,9.29-2.32,13.93-3.67,3-.87-1.88-3.65-7.22-2.71S117.34,71.42,120.34,72.17Z"/><path class="cls-7" d="M124.17,41.76c3.55,11.77,5.49,12.31,7.62,12.66,1.77.3,2.42,1.18.48-.41C131.56,53.43,123.12,38.25,124.17,41.76Z"/><path class="cls-7" d="M107.92,46.43c3.55,11.78,6,11.22,7.61,12.67,1.29,1.17,3.35,1.53,1.42-.05C116.24,58.46,106.86,42.92,107.92,46.43Z"/></g><g id="Capa_2" data-name="Capa 2"><path class="cls-8" d="M154.39,99c-2.73,4.38-7.42,9.16-13.41,13.31-11.86,8.22-24.31,10.8-27.8,5.76a5.59,5.59,0,0,1-.89-3.57,52.2,52.2,0,0,0,27.94-26.77c7.38-2.76,13.6-2.76,15.91.57C157.87,90.79,157.07,94.69,154.39,99Z"/><path class="cls-8" d="M112.29,114.49c-.68.28-1.36.54-2.05.78"/><path class="cls-8" d="M110.47,113.82a4.47,4.47,0,0,1-.07.82,4.85,4.85,0,0,1-.16.63c-.75,2.46-3.4,4.66-7.3,6.35-4.74,2-11.32,3.3-18.6,3.3-14.43,0-26.13-5-26.13-11.1,0-2.15,1.44-4.15,3.92-5.84.25-.18.52-.35.8-.52l.84-.48c4.78-2.6,12.22-4.26,20.57-4.26C98.77,102.72,110.47,107.69,110.47,113.82Z"/><path class="cls-3" d="M83.78,67.48A53.42,53.42,0,0,1,95.59,71.3c3.57,1.65,7.43,3.64,10.28,6.4s3.83,7.46-.32,9.59c-3.77,1.93-8.71.55-12.42-.84C88.31,84.65,83.68,82.22,79,80c-1.44-.69-2.71,1.47-1.26,2.16,4.7,2.26,9.39,4.67,14.25,6.55,4.31,1.66,9.6,3,14,1.08a7.58,7.58,0,0,0,4-10.46c-1.87-4.1-6.5-6.66-10.3-8.71a56.11,56.11,0,0,0-15.37-5.54c-1.57-.32-2.24,2.09-.66,2.41Z"/><path class="cls-3" d="M50.37,97a19.93,19.93,0,0,1-2.92,5.76c-1.33,1.52-3.05,1.33-4.59.26-2.7-1.87-4.3-5.29-5.48-8.23-3.33-8.31-4.31-17.4-5.33-26.22-.53-4.63-1-9.27-1.77-13.89a61.51,61.51,0,0,0-3-12.94c-.48-1.22-1.31-2.54-2.77-2.55-1.28,0-2.34,1-3.26,1.72-.17.14-.74.48-.8.66s1,.19,1,.25a4.77,4.77,0,0,0-.3-.83c-.31-1-.52-2.1-.74-3.16-.27-1.23-.51-2.46-.84-3.68a4.92,4.92,0,0,0-1-2.36c-1.06-1-2.73.1-3.75.67a14,14,0,0,1-2.18,1.2c-1.05.38-1.68-.19-2.35-1-.93-1.12-2.53.49-1.6,1.6A4.07,4.07,0,0,0,12.79,36a7.76,7.76,0,0,0,2-.88c.75-.43,1.64-.79,2.35-1.28s-.52-.17-.28-.47a1.83,1.83,0,0,0,.14.28c.08.4.29.9.4,1.34.29,1.11.51,2.24.75,3.37s.47,2.25.8,3.35a3.24,3.24,0,0,0,1.13,2c1.13.65,2.17-.67,3-1.31.29-.24,1-.91,1.39-.87s.84,1.47,1,1.89C28.45,52.6,29,62.53,30.2,72.12c1.09,8.92,2.29,18.26,6.37,26.39,1.51,3,3.82,6.57,7.29,7.5,5.09,1.38,7.24-4.75,8.7-8.39.54-1.36-1.65-2-2.19-.6Z"/><g id="Capa_1" data-name="Capa 1"><path class="cls-8" d="M94.76,13.27a51.49,51.49,0,0,1,23.91,5.94C111.43,1.14,112,6.05,102.86,8.31a24.24,24.24,0,0,0-8.57,3.61A.75.75,0,0,0,94.76,13.27Z"/><path class="cls-9" d="M116.86,46.86c1.5,4,3.49,12.82,0,13.89-3.28,1-9.23-6.22-10.3-15-.42-3.42,2.09.5,4.5-.28,2.15-.7,1.09-6.23,3.23-3.51C116.07,44.14,116,44.44,116.86,46.86Z"/><path class="cls-9" d="M133.36,42.19c1.5,4,3.49,12.82,0,13.89-3.29,1-9.23-6.22-10.31-15-.42-3.42,2.1.5,4.5-.28,2.16-.7,1.1-6.24,3.24-3.52C132.56,39.47,132.46,39.77,133.36,42.19Z"/><path class="cls-9" d="M135.59,67.87c2.07-1.42-3.91-3.43-8.77-3-4.52.42-10.94,8.25-7.61,7.74C126,71.6,130.75,71.2,135.59,67.87Z"/><path class="cls-8" d="M74.68,16.53c3.51-1.36,3.85-3.71,1.66-13.78-1.45-6.63,9,4.47,15.48,9.55,1.2.93,4,.81,4,.81a52,52,0,0,1,48.24,64"/><path class="cls-8" d="M133.5,98.25a52.08,52.08,0,0,0,10.1-19.41"/><path class="cls-8" d="M144,77.09c-.13.59-.28,1.17-.44,1.75a52.15,52.15,0,0,1-33.2,35.8"/><path class="cls-8" d="M62.93,107.46a55,55,0,0,1-21.65-42C40.85,55.1,44,45.36,50.67,35.66l.21.08,8.56,3.34a13.73,13.73,0,0,1-8.56-3.34c-3.3-3-3.94-7.33-3.94-9.81,0-8.4-9.83-22.14,15.21-15.21,5,1.39,9.78,2.61,12.53,6.58a14.83,14.83,0,0,1,2.08,4.4,15.17,15.17,0,0,1,.6,4.23l-.1-.37a15.3,15.3,0,0,0-2.68-8.63l.29-.11a15.1,15.1,0,0,1,2.49,8.34"/></g></g></svg>