<svg xmlns="http://www.w3.org/2000/svg" viewBox="0 0 160.21 125.61"><defs><style>.cls-1{fill:#75bcad;stroke:#75bcad;}.cls-1,.cls-2,.cls-3,.cls-4,.cls-5,.cls-7,.cls-8,.cls-9{stroke-miterlimit:10;}.cls-1,.cls-2{stroke-width:0.75px;}.cls-2{fill:#5fb390;stroke:#5fb390;}.cls-3{fill:#8bc4c9;stroke:#8bc4c9;}.cls-3,.cls-4,.cls-5,.cls-7{stroke-width:0.75px;}.cls-4{fill:#d7d7d7;stroke:#d7d7d7;}.cls-5{fill:#582d29;stroke:#582d29;}.cls-6{fill:#1d1d1b;}.cls-7{fill:#54a6a8;stroke:#54a6a8;}.cls-8,.cls-9{fill:none;stroke:#1d1d1b;}.cls-8{stroke-width:2px;}.cls-9{stroke-width:2.03px;}</style></defs><g id="Capa_2" data-name="Capa 2"><g id="Capa_1" data-name="Capa 1"><path class="cls-1" d="M55.27,37.25A13.8,13.8,0,0,1,45,25.06c-.43-5.36-3.17-12,1.61-14.45,7.43-3.8,20.37,3.16,21.42,4,1.46,1.16,4.55,3.62,5,7.35C74,29.36,64.44,39.36,55.27,37.25Z"/><path class="cls-1" d="M74.69,2.9c12.1,20-41,34.45-35.36,62.64,4.84,24,19.13,39.14,21.68,41C75.74,117.5,95.17,117.9,114,113c14-3.65,19.76-17.59,21.68-20.9a54.57,54.57,0,0,0,6.77-19.55,50.45,50.45,0,0,0-2.32-25.36c-.83-2.25-3.67-13.08-13.94-20.12C101.78,10.25,95.59,16.32,91.85,13.74,82.11,7,72.94,0,74.69,2.9Z"/><path class="cls-2" d="M73.56,75.28c4.54-.82,9.76,11.92,18.19,17,2.71,1.64,3.48,1.54,9.19-.2.74-.22-1.22,1.71-3.09,2.23-1.6.44-3.78,3-14.52-5.71-2.42-2-9.38-9.14-8.71-11.23C74.86,76.68,72.59,75.46,73.56,75.28Z"/><path class="cls-2" d="M91.85,12.48c-.17-1.28,10.55-5.8,17.64-5.36,2.07.13,6.39,9.52,5.68,10.58s-4.49-1.82-13-3.58C95.3,12.69,92,13.3,91.85,12.48Z"/><path class="cls-2" d="M45.75,9.19c-.27-.17-6,8.59,2.69,24.36,2.14,3.89,7.83,5.31,8.15,4.81s-7.51-10.65-8.65-14.72C46,16.67,46,9.34,45.75,9.19Z"/><path class="cls-2" d="M48.87,36.59C37.51,54.5,37.05,68.17,42.59,83.11c8.82,23.8,33.92,40,64.44,31.42,12.65-3.56,21.12-11.76,21.52-13.1.27-.9-8.83,7.93-22.72,9.63-16.24,2-40.15-5-50.81-25.41-11.51-22.08,2-47,2-47C53,38.06,49.55,35.53,48.87,36.59Z"/><path class="cls-1" d="M125.23,107.7c2.35-10.74,12.44-10,28-4,3.57,1.37,4.31,5.59,3.77,6.69-6.34,12.89-40.61,14.9-47.11,3.34C109.33,112.79,124.74,109.94,125.23,107.7Z"/><path class="cls-1" d="M56.11,111.92c2.42-10.56,38.52-11,45.68-4.83,2.91,2.52,4.42,5.5,3.87,6.58-6.52,12.67-41.72,14.65-48.39,3.29A7,7,0,0,1,56.11,111.92Z"/><path class="cls-2" d="M132.44,99.57c-5.08,3.15-9.82,9.2-22.5,15.88-5.86,3.08,36.1,11.51,45.39-1.94.39-.56-31.3,7.68-33.68,2.23S134.05,98.58,132.44,99.57Z"/><path class="cls-2" d="M74.35,103.07c-3.41-.88-20.73,4.19-20.72,9.36,0,4.13,4.65,9,10.64,9.89,25.06,3.87,36.74-2.51,36.67-3,0-.28-5.67,2.83-21.29,3.19-10.82.25-16-2.26-19.35-6a8.38,8.38,0,0,1-1.36-5.71C59.59,106.77,65.72,105.57,74.35,103.07Z"/><path class="cls-3" d="M59.49,17.25c-1.16,2.53,5.2,9.18,7.74,8.13,1.7-.7,3-5.35.2-8.13S60.25,15.6,59.49,17.25Z"/><path class="cls-3" d="M96.78,89.51c.86-.11,1.94-3,.58-5.23-.86-1.39-2.66-2.41-3.29-1.93C92.9,83.24,95.45,89.68,96.78,89.51Z"/><path class="cls-3" d="M143.81,104.22c-.28.81,1.75,3.12,4.07,2.71,1.35-.24,2.7-1.39,2.51-2.13C150.05,103.41,144.23,103.05,143.81,104.22Z"/><path class="cls-3" d="M91.75,108.28c-.41,1.1,3.32,4.82,6.39,3.68,1-.38,2.32-1.44,2.13-2.32C99.84,107.69,92.26,106.93,91.75,108.28Z"/><path class="cls-4" d="M112.33,61.83c3.22-.25.48-15.75-2.32-18.32-1.77-1.61-1.68,6.15-3,4.39-.8-1.09-2.71,0-5.16-1.81C101.44,45.76,107.42,62.22,112.33,61.83Z"/><path class="cls-4" d="M128.62,55.82c3-.23.45-14.5-2.13-16.86-1.63-1.49-1.55,5.65-2.74,4-.73-1-2.49,0-4.75-1.66C118.6,41,124.1,56.18,128.62,55.82Z"/><path class="cls-5" d="M119.17,72.74c3.1.77,9.29-2.33,13.93-3.68,3-.87-1.88-3.65-7.22-2.71S116.17,72,119.17,72.74Z"/><path class="cls-6" d="M2.81,47.53l10.07-3.31,1.45-.47a1.88,1.88,0,1,0-1-3.62L3.26,43.44l-1.44.48a1.87,1.87,0,1,0,1,3.61Z"/><path class="cls-6" d="M2.25,41.72,10.8,48l1.2.88a1.88,1.88,0,0,0,2.57-.67,1.93,1.93,0,0,0-.68-2.56L5.34,39.37l-1.2-.89a1.88,1.88,0,0,0-2.56.68,1.92,1.92,0,0,0,.67,2.56Z"/><path class="cls-6" d="M96.57,45.09a34.44,34.44,0,0,0,7.76-7.48,6,6,0,0,0,1.2-3.22,1.88,1.88,0,0,0-3.75,0s0,.2,0,.22.12-.56,0-.32l0,.12c0,.23-.33.71,0,.11a9.76,9.76,0,0,1-.59,1l-.37.54c-.17.23.12-.16.12-.17l-.11.15-.27.32c-.33.39-.67.77-1,1.13a44.67,44.67,0,0,1-4.21,3.81l-.73.57c-.29.23.46-.34.16-.12l-.07.06A2,2,0,0,0,93.82,43a1.87,1.87,0,0,0,2.75,2.11Z"/><path class="cls-6" d="M104,76.54l3.09-5.93.44-.85a1.25,1.25,0,1,0-2.16-1.26l-3.08,5.94-.44.84A1.25,1.25,0,1,0,104,76.54Z"/><path class="cls-6" d="M112.24,31c.66,2.51,3.6,3.08,5.8,3.34a33.61,33.61,0,0,0,6.5,0L126,34.2a1.91,1.91,0,0,0,1.87-1.87c0-.92-.83-2-1.87-1.88-1.21.15-2.42.23-3.63.27s-2.14,0-3.2,0l-.76-.06-.4,0-.17,0c-.23,0,.5.08.12,0a12.83,12.83,0,0,1-1.37-.29l-.36-.12-.13,0c-.29-.09.35.18.16.07s-.35-.21-.53-.3.35.34.09.07l-.07-.08c-.18-.14.12-.15.14.2,0-.05-.1-.14-.13-.2,0,.1.16.47.06.11a1.87,1.87,0,1,0-3.61,1Z"/><path class="cls-6" d="M100.76,71.68l5.36,2.79.76.39a1.25,1.25,0,0,0,1.26-2.16l-5.36-2.78-.76-.4a1.25,1.25,0,1,0-1.26,2.16Z"/><path class="cls-6" d="M137.53,63.77l3.09-5.94.44-.84a1.25,1.25,0,0,0-2.16-1.26l-3.09,5.93-.44.85a1.25,1.25,0,1,0,2.16,1.26Z"/><path class="cls-6" d="M134.31,58.9l5.35,2.79.77.4a1.25,1.25,0,0,0,1.26-2.16l-5.36-2.79-.76-.39a1.25,1.25,0,1,0-1.26,2.15Z"/><path class="cls-7" d="M120,42.83c3.55,11.78,5.48,12.31,7.61,12.67,1.78.3,2.42,1.17.49-.41C127.43,54.51,119,39.32,120,42.83Z"/><path class="cls-7" d="M103.65,48c3.55,11.77,6,11.21,7.62,12.67,1.29,1.16,3.35,1.52,1.42-.06C112,60.06,102.6,44.52,103.65,48Z"/><path class="cls-8" d="M93,13.57a51.61,51.61,0,0,1,23.91,5.94C109.69,1.45,110.2,6.35,101.11,8.62a23.76,23.76,0,0,0-8.56,3.61A.75.75,0,0,0,93,13.57Z"/><path class="cls-9" d="M112.79,47.94c1.5,4,3.49,12.82,0,13.89-3.28,1-9.23-6.23-10.3-15-.42-3.42,2.09.5,4.5-.28,2.15-.7,1.09-6.24,3.23-3.52C112,45.22,111.89,45.52,112.79,47.94Z"/><path class="cls-9" d="M129.29,43.26c1.5,4,3.48,12.83,0,13.9s-9.23-6.23-10.31-15c-.42-3.42,2.1.5,4.5-.28,2.16-.7,1.1-6.24,3.24-3.52C128.49,40.55,128.39,40.85,129.29,43.26Z"/><path class="cls-9" d="M133.85,68.17c2.06-1.42-3.92-3.42-8.78-3-4.51.43-10.94,8.26-7.61,7.75C124.26,71.9,129,71.5,133.85,68.17Z"/><path class="cls-8" d="M72.93,16.83c3.51-1.36,3.85-3.71,1.66-13.78-1.45-6.63,9,4.47,15.48,9.55,1.2.93,4,.81,4,.81a52,52,0,0,1,48.24,64"/><path class="cls-8" d="M131.75,98.55a52.08,52.08,0,0,0,10.1-19.41"/><path class="cls-8" d="M142.29,77.39c-.13.59-.28,1.17-.44,1.75a52.11,52.11,0,0,1-37.34,37"/><path class="cls-8" d="M59.31,106.29A55.21,55.21,0,0,1,39.53,65.78C39.1,55.4,42.26,45.66,48.92,36l.21.08,8.56,3.34A13.73,13.73,0,0,1,49.13,36c-3.3-3-3.94-7.33-3.94-9.81,0-8.4-9.83-22.14,15.21-15.21,5,1.39,9.78,2.61,12.53,6.58A14.83,14.83,0,0,1,75,22a15.17,15.17,0,0,1,.6,4.23l-.1-.37a15.3,15.3,0,0,0-2.68-8.63l.29-.11a15.1,15.1,0,0,1,2.49,8.34"/><path class="cls-6" d="M49,97.56c-1,2.58-2.8,8.35-6.62,6.55-2.42-1.14-4-3.76-5.14-6-3.37-6.61-4.64-14.23-5.64-21.5-1.11-8-1.72-16.16-3.17-24.15A58.92,58.92,0,0,0,25.5,41.25c-1.12-2.83-2.57-5.84-4.95-7.83C14,27.92,10.15,38.63,7.1,42.64c-.89,1.16,1.08,2.29,2,1.14,1.83-2.4,3-5.2,4.89-7.59.7-.9,1.69-2.09,2.94-2.08,1.55,0,2.92,1.6,3.76,2.75a29.48,29.48,0,0,1,4.28,10,99.51,99.51,0,0,1,2.25,12c1.11,8,1.73,16.08,3.15,24,1.18,6.65,2.85,14,7,19.55,1.66,2.24,4.23,4.65,7.26,4.24,3.9-.53,5.43-5.44,6.67-8.54.54-1.36-1.65-1.94-2.19-.6Z"/><path class="cls-8" d="M107.58,115.05c4.4,3.49,13.08,5.87,23.07,5.87,14.43,0,26.13-5,26.13-11.09s-11.21-10.89-25.23-11.09A52.13,52.13,0,0,1,107.58,115.05Z"/><path class="cls-8" d="M105.28,113.51a5.15,5.15,0,0,1-.77,2.67c-1.14,2-3.52,3.73-6.76,5.13-4.74,2-11.32,3.3-18.6,3.3-14.43,0-26.13-5-26.13-11.1,0-2.59,2.08-5,5.56-6.84.24-.13.48-.26.73-.38,4.79-2.38,11.9-3.88,19.84-3.88C93.58,102.41,105.28,107.38,105.28,113.51Z"/><path class="cls-6" d="M84.89,66.43a54.08,54.08,0,0,1,8.49,8.95c2.4,3.24,5,7,6.07,10.89a7.39,7.39,0,0,1-.32,5.6,5,5,0,0,1-5,2.39C90,94,86.49,90.47,83.94,87.51c-3.33-3.88-6.21-8.19-9.19-12.35-.93-1.29-3.1,0-2.16,1.27,3,4.21,6,8.56,9.31,12.53,2.93,3.47,6.82,7.06,11.5,7.71a7.56,7.56,0,0,0,8.88-6.76c.54-4.72-2.46-9.42-4.93-13.19A56.34,56.34,0,0,0,86.66,64.66c-1.22-1-3,.73-1.77,1.77Z"/></g></g></svg>