<svg xmlns="http://www.w3.org/2000/svg" viewBox="0 0 160.21 125.61"><defs><style>.cls-1{fill:#75bcad;stroke:#75bcad;}.cls-1,.cls-2,.cls-4,.cls-5,.cls-6,.cls-7,.cls-8,.cls-9{stroke-miterlimit:10;}.cls-1,.cls-2{stroke-width:0.75px;}.cls-2{fill:#5fb390;stroke:#5fb390;}.cls-3{fill:#1d1d1b;}.cls-4{fill:#8bc4c9;stroke:#8bc4c9;}.cls-4,.cls-5,.cls-6,.cls-7{stroke-width:0.75px;}.cls-5{fill:#d7d7d7;stroke:#d7d7d7;}.cls-6{fill:#582d29;stroke:#582d29;}.cls-7{fill:#54a6a8;stroke:#54a6a8;}.cls-8,.cls-9{fill:none;stroke:#1d1d1b;}.cls-8{stroke-width:2px;}.cls-9{stroke-width:2.03px;}</style></defs><g id="Capa_9" data-name="Capa 9"><path class="cls-1" d="M57,38.94A13.8,13.8,0,0,1,46.78,26.75c-.43-5.36-3.17-12,1.61-14.45,7.43-3.8,20.37,3.17,21.42,4,1.46,1.16,4.55,3.62,5,7.35C75.8,31.05,66.21,41.05,57,38.94Z"/><path class="cls-1" d="M76.16,3.62C90.23,25.46,40.53,24,40.81,66.27,41,91,59.94,105.41,62.49,107.3c14.73,10.93,34.16,11.32,53,6.39,14-3.66,19.76-17.6,21.68-20.91A54.77,54.77,0,0,0,144,73.23a50.41,50.41,0,0,0-2.32-25.35c-.83-2.26-3.67-13.08-13.94-20.13-24.45-16.77-31-10.45-34.77-13C83.2,8,74.33.78,76.16,3.62Z"/><path class="cls-2" d="M77.92,64.51c3.26,3.27-4.26,14.81-3.69,24.65.19,3.17.7,3.75,5.38,7.46.6.48-2.1,0-3.59-1.29-1.27-1.06-4.61-1.4-3.54-15.19.24-3.1,2.19-12.91,4.29-13.54C77.52,66.38,77.23,63.82,77.92,64.51Z"/><path class="cls-2" d="M93.71,14.27c-.17-1.28,10.55-5.8,17.65-5.36,2.06.13,6.39,9.52,5.68,10.58s-4.49-1.82-13-3.58C97.16,14.48,93.82,15.09,93.71,14.27Z"/><path class="cls-2" d="M47.62,11c-.28-.17-6,8.58,2.68,24.36,2.15,3.89,7.84,5.31,8.16,4.81S50.94,29.5,49.81,25.43C47.87,18.46,47.87,11.13,47.62,11Z"/><path class="cls-2" d="M50.74,38.38C39.38,56.29,38.91,70,44.46,84.9c8.82,23.8,33.92,40,64.44,31.42,12.64-3.56,21.12-11.76,21.52-13.1.27-.9-8.83,7.93-22.73,9.62-16.23,2-40.14-5-50.8-25.4-11.52-22.08,2-47,2-47C54.88,39.85,51.41,37.32,50.74,38.38Z"/><path class="cls-1" d="M101.91,111.1c2.42-10.56,38.52-11,45.68-4.84,2.91,2.52,4.42,5.51,3.87,6.58-6.52,12.68-41.71,14.66-48.39,3.29A7,7,0,0,1,101.91,111.1Z"/><path class="cls-2" d="M48.71,111.43c-3.25,5,8,9.62,10.45,10.32,12,3.41,24.91,4.39,33-1.42.55-.39-27.91-10.41-32.39-14.32S49.74,109.85,48.71,111.43Z"/><path class="cls-2" d="M145.36,63.17c-.13,15.74.74,13.7,3,15,8.12,4.64,9.54,1.29,10.06-.65C160.33,70.23,145.37,61.29,145.36,63.17Z"/><path class="cls-2" d="M120.44,102.5c-3.4-.88-20.73,4.2-20.72,9.36,0,4.14,4.65,9,10.64,9.89,25.06,3.87,36.74-2.51,36.68-3,0-.28-5.68,2.84-21.3,3.19-10.82.25-16-2.25-19.35-6a8.32,8.32,0,0,1-1.35-5.71C105.69,106.2,111.81,105,120.44,102.5Z"/></g><g id="Capa_10" data-name="Capa 10"><path class="cls-3" d="M7.55,37.9,11.21,28l.53-1.43a1.89,1.89,0,0,0-1.31-2.3,1.92,1.92,0,0,0-2.31,1.31L4.46,35.47,3.94,36.9a1.89,1.89,0,0,0,1.31,2.31,1.92,1.92,0,0,0,2.3-1.31Z"/><path class="cls-3" d="M2.38,35l10.24-2.77,1.46-.39a1.88,1.88,0,0,0-1-3.62L2.85,31l-1.46.4a1.87,1.87,0,1,0,1,3.61Z"/><path class="cls-3" d="M98.39,47.11a34.4,34.4,0,0,0,7.75-7.48,6,6,0,0,0,1.2-3.22,1.88,1.88,0,0,0-1.87-1.87,1.91,1.91,0,0,0-1.88,1.87.87.87,0,0,1,0,.23s.11-.57,0-.33a.53.53,0,0,0,0,.12c-.06.23-.33.71,0,.12-.19.35-.36.71-.58,1s-.25.36-.38.54l.13-.17-.12.15-.27.32c-.32.39-.67.77-1,1.13a44.67,44.67,0,0,1-4.21,3.81l-.72.57c-.29.23.45-.34.16-.12l-.08.06A2.05,2.05,0,0,0,95.63,45a1.88,1.88,0,0,0,2.76,2.11Z"/><path class="cls-3" d="M105.8,78.56l3.09-5.93.44-.84a1.25,1.25,0,0,0-2.16-1.27l-3.09,5.94-.44.84a1.25,1.25,0,0,0,2.16,1.26Z"/><path class="cls-3" d="M114.05,33c.66,2.51,3.61,3.08,5.81,3.34a33.51,33.51,0,0,0,6.49,0c.5,0,1-.09,1.49-.15a1.92,1.92,0,0,0,1.88-1.87c0-.91-.83-2-1.88-1.88-1.2.15-2.42.23-3.63.27-1.06,0-2.13,0-3.2,0l-.75-.06-.4,0-.17,0c-.23,0,.5.08.11,0a12.83,12.83,0,0,1-1.37-.29l-.36-.12-.12,0c-.29-.09.34.18.16.07l-.53-.3c-.19-.09.35.34.09.07a.3.3,0,0,0-.08-.08c-.18-.14.12-.15.14.2,0,0-.1-.14-.12-.2,0,.1.15.47.06.11a1.9,1.9,0,0,0-2.31-1.31A1.92,1.92,0,0,0,114.05,33Z"/><path class="cls-3" d="M102.57,73.7l5.36,2.79.76.39A1.25,1.25,0,0,0,110,74.72l-5.35-2.78-.76-.4a1.25,1.25,0,0,0-1.27,2.16Z"/><path class="cls-3" d="M139.35,65.79l3.09-5.93.44-.85a1.25,1.25,0,0,0-2.16-1.26l-3.09,5.93-.44.85a1.25,1.25,0,1,0,2.16,1.26Z"/><path class="cls-3" d="M136.12,60.93l5.36,2.78.76.4A1.25,1.25,0,0,0,143.5,62l-5.35-2.79-.76-.39a1.25,1.25,0,1,0-1.27,2.16Z"/><path class="cls-4" d="M61.36,19c-1.17,2.53,5.2,9.18,7.74,8.13,1.69-.7,3-5.35.19-8.13S62.12,17.39,61.36,19Z"/><path class="cls-4" d="M79.4,91.71c.57.65,3.6-.13,4.63-2.49.66-1.5.47-3.56-.27-3.81C82.36,85,78.51,90.71,79.4,91.71Z"/><path class="cls-4" d="M137.55,108.46c-.41,1.09,3.32,4.81,6.39,3.68,1-.39,2.32-1.44,2.13-2.32C145.64,107.86,138.06,107.11,137.55,108.46Z"/><path class="cls-5" d="M115.49,64.23c3.22-.25.48-15.75-2.33-18.32-1.76-1.61-1.68,6.15-3,4.39-.8-1.09-2.71,0-5.16-1.81C104.59,48.17,110.57,64.62,115.49,64.23Z"/><path class="cls-5" d="M131.33,58.61c3-.23.44-14.5-2.14-16.87-1.62-1.48-1.55,5.66-2.73,4-.74-1-2.5,0-4.75-1.66C121.3,43.82,126.81,59,131.33,58.61Z"/><path class="cls-6" d="M121.13,75.78c3.1.78,9.29-2.32,13.94-3.67,3-.87-1.88-3.65-7.23-2.71S118.13,75,121.13,75.78Z"/><path class="cls-7" d="M122.74,45.62c3.55,11.78,5.49,12.31,7.62,12.67,1.77.3,2.42,1.17.48-.41C130.13,57.3,121.69,42.11,122.74,45.62Z"/><path class="cls-7" d="M105.84,50.62c3.55,11.78,6,11.22,7.61,12.67,1.29,1.17,3.36,1.53,1.42-.06C114.16,62.65,104.78,47.11,105.84,50.62Z"/></g><g id="Capa_2" data-name="Capa 2"><g id="Capa_1" data-name="Capa 1"><path class="cls-8" d="M94.82,15.59a51.58,51.58,0,0,1,23.91,5.94C111.5,3.47,112,8.37,102.93,10.64a23.88,23.88,0,0,0-8.57,3.61A.75.75,0,0,0,94.82,15.59Z"/><path class="cls-9" d="M115.64,50.47c1.5,4,3.49,12.83,0,13.89-3.28,1-9.23-6.22-10.31-15-.42-3.43,2.1.5,4.5-.28,2.16-.71,1.1-6.24,3.24-3.52C114.84,47.75,114.74,48.06,115.64,50.47Z"/><path class="cls-9" d="M132.14,45.8c1.5,4,3.48,12.82,0,13.89s-9.23-6.22-10.31-15c-.42-3.42,2.09.51,4.5-.28,2.16-.7,1.1-6.23,3.24-3.51C131.34,43.08,131.23,43.39,132.14,45.8Z"/><path class="cls-9" d="M136.18,71.74c2.06-1.42-3.92-3.42-8.78-3-4.51.43-10.94,8.26-7.61,7.74C126.6,75.47,131.33,75.07,136.18,71.74Z"/><path class="cls-8" d="M74.74,18.85c3.51-1.36,3.85-3.71,1.66-13.78-1.45-6.63,9,4.47,15.48,9.55,1.2.93,4,.81,4,.81a52,52,0,0,1,48.24,64"/><path class="cls-8" d="M133.56,100.57a52.08,52.08,0,0,0,10.1-19.41"/><path class="cls-8" d="M144.1,79.41c-.13.59-.28,1.17-.44,1.75A51.7,51.7,0,0,1,132.54,102"/><path class="cls-8" d="M104,118.75a52.24,52.24,0,0,1-10.61,1.08c-28.73,0-50.83-23.33-52-52C40.91,57.42,44.07,47.68,50.73,38l.21.08L59.5,41.4a13.79,13.79,0,0,1-8.56-3.34c-3.3-3-3.94-7.33-3.94-9.81C47,19.85,37.17,6.11,62.21,13c5,1.39,9.78,2.61,12.53,6.58A14.83,14.83,0,0,1,76.82,24a15.17,15.17,0,0,1,.6,4.23l-.1-.37a15.3,15.3,0,0,0-2.68-8.63l.29-.11a15.1,15.1,0,0,1,2.49,8.34"/></g><g id="Capa_5" data-name="Capa 5"><path class="cls-8" d="M95.75,119.72a23.61,23.61,0,0,1-3,1.57,40.25,40.25,0,0,1-9.64,2.63,59.1,59.1,0,0,1-9,.67c-14.43,0-26.13-5-26.13-11.1a5.64,5.64,0,0,1,1.38-3.56,11.65,11.65,0,0,1,2.54-2.28,17,17,0,0,1,1.64-1A27.69,27.69,0,0,1,58,104.76a50.5,50.5,0,0,0,36.08,15Q94.91,119.75,95.75,119.72Z"/><path class="cls-8" d="M152.15,112.78a4.53,4.53,0,0,1-.23,1.45c-.75,2.46-3.4,4.66-7.3,6.35a40.25,40.25,0,0,1-9.64,2.63,59.1,59.1,0,0,1-9,.67c-9.2,0-17.3-2-22-5.07l-.09-.06c-2.17-1.45-3.58-3.12-4-4.92a2.44,2.44,0,0,0,0-.27,1.34,1.34,0,0,0,0-.2,4.82,4.82,0,0,0-.11-.85,5.69,5.69,0,0,1,1.37-3.29,11.65,11.65,0,0,1,2.54-2.28,17,17,0,0,1,1.64-1c4.78-2.6,12.22-4.26,20.57-4.26a54.91,54.91,0,0,1,6.52.36l.41,0,.6.07c10.62,1.35,18.39,5.5,18.59,10.43A1.34,1.34,0,0,1,152.15,112.78Z"/><path class="cls-3" d="M50.65,97.56c-.78,2-1.53,4.16-2.92,5.76s-3,1.34-4.6.27c-2.69-1.87-4.29-5.29-5.47-8.23-3.33-8.31-4.31-17.4-5.33-26.22-.54-4.64-1-9.28-1.77-13.89a61.15,61.15,0,0,0-3-13c-.47-1.21-1.3-2.53-2.77-2.54-1.27,0-2.33,1-3.25,1.71-.17.15-.74.48-.8.67s1,.19,1,.25a5.14,5.14,0,0,0-.3-.84c-.31-1-.52-2.1-.75-3.15-.26-1.23-.5-2.47-.83-3.68a5,5,0,0,0-1-2.36c-1.06-1-2.73.1-3.75.67a14.83,14.83,0,0,1-2.18,1.19c-1,.39-1.68-.18-2.35-1-.93-1.13-2.53.49-1.6,1.6a4.08,4.08,0,0,0,4.16,1.69,8.51,8.51,0,0,0,2-.88c.75-.43,1.64-.8,2.35-1.28s-.52-.17-.29-.47l.15.28c.08.4.28.9.4,1.34.29,1.11.51,2.24.75,3.36s.46,2.26.8,3.36a3.2,3.2,0,0,0,1.12,2c1.14.66,2.18-.67,3-1.31.29-.24,1-.91,1.39-.86s.83,1.47,1,1.89c3.05,9.23,3.63,19.16,4.8,28.75,1.09,8.92,2.29,18.26,6.37,26.39,1.51,3,3.82,6.57,7.29,7.5,5.09,1.37,7.24-4.75,8.7-8.39.54-1.36-1.65-2-2.19-.61Z"/></g><g id="Capa_4" data-name="Capa 4"><path class="cls-3" d="M91.56,69.62a53.78,53.78,0,0,1-3.1,12.29c-1.4,3.69-3.18,7.89-5.93,10.8s-7.11,3.46-9.24-.41-1-8.72.17-12.56c1.48-4.88,3.51-9.64,5.37-14.38.59-1.5-1.82-2.15-2.41-.67-1.92,4.89-4,9.78-5.5,14.83-1.29,4.41-2.12,9.83.21,14a7.57,7.57,0,0,0,10.57,3c4-2.19,6.18-7,7.93-11a57.09,57.09,0,0,0,4.43-15.95c.2-1.59-2.3-1.58-2.5,0Z"/><path class="cls-8" d="M146.12,76.61c4.79,4.62,8.87,5.53,11.34,3.35s2-4.9.82-7.52c-2.3-5.22-5.8-7.6-12.44-10.58"/></g></g></svg>