<svg xmlns="http://www.w3.org/2000/svg" viewBox="0 0 166.9 125.33"><defs><style>.cls-1,.cls-10{fill:#75bcad;stroke:#75bcad;}.cls-1,.cls-10,.cls-11,.cls-12,.cls-2,.cls-4,.cls-5,.cls-6,.cls-7,.cls-8,.cls-9{stroke-miterlimit:10;}.cls-1,.cls-2{stroke-width:0.75px;}.cls-11,.cls-2{fill:#5fb390;stroke:#5fb390;}.cls-3{fill:#1d1d1b;}.cls-4,.cls-9{fill:none;stroke:#1d1d1b;}.cls-4{stroke-width:2px;}.cls-12,.cls-5{fill:#8bc4c9;stroke:#8bc4c9;}.cls-5,.cls-6,.cls-7,.cls-8{stroke-width:0.75px;}.cls-6{fill:#d7d7d7;stroke:#d7d7d7;}.cls-7{fill:#582d29;stroke:#582d29;}.cls-8{fill:#54a6a8;stroke:#54a6a8;}.cls-9{stroke-width:2.03px;}.cls-10,.cls-11{stroke-width:0.76px;}.cls-12{stroke-width:0.75px;}</style></defs><g id="Capa_9" data-name="Capa 9"><path class="cls-1" d="M75.06,1.86C86.77,26.6,44.7,16.28,39.7,64.51c-2.53,24.38,19.13,39.14,21.68,41,14.73,10.93,34.16,11.32,53,6.39,14-3.66,19.76-17.6,21.68-20.91a54.57,54.57,0,0,0,6.77-19.55,50.41,50.41,0,0,0-2.32-25.35C139.71,43.86,136.87,33,126.6,26,102.15,9.22,96,15.28,92.22,12.7,82.48,6,73.61-1.19,75.06,1.86Z"/><path class="cls-2" d="M72.37,76c2.34-4,15.4.39,24.78-2.64,3-1,3.45-1.63,5.86-7.09.31-.7.49,2-.34,3.8-.71,1.5-.2,4.82-13.81,7.26-3.06.55-13,1.13-14.19-.75C74.27,75.92,71.87,76.84,72.37,76Z"/><path class="cls-2" d="M105.68,122.15c-5.4,3.85,13.22,3.55,24.58-6.9.5-.46,1.47-1-.9-6.45S116.45,114.47,105.68,122.15Z"/><path class="cls-2" d="M144.58,55.51c2.07,11-6.71,21.29,13,16.38.66-.16,10.66-8.06,6.58-12.38C159.94,55,144.58,55.51,144.58,55.51Z"/><path class="cls-3" d="M50.54,97.82c-.8,2-1.58,4.47-3.16,6s-3.43.84-4.88-.38C39.58,101,38,97,36.76,93.5c-3.24-9.4-4-19.47-5.15-29.28-.58-4.94-1.22-9.9-2.28-14.77-.95-4.37-2.23-8.93-4.69-12.72-1.52-2.35-5.05-6.19-8.21-4.27-1.62,1-2.15,3.2-2.48,4.94-.43,2.23-.47,4.57-1.08,6.77a2.7,2.7,0,0,1-.36.9c-.13.23.12-.11.15,0s0,0-.19-.1-.3-.23-.44-.36a10.26,10.26,0,0,1-1.45-1.71c-.86-1.16-2.83,0-2,1.15,1,1.35,2.9,4.15,5,3.05,1.5-.81,1.69-3.12,1.91-4.61a34.12,34.12,0,0,1,1.17-6.58c.22-.61.55-1.43,1.15-1.61,1.8-.54,3.83,2,4.67,3.27,2.76,4.06,4,9.11,4.95,13.86,1.07,5.31,1.68,10.71,2.3,16.09,1.15,9.93,2.06,20.26,6,29.57,1.49,3.53,3.64,7.72,7.34,9.37,5.54,2.48,8.06-4,9.66-8,.55-1.36-1.65-2-2.18-.61Z"/><path class="cls-4" d="M130.67,113.1c0,3-2.88,5.79-7.53,7.8s-11.32,3.3-18.6,3.3a59.34,59.34,0,0,1-7.7-.49,40.18,40.18,0,0,0,10-2.68c4.63-2,7.51-4.74,7.53-7.77a52,52,0,0,0,11.07-6.8C128.74,108.31,130.67,110.61,130.67,113.1Z"/><path class="cls-4" d="M114.41,113.26c0,3-2.9,5.77-7.53,7.77a40.18,40.18,0,0,1-10,2.68,56.87,56.87,0,0,1-8.56.62c-14.43,0-26.13-5-26.13-11.1a6.16,6.16,0,0,1,2-4.29A50.32,50.32,0,0,0,79.34,116,50.87,50.87,0,0,0,93,117.87,51.79,51.79,0,0,0,114.41,113.26Z"/><path class="cls-3" d="M72.54,63a53.61,53.61,0,0,1,13.18-1.29,51.49,51.49,0,0,1,6.68.6A18.17,18.17,0,0,1,98.19,64a6.37,6.37,0,0,1,3.35,4,5.46,5.46,0,0,1-2,5.11c-3,2.73-7.65,3.34-11.54,3.51-5,.22-10,0-15-.17a1.25,1.25,0,0,0,0,2.5c5.18.14,10.44.45,15.63.14,4.44-.26,9.42-1.17,12.78-4.34a7.59,7.59,0,0,0,.5-10.94c-3.18-3.44-8.57-4-13-4.34a56,56,0,0,0-17.13,1.19c-1.57.35-.9,2.76.67,2.41Z"/><path class="cls-3" d="M144.71,73.72c3.76,0,7.67.41,11.38-.32A14.69,14.69,0,0,0,159.82,72a16.82,16.82,0,0,0,4.9-3.25,7.57,7.57,0,0,0-.65-11.22c-3.2-2.69-7.54-2.92-11.5-3.57a44.86,44.86,0,0,0-8.44-.24,1.25,1.25,0,0,0,0,2.5c1.54,0,3.09-.1,4.63-.11.61,0,1.65,0,2,.08,1.09.14,2.18.35,3.27.52A30.8,30.8,0,0,1,159.81,58a7.34,7.34,0,0,1,4.25,3.53,5,5,0,0,1-.88,5.27,13,13,0,0,1-4.34,3,12.62,12.62,0,0,1-3.19,1.23c-3.51.77-7.36.31-10.94.28a1.25,1.25,0,0,0,0,2.5Z"/><path class="cls-2" d="M92.61,13.12c-.17-1.28,10.56-5.8,17.65-5.36,2.06.13,6.39,9.52,5.68,10.58s-4.49-1.82-13-3.58C96.06,13.33,92.72,13.94,92.61,13.12Z"/><path class="cls-1" d="M56.16,37.38A13.82,13.82,0,0,1,45.9,25.18c-.43-5.36-3.17-12,1.62-14.45,7.43-3.8,20.37,3.17,21.42,4,1.46,1.17,4.55,3.62,5,7.36C74.93,29.49,65.34,39.49,56.16,37.38Z"/><path class="cls-2" d="M46.78,9.83c-.28-.16-6,8.59,2.68,24.36,2.15,3.9,7.84,5.31,8.16,4.81S50.1,28.35,49,24.28C47,17.31,47,10,46.78,9.83Z"/><path class="cls-2" d="M49.9,37.36C38.54,55.27,38.07,68.94,43.62,83.88c8.82,23.8,33.91,40,64.43,31.42,12.65-3.56,21.13-11.76,21.53-13.1.27-.9-8.83,7.93-22.73,9.63-16.23,2-40.14-5-50.8-25.41-11.52-22.08,2-47,2-47C54,38.83,50.57,36.3,49.9,37.36Z"/></g><g id="Capa_10" data-name="Capa 10"><path class="cls-5" d="M96.76,67.33c.48-.72-1-3.45-3.57-3.86-1.62-.26-3.57.45-3.62,1.23C89.48,66.16,96,68.44,96.76,67.33Z"/><path class="cls-3" d="M8.54,48.28,9.59,37.74l.15-1.52a1.88,1.88,0,0,0-1.88-1.88A1.92,1.92,0,0,0,6,36.22l-1,10.54-.15,1.52a1.87,1.87,0,0,0,1.87,1.87,1.92,1.92,0,0,0,1.88-1.87Z"/><path class="cls-3" d="M2.82,46.81l9.24-5.25,1.3-.74a1.88,1.88,0,0,0-1.9-3.24L2.23,42.83l-1.3.75a1.87,1.87,0,1,0,1.89,3.23Z"/><path class="cls-3" d="M107.89,46.32c1.19-.25,2.36-.56,3.53-.9a27.34,27.34,0,0,0,6.27-2.49,6,6,0,0,0,2.44-2.3,1.88,1.88,0,1,0-3.24-1.89c0,.1-.33.52-.11.22s0-.05,0,0a1.89,1.89,0,0,1-.2.2l-.23.2c-.07.07.38-.27.09-.08s-.37.26-.57.38a11.38,11.38,0,0,1-1.25.65l-.32.15c-.06,0-.43.18-.15.07s-.15.06-.22.08l-.39.16a46.24,46.24,0,0,1-5.41,1.65l-1.2.28a1.88,1.88,0,0,0-1.31,2.3,1.91,1.91,0,0,0,2.3,1.31Z"/><path class="cls-3" d="M106.05,77l5.3-4.06.77-.58a1.37,1.37,0,0,0,.57-.75,1.25,1.25,0,0,0-1.84-1.41l-5.3,4.06-.76.58a1.44,1.44,0,0,0-.58.75,1.32,1.32,0,0,0,.13,1,1.26,1.26,0,0,0,1.71.44Z"/><path class="cls-3" d="M127.76,40.07c-.48,2.62,1.73,4.41,3.73,5.64a37.77,37.77,0,0,0,6.26,2.89l1.41.5a1.9,1.9,0,0,0,2.31-1.31,1.93,1.93,0,0,0-1.31-2.31l-1-.35-1.09-.41-.55-.22-.34-.14-.17-.07.14.06c-1-.43-1.94-.87-2.88-1.38-.47-.25-.92-.52-1.37-.82-.21-.13-.41-.28-.61-.43s.37.32.06.05l-.29-.25c-.18-.16-.34-.33-.5-.5s.18.27.06.09l-.18-.28-.05-.09c-.15-.23.09.2.1.25a2,2,0,0,0-.08-.26c-.11-.27,0,.54,0,.18s-.07.34,0,.16a1.93,1.93,0,0,0-1.31-2.31,1.9,1.9,0,0,0-2.31,1.31Z"/><path class="cls-3" d="M105.22,71.13l3.66,4.78.53.69a1.44,1.44,0,0,0,.75.58,1.28,1.28,0,0,0,1-.13,1.26,1.26,0,0,0,.45-1.71l-3.66-4.78-.53-.69a1.44,1.44,0,0,0-.75-.58,1.28,1.28,0,0,0-1,.13,1.26,1.26,0,0,0-.45,1.71Z"/><path class="cls-3" d="M136.69,80.69l5.3-4.06.77-.58a1.37,1.37,0,0,0,.57-.75,1.28,1.28,0,0,0-.12-1,1.26,1.26,0,0,0-1.71-.45L136.2,78l-.77.59a1.32,1.32,0,0,0-.57.74,1.24,1.24,0,0,0,1.83,1.41Z"/><path class="cls-3" d="M135.86,74.79l3.66,4.78.53.7a1.37,1.37,0,0,0,.75.57,1.24,1.24,0,0,0,1-.13,1.26,1.26,0,0,0,.45-1.71l-3.66-4.78-.53-.69a1.37,1.37,0,0,0-.75-.57,1.24,1.24,0,0,0-1,.12,1.26,1.26,0,0,0-.45,1.71Z"/><path class="cls-5" d="M61,17.89c-1.16,2.54,5.2,9.18,7.75,8.13,1.69-.7,3-5.35.19-8.13S61.79,16.24,61,17.89Z"/><path class="cls-6" d="M114.42,68c3,1.21,7.47-13.89,6.1-17.44-.86-2.23-4.25,4.76-4.61,2.61-.23-1.33-2.43-1.21-3.82-3.92C111.84,48.79,109.86,66.18,114.42,68Z"/><path class="cls-6" d="M131.79,69.81c2.75,1.15,7-12.7,5.8-16-.77-2.06-4,4.33-4.28,2.35-.19-1.23-2.22-1.14-3.47-3.65C129.62,52.08,127.61,68.07,131.79,69.81Z"/><path class="cls-7" d="M116.19,80.8c3.1.77,6.2,4.77,11.36,2.32,2.8-1.33,11,.39-3.1-6.45C119.64,74.32,113.19,80.05,116.19,80.8Z"/><path class="cls-8" d="M130.2,54.4c-2.22,12.09-.74,13.45,1,14.75,1.44,1.07,1.62,2.14.62-.15C131.44,68.16,130.86,50.79,130.2,54.4Z"/><path class="cls-8" d="M112.82,51.8c-2.08,12.12.37,12.72,1.16,14.74.63,1.62,2.32,2.86,1.29.58C114.9,66.28,113.44,48.19,112.82,51.8Z"/></g><g id="Capa_2" data-name="Capa 2"><g id="Capa_1" data-name="Capa 1"><path class="cls-4" d="M93.66,13.57a51.61,51.61,0,0,1,23.91,5.94c-7.23-18.06-6.72-13.16-15.81-10.89a23.76,23.76,0,0,0-8.56,3.61A.75.75,0,0,0,93.66,13.57Z"/><path class="cls-9" d="M121.06,55.83c-.34,4.25-2.27,13.09-5.84,12.6-3.41-.47-5.73-9.55-3-18,1.06-3.28,1.68,1.34,4.19,1.65,2.25.28,3.64-5.18,4.42-1.82C121.49,53,121.26,53.26,121.06,55.83Z"/><path class="cls-9" d="M138,58.58c-.33,4.25-2.27,13.09-5.84,12.6-3.41-.47-5.73-9.55-3-18,1.07-3.28,1.68,1.34,4.2,1.65,2.25.28,3.63-5.18,4.42-1.82C138.41,55.78,138.19,56,138,58.58Z"/><path class="cls-9" d="M131.57,83.07c2.34-.9-2.1-4.76-6.7-6.4-4.27-1.53-13.4,2.84-10.17,3.79C121.31,82.39,119.68,87.63,131.57,83.07Z"/><path class="cls-4" d="M73.58,16.83c3.51-1.36,3.85-3.71,1.66-13.78-1.45-6.63,9,4.47,15.48,9.55,1.2.93,4,.81,4,.81a52,52,0,0,1,48.24,64"/><path class="cls-4" d="M76.26,25.46a15.1,15.1,0,0,0-2.49-8.34l-.29.11A15,15,0,0,1,75.66,22a15.17,15.17,0,0,1,.6,4.23l-.1-.37a14.06,14.06,0,0,0-2.58-8.26c-2.75-4-7.52-5.19-12.53-6.58C36,4.09,45.84,17.83,45.84,26.23c0,3.88,1.56,12.28,12.5,13.15L49.57,36c-6.66,9.7-9.82,19.44-9.39,29.82,1.2,28.7,23.3,52,52,52A52,52,0,0,0,142.5,79.14c.16-.58.31-1.16.44-1.75-.13.59-.28,1.17-.44,1.75a52.08,52.08,0,0,1-10.1,19.41"/></g><g id="Capa_4" data-name="Capa 4"><path class="cls-10" d="M63.33,111.66c2.46-10.56,39.2-11,46.49-4.84,3,2.52,4.5,5.51,3.94,6.58-6.63,12.68-42.46,14.66-49.25,3.3A6.94,6.94,0,0,1,63.33,111.66Z"/><path class="cls-11" d="M84.52,102.29c-3.47-.88-21.09,4.19-21.09,9.36,0,4.13,4.74,9,10.83,9.89,25.51,3.87,37.39-2.51,37.32-3,0-.28-5.77,2.84-21.66,3.19-11,.25-16.31-2.26-19.7-6A8.25,8.25,0,0,1,68.84,110C69.5,106,75.73,104.8,84.52,102.29Z"/><path class="cls-12" d="M94.35,108.54c-.42,1.09,3.38,4.81,6.5,3.68,1.05-.39,2.36-1.45,2.17-2.33C102.58,107.94,94.87,107.18,94.35,108.54Z"/><path class="cls-4" d="M114.18,113.17a4.53,4.53,0,0,1-.23,1.45c-.75,2.46-3.4,4.66-7.3,6.35A40.25,40.25,0,0,1,97,123.6a59.1,59.1,0,0,1-9,.67c-14.43,0-26.13-5-26.13-11.1A5.46,5.46,0,0,1,63,110c.1-.14.2-.29.32-.43a8.45,8.45,0,0,1,.65-.72,12.56,12.56,0,0,1,1.89-1.56,17,17,0,0,1,1.64-1c4.78-2.6,12.22-4.26,20.57-4.26a58.65,58.65,0,0,1,7.53.47C106.2,103.89,114,108,114.17,113v.08A.49.49,0,0,1,114.18,113.17Z"/></g></g></svg>