<svg xmlns="http://www.w3.org/2000/svg" viewBox="0 0 145.05 125.4"><defs><style>.cls-1{fill:#75bcad;stroke:#75bcad;}.cls-1,.cls-2,.cls-4,.cls-5,.cls-6,.cls-7,.cls-8,.cls-9{stroke-miterlimit:10;}.cls-1,.cls-2{stroke-width:0.75px;}.cls-2{fill:#5fb390;stroke:#5fb390;}.cls-3{fill:#1d1d1b;}.cls-4{fill:#8bc4c9;stroke:#8bc4c9;}.cls-4,.cls-5,.cls-6,.cls-7{stroke-width:0.75px;}.cls-5{fill:#d7d7d7;stroke:#d7d7d7;}.cls-6{fill:#582d29;stroke:#582d29;}.cls-7{fill:#54a6a8;stroke:#54a6a8;}.cls-8,.cls-9{fill:none;stroke:#1d1d1b;}.cls-8{stroke-width:2px;}.cls-9{stroke-width:2.03px;}</style></defs><g id="Capa_9" data-name="Capa 9"><path class="cls-1" d="M55.75,37.12A13.8,13.8,0,0,1,45.49,24.93c-.43-5.37-3.17-12,1.61-14.46,7.43-3.8,20.37,3.17,21.42,4,1.46,1.17,4.55,3.63,5,7.36C74.51,29.23,64.92,39.23,55.75,37.12Z"/><path class="cls-1" d="M75,2.12C86.75,26.86,44.68,16.54,39.68,64.76c-2.53,24.39,19.13,39.14,21.68,41,14.73,10.93,34.16,11.32,53,6.38,14-3.65,19.76-17.59,21.68-20.9a54.57,54.57,0,0,0,6.77-19.55,50.41,50.41,0,0,0-2.32-25.35c-.83-2.26-3.67-13.09-13.94-20.13C102.13,9.47,95.94,15.54,92.2,13,82.46,6.24,73.59-.94,75,2.12Z"/><path class="cls-2" d="M74.68,75.67c4.54-.83,9.77,11.91,18.19,17,2.71,1.64,3.49,1.55,9.2-.19.74-.23-1.23,1.7-3.1,2.22-1.59.44-3.77,3-14.51-5.71-2.42-2-9.39-9.14-8.71-11.22C76,77.06,73.72,75.84,74.68,75.67Z"/><path class="cls-2" d="M93,12.86c-.17-1.28,10.55-5.8,17.65-5.35,2.06.12,6.39,9.51,5.67,10.58s-4.49-1.83-13-3.58C96.42,13.08,93.08,13.69,93,12.86Z"/><path class="cls-2" d="M46.36,9.57c-.28-.16-6,8.59,2.69,24.36,2.14,3.9,7.83,5.31,8.15,4.82S49.68,28.1,48.55,24C46.62,17.05,46.61,9.72,46.36,9.57Z"/><path class="cls-2" d="M50,37C38.64,54.89,38.17,68.55,43.72,83.5c8.82,23.79,33.91,40,64.43,31.41,12.65-3.56,21.13-11.76,21.53-13.1.27-.9-8.83,7.93-22.73,9.63-16.23,2-40.14-5-50.8-25.4-11.52-22.08,2-47,2-47C54.14,38.44,50.67,35.91,50,37Z"/><path class="cls-2" d="M104.1,122c-5.4,3.85,13.23,3.55,24.58-6.9.5-.46,1.48-1-.9-6.45S114.87,114.34,104.1,122Z"/></g><g id="Capa_10" data-name="Capa 10"><path class="cls-3" d="M2.38,48.44l10.4-2,1.5-.3a1.88,1.88,0,0,0,1.31-2.3,1.92,1.92,0,0,0-2.31-1.31l-10.4,2-1.5.29A1.9,1.9,0,0,0,.07,47.13a1.93,1.93,0,0,0,2.31,1.31Z"/><path class="cls-3" d="M2.14,42.49l7.67,7.33,1.09,1a1.87,1.87,0,0,0,2.65-2.65L5.89,40.88l-1.1-1a1.9,1.9,0,0,0-2.65,0,1.91,1.91,0,0,0,0,2.65Z"/><path class="cls-3" d="M96.93,45.09a34.24,34.24,0,0,0,7.76-7.48,6,6,0,0,0,1.2-3.22,1.88,1.88,0,0,0-3.75,0s0,.2,0,.22.12-.56,0-.32c0,0,0,.08,0,.12-.06.23-.33.71,0,.11a11.77,11.77,0,0,1-.58,1l-.38.54.13-.17-.12.15-.27.32c-.33.39-.67.77-1,1.13a44.67,44.67,0,0,1-4.21,3.81l-.73.57c-.28.23.46-.34.17-.12l-.08.06A2.05,2.05,0,0,0,94.18,43a1.91,1.91,0,0,0,.19,1.44,1.88,1.88,0,0,0,2.56.67Z"/><path class="cls-3" d="M104.35,76.54l3.09-5.93.43-.85a1.25,1.25,0,1,0-2.15-1.26l-3.09,5.94-.44.84a1.25,1.25,0,0,0,2.16,1.26Z"/><path class="cls-3" d="M112.6,31c.66,2.51,3.61,3.08,5.81,3.34a33.51,33.51,0,0,0,6.49,0c.5,0,1-.09,1.49-.15a1.92,1.92,0,0,0,1.88-1.87c0-.92-.84-2-1.88-1.88-1.2.15-2.42.23-3.63.27s-2.14,0-3.2,0l-.76-.06-.39,0-.17,0c-.24,0,.5.08.11,0A12.83,12.83,0,0,1,117,30.3l-.36-.12-.13,0c-.28-.09.35.18.17.07l-.53-.3c-.2-.09.35.34.09.07l-.08-.08c-.18-.14.12-.15.14.2,0-.05-.1-.14-.13-.2,0,.1.16.47.07.11a1.88,1.88,0,1,0-3.62,1Z"/><path class="cls-3" d="M101.12,71.68l5.36,2.79.76.39a1.25,1.25,0,0,0,1.26-2.16l-5.35-2.78-.77-.4a1.25,1.25,0,1,0-1.26,2.16Z"/><path class="cls-3" d="M137.9,63.77,141,57.83l.44-.84a1.25,1.25,0,0,0-2.16-1.26l-3.08,5.93-.44.85a1.25,1.25,0,1,0,2.16,1.26Z"/><path class="cls-3" d="M134.67,58.9,140,61.69l.76.4a1.25,1.25,0,0,0,1.26-2.16l-5.36-2.79-.76-.39a1.25,1.25,0,1,0-1.26,2.15Z"/><path class="cls-4" d="M60.62,17.63c-1.17,2.54,5.2,9.18,7.74,8.13,1.69-.7,3-5.34.19-8.13S61.38,16,60.62,17.63Z"/><path class="cls-4" d="M97.91,89.89c.85-.1,1.93-3,.58-5.22-.87-1.4-2.67-2.41-3.29-1.94C94,83.62,96.58,90.06,97.91,89.89Z"/><path class="cls-5" d="M112.81,61.7c3.22-.25.48-15.76-2.32-18.32-1.77-1.62-1.68,6.14-3,4.38-.8-1.09-2.71,0-5.16-1.8C101.92,45.63,107.9,62.09,112.81,61.7Z"/><path class="cls-5" d="M128.85,56.2c3-.23.44-14.5-2.14-16.86-1.63-1.49-1.55,5.66-2.73,4-.74-1-2.5,0-4.76-1.67C118.82,41.41,124.32,56.56,128.85,56.2Z"/><path class="cls-6" d="M118.49,72c3.09.77,9.29-2.33,13.93-3.68,3-.87-1.88-3.65-7.22-2.71S115.49,71.21,118.49,72Z"/><path class="cls-7" d="M120.39,43.22C123.94,55,125.87,55.53,128,55.88c1.78.3,2.42,1.18.49-.41C127.78,54.89,119.33,39.71,120.39,43.22Z"/><path class="cls-7" d="M104.13,47.89c3.55,11.78,6,11.22,7.62,12.67,1.29,1.17,3.35,1.53,1.41-.05C112.46,59.93,103.08,44.39,104.13,47.89Z"/></g><g id="Capa_2" data-name="Capa 2"><g id="Capa_11" data-name="Capa 11"><path class="cls-3" d="M49.63,97.72c-1,2.59-2.8,8.35-6.62,6.55-2.42-1.14-4-3.76-5.14-6C34.5,91.62,33.23,84,32.23,76.73c-1.11-8-1.72-16.16-3.17-24.15a58.92,58.92,0,0,0-2.95-11.17c-1.12-2.83-2.57-5.84-4.95-7.83-6.59-5.5-10.39,5.22-13.45,9.22-.89,1.16,1.08,2.29,2,1.14,1.83-2.39,3.05-5.2,4.89-7.59.7-.9,1.69-2.09,2.94-2.08,1.55,0,2.92,1.6,3.76,2.75a29.48,29.48,0,0,1,4.28,10,99.51,99.51,0,0,1,2.25,12c1.11,8,1.73,16.08,3.15,24,1.18,6.64,2.85,14,7,19.54,1.66,2.24,4.23,4.65,7.26,4.24,3.9-.53,5.43-5.44,6.67-8.54.54-1.35-1.65-1.94-2.19-.6Z"/></g><g id="Capa_1" data-name="Capa 1"><path class="cls-8" d="M129.76,113c0,3-2.88,5.79-7.53,7.8s-11.32,3.3-18.6,3.3a59.34,59.34,0,0,1-7.7-.49,40.18,40.18,0,0,0,10-2.68c4.63-2,7.51-4.74,7.53-7.77a52,52,0,0,0,11.07-6.8C127.83,108.21,129.76,110.51,129.76,113Z"/><path class="cls-8" d="M113.5,113.16c0,3-2.9,5.77-7.53,7.77a40.18,40.18,0,0,1-10,2.68,56.87,56.87,0,0,1-8.56.62c-14.43,0-26.13-5-26.13-11.1a6.16,6.16,0,0,1,2-4.29,50.32,50.32,0,0,0,15.17,7.09,50.87,50.87,0,0,0,13.64,1.84A51.79,51.79,0,0,0,113.5,113.16Z"/><path class="cls-3" d="M86.41,66.17a54.44,54.44,0,0,1,8.48,9c2.4,3.24,5,7,6.07,10.89a7.39,7.39,0,0,1-.32,5.6,5,5,0,0,1-5,2.38c-4.13-.3-7.67-3.78-10.22-6.74-3.33-3.88-6.21-8.19-9.19-12.35-.93-1.29-3.09-.05-2.16,1.26,3,4.22,6,8.56,9.31,12.53,2.93,3.48,6.82,7.06,11.5,7.72a7.57,7.57,0,0,0,8.88-6.77c.54-4.71-2.45-9.41-4.93-13.18A55.83,55.83,0,0,0,88.17,64.4c-1.22-1-3,.73-1.76,1.77Z"/><path class="cls-8" d="M93.37,13.57a51.58,51.58,0,0,1,23.91,5.94c-7.23-18.06-6.72-13.16-15.81-10.89a23.76,23.76,0,0,0-8.56,3.61A.75.75,0,0,0,93.37,13.57Z"/><path class="cls-9" d="M113.16,47.94c1.49,4,3.48,12.82,0,13.89s-9.23-6.23-10.31-15c-.42-3.42,2.09.5,4.5-.28,2.16-.7,1.1-6.24,3.23-3.52C112.36,45.22,112.25,45.52,113.16,47.94Z"/><path class="cls-9" d="M129.65,43.26c1.5,4,3.49,12.83,0,13.9-3.28,1-9.23-6.23-10.3-15-.42-3.42,2.09.5,4.5-.28,2.15-.7,1.09-6.24,3.23-3.52C128.86,40.55,128.75,40.85,129.65,43.26Z"/><path class="cls-9" d="M134.21,68.17c2.06-1.42-3.92-3.42-8.78-3-4.51.43-10.94,8.26-7.61,7.75C124.63,71.9,129.37,71.5,134.21,68.17Z"/><path class="cls-8" d="M73.29,16.83C76.8,15.47,77.14,13.12,75,3.05c-1.45-6.63,9,4.47,15.48,9.55,1.2.93,4,.81,4,.81a52,52,0,0,1,48.24,64"/><path class="cls-8" d="M132.11,98.56a52.08,52.08,0,0,0,10.1-19.41"/><path class="cls-8" d="M142.65,77.4c-.13.59-.28,1.17-.44,1.75a52.12,52.12,0,0,1-28.71,34"/><path class="cls-8" d="M63.28,109C49.61,99.67,40.64,83.78,39.89,65.79,39.46,55.41,42.62,45.67,49.28,36l.21.08,8.56,3.34a13.79,13.79,0,0,1-8.56-3.34c-3.31-3-3.94-7.34-3.94-9.81,0-8.4-9.83-22.14,15.21-15.21,5,1.39,9.78,2.61,12.53,6.58A14.83,14.83,0,0,1,75.37,22a15.17,15.17,0,0,1,.6,4.23l-.1-.37a15.3,15.3,0,0,0-2.68-8.63l.29-.11A15.1,15.1,0,0,1,76,25.47"/></g><g id="Capa_4" data-name="Capa 4"><path class="cls-1" d="M62.78,111.92c2.42-10.56,38.52-11,45.68-4.84,2.91,2.52,4.43,5.51,3.87,6.58C105.82,126.34,70.62,128.32,64,117A7,7,0,0,1,62.78,111.92Z"/><path class="cls-2" d="M83.6,102.55c-3.4-.88-20.72,4.19-20.72,9.36,0,4.13,4.65,9,10.64,9.89,25.06,3.87,36.75-2.51,36.68-3,0-.28-5.68,2.83-21.29,3.19-10.83.25-16-2.26-19.36-6a8.39,8.39,0,0,1-1.35-5.71C68.85,106.25,75,105.05,83.6,102.55Z"/><path class="cls-4" d="M93.26,108.8c-.41,1.09,3.32,4.81,6.39,3.67,1-.38,2.32-1.44,2.13-2.32C101.35,108.2,93.77,107.44,93.26,108.8Z"/><path class="cls-8" d="M113.51,113.3a4.53,4.53,0,0,1-.23,1.45c-.75,2.46-3.4,4.66-7.3,6.35a40.25,40.25,0,0,1-9.64,2.63,59.1,59.1,0,0,1-9,.67c-14.43,0-26.13-5-26.13-11.1a5.46,5.46,0,0,1,1.06-3.13c.1-.14.2-.29.32-.43a8.45,8.45,0,0,1,.65-.72,12.56,12.56,0,0,1,1.89-1.56,17,17,0,0,1,1.64-1c4.78-2.6,12.22-4.26,20.57-4.26a58.65,58.65,0,0,1,7.53.47c10.62,1.35,18.39,5.5,18.59,10.43v.08A.49.49,0,0,1,113.51,113.3Z"/></g></g></svg>