<svg xmlns="http://www.w3.org/2000/svg" viewBox="0 0 150.09 123.77"><defs><style>.cls-1{fill:#75bcad;stroke:#75bcad;}.cls-1,.cls-10,.cls-2,.cls-4,.cls-5,.cls-6,.cls-7,.cls-8,.cls-9{stroke-miterlimit:10;}.cls-1,.cls-2{stroke-width:0.75px;}.cls-2{fill:#5fb390;stroke:#5fb390;}.cls-3{fill:#1d1d1b;}.cls-4{fill:#8bc4c9;stroke:#8bc4c9;}.cls-4,.cls-5,.cls-7{stroke-width:0.75px;}.cls-5{fill:#d7d7d7;stroke:#d7d7d7;}.cls-6{fill:#582d29;stroke:#582d29;stroke-width:1.38px;}.cls-7{fill:#54a6a8;stroke:#54a6a8;}.cls-10,.cls-8,.cls-9{fill:none;stroke:#1d1d1b;}.cls-8{stroke-width:2px;}.cls-9{stroke-width:2.03px;}.cls-10{stroke-width:2.42px;}</style></defs><g id="Capa_9" data-name="Capa 9"><path class="cls-1" d="M57.09,36.83a13.82,13.82,0,0,1-10.26-12.2c-.43-5.36-3.17-12,1.62-14.45,7.43-3.8,20.37,3.17,21.42,4,1.46,1.17,4.54,3.63,5,7.36C75.86,28.94,66.27,38.94,57.09,36.83Z"/><path class="cls-1" d="M75.22,2.22c12.1,20-35.68,32.06-34.74,62.32C41.24,89,59,104,61.54,105.89c14.73,10.93,34.16,11.33,53,6.39,14-3.65,19.75-17.59,21.67-20.9A54.68,54.68,0,0,0,143,71.83a50.49,50.49,0,0,0-2.33-25.36c-.83-2.25-3.66-13.08-13.93-20.13C102.32,9.57,96.12,15.63,92.38,13.05,82.64,6.34,73.47-.68,75.22,2.22Z"/><path class="cls-2" d="M86.25,76.61c-1.11-4.48-14.87-4-23-9.61-2.62-1.79-2.85-2.54-3.6-8.46-.1-.76-1,1.82-.76,3.74.25,1.63-1.19,4.67,11.16,10.89,2.78,1.41,12.19,4.81,13.81,3.34C84.45,76,86.49,77.56,86.25,76.61Z"/><path class="cls-2" d="M93,12.44c-.17-1.28,10.55-5.8,17.64-5.35,2.07.13,6.39,9.51,5.68,10.58s-4.49-1.83-13-3.58C96.48,12.66,93.14,13.27,93,12.44Z"/><path class="cls-2" d="M46.93,9.15c-.27-.16-6,8.59,2.69,24.36,2.14,3.9,7.83,5.31,8.15,4.82S50.26,27.68,49.12,23.6C47.19,16.63,47.18,9.3,46.93,9.15Z"/><path class="cls-2" d="M50.05,36.55C38.69,54.47,38.23,68.13,43.77,83.08c8.82,23.79,33.92,40,64.44,31.41,12.65-3.56,21.12-11.76,21.52-13.1.27-.9-8.83,7.93-22.72,9.63-16.24,2-40.15-5-50.81-25.4-11.51-22.08,2-47,2-47C54.2,38,50.73,35.49,50.05,36.55Z"/><path class="cls-1" d="M105.38,116c10.71-4.64,20.78-3.61,34.85-29.33,1.83-3.35,6.68,1.08,7.39,2.07,7.15,9.92-20.72,30.34-36.17,30C110.39,118.71,103.28,116.93,105.38,116Z"/><path class="cls-1" d="M59.09,117.05c-3.36-10.3,27.36-29.27,36.68-27.65,3.8.67,6.63,2.45,6.71,3.66.93,14.22-28.24,34-39.8,27.71A7,7,0,0,1,59.09,117.05Z"/><path class="cls-2" d="M118.54,110.22c-7.87,4.25-16.66,3.58-11.74,8s45-10.83,41.68-26.84c-.41-2-14.45,19.35-22.07,20.38C120.4,112.58,120.2,109.32,118.54,110.22Z"/><path class="cls-2" d="M70.18,100.07c-3.38,1-15.62,14.26-13,18.69,2.13,3.54,8.6,5.29,14.21,3,23.49-9.58,30.22-21.06,29.91-21.44-.18-.22-3.41,5.35-16.61,13.69-9.16,5.78-14.9,6.3-19.69,4.81a8.41,8.41,0,0,1-4.1-4.2C59.43,110.84,64.06,106.66,70.18,100.07Z"/></g><g id="Capa_10" data-name="Capa 10"><path class="cls-3" d="M5.49,39.9l6.7-8.21,1-1.18a1.91,1.91,0,0,0,0-2.65,1.89,1.89,0,0,0-2.65,0L3.8,36.07l-1,1.18a1.91,1.91,0,0,0,0,2.65,1.9,1.9,0,0,0,2.65,0Z"/><path class="cls-3" d="M1.88,35.23,12.45,36l1.52.1a1.89,1.89,0,0,0,1.88-1.87A1.92,1.92,0,0,0,14,32.3L3.4,31.59l-1.52-.11A1.9,1.9,0,0,0,0,33.36a1.92,1.92,0,0,0,1.88,1.87Z"/><path class="cls-3" d="M102.4,38.53c1.15-.38,2.28-.83,3.41-1.29a27.52,27.52,0,0,0,6-3.14,6.38,6.38,0,0,0,2.42-2.92,1.89,1.89,0,0,0-1.31-2.31,1.92,1.92,0,0,0-2.3,1.31c-.08.23.26-.46.07-.17a1,1,0,0,0-.1.18,1.59,1.59,0,0,0-.15.21c.09-.19.29-.34.07-.11s-.25.27-.39.39l-.24.21-.11.09c-.23.2.3-.21.11-.09a22.12,22.12,0,0,1-2.51,1.53c-.46.25-.93.47-1.4.69l-.68.31-.36.15c-.13.06-.6.24,0,0-.77.3-1.54.62-2.32.91l-1.14.41a1.87,1.87,0,1,0,1,3.61Z"/><path class="cls-3" d="M99.31,70.67,104.13,66l.69-.65a1.25,1.25,0,0,0-1.77-1.77l-4.83,4.64-.68.65a1.25,1.25,0,0,0,1.77,1.77Z"/><path class="cls-3" d="M121.62,30.33c-.17,2.41,2.38,4,4.26,4.84a37.56,37.56,0,0,0,6.44,2.18c.48.12,1,.24,1.45.34a1.88,1.88,0,1,0,1-3.62c-1.2-.24-2.38-.56-3.55-.91s-2-.65-3-1A1.19,1.19,0,0,0,128,32s.44.19.15.06l-.34-.15c-.25-.11-.49-.23-.73-.36a10.56,10.56,0,0,1-1.22-.72l-.14-.11c-.17-.11.38.33.15.12l-.25-.22-.21-.21c-.25-.28,0-.05,0,.07a1.28,1.28,0,0,0-.15-.25c-.2-.3.09.38.06.16a.65.65,0,0,0-.06-.24c.18.33,0,.49.06.14a1.89,1.89,0,0,0-1.88-1.88,1.92,1.92,0,0,0-1.87,1.88Z"/><path class="cls-3" d="M97.8,65.15,102,69.51l.59.61a1.25,1.25,0,1,0,1.77-1.76L100.16,64l-.59-.62a1.27,1.27,0,0,0-1.77,0,1.29,1.29,0,0,0,0,1.77Z"/><path class="cls-3" d="M135.18,69.29,140,64.65l.68-.65a1.25,1.25,0,1,0-1.77-1.77l-4.82,4.64-.69.65a1.25,1.25,0,0,0,1.77,1.77Z"/><path class="cls-3" d="M133.68,63.77l4.18,4.36.6.62A1.25,1.25,0,1,0,140.22,67L136,62.62l-.6-.61a1.24,1.24,0,0,0-1.76,0,1.26,1.26,0,0,0,0,1.76Z"/><path class="cls-4" d="M60.67,17.22c-1.16,2.53,5.2,9.17,7.74,8.12,1.7-.69,3-5.34.2-8.12S61.43,15.56,60.67,17.22Z"/><path class="cls-4" d="M63.75,61.26c-.25-.82,2-3,4.53-2.67,1.62.22,3.29,1.44,3.11,2.21C71.06,62.23,64.15,62.55,63.75,61.26Z"/><path class="cls-4" d="M87.78,95.6c.21,1.14,5.32,2.42,7.37-.14.69-.86,1.25-2.43.63-3.08C94.41,90.92,87.52,94.17,87.78,95.6Z"/><path class="cls-5" d="M111.61,58.65c3.11.9,6-14.57,4.32-18-1.08-2.13-3.75,5.15-4.33,3.05-.36-1.3-2.54-1-4.19-3.52C107.11,39.76,106.88,57.27,111.61,58.65Z"/><path class="cls-5" d="M128.81,58.87c2.86.83,5.55-13.41,4-16.53-1-2-3.45,4.74-4,2.81-.33-1.2-2.33-.88-3.86-3.24C124.67,41.49,124.46,57.6,128.81,58.87Z"/><path class="cls-6" d="M116.22,76.15c3.29,2.5,8.29,3.54,9.94-2.84.83-3.21-.52-7.09-6.31-6.44C113.55,67.58,113,73.73,116.22,76.15Z"/><path class="cls-7" d="M125.49,44.14c-.85,12.26.76,13.45,2.63,14.54,1.55.91,1.85,2,.6-.21C127.94,57.11,125.79,39.83,125.49,44.14Z"/><path class="cls-7" d="M108.38,42.66C107.53,54.93,110,55.28,111,57.21c.79,1.55,2.6,2.61,1.35.45C111.91,56.86,108.64,39,108.38,42.66Z"/></g><g id="Capa_2" data-name="Capa 2"><g id="Capa_1" data-name="Capa 1"><path class="cls-8" d="M93.94,13.57a51.58,51.58,0,0,1,23.91,5.94c-7.23-18.06-6.71-13.16-15.8-10.89a23.81,23.81,0,0,0-8.57,3.61A.75.75,0,0,0,93.94,13.57Z"/><path class="cls-9" d="M116.74,46.44c.14,4.27-.8,13.26-4.4,13.18-3.44-.09-6.76-8.85-5-17.53.7-3.38,1.82,1.14,4.35,1.17,2.27,0,3-5.55,4.19-2.29C116.85,43.61,116.65,43.86,116.74,46.44Z"/><path class="cls-9" d="M133.86,47.28c.14,4.27-.8,13.27-4.4,13.18-3.44-.08-6.76-8.85-5-17.52.7-3.38,1.83,1.14,4.36,1.17,2.27,0,3-5.56,4.19-2.3C134,44.46,133.78,44.71,133.86,47.28Z"/><path class="cls-8" d="M73.86,16.83c3.51-1.36,3.85-3.71,1.66-13.78-1.45-6.63,9,4.47,15.48,9.55,1.2.93,4,.81,4,.81a52,52,0,0,1,48.24,64"/><path class="cls-8" d="M132.69,98.56a52.08,52.08,0,0,0,10.1-19.41"/><path class="cls-8" d="M143.23,77.4c-.13.59-.28,1.17-.44,1.75A52,52,0,0,1,92.5,117.82a51.45,51.45,0,0,1-9.62-.9"/><path class="cls-8" d="M61.24,107.1A55.13,55.13,0,0,1,40.47,65.79C40,55.41,43.2,45.67,49.86,36l.21.08,8.56,3.34a13.79,13.79,0,0,1-8.56-3.34c-3.31-3-3.94-7.34-3.94-9.81,0-8.4-9.83-22.14,15.21-15.21,5,1.39,9.78,2.61,12.53,6.58A14.83,14.83,0,0,1,76,22a15.17,15.17,0,0,1,.6,4.23l-.1-.37a15.3,15.3,0,0,0-2.68-8.63l.29-.11a15.1,15.1,0,0,1,2.49,8.34"/></g><g id="Capa_8" data-name="Capa 8"><path class="cls-3" d="M49.82,98.09c-.9,2.27-2.43,7.52-5.73,6.86-2.27-.45-4-2.79-5.07-4.62C35.75,95,34.3,88.51,33.24,82.39c-1.22-7-1.83-14.12-2.74-21.19-.46-3.53-1-7.07-1.69-10.57-.32-1.57-.69-3.13-1.13-4.68a12.68,12.68,0,0,0-1.13-3.36c-1.82-2.85-3.74,2-4.22,3.19-1,2.52-1.75,5.73-3.24,7.82,0,.06-.15.14-.18.2-.08.24-.08-.06,0,0-.15-.21.64.13.66.12s0,0-.15-.26-.23-.5-.34-.75c-.67-1.65-1.17-3.38-1.71-5.08a40,40,0,0,0-1.32-4,1.55,1.55,0,0,0-.95-1.07c-1.15-.32-1.43.78-1.54,1.61a33.81,33.81,0,0,1-.72,4.12,7.4,7.4,0,0,1-.29.91c-.17.43-.25.22,0,.19s.46,0,.67,0,.08.2.06,0-.23-.4-.28-.52a12.93,12.93,0,0,1-.71-2.29,114.85,114.85,0,0,1-2.08-11.81c-.21-1.44-2.4-.83-2.19.6.35,2.45.71,4.89,1.15,7.32a35.1,35.1,0,0,0,1.59,6.64c.48,1.26,1.73,3.13,3.2,1.72a5,5,0,0,0,1.09-2.45c.19-.76.32-1.52.44-2.29.07-.46.14-.93.2-1.4,0-.27.07-.54.11-.81s0-.25-.25.29l-.8.33-.89-.48,0,0c-.05.12,0-.11,0,0a3.16,3.16,0,0,0,.2.54c.18.52.35,1.05.52,1.58.42,1.33.83,2.67,1.26,4A37.51,37.51,0,0,0,17.2,54.3c.32.72.72,1.52,1.56,1.71,1.89.42,2.89-2.24,3.45-3.56,1-2.27,1.68-4.63,2.64-6.9.16-.38.33-.75.52-1.11l.28-.45s.06,0,0,0A1.78,1.78,0,0,1,25,44s-.5-.26-.43-.27.19.5.19.5c.4,1.27.79,2.55,1.11,3.84a130.06,130.06,0,0,1,2.76,16.64c1.25,10.5,2,21.45,5.84,31.39,1.48,3.82,3.6,8.46,7.44,10.43a5.2,5.2,0,0,0,6.33-.84c1.86-1.87,2.78-4.61,3.74-7,.54-1.35-1.65-1.94-2.19-.6Z"/><path class="cls-10" d="M126.24,74.84c2.11-1.45-.15-7.24-4.11-7.85-4.5-.7-9.86,3.44-7.89,6.76C118.42,80.79,119.73,79.31,126.24,74.84Z"/><path class="cls-8" d="M99.39,102.82a40.13,40.13,0,0,1-6.79,7.33c-.92.79-1.89,1.57-2.92,2.34q-2,1.55-4.33,3c-.82.51-1.65,1-2.47,1.46l-.48.27c-6.81,3.74-13.5,5.69-18.36,5.58-2.65-.06-4.77-.74-6.08-2.08l-.13-.23-.11-.16a5.94,5.94,0,0,0-.55-.67,5,5,0,0,1-.57-1.71,7.21,7.21,0,0,1,0-1.8,11.85,11.85,0,0,1,.95-3.28,15.45,15.45,0,0,1,.87-1.72A27,27,0,0,1,61,107.4l.25-.3A51.63,51.63,0,0,1,73.61,96.62c1.53-1,3-1.82,4.57-2.59h0l1.5-.72.55-.26c9.28-4.27,17.71-5,20.87-1.51a4.15,4.15,0,0,1,.42.52,1.63,1.63,0,0,1,.11.17,4.52,4.52,0,0,1,.58,1.35C102.89,96.06,101.81,99.32,99.39,102.82Z"/><path class="cls-8" d="M146.07,99.63a40.13,40.13,0,0,1-6.79,7.33c-.92.79-1.9,1.57-2.92,2.34-1.36,1-2.8,2-4.33,3-7.81,4.87-15.75,7.44-21.31,7.31-2.65-.06-4.77-.74-6.08-2.08a1.71,1.71,0,0,0-.13-.23,1.77,1.77,0,0,0-.12-.17,3.92,3.92,0,0,0-.25-.32A52.15,52.15,0,0,0,140.3,86.15c3.36-.16,6,.55,7.5,2.19a4.15,4.15,0,0,1,.42.52,1.63,1.63,0,0,1,.11.17,4.26,4.26,0,0,1,.57,1.35C149.57,92.86,148.49,96.13,146.07,99.63Z"/><path class="cls-3" d="M85.63,75.79a53.24,53.24,0,0,1-12.45-2.33c-3.73-1.17-7.87-2.63-11-5.08s-4.32-6.81-.62-9.31,8.77-1.69,12.74-.74c5,1.19,9.8,2.92,14.63,4.49,1.54.5,2.19-1.92.67-2.41-5.06-1.65-10.14-3.49-15.33-4.65-4.51-1-10.11-1.52-14.13,1.25a7.55,7.55,0,0,0-2,10.67c2.49,3.77,7.3,5.63,11.36,7.17a56.14,56.14,0,0,0,16.09,3.44c1.61.11,1.6-2.39,0-2.5Z"/></g></g></svg>