<svg xmlns="http://www.w3.org/2000/svg" viewBox="0 0 148.55 123.83"><defs><style>.cls-1{fill:#75bcad;stroke:#75bcad;}.cls-1,.cls-2,.cls-4,.cls-5,.cls-6,.cls-7,.cls-8,.cls-9{stroke-miterlimit:10;}.cls-1,.cls-2{stroke-width:0.75px;}.cls-2{fill:#5fb390;stroke:#5fb390;}.cls-3{fill:#1d1d1b;}.cls-4{fill:#8bc4c9;stroke:#8bc4c9;}.cls-4,.cls-5,.cls-7{stroke-width:0.75px;}.cls-5{fill:#d7d7d7;stroke:#d7d7d7;}.cls-6{fill:#582d29;stroke:#582d29;stroke-width:1.38px;}.cls-7{fill:#54a6a8;stroke:#54a6a8;}.cls-8,.cls-9{fill:none;stroke:#1d1d1b;}.cls-8{stroke-width:2px;}.cls-9{stroke-width:2.03px;}</style></defs><g id="Capa_9" data-name="Capa 9"><path class="cls-1" d="M55.21,37.27A13.82,13.82,0,0,1,45,25.07c-.43-5.36-3.17-12,1.61-14.45,7.44-3.8,20.38,3.17,21.42,4,1.47,1.17,4.55,3.63,5,7.36C74,29.38,64.39,39.38,55.21,37.27Z"/><path class="cls-1" d="M73.34,2.65C85.44,22.68,37.66,34.72,38.6,65c.75,24.5,18.51,39.46,21.06,41.35,14.73,10.93,34.16,11.32,53,6.39,14-3.66,19.76-17.59,21.68-20.9a54.68,54.68,0,0,0,6.78-19.55,50.6,50.6,0,0,0-2.33-25.36c-.83-2.25-3.66-13.08-13.93-20.13C100.44,10,94.24,16.07,90.5,13.49,80.76,6.78,71.59-.24,73.34,2.65Z"/><path class="cls-2" d="M75.41,72.46C77,68.11,65.2,60.93,61.48,51.79c-1.19-2.93-1-3.68,1.65-9,.34-.69-1.88.94-2.69,2.7-.69,1.51-3.56,3.25,3.34,15.24,1.55,2.7,7.53,10.72,9.7,10.38C74.24,71,75.08,73.38,75.41,72.46Z"/><path class="cls-2" d="M91.15,12.88C91,11.6,101.7,7.08,108.79,7.53c2.07.12,6.39,9.51,5.68,10.58s-4.49-1.83-13-3.58C94.6,13.1,91.25,13.71,91.15,12.88Z"/><path class="cls-2" d="M45.05,9.59c-.28-.16-6,8.59,2.69,24.36,2.14,3.9,7.83,5.31,8.15,4.82S48.37,28.12,47.24,24C45.31,17.07,45.3,9.74,45.05,9.59Z"/><path class="cls-2" d="M48.17,37C36.81,54.91,36.35,68.57,41.89,83.52c8.82,23.79,33.92,40,64.44,31.41,12.65-3.56,21.12-11.76,21.52-13.1.27-.9-8.83,7.93-22.73,9.63-16.23,2-40.14-5-50.8-25.4-11.51-22.08,2-47,2-47C52.32,38.46,48.85,35.93,48.17,37Z"/><path class="cls-1" d="M103.5,116.46c10.71-4.64,20.77-3.61,34.84-29.33,1.84-3.35,6.69,1.08,7.4,2.07,7.15,9.92-20.72,30.34-36.18,30C108.51,119.15,101.4,117.37,103.5,116.46Z"/><path class="cls-1" d="M57.21,117.49c-3.36-10.3,27.36-29.27,36.68-27.65,3.8.67,6.63,2.45,6.71,3.66.93,14.22-28.24,34-39.8,27.71A7,7,0,0,1,57.21,117.49Z"/><path class="cls-2" d="M116.66,110.65c-7.87,4.26-16.66,3.59-11.74,8s45-10.82,41.68-26.83c-.41-2-14.45,19.35-22.07,20.38C118.52,113,118.32,109.76,116.66,110.65Z"/><path class="cls-2" d="M68.3,100.51c-3.38,1-15.62,14.26-13,18.69,2.13,3.54,8.6,5.29,14.21,3,23.49-9.58,30.22-21.06,29.91-21.44-.18-.22-3.41,5.35-16.62,13.69-9.15,5.78-14.89,6.3-19.68,4.81a8.41,8.41,0,0,1-4.1-4.2C57.55,111.27,62.18,107.1,68.3,100.51Z"/></g><g id="Capa_10" data-name="Capa 10"><path class="cls-3" d="M7.48,40.76l3.83-9.9.54-1.41a1.87,1.87,0,0,0-1.31-2.3,1.93,1.93,0,0,0-2.31,1.3L4.41,38.36l-.54,1.4a1.88,1.88,0,0,0,1.31,2.31,1.93,1.93,0,0,0,2.3-1.31Z"/><path class="cls-3" d="M2.38,37.82l10.3-2.61,1.45-.37a1.89,1.89,0,0,0,1.31-2.3,1.91,1.91,0,0,0-2.31-1.31L2.83,33.84l-1.44.37a1.87,1.87,0,1,0,1,3.61Z"/><path class="cls-3" d="M95.78,45.09a34.19,34.19,0,0,0,7.75-7.48,6,6,0,0,0,1.21-3.22,1.88,1.88,0,0,0-3.75,0s0,.2,0,.22.12-.56,0-.32l0,.12c0,.23-.33.71,0,.11a11.84,11.84,0,0,1-.59,1l-.38.54c-.16.23.13-.16.13-.17l-.11.15-.27.32c-.33.39-.67.77-1,1.13a44.67,44.67,0,0,1-4.21,3.81l-.73.57c-.29.23.45-.34.16-.12l-.07.06A2,2,0,0,0,93,43a1.87,1.87,0,0,0,2.75,2.11Z"/><path class="cls-3" d="M103.19,76.54l3.09-5.93.44-.85a1.25,1.25,0,1,0-2.16-1.26l-3.09,5.94-.44.84a1.28,1.28,0,0,0,.45,1.71,1.26,1.26,0,0,0,1.71-.45Z"/><path class="cls-3" d="M111.45,31c.65,2.51,3.6,3.08,5.8,3.34a33.61,33.61,0,0,0,6.5,0l1.49-.15a1.91,1.91,0,0,0,1.87-1.87c0-.92-.83-2-1.87-1.88-1.21.15-2.42.23-3.64.27-1.06,0-2.13,0-3.19,0l-.76-.06-.4,0-.17,0c-.23,0,.5.08.12,0a12.83,12.83,0,0,1-1.37-.29l-.36-.12-.13,0c-.29-.09.35.18.16.07s-.35-.21-.53-.3.35.34.09.07L115,29.9c-.18-.14.11-.15.13.2,0-.05-.1-.14-.12-.2,0,.1.16.47.06.11a1.87,1.87,0,1,0-3.61,1Z"/><path class="cls-3" d="M100,71.68l5.36,2.79.76.39a1.25,1.25,0,0,0,1.26-2.16L102,69.92l-.76-.4A1.25,1.25,0,1,0,100,71.68Z"/><path class="cls-3" d="M136.74,63.77l3.09-5.94.44-.84a1.25,1.25,0,0,0-2.16-1.26L135,61.66l-.44.85a1.25,1.25,0,1,0,2.16,1.26Z"/><path class="cls-3" d="M133.52,58.9l5.35,2.79.77.4a1.25,1.25,0,0,0,1.26-2.16l-5.36-2.79-.76-.39a1.25,1.25,0,1,0-1.26,2.15Z"/><path class="cls-4" d="M58.79,17.65c-1.17,2.54,5.2,9.18,7.74,8.13,1.7-.7,3-5.34.2-8.13S59.55,16,58.79,17.65Z"/><path class="cls-4" d="M65.05,47.27c.24-.83,3.31-1.43,5.25.26,1.24,1.07,2,3,1.39,3.55C70.63,52.1,64.68,48.56,65.05,47.27Z"/><path class="cls-4" d="M85.9,96c.21,1.15,5.32,2.43,7.37-.13.69-.86,1.25-2.43.63-3.08C92.53,91.36,85.64,94.61,85.9,96Z"/><path class="cls-5" d="M111.5,61.72c3.22-.25.48-15.76-2.32-18.32-1.77-1.62-1.68,6.14-3,4.38-.8-1.09-2.71,0-5.16-1.8C100.61,45.65,106.59,62.11,111.5,61.72Z"/><path class="cls-5" d="M127.66,55.84c3-.24.45-14.51-2.13-16.87-1.63-1.48-1.55,5.66-2.73,4-.74-1-2.5,0-4.76-1.66C117.64,41.05,123.14,56.19,127.66,55.84Z"/><path class="cls-6" d="M122,80.72c3.29,2.5,8.75,1.59,10.4-4.79.83-3.21-1.88-9.4-7.67-8.75C118.38,67.89,118.77,78.3,122,80.72Z"/><path class="cls-7" d="M119.34,43.24C122.89,55,124.82,55.55,127,55.9c1.78.3,2.42,1.18.49-.41C126.23,54.5,118.09,39.1,119.34,43.24Z"/><path class="cls-7" d="M102.82,47.91c3.55,11.78,6,11.22,7.62,12.67,1.29,1.17,3.35,1.53,1.42,0C111.15,59.94,101.77,44.41,102.82,47.91Z"/></g><g id="Capa_2" data-name="Capa 2"><g id="Capa_1" data-name="Capa 1"><path class="cls-8" d="M92.22,13.57a51.61,51.61,0,0,1,23.91,5.94c-7.24-18.06-6.72-13.16-15.81-10.89a23.88,23.88,0,0,0-8.57,3.61A.75.75,0,0,0,92.22,13.57Z"/><path class="cls-9" d="M112,47.94c1.5,4,3.49,12.82,0,13.89-3.28,1-9.23-6.23-10.3-15-.42-3.42,2.09.5,4.5-.28,2.15-.7,1.09-6.24,3.23-3.52C111.21,45.22,111.1,45.52,112,47.94Z"/><path class="cls-9" d="M128.5,43.26c1.5,4,3.48,12.83,0,13.9-3.29,1-9.23-6.23-10.31-15-.42-3.42,2.09.5,4.5-.28,2.16-.7,1.1-6.24,3.24-3.52C127.7,40.55,127.6,40.85,128.5,43.26Z"/><path class="cls-8" d="M72.14,16.83C75.65,15.47,76,13.12,73.8,3.05c-1.45-6.63,9,4.47,15.48,9.55,1.2.93,4,.81,4,.81a52,52,0,0,1,48.24,64"/><path class="cls-8" d="M131,98.55a52.08,52.08,0,0,0,10.1-19.41"/><path class="cls-8" d="M141.5,77.39c-.13.59-.28,1.17-.44,1.75a52,52,0,0,1-50.29,38.67,51,51,0,0,1-9.41-.86"/><path class="cls-8" d="M59.66,107.2A55.13,55.13,0,0,1,38.74,65.78C38.31,55.4,41.47,45.66,48.13,36l.21.08,8.56,3.34A13.79,13.79,0,0,1,48.34,36C45,33,44.4,28.7,44.4,26.23c0-8.4-9.83-22.14,15.21-15.21,5,1.39,9.78,2.61,12.53,6.58A14.83,14.83,0,0,1,74.22,22a15.17,15.17,0,0,1,.6,4.23l-.1-.37A15.3,15.3,0,0,0,72,17.23l.29-.11a15.1,15.1,0,0,1,2.49,8.34"/></g><g id="Capa_8" data-name="Capa 8"><path class="cls-9" d="M132.13,71.5c1.72,2.91-.79,10.18-5.65,10.64-4.51.42-8.32-5.28-7.59-8.56C121,64,127.94,64.4,132.13,71.5Z"/><path class="cls-8" d="M97.85,102.87a40.13,40.13,0,0,1-6.79,7.33c-.92.79-1.89,1.57-2.92,2.34q-2,1.54-4.33,3c-.81.51-1.63,1-2.45,1.44-.17.11-.33.2-.5.29-6.81,3.74-13.5,5.69-18.36,5.58-2.65-.06-4.77-.74-6.08-2.08l-.13-.23-.11-.16a5.94,5.94,0,0,0-.55-.67,5,5,0,0,1-.57-1.71,7.21,7.21,0,0,1,0-1.8,11.85,11.85,0,0,1,1-3.28,15.45,15.45,0,0,1,.87-1.72,27,27,0,0,1,2.58-3.72l.21-.25A51.84,51.84,0,0,1,72.07,96.67c1.53-1,3.05-1.82,4.57-2.59h0l1.5-.72.55-.26c9.28-4.27,17.71-5,20.87-1.51a4.15,4.15,0,0,1,.42.52,1.63,1.63,0,0,1,.11.17,4.52,4.52,0,0,1,.58,1.35C101.35,96.11,100.27,99.37,97.85,102.87Z"/><path class="cls-8" d="M144.53,99.68a40.13,40.13,0,0,1-6.79,7.33c-.92.79-1.9,1.57-2.92,2.34-1.36,1-2.8,2-4.33,3-7.81,4.87-15.75,7.44-21.31,7.31-2.65-.06-4.77-.74-6.08-2.08a1.71,1.71,0,0,0-.13-.23,1.77,1.77,0,0,0-.12-.17,3.92,3.92,0,0,0-.25-.32A52.15,52.15,0,0,0,138.76,86.2c3.36-.16,6,.55,7.5,2.19a4.15,4.15,0,0,1,.42.52,1.63,1.63,0,0,1,.11.17,4.26,4.26,0,0,1,.57,1.35C148,92.91,147,96.18,144.53,99.68Z"/><path class="cls-3" d="M75.85,71.54a53.25,53.25,0,0,1-9-8.47c-2.6-3.08-5.45-6.76-6.68-10.65a7.05,7.05,0,0,1,.23-5.52,5.14,5.14,0,0,1,5-2.41c4.13.26,7.78,3.51,10.49,6.35,3.5,3.69,6.63,7.77,9.83,11.71,1,1.25,2.77-.53,1.77-1.77-3.29-4.05-6.49-8.26-10.13-12-3.15-3.25-7.25-6.5-12-6.78a7.58,7.58,0,0,0-8.22,7.6c-.11,4.73,3.22,9.25,6,12.85A57,57,0,0,0,74.58,73.7c1.29,1,2.54-1.2,1.27-2.16Z"/><path class="cls-3" d="M50.57,100.17c-.78,2-1.53,4.16-2.93,5.76s-3,1.34-4.59.27c-2.69-1.87-4.29-5.29-5.47-8.23-3.33-8.31-4.31-17.4-5.33-26.22-.54-4.64-1.05-9.28-1.77-13.89a61.15,61.15,0,0,0-3.05-13c-.48-1.21-1.3-2.53-2.77-2.54-1.27,0-2.34,1-3.25,1.71-.17.15-.75.48-.8.67s1,.19,1,.25a6.3,6.3,0,0,0-.3-.84c-.31-1-.52-2.1-.75-3.15-.26-1.23-.5-2.47-.83-3.68a5,5,0,0,0-1-2.36c-1.06-1-2.74.1-3.75.67a16.5,16.5,0,0,1-2.18,1.2c-1.06.38-1.68-.19-2.35-1-.93-1.13-2.53.49-1.6,1.6A4.08,4.08,0,0,0,13,39.14a8.51,8.51,0,0,0,2-.88c.75-.43,1.64-.8,2.35-1.28s-.53-.17-.29-.47a2.49,2.49,0,0,0,.15.28c.08.4.28.9.4,1.34.28,1.11.51,2.24.75,3.36s.46,2.26.79,3.36a3.27,3.27,0,0,0,1.13,2c1.14.65,2.17-.67,3-1.32.3-.24,1-.91,1.4-.86s.83,1.47,1,1.89c3,9.23,3.63,19.16,4.8,28.75,1.09,8.92,2.29,18.26,6.37,26.39,1.51,3,3.82,6.57,7.28,7.5,5.1,1.37,7.25-4.75,8.71-8.39.54-1.36-1.65-2-2.19-.61Z"/></g></g></svg>