<svg xmlns="http://www.w3.org/2000/svg" viewBox="0 0 157.9 126.22"><defs><style>.cls-1{fill:#75bcad;stroke:#75bcad;}.cls-1,.cls-2,.cls-4,.cls-5,.cls-6,.cls-7,.cls-8,.cls-9{stroke-miterlimit:10;}.cls-1,.cls-2{stroke-width:0.75px;}.cls-2{fill:#5fb390;stroke:#5fb390;}.cls-3{fill:#1d1d1b;}.cls-4{fill:#8bc4c9;stroke:#8bc4c9;}.cls-4,.cls-5,.cls-6,.cls-7{stroke-width:0.75px;}.cls-5{fill:#d7d7d7;stroke:#d7d7d7;}.cls-6{fill:#582d29;stroke:#582d29;}.cls-7{fill:#54a6a8;stroke:#54a6a8;}.cls-8,.cls-9{fill:none;stroke:#1d1d1b;}.cls-8{stroke-width:2px;}.cls-9{stroke-width:2.03px;}</style></defs><g id="Capa_9" data-name="Capa 9"><path class="cls-1" d="M75.89,1.9C90,23.74,40.26,22.26,40.54,64.54c.16,24.71,19.12,39.14,21.67,41,14.73,10.93,34.17,11.33,53,6.39,14-3.65,19.75-17.59,21.67-20.9a54.62,54.62,0,0,0,6.78-19.55,50.57,50.57,0,0,0-2.32-25.36c-.84-2.25-3.67-13.08-13.94-20.12C103,9.25,96.41,15.57,92.67,13,82.93,6.28,74.06-.94,75.89,1.9Z"/><path class="cls-1" d="M57.18,37.51A13.82,13.82,0,0,1,46.92,25.32c-.43-5.37-3.17-12,1.62-14.46C56,7.07,68.91,14,70,14.86c1.46,1.17,4.54,3.63,5,7.36C76,29.62,66.36,39.62,57.18,37.51Z"/><path class="cls-2" d="M77.88,80.54c3.64-2.84,14.17,6,24,6.66,3.17.21,3.81-.24,8.06-4.43.55-.54-.3,2.08-1.71,3.41-1.21,1.13-2,4.41-15.51,1.66-3.06-.61-12.55-3.75-12.92-5.91C79.68,81.17,77.1,81.14,77.88,80.54Z"/><path class="cls-2" d="M93.76,12.74c-.17-1.28,10.55-5.8,17.65-5.36,2.06.13,6.39,9.52,5.67,10.58s-4.48-1.82-13-3.58C97.21,13,93.87,13.56,93.76,12.74Z"/><path class="cls-2" d="M47.67,9.45c-.28-.17-6,8.58,2.68,24.36,2.15,3.89,7.84,5.31,8.16,4.81S51,28,49.86,23.9C47.92,16.93,47.92,9.6,47.67,9.45Z"/><path class="cls-2" d="M50.79,36.85C39.43,54.76,39,68.43,44.51,83.37c8.82,23.8,33.91,40,64.43,31.42,12.65-3.56,21.13-11.77,21.53-13.1.27-.9-8.83,7.92-22.73,9.62-16.23,2-40.14-5-50.8-25.4-11.52-22.08,2-47,2-47C54.93,38.32,51.46,35.78,50.79,36.85Z"/><path class="cls-1" d="M127.48,105.08c17.73-16.67,5.37-15,21.73-18,3.75-.69,6.59,2.53,6.71,3.74,1.32,14.31-26.85,33.92-38.43,27.46C116.57,117.72,125.81,106.65,127.48,105.08Z"/><path class="cls-1" d="M60.22,112.57c2.41-10.56,38.52-11,45.68-4.84,2.91,2.52,4.42,5.51,3.87,6.58C103.25,127,68.05,129,61.38,117.6A7,7,0,0,1,60.22,112.57Z"/><path class="cls-2" d="M128.7,105.06c-2,5.63-24.39,8.9-12.26,15,5.93,3,41.17-11.16,40-27.47-.05-.67-24.56,25.59-29.83,22.82S129.33,103.28,128.7,105.06Z"/><path class="cls-2" d="M78.46,103.71c-3.41-.88-20.73,4.2-20.72,9.36,0,4.14,4.65,9,10.64,9.89,25.06,3.87,36.74-2.51,36.67-3,0-.28-5.67,2.84-21.29,3.19-10.82.25-16-2.25-19.35-6a8.29,8.29,0,0,1-1.36-5.7C63.7,107.41,69.83,106.22,78.46,103.71Z"/></g><g id="Capa_10" data-name="Capa 10"><path class="cls-3" d="M5.49,37.19,12.19,29l1-1.18a1.93,1.93,0,0,0,0-2.66,1.9,1.9,0,0,0-2.65,0L3.8,33.36l-1,1.18a1.91,1.91,0,0,0,0,2.65,1.9,1.9,0,0,0,2.65,0Z"/><path class="cls-3" d="M1.88,32.53l10.57.71,1.52.1a1.89,1.89,0,0,0,1.88-1.87A1.92,1.92,0,0,0,14,29.59L3.4,28.88l-1.52-.1A1.89,1.89,0,0,0,0,30.65a1.93,1.93,0,0,0,1.88,1.88Z"/><path class="cls-3" d="M101,44.58a34.28,34.28,0,0,0,7.76-7.49,6,6,0,0,0,1.2-3.22,1.88,1.88,0,0,0-3.75,0s0,.2,0,.23.12-.57,0-.33c0,0,0,.09,0,.12-.06.24-.33.71,0,.12-.19.35-.36.71-.58,1.05-.13.18-.26.35-.38.53l.12-.16a1.71,1.71,0,0,0-.11.14l-.27.33c-.33.39-.67.76-1,1.13a46,46,0,0,1-4.21,3.8l-.73.58.17-.13-.08.06a2.09,2.09,0,0,0-.86,1.12A1.88,1.88,0,0,0,101,44.58Z"/><path class="cls-3" d="M109.45,73.7l3.09-5.93.44-.84a1.25,1.25,0,0,0-2.16-1.27l-3.09,5.94-.44.84a1.25,1.25,0,1,0,2.16,1.26Z"/><path class="cls-3" d="M116.67,30.49c.66,2.51,3.61,3.09,5.8,3.34a33.61,33.61,0,0,0,6.5,0c.5,0,1-.08,1.49-.14a1.94,1.94,0,0,0,1.88-1.88c-.05-.91-.84-2-1.88-1.87-1.2.14-2.42.22-3.63.26s-2.14,0-3.2,0c-.25,0-.51,0-.76-.06l-.4,0-.16,0c-.24,0,.5.08.11,0a12.83,12.83,0,0,1-1.37-.29l-.36-.11-.13-.05c-.29-.09.35.18.17.07a5.61,5.61,0,0,0-.54-.29c-.19-.1.36.34.1.06l-.08-.07c-.18-.14.12-.15.14.19,0,0-.1-.14-.13-.19s.16.46.06.11a1.87,1.87,0,0,0-3.61,1Z"/><path class="cls-3" d="M106.22,68.84l5.36,2.79.76.39a1.25,1.25,0,1,0,1.26-2.15l-5.35-2.79-.76-.4a1.25,1.25,0,0,0-1.27,2.16Z"/><path class="cls-3" d="M139.13,63.77l3.08-5.94.44-.84a1.25,1.25,0,0,0-2.16-1.26l-3.08,5.93-.44.85a1.25,1.25,0,1,0,2.16,1.26Z"/><path class="cls-3" d="M135.9,58.9l5.36,2.79.76.4a1.25,1.25,0,0,0,1.26-2.16l-5.36-2.79-.76-.39a1.25,1.25,0,1,0-1.26,2.15Z"/><path class="cls-4" d="M61.41,17.51c-1.17,2.53,5.2,9.18,7.74,8.13,1.69-.7,3-5.35.19-8.13S62.17,15.86,61.41,17.51Z"/><path class="cls-4" d="M105.05,82.39c.71-.5.31-3.59-1.9-4.91-1.42-.83-3.48-.9-3.82-.19C98.71,78.62,104,83.15,105.05,82.39Z"/><path class="cls-4" d="M141.66,92.5c.28.82,3.31,1.35,4.87-.42.9-1,1.24-2.77.63-3.23C146,88,141.25,91.33,141.66,92.5Z"/><path class="cls-4" d="M95.86,108.93c-.41,1.09,3.32,4.81,6.39,3.68,1-.39,2.32-1.44,2.13-2.33C104,108.33,96.37,107.57,95.86,108.93Z"/><path class="cls-5" d="M116.44,60.54c3.22-.25.48-15.76-2.32-18.32-1.77-1.61-1.68,6.15-3,4.39-.8-1.09-2.71,0-5.16-1.81C105.55,44.47,111.53,60.93,116.44,60.54Z"/><path class="cls-5" d="M132.6,55.05c3-.24.45-14.51-2.13-16.87-1.63-1.48-1.55,5.66-2.74,4-.73-1-2.49,0-4.75-1.66C122.58,40.26,128.08,55.4,132.6,55.05Z"/><path class="cls-6" d="M120.18,72.48c3.1.77,9.29-2.33,13.94-3.68,3-.87-1.88-3.65-7.23-2.71S117.18,71.73,120.18,72.48Z"/><path class="cls-7" d="M124,42.06c3.55,11.77,5.48,12.31,7.61,12.67,1.78.3,2.42,1.17.49-.41C131.41,53.74,123,38.55,124,42.06Z"/><path class="cls-7" d="M107.76,46.74c3.55,11.77,6,11.21,7.62,12.66,1.29,1.17,3.35,1.53,1.41,0C116.08,58.77,106.71,43.23,107.76,46.74Z"/></g><g id="Capa_2" data-name="Capa 2"><path class="cls-8" d="M154.23,99.29c-2.73,4.38-7.42,9.16-13.41,13.31-11.86,8.22-24.31,10.8-27.8,5.76a5.59,5.59,0,0,1-.89-3.57A52.2,52.2,0,0,0,140.07,88c7.38-2.76,13.6-2.76,15.91.57C157.71,91.09,156.91,95,154.23,99.29Z"/><path class="cls-8" d="M112.13,114.79c-.68.28-1.36.54-2,.78"/><path class="cls-8" d="M110.31,114.12a4.47,4.47,0,0,1-.07.82,4.85,4.85,0,0,1-.16.63c-.75,2.46-3.4,4.66-7.3,6.35-4.74,2-11.32,3.3-18.6,3.3-14.43,0-26.13-5-26.13-11.1,0-2.15,1.44-4.15,3.92-5.84.25-.18.52-.35.8-.52l.84-.48c4.78-2.6,12.22-4.26,20.57-4.26C98.61,103,110.31,108,110.31,114.12Z"/><path class="cls-3" d="M83.62,67.78A53.86,53.86,0,0,1,95.44,71.6c3.57,1.65,7.43,3.64,10.28,6.41s3.82,7.45-.33,9.58c-3.77,1.93-8.71.55-12.42-.84-4.82-1.8-9.45-4.22-14.08-6.45-1.45-.7-2.72,1.46-1.26,2.16C82.32,84.71,87,87.12,91.88,89c4.3,1.66,9.59,3,14,1.08a7.56,7.56,0,0,0,4-10.45c-1.88-4.11-6.51-6.67-10.31-8.71a56.07,56.07,0,0,0-15.36-5.55c-1.57-.32-2.24,2.09-.67,2.41Z"/><path class="cls-3" d="M50.22,97.32a20,20,0,0,1-2.93,5.76c-1.33,1.52-3,1.33-4.59.26-2.69-1.86-4.3-5.28-5.47-8.23-3.33-8.3-4.31-17.39-5.33-26.21-.54-4.64-1-9.28-1.77-13.89a61,61,0,0,0-3.05-12.95c-.48-1.21-1.31-2.53-2.77-2.55-1.27,0-2.34,1-3.25,1.72-.17.14-.75.48-.8.66s1,.19,1,.26a5.44,5.44,0,0,0-.3-.84c-.31-1-.52-2.1-.75-3.16-.26-1.23-.51-2.46-.83-3.68a5,5,0,0,0-1-2.35c-1.06-1-2.74.09-3.75.67A15.36,15.36,0,0,1,12.43,34c-1.06.38-1.68-.19-2.35-1-.94-1.12-2.53.49-1.6,1.61a4.06,4.06,0,0,0,4.16,1.68,7.76,7.76,0,0,0,2-.88c.75-.43,1.64-.79,2.35-1.27s-.53-.17-.29-.48a2.64,2.64,0,0,0,.15.29c.08.4.28.9.39,1.33.29,1.11.52,2.24.76,3.37s.46,2.26.79,3.36a3.21,3.21,0,0,0,1.13,2c1.14.65,2.17-.67,3-1.31.3-.24,1-.91,1.39-.87s.84,1.47,1,1.89c3.05,9.23,3.63,19.17,4.8,28.76,1.08,8.91,2.29,18.25,6.37,26.38,1.51,3,3.81,6.57,7.28,7.51,5.1,1.37,7.25-4.76,8.71-8.4.54-1.35-1.66-1.94-2.19-.6Z"/><g id="Capa_1" data-name="Capa 1"><path class="cls-8" d="M94.6,13.57a51.58,51.58,0,0,1,23.91,5.94C111.28,1.45,111.79,6.35,102.7,8.62a23.76,23.76,0,0,0-8.56,3.61A.75.75,0,0,0,94.6,13.57Z"/><path class="cls-9" d="M116.71,47.16c1.5,4,3.48,12.83,0,13.89s-9.23-6.22-10.31-15c-.42-3.43,2.09.5,4.5-.29,2.16-.7,1.1-6.23,3.24-3.51C115.91,44.44,115.81,44.75,116.71,47.16Z"/><path class="cls-9" d="M133.21,42.49c1.49,4,3.48,12.82,0,13.89-3.29,1-9.23-6.22-10.31-15-.42-3.42,2.09.51,4.5-.28,2.16-.7,1.1-6.23,3.23-3.51C132.41,39.77,132.3,40.08,133.21,42.49Z"/><path class="cls-9" d="M135.44,68.17c2.06-1.42-3.92-3.42-8.78-3-4.51.43-10.94,8.26-7.61,7.75C125.86,71.9,130.6,71.5,135.44,68.17Z"/><path class="cls-8" d="M74.52,16.83c3.51-1.36,3.85-3.71,1.66-13.78-1.45-6.63,9,4.47,15.48,9.55,1.2.93,4,.81,4,.81a52,52,0,0,1,48.24,64"/><path class="cls-8" d="M133.34,98.55a52.08,52.08,0,0,0,10.1-19.41"/><path class="cls-8" d="M143.88,77.39c-.13.59-.28,1.17-.44,1.75a52.15,52.15,0,0,1-33.2,35.8"/><path class="cls-8" d="M62.77,107.76a55,55,0,0,1-21.65-42C40.69,55.4,43.85,45.66,50.51,36l.21.08,8.56,3.34A13.73,13.73,0,0,1,50.72,36c-3.3-3-3.94-7.33-3.94-9.81C46.78,17.83,37,4.09,62,11c5,1.39,9.78,2.61,12.53,6.58A14.83,14.83,0,0,1,76.6,22a15.17,15.17,0,0,1,.6,4.23l-.1-.37a15.3,15.3,0,0,0-2.68-8.63l.29-.11a15.1,15.1,0,0,1,2.49,8.34"/></g></g></svg>