<svg xmlns="http://www.w3.org/2000/svg" viewBox="0 0 162.68 124.06"><defs><style>.cls-1,.cls-3{fill:#75bcad;stroke:#75bcad;}.cls-1,.cls-10,.cls-11,.cls-2,.cls-3,.cls-5,.cls-6,.cls-7,.cls-8,.cls-9{stroke-miterlimit:10;}.cls-1,.cls-2{stroke-width:0.75px;}.cls-2{fill:#5fb390;stroke:#5fb390;}.cls-3{stroke-width:0.74px;}.cls-4{fill:#1d1d1b;}.cls-5,.cls-6{fill:#8bc4c9;stroke:#8bc4c9;}.cls-5,.cls-7,.cls-8,.cls-9{stroke-width:0.75px;}.cls-6{stroke-width:0.74px;}.cls-7{fill:#d7d7d7;stroke:#d7d7d7;}.cls-8{fill:#582d29;stroke:#582d29;}.cls-9{fill:#54a6a8;stroke:#54a6a8;}.cls-10,.cls-11{fill:none;stroke:#1d1d1b;}.cls-10{stroke-width:2px;}.cls-11{stroke-width:2.03px;}</style></defs><g id="Capa_9" data-name="Capa 9"><path class="cls-1" d="M56.43,37.34A13.8,13.8,0,0,1,46.17,25.15c-.43-5.36-3.17-12,1.61-14.45,7.43-3.8,20.38,3.17,21.42,4,1.46,1.16,4.55,3.62,5,7.35C75.19,29.45,65.61,39.45,56.43,37.34Z"/><path class="cls-1" d="M75.56,2C89.62,23.86,39.93,22.39,40.2,64.67c.16,24.71,19.13,39.14,21.68,41,14.73,10.93,34.16,11.32,53,6.39,14-3.66,19.76-17.6,21.68-20.91a54.38,54.38,0,0,0,6.77-19.55A50.41,50.41,0,0,0,141,46.28c-.83-2.26-3.67-13.08-13.93-20.13-24.46-16.77-31-10.45-34.78-13C82.59,6.4,73.73-.82,75.56,2Z"/><path class="cls-2" d="M77.27,63c2.76,3.7-6.34,14.05-7.18,23.87-.27,3.16.16,3.81,4.26,8.15.53.56-2.07-.34-3.37-1.79-1.11-1.23-4.37-2-1.34-15.54.69-3,4-12.47,6.19-12.79C76.6,64.8,76.68,62.22,77.27,63Z"/><path class="cls-2" d="M93.11,12.67c-.17-1.28,10.55-5.8,17.64-5.36,2.07.13,6.39,9.52,5.68,10.58s-4.49-1.82-13-3.58C96.56,12.88,93.21,13.49,93.11,12.67Z"/><path class="cls-2" d="M47,9.38c-.28-.17-6,8.58,2.69,24.36,2.14,3.89,7.83,5.31,8.15,4.81S50.33,27.9,49.2,23.83C47.27,16.86,47.26,9.53,47,9.38Z"/><path class="cls-2" d="M50.13,36.78C38.77,54.69,38.31,68.36,43.85,83.3c8.82,23.8,33.92,40,64.44,31.42,12.65-3.56,21.12-11.76,21.52-13.1.27-.9-8.83,7.93-22.73,9.62-16.23,2-40.14-5-50.8-25.4-11.51-22.08,2-47,2-47C54.28,38.25,50.81,35.72,50.13,36.78Z"/><path class="cls-3" d="M107.52,117.12C104,107,134,87.44,143.31,88.84c3.78.57,6.63,2.28,6.74,3.47,1.25,14.1-27.26,34.42-38.89,28.42A6.92,6.92,0,0,1,107.52,117.12Z"/><path class="cls-2" d="M48.11,109.83c-3.26,5,8,9.62,10.45,10.32,12,3.41,24.9,4.39,33-1.42.55-.39-27.91-10.41-32.39-14.32S49.13,108.25,48.11,109.83Z"/><path class="cls-2" d="M145.4,59c0,12.73.3,15,2.83,14.58,9.26-1.43,13.94-4.64,12.3-8.46C157.57,58.2,145.39,57.1,145.4,59Z"/><path class="cls-2" d="M118.3,100.13c-3.35,1.07-15.29,14.61-12.53,19,2.22,3.49,8.73,5.09,14.28,2.68,23.26-10.11,29.73-21.74,29.41-22.12-.18-.21-3.28,5.43-16.3,14.07-9,6-14.75,6.64-19.57,5.26a8.42,8.42,0,0,1-4.19-4.11C107.8,111.14,112.34,106.86,118.3,100.13Z"/></g><g id="Capa_10" data-name="Capa 10"><path class="cls-4" d="M1.88,46.43l10.59,0H14a1.88,1.88,0,0,0,1.87-1.87A1.91,1.91,0,0,0,14,42.62l-10.6.06H1.88a1.88,1.88,0,1,0,0,3.75Z"/><path class="cls-4" d="M2.83,40.43,9,49l.89,1.24a1.88,1.88,0,0,0,3.24-1.89L7,39.77l-.88-1.24a1.93,1.93,0,0,0-2.57-.67,1.9,1.9,0,0,0-.67,2.57Z"/><path class="cls-4" d="M98.93,42.81c1-.6,2-1.25,3-1.93a27.19,27.19,0,0,0,5.22-4.28,6.17,6.17,0,0,0,1.69-3,2.06,2.06,0,0,0-.19-1.44,1.88,1.88,0,0,0-3.43.45,2.36,2.36,0,0,1-.11.44c-.09.32.12-.23.09-.18a1.3,1.3,0,0,0-.14.26c-.1.17-.21.33-.32.49-.21.31.16-.18.08-.09l-.23.28a17.63,17.63,0,0,1-2.18,2l-.58.47.14-.11-.16.12-.36.27c-.41.3-.83.6-1.26.89-.7.48-1.41,1-2.13,1.4l-1,.63a1.89,1.89,0,0,0-.67,2.56,1.92,1.92,0,0,0,2.57.68Z"/><path class="cls-4" d="M105.19,76.54l3.09-5.93.44-.85a1.25,1.25,0,1,0-2.16-1.26l-3.09,5.94-.44.84a1.25,1.25,0,0,0,2.16,1.26Z"/><path class="cls-4" d="M116,31.06c.31,2.32,3.23,3.32,5.16,3.77a36.2,36.2,0,0,0,6.8.82c.5,0,1,0,1.52.05a1.88,1.88,0,1,0,0-3.75c-1.2,0-2.4-.08-3.6-.18-.53,0-1.06-.1-1.59-.17s.33,0,0,0l-.4-.06-.84-.14c-.51-.1-1-.21-1.51-.35-.23-.06-.47-.13-.69-.21l-.33-.12-.14,0c-.32-.12.32.16.15.06s-.42-.2-.62-.32l-.27-.18s.33.31.08.05a1.8,1.8,0,0,0-.19-.2s.33.39.1.11.07.09.06.15a1.57,1.57,0,0,0-.06-.28,1.89,1.89,0,0,0-2.31-1.31A1.94,1.94,0,0,0,116,31.06Z"/><path class="cls-4" d="M102,71.68l5.35,2.79.76.39a1.25,1.25,0,0,0,1.27-2.16L104,69.92l-.76-.4A1.25,1.25,0,1,0,102,71.68Z"/><path class="cls-4" d="M138.74,63.77l3.09-5.94.44-.84a1.25,1.25,0,0,0-2.16-1.26L137,61.66l-.44.85a1.25,1.25,0,1,0,2.16,1.26Z"/><path class="cls-4" d="M135.51,58.9l5.36,2.79.76.4a1.25,1.25,0,0,0,1.26-2.16l-5.35-2.79-.76-.39a1.25,1.25,0,0,0-1.27,2.15Z"/><path class="cls-5" d="M60.75,17.44C59.58,20,66,26.62,68.49,25.57c1.7-.7,3-5.35.2-8.13S61.51,15.79,60.75,17.44Z"/><path class="cls-5" d="M74.84,90.14c.48.72,3.58.38,4.94-1.8.87-1.4,1-3.46.27-3.81C78.74,83.88,74.1,89,74.84,90.14Z"/><path class="cls-6" d="M136.05,96c.23,1.13,5.33,2.28,7.31-.3.67-.87,1.18-2.44.56-3.08C142.52,91.22,135.75,94.6,136.05,96Z"/><path class="cls-7" d="M114.1,61.31c3.23.27,3-15.48.67-18.46-1.48-1.88-2.65,5.79-3.64,3.85-.61-1.2-2.67-.44-4.8-2.62C106,43.69,109.19,60.89,114.1,61.31Z"/><path class="cls-7" d="M131.22,57.28c3,.08,2-14.38-.33-17-1.46-1.65-2.14,5.46-3.15,3.72-.62-1.07-2.48-.26-4.54-2.16C122.82,41.5,126.68,57.15,131.22,57.28Z"/><path class="cls-8" d="M117.43,73.41c3.09.77,9.29-2.32,13.93-3.68,3-.87-1.88-3.65-7.22-2.71S114.43,72.66,117.43,73.41Z"/><path class="cls-9" d="M124.07,43.45c2.27,12.08,4.14,12.82,6.22,13.4,1.73.49,2.28,1.43.52-.35C130.17,55.84,123.39,39.85,124.07,43.45Z"/><path class="cls-9" d="M106.78,46.31c1.6,12.2,4.12,12,5.47,13.74,1.08,1.36,3.06,2,1.41.17C113.05,59.53,106.31,42.68,106.78,46.31Z"/></g><g id="Capa_2" data-name="Capa 2"><g id="Capa_1" data-name="Capa 1"><path class="cls-10" d="M94.21,13.57a51.55,51.55,0,0,1,23.91,5.94c-7.23-18.06-6.71-13.16-15.8-10.89a23.88,23.88,0,0,0-8.57,3.61A.75.75,0,0,0,94.21,13.57Z"/><path class="cls-11" d="M116.05,47.63c1,4.16,1.9,13.16-1.65,13.8C111,62,106,54.13,106,45.27c0-3.45,2,.75,4.5.27,2.23-.44,1.85-6.06,3.64-3.1C115.59,44.84,115.44,45.13,116.05,47.63Z"/><path class="cls-11" d="M133.53,44.81c1,4.15,1.9,13.15-1.65,13.79-3.38.62-8.4-7.3-8.4-16.16,0-3.44,2,.76,4.5.27,2.22-.43,1.85-6.05,3.64-3.1C133.07,42,132.93,42.3,133.53,44.81Z"/><path class="cls-11" d="M132.91,70.35c2.23-1.16-3.47-3.88-8.34-4-4.54-.12-11.87,6.87-8.5,6.76C123,72.88,127.7,73.06,132.91,70.35Z"/><path class="cls-10" d="M74.13,16.83c3.51-1.36,3.85-3.71,1.66-13.78-1.45-6.63,9,4.47,15.48,9.55,1.2.93,4,.81,4,.81a52,52,0,0,1,48.24,64"/><path class="cls-10" d="M139.13,89.19a51.92,51.92,0,0,0,3.92-10"/><path class="cls-10" d="M143.49,77.4c-.13.59-.28,1.17-.44,1.75a52.28,52.28,0,0,1-3.8,10"/><path class="cls-10" d="M105.25,116.31a51.91,51.91,0,0,1-12.49,1.51c-28.73,0-50.83-23.33-52-52C40.3,55.41,43.46,45.67,50.12,36l.21.08,8.56,3.34a13.79,13.79,0,0,1-8.56-3.34c-3.31-3-3.94-7.34-3.94-9.81,0-8.4-9.83-22.14,15.21-15.21,5,1.39,9.78,2.61,12.53,6.58A14.83,14.83,0,0,1,76.21,22a15.17,15.17,0,0,1,.6,4.23l-.1-.37A15.3,15.3,0,0,0,74,17.24l.29-.11a15.1,15.1,0,0,1,2.49,8.34"/></g><g id="Capa_6" data-name="Capa 6"><path class="cls-10" d="M148.07,102.28a40.45,40.45,0,0,1-6.78,7.35,59,59,0,0,1-7.24,5.32c-7.79,4.88-15.73,7.47-21.29,7.35-2.66-.06-4.78-.74-6.09-2.07a1.34,1.34,0,0,0-.13-.23l-.11-.17a5.83,5.83,0,0,0-.55-.66,5,5,0,0,1-.63-2.32,7.76,7.76,0,0,1,0-1.19,11.48,11.48,0,0,1,.94-3.28,16.22,16.22,0,0,1,.86-1.72c2.67-4.74,8.1-10.1,15.17-14.53a57.4,57.4,0,0,1,6.09-3.33l.55-.26a41.88,41.88,0,0,1,10.22-3.35.17.17,0,0,1,.12,0q.33-.08.66-.12c4.84-.73,8.63,0,10.29,2.46a1.63,1.63,0,0,1,.11.17,4.52,4.52,0,0,1,.58,1.35C151.56,95.51,150.48,98.78,148.07,102.28Z"/><path class="cls-10" d="M94.8,118.19a23.61,23.61,0,0,1-3,1.57,40.25,40.25,0,0,1-9.64,2.63,59.1,59.1,0,0,1-9,.67c-14.43,0-26.13-5-26.13-11.1a5.64,5.64,0,0,1,1.38-3.56A11.65,11.65,0,0,1,51,106.12a17,17,0,0,1,1.64-1A27.69,27.69,0,0,1,57,103.23a50.5,50.5,0,0,0,36.08,15Q94,118.22,94.8,118.19Z"/><path class="cls-4" d="M89.37,69a53.6,53.6,0,0,1-4,11.76c-1.69,3.56-3.73,7.39-6.53,10.2s-7.52,3.71-9.58-.47c-1.87-3.8-.43-8.72,1-12.41,1.87-4.8,4.35-9.4,6.64-14,.71-1.44-1.44-2.7-2.16-1.26C72.45,67.45,70,72.11,68.05,77c-1.72,4.31-3.09,9.64-1.2,14.13a7.55,7.55,0,0,0,10.37,4c4.12-1.84,6.73-6.42,8.83-10.2a55.75,55.75,0,0,0,5.73-15.3c.34-1.56-2.07-2.23-2.41-.66Z"/><path class="cls-4" d="M50.27,97.1c-1,2.59-2.8,8.36-6.62,6.55-2.42-1.13-4-3.75-5.14-6C35.14,91,33.87,83.39,32.87,76.11,31.76,68.07,31.15,60,29.7,52A59,59,0,0,0,26.75,40.8C25.63,38,24.18,35,21.8,33c-6.59-5.5-10.39,5.21-13.45,9.22-.88,1.16,1.08,2.29,2,1.14,1.83-2.4,3-5.2,4.89-7.59.7-.9,1.69-2.09,2.94-2.08,1.55,0,2.92,1.6,3.77,2.75a29.46,29.46,0,0,1,4.27,10,101.15,101.15,0,0,1,2.26,12c1.1,8,1.72,16.08,3.14,24,1.18,6.64,2.85,14,7,19.55,1.66,2.24,4.23,4.65,7.27,4.24,3.89-.54,5.42-5.44,6.66-8.54.54-1.36-1.65-1.95-2.19-.61Z"/></g><g id="Capa_4" data-name="Capa 4"><path class="cls-10" d="M145.4,71.72c5,4.38,12,1,14.39-1.25s2.56-5.59.48-7.55c-3.65-3.45-9.05-3.26-15.83-5.93"/></g></g></svg>