<svg xmlns="http://www.w3.org/2000/svg" viewBox="0 0 157.35 125.61"><defs><style>.cls-1{fill:#75bcad;stroke:#75bcad;}.cls-1,.cls-2,.cls-3,.cls-4,.cls-5,.cls-7,.cls-8,.cls-9{stroke-miterlimit:10;}.cls-1,.cls-2{stroke-width:0.75px;}.cls-2{fill:#5fb390;stroke:#5fb390;}.cls-3{fill:#8bc4c9;stroke:#8bc4c9;}.cls-3,.cls-4,.cls-5,.cls-7{stroke-width:0.75px;}.cls-4{fill:#d7d7d7;stroke:#d7d7d7;}.cls-5{fill:#582d29;stroke:#582d29;}.cls-6{fill:#1d1d1b;}.cls-7{fill:#54a6a8;stroke:#54a6a8;}.cls-8,.cls-9{fill:none;stroke:#1d1d1b;}.cls-8{stroke-width:2px;}.cls-9{stroke-width:2.03px;}</style></defs><g id="Capa_2" data-name="Capa 2"><g id="Capa_1" data-name="Capa 1"><path class="cls-1" d="M54.84,37.25A13.81,13.81,0,0,1,44.58,25.06c-.43-5.36-3.17-12,1.61-14.45,7.44-3.8,20.38,3.16,21.42,4,1.47,1.16,4.55,3.62,5,7.35C73.6,29.36,64,39.36,54.84,37.25Z"/><path class="cls-1" d="M74.26,2.9c12.1,20-41,34.45-35.36,62.64,4.84,24,19.13,39.14,21.68,41,14.73,10.93,34.16,11.33,53,6.39,14-3.65,19.76-17.59,21.68-20.9a54.38,54.38,0,0,0,6.77-19.55,50.45,50.45,0,0,0-2.32-25.36c-.83-2.25-3.66-13.08-13.93-20.12C101.35,10.25,95.16,16.32,91.42,13.74,81.68,7,72.51,0,74.26,2.9Z"/><path class="cls-2" d="M73.13,75.28c4.54-.82,9.77,11.92,18.19,17,2.71,1.64,3.49,1.54,9.2-.2.73-.22-1.23,1.71-3.1,2.23-1.59.44-3.78,3-14.52-5.71-2.42-2-9.38-9.14-8.71-11.23C74.43,76.68,72.16,75.46,73.13,75.28Z"/><path class="cls-2" d="M91.42,12.48c-.17-1.28,10.55-5.8,17.64-5.36,2.07.13,6.39,9.52,5.68,10.58s-4.49-1.82-13-3.58C94.87,12.69,91.53,13.3,91.42,12.48Z"/><path class="cls-2" d="M45.32,9.19c-.27-.17-6,8.59,2.69,24.36,2.14,3.89,7.84,5.31,8.15,4.81s-7.51-10.65-8.64-14.72C45.58,16.67,45.57,9.34,45.32,9.19Z"/><path class="cls-2" d="M48.45,36.59C37.08,54.5,36.62,68.17,42.16,83.11c8.83,23.8,33.92,40,64.44,31.42,12.65-3.56,21.12-11.76,21.53-13.1.27-.9-8.83,7.93-22.73,9.63-16.24,2-40.15-5-50.8-25.41-11.52-22.08,2-47,2-47C52.59,38.06,49.12,35.53,48.45,36.59Z"/><path class="cls-1" d="M124.81,107.7c2.35-10.74,12.43-10,27.95-4,3.56,1.37,4.3,5.59,3.77,6.69-6.35,12.89-40.62,14.9-47.12,3.34C108.9,112.79,124.32,109.94,124.81,107.7Z"/><path class="cls-1" d="M55.68,111.92c2.42-10.56,38.52-11,45.68-4.83,2.91,2.52,4.43,5.5,3.87,6.58-6.51,12.67-41.71,14.65-48.38,3.29A7,7,0,0,1,55.68,111.92Z"/><path class="cls-2" d="M132,99.57c-5.08,3.15-9.83,9.2-22.5,15.88-5.87,3.08,36.09,11.51,45.38-1.94.39-.56-31.3,7.68-33.67,2.23S133.62,98.58,132,99.57Z"/><path class="cls-2" d="M73.92,103.07c-3.4-.88-20.73,4.19-20.72,9.36,0,4.13,4.65,9,10.64,9.89,25.06,3.87,36.74-2.51,36.68-3,0-.28-5.68,2.83-21.29,3.19-10.83.25-16-2.26-19.36-6a8.33,8.33,0,0,1-1.35-5.71C59.17,106.77,65.29,105.57,73.92,103.07Z"/><path class="cls-3" d="M59.06,17.25c-1.16,2.53,5.2,9.18,7.75,8.13,1.69-.7,3-5.35.19-8.13S59.83,15.6,59.06,17.25Z"/><path class="cls-3" d="M96.35,89.51c.86-.11,1.94-3,.59-5.23-.87-1.39-2.67-2.41-3.3-1.93C92.47,83.24,95,89.68,96.35,89.51Z"/><path class="cls-3" d="M143.39,104.22c-.29.81,1.74,3.12,4.06,2.71,1.35-.24,2.7-1.39,2.52-2.13C149.62,103.41,143.8,103.05,143.39,104.22Z"/><path class="cls-3" d="M91.32,108.28c-.41,1.1,3.32,4.82,6.39,3.68,1-.38,2.32-1.44,2.13-2.32C99.41,107.69,91.83,106.93,91.32,108.28Z"/><path class="cls-4" d="M111.9,61.83c3.23-.25.48-15.75-2.32-18.32-1.76-1.61-1.68,6.15-3,4.39-.79-1.09-2.71,0-5.16-1.81C101,45.76,107,62.22,111.9,61.83Z"/><path class="cls-4" d="M128.2,55.82c3-.23.44-14.5-2.14-16.86-1.62-1.49-1.55,5.65-2.73,4-.74-1-2.5,0-4.75-1.66C118.17,41,123.67,56.18,128.2,55.82Z"/><path class="cls-5" d="M118.74,72.74c3.1.77,9.29-2.33,13.94-3.68,3-.87-1.88-3.65-7.23-2.71S115.74,72,118.74,72.74Z"/><path class="cls-6" d="M2.39,47.53l10.07-3.31,1.44-.47a1.88,1.88,0,0,0-1-3.62L2.83,43.44l-1.44.48a1.87,1.87,0,1,0,1,3.61Z"/><path class="cls-6" d="M1.82,41.72,10.37,48l1.2.88a1.88,1.88,0,0,0,2.57-.67,1.92,1.92,0,0,0-.67-2.56L4.92,39.37l-1.2-.89a1.89,1.89,0,0,0-2.57.68,1.92,1.92,0,0,0,.67,2.56Z"/><path class="cls-6" d="M96.14,45.09a34.24,34.24,0,0,0,7.76-7.48,6,6,0,0,0,1.2-3.22,1.88,1.88,0,0,0-3.75,0s0,.2,0,.22.12-.56,0-.32c0,0,0,.08,0,.12-.06.23-.33.71,0,.11a11.77,11.77,0,0,1-.58,1l-.38.54.13-.17-.12.15-.27.32c-.33.39-.67.77-1,1.13a44.67,44.67,0,0,1-4.21,3.81l-.73.57c-.28.23.46-.34.17-.12l-.08.06A2.05,2.05,0,0,0,93.39,43a1.91,1.91,0,0,0,.19,1.44,1.88,1.88,0,0,0,2.56.67Z"/><path class="cls-6" d="M103.56,76.54l3.08-5.93.44-.85a1.25,1.25,0,1,0-2.15-1.26l-3.09,5.94-.44.84a1.25,1.25,0,1,0,2.16,1.26Z"/><path class="cls-6" d="M111.81,31c.66,2.51,3.61,3.08,5.81,3.34a33.51,33.51,0,0,0,6.49,0c.5,0,1-.09,1.49-.15a1.92,1.92,0,0,0,1.88-1.87c0-.92-.84-2-1.88-1.88-1.2.15-2.42.23-3.63.27s-2.14,0-3.2,0l-.76-.06-.39,0-.17,0c-.24,0,.5.08.11,0a12.83,12.83,0,0,1-1.37-.29l-.36-.12-.13,0c-.28-.09.35.18.17.07l-.53-.3c-.2-.09.35.34.09.07l-.08-.08c-.18-.14.12-.15.14.2,0-.05-.1-.14-.13-.2,0,.1.16.47.07.11a1.88,1.88,0,1,0-3.62,1Z"/><path class="cls-6" d="M100.33,71.68l5.36,2.79.76.39a1.25,1.25,0,0,0,1.26-2.16l-5.35-2.78-.77-.4a1.25,1.25,0,1,0-1.26,2.16Z"/><path class="cls-6" d="M137.11,63.77l3.08-5.94.44-.84a1.25,1.25,0,0,0-2.16-1.26l-3.08,5.93-.44.85a1.25,1.25,0,1,0,2.16,1.26Z"/><path class="cls-6" d="M133.88,58.9l5.36,2.79.76.4a1.25,1.25,0,0,0,1.26-2.16l-5.36-2.79-.76-.39a1.25,1.25,0,1,0-1.26,2.15Z"/><path class="cls-7" d="M119.61,42.83c3.55,11.78,5.48,12.31,7.62,12.67,1.77.3,2.41,1.17.48-.41C127,54.51,118.56,39.32,119.61,42.83Z"/><path class="cls-7" d="M103.23,48c3.54,11.77,6,11.21,7.61,12.67,1.29,1.16,3.35,1.52,1.42-.06C111.55,60.06,102.17,44.52,103.23,48Z"/><path class="cls-8" d="M92.58,13.57a51.58,51.58,0,0,1,23.91,5.94c-7.23-18.06-6.72-13.16-15.81-10.89a23.76,23.76,0,0,0-8.56,3.61A.75.75,0,0,0,92.58,13.57Z"/><path class="cls-9" d="M112.37,47.94c1.49,4,3.48,12.82,0,13.89-3.29,1-9.23-6.23-10.31-15-.42-3.42,2.09.5,4.5-.28,2.16-.7,1.1-6.24,3.23-3.52C111.57,45.22,111.46,45.52,112.37,47.94Z"/><path class="cls-9" d="M128.86,43.26c1.5,4,3.49,12.83,0,13.9-3.28,1-9.23-6.23-10.3-15-.42-3.42,2.09.5,4.5-.28,2.15-.7,1.09-6.24,3.23-3.52C128.07,40.55,128,40.85,128.86,43.26Z"/><path class="cls-9" d="M133.42,68.17c2.06-1.42-3.92-3.42-8.78-3-4.51.43-10.94,8.26-7.61,7.75C123.84,71.9,128.58,71.5,133.42,68.17Z"/><path class="cls-8" d="M72.5,16.83c3.51-1.36,3.85-3.71,1.66-13.78-1.45-6.63,9,4.47,15.48,9.55,1.2.93,4,.81,4,.81a52,52,0,0,1,48.24,64"/><path class="cls-8" d="M131.32,98.55a52.08,52.08,0,0,0,10.1-19.41"/><path class="cls-8" d="M141.86,77.39c-.13.59-.28,1.17-.44,1.75a52.11,52.11,0,0,1-37.34,37"/><path class="cls-8" d="M58.88,106.29A55.21,55.21,0,0,1,39.1,65.78C38.67,55.4,41.83,45.66,48.49,36l.21.08,8.56,3.34A13.73,13.73,0,0,1,48.7,36c-3.3-3-3.94-7.33-3.94-9.81C44.76,17.83,34.93,4.09,60,11c5,1.39,9.78,2.61,12.53,6.58A14.83,14.83,0,0,1,74.58,22a15.17,15.17,0,0,1,.6,4.23l-.1-.37a15.3,15.3,0,0,0-2.68-8.63l.29-.11a15.1,15.1,0,0,1,2.49,8.34"/><path class="cls-6" d="M48.59,97.56c-1,2.58-2.8,8.35-6.62,6.55-2.42-1.14-4-3.76-5.14-6-3.37-6.61-4.64-14.23-5.64-21.5-1.11-8-1.72-16.16-3.16-24.15a59.71,59.71,0,0,0-3-11.17c-1.12-2.83-2.57-5.84-4.95-7.83-6.59-5.5-10.39,5.21-13.45,9.22-.88,1.16,1.08,2.29,2,1.14,1.83-2.4,3-5.2,4.89-7.59.7-.9,1.69-2.09,2.94-2.08,1.55,0,2.92,1.6,3.77,2.75a29.46,29.46,0,0,1,4.27,10,101.54,101.54,0,0,1,2.26,12c1.1,8,1.72,16.08,3.14,24,1.18,6.65,2.85,14,7,19.55,1.67,2.24,4.23,4.65,7.27,4.24,3.89-.53,5.42-5.44,6.66-8.54.54-1.36-1.65-1.94-2.19-.6Z"/><path class="cls-8" d="M107.15,115.05c4.4,3.49,13.08,5.87,23.07,5.87,14.43,0,26.13-5,26.13-11.09s-11.21-10.89-25.23-11.09A52.13,52.13,0,0,1,107.15,115.05Z"/><path class="cls-8" d="M104.85,113.51a5.15,5.15,0,0,1-.77,2.67c-1.14,2-3.52,3.73-6.76,5.13-4.74,2-11.32,3.3-18.6,3.3-14.43,0-26.13-5-26.13-11.1,0-2.59,2.08-5,5.56-6.84.24-.13.48-.26.73-.38,4.79-2.38,11.9-3.88,19.84-3.88C93.15,102.41,104.85,107.38,104.85,113.51Z"/><path class="cls-6" d="M84.47,66.43A54.44,54.44,0,0,1,93,75.38c2.4,3.24,5,7,6.07,10.89a7.39,7.39,0,0,1-.32,5.6,5,5,0,0,1-5,2.39c-4.13-.31-7.67-3.79-10.22-6.75-3.33-3.88-6.21-8.19-9.19-12.35-.92-1.29-3.09,0-2.15,1.27,3,4.21,6,8.56,9.3,12.53C84.4,92.43,88.29,96,93,96.67a7.56,7.56,0,0,0,8.88-6.76c.54-4.72-2.45-9.42-4.93-13.19A56.07,56.07,0,0,0,86.23,64.66c-1.22-1-3,.73-1.76,1.77Z"/></g></g></svg>