<svg xmlns="http://www.w3.org/2000/svg" viewBox="0 0 145.52 124.63"><defs><style>.cls-1{fill:#75bcad;stroke:#75bcad;}.cls-1,.cls-10,.cls-2,.cls-4,.cls-5,.cls-6,.cls-7,.cls-8,.cls-9{stroke-miterlimit:10;}.cls-1,.cls-2{stroke-width:0.75px;}.cls-2{fill:#5fb390;stroke:#5fb390;}.cls-3{fill:#1d1d1b;}.cls-4{fill:#8bc4c9;stroke:#8bc4c9;}.cls-4,.cls-5,.cls-6,.cls-7{stroke-width:0.75px;}.cls-5{fill:#d7d7d7;stroke:#d7d7d7;}.cls-6{fill:#582d29;stroke:#582d29;}.cls-7{fill:#54a6a8;stroke:#54a6a8;}.cls-10,.cls-8,.cls-9{fill:none;stroke:#1d1d1b;}.cls-8{stroke-width:2px;}.cls-9{stroke-width:2.03px;}.cls-10{stroke-width:1.81px;}</style></defs><g id="Capa_9" data-name="Capa 9"><path class="cls-1" d="M56.31,37.34A13.82,13.82,0,0,1,46.05,25.15c-.43-5.36-3.17-12,1.62-14.45,7.43-3.8,20.37,3.17,21.41,4,1.47,1.16,4.55,3.62,5,7.35C75.08,29.45,65.49,39.45,56.31,37.34Z"/><path class="cls-1" d="M75.44,2C89.5,23.86,39.81,22.39,40.08,64.67c.17,24.71,19.13,39.14,21.68,41,14.73,10.93,34.16,11.32,53,6.39,14-3.66,19.76-17.6,21.68-20.91a54.62,54.62,0,0,0,6.78-19.55,50.57,50.57,0,0,0-2.33-25.35C140.09,44,137.26,33.2,127,26.15c-24.45-16.77-31-10.45-34.78-13C82.48,6.4,73.61-.82,75.44,2Z"/><path class="cls-2" d="M76.57,65.07c4.26,1.79,1.69,15.32,6,24.2,1.38,2.86,2.08,3.2,7.82,4.85.74.22-2,.77-3.81.18-1.58-.5-4.8.46-9.06-12.7-1-3-2.88-12.78-1.18-14.16C76.9,67,75.67,64.7,76.57,65.07Z"/><path class="cls-2" d="M93,12.67c-.17-1.28,10.55-5.8,17.64-5.36,2.07.13,6.39,9.52,5.68,10.58s-4.49-1.82-13-3.58C96.44,12.88,93.1,13.49,93,12.67Z"/><path class="cls-2" d="M46.89,9.38c-.27-.17-6,8.58,2.69,24.36,2.14,3.89,7.83,5.31,8.15,4.81S50.22,27.9,49.08,23.83C47.15,16.86,47.14,9.53,46.89,9.38Z"/><path class="cls-2" d="M50,36.78C38.65,54.69,38.19,68.36,43.73,83.3c8.83,23.8,33.92,40,64.44,31.42,12.65-3.56,21.12-11.76,21.52-13.1.27-.9-8.83,7.93-22.72,9.62-16.24,2-40.15-5-50.8-25.4-11.52-22.08,2-47,2-47C54.16,38.25,50.69,35.72,50,36.78Z"/><path class="cls-1" d="M66,110.92c2.42-10.56,38.52-11,45.68-4.84,2.91,2.52,4.42,5.51,3.87,6.58C109,125.34,73.8,127.32,67.12,116A7,7,0,0,1,66,110.92Z"/><path class="cls-2" d="M111.86,117.18c-3.25,5-10.08,3.69-7.61,4.39,12,3.41,22.19.26,27.49-7.79.37-.57.86-2.88-3.62-6.79S112.88,115.6,111.86,117.18Z"/><path class="cls-2" d="M84.49,102.32c-3.41-.88-20.73,4.2-20.72,9.36,0,4.14,4.65,9,10.64,9.89,25.06,3.87,36.74-2.51,36.67-3,0-.28-5.67,2.84-21.29,3.19-10.82.25-16-2.25-19.35-6a8.38,8.38,0,0,1-1.36-5.71C69.74,106,75.86,104.83,84.49,102.32Z"/></g><g id="Capa_10" data-name="Capa 10"><path class="cls-3" d="M5.49,38.67l6.7-8.21,1-1.18a1.93,1.93,0,0,0,0-2.66,1.9,1.9,0,0,0-2.65,0L3.8,34.84,2.84,36a1.91,1.91,0,0,0,0,2.65,1.9,1.9,0,0,0,2.65,0Z"/><path class="cls-3" d="M1.88,34l10.57.71,1.52.1a1.89,1.89,0,0,0,1.88-1.88A1.92,1.92,0,0,0,14,31.07L3.4,30.36l-1.52-.1A1.89,1.89,0,0,0,0,32.13,1.93,1.93,0,0,0,1.88,34Z"/><path class="cls-3" d="M103.34,43.8a34.19,34.19,0,0,0,7.75-7.48,6,6,0,0,0,1.2-3.22,1.88,1.88,0,0,0-1.87-1.87,1.91,1.91,0,0,0-1.88,1.87.77.77,0,0,1,0,.22s.12-.56,0-.32l0,.12c-.06.23-.33.71,0,.11-.2.36-.37.72-.59,1.05l-.38.54c-.16.23.12-.16.13-.17l-.12.15a4,4,0,0,1-.26.32c-.33.39-.67.77-1,1.13a44.67,44.67,0,0,1-4.21,3.81l-.72.57c-.29.23.45-.34.16-.12l-.07.05a2.08,2.08,0,0,0-.87,1.13,2,2,0,0,0,.19,1.44,1.89,1.89,0,0,0,2.57.67Z"/><path class="cls-3" d="M109.46,72.16l3.09-5.94.44-.84a1.25,1.25,0,0,0-2.16-1.26l-3.09,5.93-.44.84a1.25,1.25,0,0,0,2.16,1.27Z"/><path class="cls-3" d="M117.45,30.75c.66,2.51,3.61,3.08,5.81,3.34a33.51,33.51,0,0,0,6.49,0c.5,0,1-.08,1.5-.14a1.92,1.92,0,0,0,1.87-1.88c0-.91-.83-2-1.87-1.87-1.21.14-2.42.22-3.64.26-1.06,0-2.13,0-3.19,0-.26,0-.51,0-.76-.06l-.4,0-.17,0c-.23,0,.5.08.12,0a12.33,12.33,0,0,1-1.37-.29l-.36-.12-.13,0c-.29-.09.35.18.16.07s-.35-.21-.53-.3.35.34.09.07l-.07-.08c-.19-.14.11-.14.13.2,0-.05-.1-.14-.12-.2,0,.1.15.47.06.11a1.9,1.9,0,0,0-2.31-1.31,1.93,1.93,0,0,0-1.31,2.31Z"/><path class="cls-3" d="M106.24,67.29l5.35,2.79.76.4a1.28,1.28,0,0,0,1.71-.45,1.26,1.26,0,0,0-.44-1.71l-5.36-2.79-.76-.4a1.25,1.25,0,0,0-1.26,2.16Z"/><path class="cls-3" d="M140.22,61.4l3.09-5.94.44-.84a1.25,1.25,0,0,0-2.16-1.26l-3.09,5.93-.44.85a1.25,1.25,0,1,0,2.16,1.26Z"/><path class="cls-3" d="M137,56.53l5.36,2.79.76.4a1.25,1.25,0,0,0,1.26-2.16L139,54.77l-.76-.4A1.25,1.25,0,0,0,137,56.53Z"/><path class="cls-4" d="M60.63,17.44c-1.16,2.53,5.2,9.18,7.75,8.13,1.69-.7,3-5.35.19-8.13S61.39,15.79,60.63,17.44Z"/><path class="cls-4" d="M88.28,89.66c.78.38,3.28-1.49,3.34-4.06,0-1.64-.92-3.47-1.7-3.42C88.45,82.29,87.08,89.08,88.28,89.66Z"/><path class="cls-4" d="M101.6,108.28c-.41,1.09,3.32,4.81,6.39,3.68,1-.39,2.32-1.44,2.13-2.33C109.69,107.68,102.11,106.92,101.6,108.28Z"/><path class="cls-5" d="M120.83,58.63c3.22-.25.48-15.75-2.33-18.32-1.76-1.61-1.68,6.15-3,4.39-.8-1.09-2.71,0-5.16-1.81C109.93,42.57,115.91,59,120.83,58.63Z"/><path class="cls-5" d="M135.38,53.78c3-.23.44-14.5-2.14-16.86-1.62-1.49-1.55,5.66-2.73,4-.74-1-2.5,0-4.75-1.67C125.35,39,130.86,54.14,135.38,53.78Z"/><path class="cls-6" d="M123.89,70.7c3.1.77,9.29-2.32,13.94-3.68,3-.87-1.88-3.65-7.23-2.71S120.89,70,123.89,70.7Z"/><path class="cls-7" d="M126.79,40.8c3.55,11.77,5.49,12.31,7.62,12.67,1.77.29,2.42,1.17.48-.42C134.18,52.47,125.74,37.29,126.79,40.8Z"/><path class="cls-7" d="M111.18,45c3.55,11.78,6,11.22,7.61,12.67,1.29,1.17,3.36,1.53,1.42-.06C119.5,57.05,110.12,41.51,111.18,45Z"/></g><g id="Capa_2" data-name="Capa 2"><path class="cls-3" d="M50.35,98.64c-.86,2.14-2.3,7.14-5.33,6.92-2.11-.16-3.84-2.22-4.93-3.83-3.28-4.84-4.81-10.87-5.91-16.53C31.63,72.13,31.8,58.46,28,45.64c-.48-1.6-.82-3-2.38-3.76a11.21,11.21,0,0,0-4-1,32.21,32.21,0,0,0-9.79.68,7.18,7.18,0,0,0-3,1.11,1.52,1.52,0,0,0,.06,2.55,3.66,3.66,0,0,0,2.36.11,24.28,24.28,0,0,0,3.68-.86c2.68-.8,6.26-1.94,7.93-4.38C25,37,21,34.71,18.48,33.7c-1.18-.48-2.05,1.57-.87,2.08.18.07.65.41.75.41s-.08-.19,0-.19c-.16,0,.44-.13-.05,0-.2.06-.43.3-.64.39a5.05,5.05,0,0,1-1.28.35,6.54,6.54,0,0,1-6.14-2.44c-.92-1.13-2.52.48-1.61,1.6A8.76,8.76,0,0,0,18,38.69a3.63,3.63,0,0,0,2.56-2.14c.36-1.3-.67-2.27-1.77-2.73l-.87,2.07c1.05.43,2.76,1.06,3.24,2.22a.6.6,0,0,1,0,.5,3.19,3.19,0,0,1-.69.84c-1.79,1.61-4.43,2.42-6.69,3a22.68,22.68,0,0,1-3.09.69,4.38,4.38,0,0,0-.86.05.69.69,0,0,1,.4.2c.27.33-.06,1,0,1.07s-.08,0,.2-.11.14-.07.34-.15a13.6,13.6,0,0,1,1.66-.46,28.84,28.84,0,0,1,4.14-.58c2.48-.19,5.78-.5,8.08.7a1.46,1.46,0,0,1,.62.53,18.22,18.22,0,0,1,1.13,3.75,93.1,93.1,0,0,1,1.82,9.21C30,69.34,30.25,81.71,33.86,93.31c1.44,4.66,3.48,10.19,7.61,13.16,2,1.42,4.58,1.92,6.65.37,2.34-1.77,3.37-5,4.41-7.6.55-1.36-1.65-1.94-2.18-.6Z"/><g id="Capa_1" data-name="Capa 1"><path class="cls-8" d="M93.84,13.57a51.61,51.61,0,0,1,23.91,5.94C110.52,1.45,111,6.35,101.94,8.62a23.76,23.76,0,0,0-8.56,3.61A.75.75,0,0,0,93.84,13.57Z"/><path class="cls-9" d="M120.85,45.35c1.5,4,3.49,12.83,0,13.9-3.29,1-9.23-6.23-10.31-15-.42-3.42,2.1.5,4.5-.28,2.16-.7,1.1-6.24,3.24-3.52C120.05,42.64,120,42.94,120.85,45.35Z"/><path class="cls-10" d="M135.41,41.6c1.41,3.48,3.31,11.15.15,12-3,.85-8.53-5.48-9.6-13.11-.41-3,1.93.45,4.14-.21,2-.59,1-5.39,2.94-3C134.65,39.24,134.56,39.5,135.41,41.6Z"/><path class="cls-9" d="M139.06,66.88c2.07-1.42-3.91-3.42-8.77-3-4.52.43-10.94,8.26-7.61,7.75C129.48,70.61,134.22,70.21,139.06,66.88Z"/><path class="cls-8" d="M73.76,16.83c3.51-1.36,3.85-3.71,1.66-13.78C74-3.58,84.38,7.52,90.9,12.6c1.2.93,4,.81,4,.81a52,52,0,0,1,48.24,64"/><path class="cls-8" d="M132.58,98.56a52.08,52.08,0,0,0,10.1-19.41"/><path class="cls-8" d="M143.12,77.4c-.13.59-.28,1.17-.44,1.75a52.13,52.13,0,0,1-27.17,33.26"/><path class="cls-8" d="M64.32,109.4c-14-9.3-23.2-25.37-24-43.61C39.93,55.41,43.09,45.67,49.75,36l.21.08,8.56,3.34A13.79,13.79,0,0,1,50,36.05C46.66,33,46,28.72,46,26.24,46,17.84,36.19,4.1,61.23,11c5,1.39,9.78,2.61,12.53,6.58A14.83,14.83,0,0,1,75.84,22a15.17,15.17,0,0,1,.6,4.23l-.1-.37a15.3,15.3,0,0,0-2.68-8.63l.29-.11a15.1,15.1,0,0,1,2.49,8.34"/></g><g id="Capa_4" data-name="Capa 4"><path class="cls-8" d="M115.52,112.53a4.53,4.53,0,0,1-.23,1.45c-.75,2.46-3.4,4.66-7.3,6.35A40.25,40.25,0,0,1,98.35,123a59.1,59.1,0,0,1-9,.67c-14.43,0-26.13-5-26.13-11.1a5.46,5.46,0,0,1,1.06-3.13c.1-.14.2-.29.32-.43a11.65,11.65,0,0,1,2.54-2.28,17,17,0,0,1,1.64-1c4.78-2.6,12.22-4.26,20.57-4.26a58.65,58.65,0,0,1,7.53.47c10.62,1.35,18.39,5.5,18.59,10.43a.22.22,0,0,1,0,.08A.49.49,0,0,1,115.52,112.53Z"/><path class="cls-8" d="M132,112.33a4.53,4.53,0,0,1-.23,1.45c-.75,2.46-3.4,4.66-7.3,6.35-4.74,2-11.32,3.3-18.6,3.3a58,58,0,0,1-7.49-.47,40.25,40.25,0,0,0,9.64-2.63c3.9-1.69,6.55-3.89,7.3-6.35a4.53,4.53,0,0,0,.23-1.45,1.34,1.34,0,0,0,0-.2,52.07,52.07,0,0,0,10.72-6.94C129.82,107.29,132,109.71,132,112.33Z"/><path class="cls-3" d="M90.33,64.23a53.16,53.16,0,0,1,2.28,13c.19,4,.35,8.8-1.27,12.57a6.45,6.45,0,0,1-3.67,3.73,5.37,5.37,0,0,1-5.26-1.51c-3-2.81-4-7.33-4.42-11.22-.59-4.94-.7-10-.94-14.93-.07-1.6-2.57-1.61-2.5,0,.25,5.18.35,10.44,1,15.6.57,4.39,1.81,9.35,5.21,12.46,3.22,2.94,7.91,3.09,11-.18,3.21-3.44,3.38-8.79,3.44-13.23a55.94,55.94,0,0,0-2.43-17c-.46-1.54-2.88-.88-2.41.66Z"/></g></g></svg>