<svg xmlns="http://www.w3.org/2000/svg" viewBox="0 0 157.01 124.55"><defs><style>.cls-1,.cls-3{fill:#75bcad;stroke:#75bcad;}.cls-1,.cls-10,.cls-11,.cls-2,.cls-3,.cls-5,.cls-6,.cls-7,.cls-8,.cls-9{stroke-miterlimit:10;}.cls-1,.cls-2{stroke-width:0.75px;}.cls-2{fill:#5fb390;stroke:#5fb390;}.cls-3{stroke-width:0.74px;}.cls-4{fill:#1d1d1b;}.cls-5,.cls-6{fill:#8bc4c9;stroke:#8bc4c9;}.cls-5,.cls-7,.cls-8,.cls-9{stroke-width:0.75px;}.cls-6{stroke-width:0.74px;}.cls-7{fill:#d7d7d7;stroke:#d7d7d7;}.cls-8{fill:#582d29;stroke:#582d29;}.cls-9{fill:#54a6a8;stroke:#54a6a8;}.cls-10,.cls-11{fill:none;stroke:#1d1d1b;}.cls-10{stroke-width:2px;}.cls-11{stroke-width:2.03px;}</style></defs><g id="Capa_9" data-name="Capa 9"><path class="cls-1" d="M54,36.8A13.81,13.81,0,0,1,43.78,24.6c-.44-5.36-3.18-12,1.61-14.45,7.43-3.8,20.37,3.17,21.42,4,1.46,1.17,4.55,3.62,5,7.36C72.8,28.91,63.21,38.91,54,36.8Z"/><path class="cls-1" d="M73.16,1.47C87.23,23.31,37.53,21.84,37.81,64.12c.16,24.71,19.13,39.14,21.67,41,14.73,10.93,34.17,11.32,53,6.39,14-3.66,19.75-17.6,21.67-20.91A54.64,54.64,0,0,0,141,71.09a50.56,50.56,0,0,0-2.32-25.36c-.84-2.26-3.67-13.08-13.94-20.13-24.45-16.77-31-10.45-34.77-13C80.2,5.85,71.33-1.37,73.16,1.47Z"/><path class="cls-2" d="M76.92,64C78.2,68.41,66.05,74.9,61.82,83.8c-1.37,2.86-1.19,3.62,1.12,9.13.3.71-1.82-1.05-2.53-2.86-.6-1.54-3.37-3.45,4.21-15,1.71-2.6,8.14-10.26,10.29-9.8C75.66,65.41,76.64,63,76.92,64Z"/><path class="cls-2" d="M91.36,12.63c-.17-1.27,10.55-5.79,17.64-5.35,2.07.13,6.39,9.52,5.68,10.58s-4.49-1.82-13-3.58C94.81,12.85,91.47,13.46,91.36,12.63Z"/><path class="cls-2" d="M44.1,9.22c-.28-.17-6,8.58,2.68,24.36,2.15,3.89,7.84,5.31,8.16,4.81s-7.52-10.65-8.65-14.72C44.36,16.7,44.35,9.37,44.1,9.22Z"/><path class="cls-2" d="M47.74,36.23C36.37,54.15,35.91,67.81,41.45,82.76c8.83,23.79,33.92,40,64.44,31.41,12.65-3.56,21.13-11.76,21.53-13.1.27-.9-8.83,7.93-22.73,9.63-16.23,2-40.15-5-50.8-25.4-11.52-22.09,2-47,2-47C51.88,37.7,48.41,35.17,47.74,36.23Z"/><path class="cls-3" d="M66.23,109.72c3-10.34,38.81-8.79,45.56-2.25,2.75,2.66,4.08,5.71,3.47,6.74-7.17,12.21-42.18,12.2-48.16.56A6.92,6.92,0,0,1,66.23,109.72Z"/><path class="cls-2" d="M115.65,114.57c-3.25,5-14.15,9-11.62,8.65,10.33-1.55,9.94,1,18.07-4.78.55-.39,6.32-1.42,3.74-8.64C123.8,104.08,116.67,113,115.65,114.57Z"/><path class="cls-2" d="M142.36,63.47c.38,8-3.06,11.18-.52,10.84,15.48-2.06,14.4-15.91,10.41-17.05C145,55.2,142.26,61.59,142.36,63.47Z"/><path class="cls-2" d="M84.87,102.14c-3.35-1.07-20.93,3-21.21,8.18-.23,4.13,4.14,9.21,10.06,10.47,24.81,5.28,36.83-.44,36.79-.93,0-.28-5.82,2.51-21.44,2-10.82-.36-15.86-3.15-19-7.08a8.28,8.28,0,0,1-1-5.77C69.93,105,76.11,104.16,84.87,102.14Z"/></g><g id="Capa_10" data-name="Capa 10"><path class="cls-4" d="M6.78,41.45l4.93-9.39.7-1.34a1.88,1.88,0,0,0-3.24-1.89l-4.93,9.4-.7,1.33a1.91,1.91,0,0,0,.67,2.57,1.92,1.92,0,0,0,2.57-.68Z"/><path class="cls-4" d="M1.88,37.73,12.4,36.32l1.49-.2a1.93,1.93,0,0,0,1.88-1.88c0-.9-.84-2-1.88-1.87L3.37,33.78,1.88,34A1.93,1.93,0,0,0,0,35.86c0,.9.84,2,1.88,1.87Z"/><path class="cls-4" d="M95.13,45.09a34.4,34.4,0,0,0,7.75-7.48,6,6,0,0,0,1.2-3.22,1.88,1.88,0,0,0-1.88-1.87,1.91,1.91,0,0,0-1.87,1.87.77.77,0,0,1,0,.22s.11-.56,0-.32a.53.53,0,0,0,0,.12c-.06.23-.33.71,0,.11a11.77,11.77,0,0,1-.58,1l-.38.54.13-.17-.12.15-.27.32c-.32.39-.67.77-1,1.13a44.67,44.67,0,0,1-4.21,3.81l-.73.57c-.28.23.46-.34.17-.12l-.08.06A2.05,2.05,0,0,0,92.37,43a1.91,1.91,0,0,0,.19,1.44,1.89,1.89,0,0,0,2.57.67Z"/><path class="cls-4" d="M102.54,76.54l3.09-5.93.44-.85a1.28,1.28,0,0,0-.45-1.71,1.27,1.27,0,0,0-1.71.45l-3.09,5.94-.44.84a1.25,1.25,0,0,0,2.16,1.26Z"/><path class="cls-4" d="M110.79,31c.66,2.51,3.61,3.08,5.81,3.34a33.51,33.51,0,0,0,6.49,0c.5,0,1-.09,1.49-.15a1.92,1.92,0,0,0,1.88-1.87c0-.92-.83-2-1.88-1.88-1.2.15-2.42.23-3.63.27s-2.13,0-3.2,0l-.76-.06-.39,0-.17,0c-.24,0,.5.08.11,0a12.83,12.83,0,0,1-1.37-.29l-.36-.12-.13,0c-.28-.09.35.18.17.07l-.53-.3c-.19-.09.35.34.09.07l-.08-.08c-.18-.14.12-.15.14.2,0-.05-.1-.14-.12-.2,0,.1.15.47.06.11a1.88,1.88,0,1,0-3.62,1Z"/><path class="cls-4" d="M99.31,71.68l5.36,2.79.76.39a1.25,1.25,0,0,0,1.26-2.16l-5.35-2.78-.76-.4a1.25,1.25,0,1,0-1.27,2.16Z"/><path class="cls-4" d="M136.09,63.77l3.08-5.94.44-.84a1.25,1.25,0,1,0-2.15-1.26l-3.09,5.93-.44.85a1.25,1.25,0,1,0,2.16,1.26Z"/><path class="cls-4" d="M132.86,58.9l5.36,2.79.76.4a1.25,1.25,0,0,0,1.26-2.16l-5.35-2.79-.77-.39a1.25,1.25,0,1,0-1.26,2.15Z"/><path class="cls-5" d="M58.36,16.89c-1.17,2.54,5.2,9.18,7.74,8.13,1.69-.7,3-5.35.19-8.13S59.12,15.24,58.36,16.89Z"/><path class="cls-5" d="M65.12,88.52c.19.84,3.22,1.62,5.26,0,1.3-1,2.12-2.9,1.59-3.47C71,84,64.82,87.22,65.12,88.52Z"/><path class="cls-6" d="M101.72,109.09c-.47,1.06,3,5,6.12,4,1-.32,2.38-1.3,2.24-2.18C109.77,109,102.3,107.77,101.72,109.09Z"/><path class="cls-7" d="M111.63,61.29c3.23-.2.72-15.75-2-18.35-1.74-1.64-1.77,6.12-3,4.34-.78-1.1-2.71,0-5.14-1.88C101,45.07,106.72,61.61,111.63,61.29Z"/><path class="cls-7" d="M127.18,56.12c3-.22.5-14.5-2.07-16.87-1.62-1.49-1.57,5.65-2.75,4-.73-1-2.49,0-4.74-1.69C117.21,41.29,122.65,56.46,127.18,56.12Z"/><path class="cls-8" d="M117.48,72.22c3.1.77,9.3-2.33,13.94-3.68,3-.87-1.88-3.65-7.23-2.71S114.48,71.47,117.48,72.22Z"/><path class="cls-9" d="M118.65,43.1c3.5,11.79,5.43,12.33,7.56,12.7,1.77.31,2.41,1.18.48-.41C126,54.81,117.61,39.59,118.65,43.1Z"/><path class="cls-9" d="M102.19,47.54c3.37,11.83,5.85,11.31,7.43,12.78,1.27,1.19,3.33,1.58,1.42,0C110.33,59.69,101.18,44,102.19,47.54Z"/></g><g id="Capa_2" data-name="Capa 2"><g id="Capa_1" data-name="Capa 1"><path class="cls-10" d="M91.56,13.57a51.58,51.58,0,0,1,23.91,5.94C108.24,1.45,108.76,6.35,99.66,8.62a23.76,23.76,0,0,0-8.56,3.61A.75.75,0,0,0,91.56,13.57Z"/><path class="cls-11" d="M111.35,47.94c1.5,4,3.48,12.82,0,13.89s-9.23-6.23-10.31-15c-.42-3.42,2.09.5,4.5-.28,2.16-.7,1.1-6.24,3.24-3.52C110.55,45.22,110.44,45.52,111.35,47.94Z"/><path class="cls-11" d="M127.84,43.26c1.5,4,3.49,12.83,0,13.9-3.28,1-9.23-6.23-10.3-15-.42-3.42,2.09.5,4.5-.28,2.15-.7,1.09-6.24,3.23-3.52C127.05,40.55,126.94,40.85,127.84,43.26Z"/><path class="cls-11" d="M132.4,68.17c2.06-1.42-3.92-3.42-8.78-3-4.51.43-10.94,8.26-7.61,7.75C122.82,71.9,127.56,71.5,132.4,68.17Z"/><path class="cls-10" d="M71.48,16.83c3.51-1.36,3.85-3.71,1.66-13.78-1.45-6.63,9,4.47,15.48,9.55,1.2.93,4,.81,4,.81a52,52,0,0,1,48.24,64"/><path class="cls-10" d="M130.3,98.56a52.08,52.08,0,0,0,10.1-19.41"/><path class="cls-10" d="M140.84,77.4c-.13.59-.28,1.17-.44,1.75a52.16,52.16,0,0,1-24.3,31.73"/><path class="cls-10" d="M64.37,110.85c-15.29-9-25.49-25.82-26.29-45.06C37.65,55.41,40.81,45.67,47.47,36l.21.08,8.56,3.34a13.79,13.79,0,0,1-8.56-3.34c-3.31-3-3.94-7.34-3.94-9.81C43.74,17.84,33.91,4.1,59,11c5,1.39,9.78,2.61,12.53,6.58A14.83,14.83,0,0,1,73.56,22a15.17,15.17,0,0,1,.6,4.23l-.1-.37a15.3,15.3,0,0,0-2.68-8.63l.29-.11a15.1,15.1,0,0,1,2.49,8.34"/></g><g id="Capa_7" data-name="Capa 7"><path class="cls-10" d="M116.37,112.45a4.53,4.53,0,0,1-.23,1.45c-.75,2.46-3.4,4.66-7.3,6.35a40.25,40.25,0,0,1-9.64,2.63c-1.2.18-2.44.33-3.72.44-1.69.15-3.44.23-5.24.23-9.2,0-17.3-2-21.95-5.07-2.22-1.46-3.66-3.16-4.06-5a2.44,2.44,0,0,0,0-.27,1.34,1.34,0,0,0,0-.2,4.82,4.82,0,0,0-.11-.85,5.12,5.12,0,0,1,.25-1.33c0-.14.11-.29.17-.43a7,7,0,0,1,.95-1.53A11.65,11.65,0,0,1,68,106.61a17,17,0,0,1,1.64-1c4.78-2.6,12.22-4.26,20.57-4.26,1.8,0,3.55.07,5.25.22h0c.56.06,1.11.11,1.66.18l.6.07c9.62,1.22,16.91,4.75,18.33,9.06a4.23,4.23,0,0,1,.18.7,3.83,3.83,0,0,1,.08.67A1.34,1.34,0,0,1,116.37,112.45Z"/><path class="cls-10" d="M126.82,112.45a4.53,4.53,0,0,1-.23,1.45c-.75,2.46-3.4,4.66-7.3,6.35a40.25,40.25,0,0,1-9.64,2.63,59.1,59.1,0,0,1-9,.67c-1.79,0-3.53-.08-5.21-.23,1.28-.11,2.52-.26,3.72-.44a40.25,40.25,0,0,0,9.64-2.63c3.9-1.69,6.55-3.89,7.3-6.35a4.53,4.53,0,0,0,.23-1.45,1.34,1.34,0,0,0,0-.2,3.83,3.83,0,0,0-.08-.67,51.9,51.9,0,0,0,7.06-4.66,7.83,7.83,0,0,1,3.39,4.66,3.83,3.83,0,0,1,.08.67A1.34,1.34,0,0,1,126.82,112.45Z"/><path class="cls-4" d="M86.11,74.27a53.89,53.89,0,0,1-8,9.41c-2.91,2.71-6.29,5.63-10,7.15a7.3,7.3,0,0,1-5.88.18A5.21,5.21,0,0,1,59.62,86c.14-4.07,3.06-7.78,5.74-10.6,3.5-3.69,7.4-7,11.17-10.44,1.2-1.08-.57-2.84-1.76-1.77-3.88,3.5-7.91,6.92-11.47,10.75-3.07,3.31-6.14,7.57-6.19,12.28A7.6,7.6,0,0,0,65.38,94c4.62-.29,8.73-3.65,12.15-6.49a55.83,55.83,0,0,0,10.74-12c.9-1.34-1.27-2.59-2.16-1.26Z"/><path class="cls-4" d="M50.78,101c-.78,1.94-1.53,4.16-2.93,5.76s-3,1.34-4.59.27c-2.69-1.87-4.29-5.29-5.47-8.23-3.33-8.31-4.31-17.4-5.33-26.22-.54-4.64-1.05-9.28-1.77-13.89a61.15,61.15,0,0,0-3.05-13c-.48-1.21-1.3-2.53-2.77-2.54-1.27,0-2.33,1-3.25,1.71-.17.15-.74.48-.8.66s1,.2,1,.26a6.3,6.3,0,0,0-.3-.84c-.31-1-.52-2.1-.75-3.15-.26-1.23-.5-2.47-.83-3.68a5,5,0,0,0-1-2.36c-1.06-1-2.74.1-3.75.67A15.36,15.36,0,0,1,13,37.65c-1.06.39-1.68-.18-2.35-1-.93-1.13-2.53.48-1.6,1.6A4.08,4.08,0,0,0,13.2,40a8.51,8.51,0,0,0,2-.88c.75-.43,1.64-.8,2.35-1.28s-.53-.17-.29-.47a2.49,2.49,0,0,0,.15.28c.08.4.28.9.4,1.33.28,1.12.51,2.25.75,3.37s.46,2.26.79,3.36a3.21,3.21,0,0,0,1.13,2c1.14.66,2.17-.67,3-1.31.3-.24,1-.91,1.4-.86s.83,1.47,1,1.89c3.05,9.23,3.63,19.16,4.8,28.75C31.7,85,32.9,94.36,37,102.48c1.51,3,3.82,6.58,7.29,7.51,5.09,1.37,7.24-4.76,8.7-8.4.54-1.35-1.65-1.94-2.19-.6Z"/></g><g id="Capa_4" data-name="Capa 4"><path class="cls-10" d="M142.91,60.78c4.7-4.7,8.76-5.7,11.27-3.56s2.08,4.86,1,7.5C153,70,149.5,72.43,142.91,75.54"/></g></g></svg>