<svg xmlns="http://www.w3.org/2000/svg" viewBox="0 0 157.69 118.05"><defs><style>.cls-1{fill:#e8cab5;stroke:#e8cab5;stroke-width:0.74px;}.cls-1,.cls-10,.cls-2,.cls-3,.cls-4,.cls-5,.cls-6,.cls-8,.cls-9{stroke-miterlimit:10;}.cls-2{fill:#e4b998;stroke:#e4b998;}.cls-2,.cls-3,.cls-4,.cls-5,.cls-6{stroke-width:0.75px;}.cls-3{fill:#edb2ae;stroke:#edb2ae;}.cls-4{fill:#e8bfd1;stroke:#e8bfd1;}.cls-5{fill:#582d29;stroke:#582d29;}.cls-6{fill:#1f1f1f;stroke:#1f1f1f;}.cls-7{fill:#1d1d1b;}.cls-10,.cls-8,.cls-9{fill:none;stroke:#1d1d1b;}.cls-8{stroke-width:2px;}.cls-9{stroke-width:2.03px;}.cls-10{stroke-width:2.03px;}</style></defs><g id="Capa_2" data-name="Capa 2"><g id="Capa_1" data-name="Capa 1"><path class="cls-1" d="M59.32,30.12a13.82,13.82,0,0,1-10.26-12.2A13.66,13.66,0,0,1,56.22,4.76C63.65,1,71.05,6.64,72.09,7.47c1.47,1.17,4.55,3.62,5,7.36C78.08,22.22,68.5,32.22,59.32,30.12Z"/><path class="cls-1" d="M82,6.87c-22.48,5.35-40,26.7-39.92,50.42.09,24.46,18.87,39.06,21.39,40.94,14.54,10.91,35.43,14.64,52.34,6.38,12.83-6.27,19.49-17.56,21.39-20.86a55.09,55.09,0,0,0,6.69-19.51,50.85,50.85,0,0,0-2.3-25.3,51,51,0,0,0-13.75-20.09C116.85,9.09,99.56,2.7,82,6.87Z"/><path class="cls-2" d="M93.45,4.57C93.28,3.29,101-.61,108.06,1.66c5.62,1.81,9.42,7.07,8.71,8.13s-4.49-1.82-13-3.58C96.9,4.78,93.56,5.39,93.45,4.57Z"/><path class="cls-2" d="M55.84,4.13c-.28-.17-15,5.48-6.29,21.25,2.15,3.9,7.84,5.31,8.16,4.82s-3.9-2.22-5.75-6C47.84,15.7,56.09,4.28,55.84,4.13Z"/><path class="cls-2" d="M51.31,28.26C40,46.17,39.49,59.84,45,74.78c8.82,23.8,33.92,40,64.44,31.42,12.65-3.56,21.12-11.76,21.52-13.1.27-.9-8.83,7.93-22.72,9.63-16.24,2-40.15-5-50.81-25.41-11.51-22.08,2-47,2-47C55.46,29.73,52,27.2,51.31,28.26Z"/><path class="cls-2" d="M127.76,97.18c-2.73,2.23-5.47,4.52-6.27,5.13-3.3,2.49,6.49,6.26,10.77,2,17.93-17.94,18.51-35.95,18.07-36.19-.25-.13-.78-7.72-3.39-7.6-1.64.08,3.67-1.2-1.32-.72-.7.06-3.56,16.93-5.42,20.12C138.14,83.43,130.09,94.33,127.76,97.18Z"/><path class="cls-3" d="M122.87,22.76c-5.08,2.43-4.48,12.35-1.42,19.36,3.2,7.33,7.27,12.78,11.78,10.61,2.43-1.16,5-4.67,4.64-7.29-1.29-10.32-3.18-14.6-8.94-20.74C127,22.63,125.62,21.44,122.87,22.76Z"/><path class="cls-3" d="M101.45,21.92C96.37,24.35,97,34.27,100,41.28c3.2,7.33,11.08,15.43,15.59,13.26,2.43-1.17,2-6.39,1.7-9-1.29-10.32-3-16-8.78-22.19A5.67,5.67,0,0,0,101.45,21.92Z"/><path class="cls-4" d="M137.06,53.53c2.66-3.37,6.9-3.05,7.48-1.41.37,1,.94,2.37.65,2.58-3.31,2.28-8.24,1.53-8.65.13C136.41,54.37,136.77,53.9,137.06,53.53Z"/><path class="cls-4" d="M103.45,61c2.65-3.38,9.74-3.31,10.32-1.68.37,1-1.9,2.64-2.19,2.84-3.31,2.29-8.24,1.54-8.65.13C102.8,61.85,103.16,61.39,103.45,61Z"/><path class="cls-5" d="M120.48,65.34c3.51-3.07,8.8-6.3,13.52-2.55,2.43,1.92-.65-1.25-6-.31S118.15,67.38,120.48,65.34Z"/><path class="cls-2" d="M128.09,18.67c-8.41-6.13,4.75-9,11.53,3,2.25,4-.27,14.15-.86,11C138,28.92,130.89,20.71,128.09,18.67Z"/><path class="cls-1" d="M85.94,113.78c-6.59-12.27,2.89-28,5.86-33.75,3.86-7.49,14.61-12.34,15.4-11.42,9.31,10.79-2.06,44.16-15.09,46.09C91.07,114.85,87,115.76,85.94,113.78Z"/><path class="cls-2" d="M86.06,115.87c3.83,1.55,10-1,13.15-6.15,13-21.79,11.46-35,11-35.13-.27-.07.5,6.33-5,20.94-3.83,10.12-8.1,14-12.82,15.69-.65.23-2.37,1.55-4.63.18C84.22,109.28,81.27,113.94,86.06,115.87Z"/><path class="cls-1" d="M3.46,18.62c1.66.88,7.08-2.85,6.19-6.19C9.17,10.59,6.82,9.05,5.2,9.52,2.3,10.37,1.67,17.68,3.46,18.62Z"/><path class="cls-2" d="M4.53,9.43c-.1,0-4.46,5.09-2.81,7.45,1.1,1.58,4.46,1.26,4.55.87s-2.5-.49-3.39-2.23C1.64,13.11,4.6,9.47,4.53,9.43Z"/><path class="cls-6" d="M105.9,27.11c-1.61,4.16,3.45,25.73,8.36,25.34,3.22-.25-3.71-8.15-4.06-10.3C107.68,27.06,106.45,25.7,105.9,27.11Z"/><path class="cls-6" d="M124.48,25.75c-1.61,4.17,3.45,25.73,8.36,25.35,3.22-.26-3.7-8.15-4.06-10.3C126.26,25.7,125,24.34,124.48,25.75Z"/><path class="cls-2" d="M78.56,65.6c4-2.28-.16-15.41,3-24.74,1-3,1.67-3.42,7.17-5.75.71-.3-2-.52-3.8.28-1.51.68-4.82.12-7.47,13.69-.6,3.06-1.34,13,.52,14.2C78.66,63.69,77.7,66.08,78.56,65.6Z"/><path class="cls-7" d="M79.6,64.51a53.66,53.66,0,0,1-1.35-13.18,51.45,51.45,0,0,1,.57-6.68,17.73,17.73,0,0,1,1.63-5.81,6.37,6.37,0,0,1,3.94-3.37,5.48,5.48,0,0,1,5.12,2c2.74,3,3.38,7.63,3.57,11.52.24,5,0,10-.1,15a1.25,1.25,0,0,0,2.5,0c.12-5.19.39-10.45.06-15.63-.28-4.44-1.21-9.42-4.4-12.77a7.6,7.6,0,0,0-10.94-.45c-3.42,3.2-3.91,8.59-4.28,13a56.06,56.06,0,0,0,1.27,17.13c.36,1.57,2.77.9,2.41-.66Z"/><path class="cls-7" d="M125.66,16.53c1.2-2.56,4.66-3,7-1.78,2.92,1.56,4.52,5,5.47,8A59.63,59.63,0,0,1,140,32.42c.46,3.28,1,6.53,1.44,9.81.19,1.58,2.7,1.6,2.5,0-.49-3.89-1.15-7.75-1.69-11.64A40.49,40.49,0,0,0,139.36,19c-1.51-3.28-4.06-6.55-7.79-7.29-3.07-.61-6.69.6-8.07,3.53-.67,1.45,1.48,2.72,2.16,1.27Z"/></g><g id="Capa_4" data-name="Capa 4"><path class="cls-8" d="M76.79,17.88a15.21,15.21,0,0,0-30.42,0A18.51,18.51,0,0,0,50.75,29"/><path class="cls-8" d="M76.79,17.88a15.16,15.16,0,0,0-2.68-8.63A51.77,51.77,0,0,1,92.84,5.77c.8,0,1.6,0,2.39.06a52,52,0,0,1,49.64,52c0,.59,0,1.18,0,1.76"/><path class="cls-8" d="M100.53,109.26a51.48,51.48,0,0,0,19.66-7.2"/><path class="cls-8" d="M50.2,28c-6.67,9.7-9.82,19.45-9.39,29.82,1,24.69,17.53,45.41,40.42,50.72"/><path class="cls-8" d="M91.83,5.83a51.52,51.52,0,0,1,25.89,5.91A15.23,15.23,0,0,0,101.91.84,15.07,15.07,0,0,0,91.83,5.83Z"/><path class="cls-7" d="M50.4,89.78a21.41,21.41,0,0,1-2.79,5.6c-1.26,1.55-2.89,1.6-4.51.57-2.6-1.65-4.17-4.81-5.35-7.55-3.44-8-4.47-16.85-5.48-25.39-1-8.76-1.72-17.74-4.26-26.22-.85-2.83-1.75-6.11-3.85-8.3a31.14,31.14,0,0,0-3-2.51c-1-.78-2.23-1.84-3.58-1.82-1.77,0-3.37,1.09-5.17,1.05-3.08-.07-4.46-3.54-5.27-6-.45-1.38-2.64-.79-2.19.6.91,2.76,2.27,5.93,5.11,7.17a8.31,8.31,0,0,0,5.69-.07,4.37,4.37,0,0,1,2.13-.4c1.29.35,2.52,1.78,3.55,2.6,2.61,2.11,3.52,5.37,4.44,8.49,2.72,9.22,3.29,19,4.48,28.46,1.09,8.64,2.34,17.71,6.39,25.55,1.54,3,4,6.55,7.48,7.25,4.92,1,6.93-4.93,8.35-8.47.54-1.36-1.65-2-2.19-.61Z"/><ellipse class="cls-9" cx="5.49" cy="14.09" rx="4.5" ry="4.63" transform="translate(-1.6 0.73) rotate(-6.65)"/><path class="cls-10" d="M110.91,43.64c.25,3,7.25,9.58,4,10.1-3.4.56-7.88-8-9-16.81-.42-3.43-2.51-9-.1-9.82,2.16-.71,2.2,2.3,2.17,5.43A9.37,9.37,0,0,0,109.74,38C110.34,39,110.7,41.24,110.91,43.64Z"/><path class="cls-10" d="M129.1,41.7c.26,3,7.25,9.58,4.05,10.11-3.4.55-7.88-8-9-16.82-.42-3.42-2.51-9-.1-9.82,2.15-.7,2.2,2.31,2.16,5.43A9.31,9.31,0,0,0,127.94,36C128.53,37,128.89,39.31,129.1,41.7Z"/><path class="cls-10" d="M134.24,63.14c3,1.59-2.58-.87-7.08,0s-8.49,4.52-6.15,2.1C126.52,59.51,127.94,59.77,134.24,63.14Z"/><path class="cls-8" d="M76.88,17.72a15.21,15.21,0,1,0-30.42,0C46.46,21.6,48,30,59,30.87"/><path class="cls-8" d="M110.49,78.11A39.92,39.92,0,0,1,109.43,88c-.26,1.19-.58,2.39-1,3.63-.47,1.63-1,3.29-1.69,5-.42,1.07-.87,2.13-1.33,3.15a53.73,53.73,0,0,1-3.72,6.84,31.12,31.12,0,0,1-7.66,8.6c-2.16,1.54-4.28,2.26-6.12,2a2.56,2.56,0,0,0-.24-.11l-.2-.06a5.73,5.73,0,0,0-.84-.21,5.08,5.08,0,0,1-1.47-1,6.61,6.61,0,0,1-1.08-1.44,11.72,11.72,0,0,1-1.21-3.19,15,15,0,0,1-.32-1.9c0-.13,0-.27,0-.41a26.18,26.18,0,0,1-.12-4.12,51.29,51.29,0,0,1,3.68-16.18c.65-1.68,1.35-3.29,2.11-4.81,0,0,0,0,0,0,.26-.49.51-1,.77-1.47.09-.19.19-.36.29-.54,4.89-9,11.21-14.6,15.84-13.68a3,3,0,0,1,.64.16l.19.07a4.18,4.18,0,0,1,1.27.74C109.26,70.59,110.34,73.85,110.49,78.11Z"/><path class="cls-8" d="M150.66,70.36a40.31,40.31,0,0,1-2.07,9.78c-.38,1.15-.81,2.32-1.3,3.51q-1,2.37-2.19,4.77c-.53,1-1.08,2-1.65,3-3.92,6.7-8.66,11.81-12.88,14.21-2.31,1.31-4.48,1.82-6.29,1.34l-.23-.13-.18-.08a4.9,4.9,0,0,0-.81-.29,5,5,0,0,1-1.37-1.18,7.08,7.08,0,0,1-.93-1.54,9.85,9.85,0,0,1-.57-1.69,52,52,0,0,0,24.64-42.5,5.74,5.74,0,0,1,1.51.23A3.38,3.38,0,0,1,147,60a.76.76,0,0,1,.18.09,4.16,4.16,0,0,1,1.19.86C150.19,62.76,150.93,66.12,150.66,70.36Z"/></g></g></svg>