<svg xmlns="http://www.w3.org/2000/svg" viewBox="0 0 164.38 117.5"><defs><style>.cls-1,.cls-2{fill:#eca082;stroke:#eca082;}.cls-1,.cls-10,.cls-12,.cls-13,.cls-2,.cls-3,.cls-4,.cls-5,.cls-6,.cls-7,.cls-8,.cls-9{stroke-miterlimit:10;}.cls-1,.cls-4,.cls-5,.cls-6,.cls-7,.cls-8,.cls-9{stroke-width:0.75px;}.cls-2,.cls-3{stroke-width:0.75px;}.cls-3{fill:#f1876d;stroke:#f1876d;}.cls-4{fill:#d36e5b;stroke:#d36e5b;}.cls-5{fill:#ec6095;stroke:#ec6094;}.cls-6{fill:#e4b998;stroke:#e4b998;}.cls-7{fill:#1f1f1f;stroke:#1f1f1f;}.cls-8{fill:#582d29;stroke:#582d29;}.cls-9{fill:#4c4947;stroke:#494645;}.cls-10,.cls-12,.cls-13{fill:none;stroke:#1d1d1b;}.cls-10{stroke-width:2px;}.cls-11{fill:#1d1d1b;}.cls-12{stroke-width:2.03px;}.cls-13{stroke-width:2.03px;}</style></defs><g id="Capa_9" data-name="Capa 9"><path class="cls-1" d="M3.79,35.13c1.66.88,7.07-2.85,6.19-6.19C9.49,27.1,7.15,25.56,5.53,26,2.62,26.88,2,34.19,3.79,35.13Z"/><path class="cls-2" d="M56.82,30a13.71,13.71,0,0,1-3.1-25.35C61.15.88,68.55,6.56,69.59,7.39c1.46,1.16,4.55,3.62,5,7.35C75.58,22.14,66,32.14,56.82,30Z"/><path class="cls-2" d="M78.66,7C55.88,12.36,38.12,33.76,38.2,57.52c.1,24.51,19.13,39.14,21.68,41,14.73,10.93,35.9,14.67,53,6.39,13-6.29,19.76-17.6,21.68-20.91a54.64,54.64,0,0,0,6.78-19.54A50.6,50.6,0,0,0,139,39.13,51.14,51.14,0,0,0,125.11,19C114,9.22,96.46,2.82,78.66,7Z"/><path class="cls-3" d="M4.85,25.94C4.76,25.89.4,31,2,33.39c1.11,1.59,4.46,1.26,4.55.87S4.1,33.77,3.2,32C2,29.62,4.93,26,4.85,25.94Z"/><path class="cls-3" d="M70.06,69.62c2.09-4.12,15.4-.58,24.57-4.2,3-1.17,3.34-1.84,5.4-7.44.27-.73.62,2-.1,3.81-.61,1.54.11,4.82-13.32,8.11-3,.75-13,2-14.21.16C72,69.43,69.62,70.5,70.06,69.62Z"/><path class="cls-3" d="M91,4.49c-.17-1.28,7.54-5.18,14.61-2.91,5.62,1.81,9.42,7.07,8.71,8.13s-4.49-1.82-13-3.58C94.4,4.7,91.06,5.31,91,4.49Z"/><path class="cls-3" d="M53.34,4c-.28-.16-15,5.49-6.29,21.26,2.15,3.9,7.84,5.31,8.16,4.81s-3.9-2.21-5.75-6C45.34,15.62,53.59,4.2,53.34,4Z"/><path class="cls-3" d="M48.78,28.6C37.42,46.51,37,60.18,42.5,75.12c8.82,23.8,33.92,40,64.44,31.42,12.64-3.56,21.12-11.76,21.52-13.1.27-.9-8.83,7.92-22.73,9.62-16.23,2-40.14-5-50.8-25.4-11.51-22.08,2-47,2-47C52.93,30.07,49.46,27.53,48.78,28.6Z"/><path class="cls-3" d="M87,110.55c-3.4-.88-6.87-1.74-7.84-2-4-1.19,2,5.14,8,6.06,25.06,3.87,36.75-2.51,36.68-3,0-.28,5.77-5.19,4.13-7.22-1-1.28-.93-1.39-4.26-5.13-.46-.52-13,8.32-16.65,8.71C103,108.37,90.69,110.74,87,110.55Z"/><path class="cls-2" d="M62.43,102.87c27.32,9.3,25,7.41,31.48,8,8.39.78,18.92-6.3,18.37-5.23-6.52,12.68-41.72,14.66-48.39,3.29C63.36,108,60.3,102.15,62.43,102.87Z"/><path class="cls-3" d="M60.24,104.82c0,4.14,4.66,9,10.64,9.89,25.07,3.87,36.75-2.51,36.68-3,0-.28-5.67,2.84-21.29,3.2-10.83.24-16-2.26-19.36-6-.46-.52-2.32-1.62-1.9-4.23C65.66,100.65,60.24,99.66,60.24,104.82Z"/><path class="cls-4" d="M118.43,19.78C113.35,22.21,114,32.12,117,39.13c3.2,7.33,10.08,13.39,14.58,11.23,2.43-1.17,2.52-3.84,2.2-6.45-1.29-10.33-3.54-16.06-9.29-22.2C122.56,19.65,121.18,18.46,118.43,19.78Z"/><path class="cls-4" d="M99,21.84c-5.08,2.43-4.48,12.35-1.42,19.36,3.2,7.33,10.07,13.39,14.58,11.22,2.43-1.17,3-4.35,2.71-7-1.29-10.32-3-16.05-8.78-22.19A5.67,5.67,0,0,0,99,21.84Z"/><path class="cls-5" d="M134.56,53.45c2.66-3.37,6.9-3.05,7.48-1.42.37,1,.94,2.38.65,2.59-3.31,2.28-8.24,1.53-8.65.12C133.91,54.29,134.27,53.82,134.56,53.45Z"/><path class="cls-5" d="M98.82,64c2.65-3.37,9.74-3.3,10.32-1.67.37,1-1.9,2.63-2.19,2.84-3.31,2.28-8.24,1.53-8.65.13C98.17,64.87,98.53,64.4,98.82,64Z"/><path class="cls-6" d="M6.39,28.54a1.35,1.35,0,0,0,.22,2A1.09,1.09,0,0,0,8,30.3c.32-.47-.11-1.22-.59-1.56C7.36,28.72,6.76,28.31,6.39,28.54Z"/><path class="cls-6" d="M59.4,9.26c-1.17,2.53,5.2,9.18,7.74,8.13,1.7-.7,3-5.35.19-8.13S60.16,7.61,59.4,9.26Z"/><path class="cls-6" d="M95.43,59.71c.44-.74-1.25-3.38-3.81-3.62-1.63-.15-3.53.67-3.53,1.45C88.09,59,94.76,60.87,95.43,59.71Z"/><path class="cls-7" d="M121.29,28.83c-4.58,3.51,2.58,20.39,7.49,20,3.22-.25,6.33-6.36,3.52-8.92-1.76-1.62-5.29.21-6.58-1.55-.8-1.09.81-2.26,1-5.42,0-.55.63-3.24-1.52-4.49A3.88,3.88,0,0,0,121.29,28.83Z"/><path class="cls-7" d="M103,31.54c-4.58,3.51,3.22,20,8.13,19.62,3.23-.26,6.07-7.53,3.27-10.09-1.77-1.62-5.3.21-6.58-1.55-.8-1.09.81-2.26,1-5.42a3,3,0,0,0-1.52-3.59C106.08,29.84,103.92,30.82,103,31.54Z"/><path class="cls-8" d="M118.17,66.23c3.51-3.07,8.8-6.3,13.52-2.56,2.43,1.93.73,9.55-4.61,10.49S115.85,68.27,118.17,66.23Z"/><path class="cls-9" d="M122.56,30.87a1.65,1.65,0,0,0,1,2.2A1.53,1.53,0,0,0,125,31.39,1.73,1.73,0,0,0,122.56,30.87Z"/><path class="cls-9" d="M104.37,32.29a1.54,1.54,0,0,0,1.16,2.07,1.35,1.35,0,0,0,.64-2.58A1.41,1.41,0,0,0,104.37,32.29Z"/><path class="cls-10" d="M74.42,18.09a15.21,15.21,0,0,0-30.42,0,18.51,18.51,0,0,0,4.38,11.14"/><path class="cls-10" d="M74.41,18.09a15.16,15.16,0,0,0-2.68-8.63A51.77,51.77,0,0,1,90.46,6c.8,0,1.6,0,2.39.06A52,52,0,0,1,123,98.63"/><path class="cls-10" d="M47.82,28.19C41.16,37.89,38,47.64,38.43,58c.75,17.92,9.65,33.75,23.22,43.1"/><path class="cls-10" d="M89.45,6A51.52,51.52,0,0,1,115.34,12,15.19,15.19,0,0,0,89.45,6Z"/><path class="cls-11" d="M48,90c-.8,2-1.58,4.46-3.16,6s-3.43.84-4.89-.39c-2.91-2.46-4.52-6.43-5.73-9.94-3.24-9.4-4-19.48-5.15-29.28-.59-5-1.22-9.9-2.28-14.77-.95-4.37-2.23-8.93-4.69-12.72-1.52-2.36-5.05-6.2-8.21-4.28-1.63,1-2.15,3.21-2.48,4.94C11,31.8,11,34.14,10.36,36.33a2.89,2.89,0,0,1-.36.91c-.14.22.11-.11.14,0s0,0-.18-.11-.3-.22-.45-.35a11.31,11.31,0,0,1-1.45-1.71c-.85-1.17-2.82,0-2,1.15,1,1.35,2.91,4.14,5,3,1.51-.8,1.7-3.12,1.91-4.6a34.64,34.64,0,0,1,1.18-6.58c.22-.61.55-1.43,1.14-1.61,1.81-.54,3.83,2,4.68,3.26,2.76,4.07,4,9.11,5,13.87,1.07,5.31,1.68,10.7,2.3,16.08,1.15,9.94,2.06,20.27,6,29.58,1.49,3.53,3.65,7.72,7.34,9.37,5.55,2.48,8.07-4,9.67-8,.54-1.35-1.65-1.94-2.18-.6Z"/><path class="cls-10" d="M130.85,38.68c3.7,2,2,9.49-1.43,10.54-3.24,1-8.5-4.38-9.57-13.06-.41-3.38.23-7.46,2.61-8.23,2.12-.69,5.54.9,5.5,4,0,2.77-2.7,4.31-2.13,5.27S128.77,37.54,130.85,38.68Z"/><path class="cls-12" d="M112.54,40.06c3.75,2,2.52,9.9-.92,11S102.48,46.3,101.4,37.5c-.42-3.42.32-6.85,2.73-7.63,2.16-.7,5.52.21,5.48,3.34,0,2.8-2.73,4.37-2.16,5.33S110.43,38.9,112.54,40.06Z"/><path class="cls-12" d="M131.87,63.34c2.9,1.74-.79,10.19-5.65,10.64-4.51.43-10.34-6.61-7.59-8.56C126,60.2,125.58,59.57,131.87,63.34Z"/><path class="cls-10" d="M74.51,17.93a15.21,15.21,0,0,0-30.42,0c0,3.88,1.56,12.28,12.5,13.15"/><ellipse class="cls-13" cx="5.51" cy="30.59" rx="4.5" ry="4.63"/><path class="cls-10" d="M128.15,105.27c0,3-2.88,5.79-7.53,7.8s-11.32,3.3-18.6,3.3a59.34,59.34,0,0,1-7.7-.49,40.18,40.18,0,0,0,10-2.68c4.63-2,7.51-4.74,7.53-7.77A52,52,0,0,0,123,98.63C126.22,100.48,128.15,102.78,128.15,105.27Z"/><path class="cls-10" d="M111.89,105.43c0,3-2.9,5.77-7.53,7.77a40.18,40.18,0,0,1-10,2.68,56.87,56.87,0,0,1-8.56.62c-14.43,0-26.13-5-26.13-11.1a6.16,6.16,0,0,1,2-4.29,50.32,50.32,0,0,0,15.17,7.09A50.87,50.87,0,0,0,90.46,110,51.79,51.79,0,0,0,111.89,105.43Z"/><path class="cls-11" d="M70,55.21a53.65,53.65,0,0,1,13.19-1.29,51.65,51.65,0,0,1,6.68.6,17.91,17.91,0,0,1,5.79,1.66,6.37,6.37,0,0,1,3.35,4,5.47,5.47,0,0,1-2,5.11C94,68,89.4,68.59,85.5,68.76c-5,.22-10,0-15-.17a1.25,1.25,0,0,0,0,2.5c5.19.14,10.45.44,15.63.14C90.62,71,95.6,70.05,99,66.88a7.6,7.6,0,0,0,.5-10.94c-3.19-3.43-8.58-3.95-13-4.33A55.73,55.73,0,0,0,69.36,52.8c-1.57.35-.91,2.76.66,2.41Z"/><path class="cls-3" d="M143,49.54c-1-4.49,4.36-2.23,14.13-.9,4.25.58-.59-.45,5.16,3.1.65.4,1.19,1.15.51,3-.58,1.55-.51,3.81-4.19,7.36-2.24,2.16-16,3.18-15.29,1.1C144.2,60.64,143.68,52.32,143,49.54Z"/><path class="cls-11" d="M142.2,65.89c3.75,0,7.67.41,11.38-.32a14.62,14.62,0,0,0,3.72-1.38,16.73,16.73,0,0,0,4.91-3.25,7.58,7.58,0,0,0-.65-11.22c-3.21-2.69-7.55-2.92-11.5-3.57a43.28,43.28,0,0,0-8.44-.24,1.25,1.25,0,0,0,0,2.5c1.54,0,3.09-.1,4.63-.12.61,0,1.65,0,2,.09,1.1.14,2.18.35,3.27.52a29.24,29.24,0,0,1,5.79,1.22,7.35,7.35,0,0,1,4.24,3.53,5,5,0,0,1-.87,5.26,13,13,0,0,1-4.34,3,13,13,0,0,1-3.19,1.23c-3.52.77-7.36.31-10.94.28a1.25,1.25,0,0,0,0,2.5Z"/></g></svg>