<svg xmlns="http://www.w3.org/2000/svg" viewBox="0 0 157.69 118.05"><defs><style>.cls-1,.cls-2{fill:#eca082;stroke:#eca082;}.cls-1,.cls-10,.cls-11,.cls-13,.cls-14,.cls-15,.cls-2,.cls-3,.cls-4,.cls-5,.cls-6,.cls-7,.cls-8,.cls-9{stroke-miterlimit:10;}.cls-1,.cls-10,.cls-4,.cls-5,.cls-6,.cls-8,.cls-9{stroke-width:0.75px;}.cls-2,.cls-3{stroke-width:0.75px;}.cls-15,.cls-3{fill:#f1876d;stroke:#f1876d;}.cls-4{fill:#d36e5b;stroke:#d36e5b;}.cls-5{fill:#ec6095;stroke:#ec6094;}.cls-6,.cls-7{fill:#e4b998;stroke:#e4b998;}.cls-7{stroke-width:0.52px;}.cls-8{fill:#1f1f1f;stroke:#1f1f1f;}.cls-9{fill:#582d29;stroke:#582d29;}.cls-10{fill:#4c4947;stroke:#494645;}.cls-11,.cls-13,.cls-14{fill:none;stroke:#1d1d1b;}.cls-11{stroke-width:2px;}.cls-12{fill:#1d1d1b;}.cls-13{stroke-width:2.03px;}.cls-14{stroke-width:2.03px;}.cls-15{stroke-width:0.74px;}</style></defs><g id="Capa_2" data-name="Capa 2"><g id="Capa_1" data-name="Capa 1"><path class="cls-1" d="M3.78,35.27c1.66.88,7.07-2.85,6.19-6.19-.49-1.84-2.83-3.38-4.45-2.9C2.62,27,2,34.33,3.78,35.27Z"/><path class="cls-2" d="M56.47,30.31A13.82,13.82,0,0,1,46.21,18.12,13.66,13.66,0,0,1,53.37,5C60.8,1.16,68.2,6.83,69.24,7.66c1.47,1.17,4.55,3.63,5,7.36C75.23,22.42,65.65,32.42,56.47,30.31Z"/><path class="cls-2" d="M78.31,7.28C55.53,12.63,37.77,34,37.86,57.79,38,82.31,57,96.93,59.53,98.83c14.73,10.93,35.9,14.67,53,6.38,13-6.28,19.75-17.59,21.67-20.9A54.62,54.62,0,0,0,141,64.76a50.52,50.52,0,0,0-2.32-25.35,51.33,51.33,0,0,0-13.94-20.13C113.63,9.49,96.11,3.09,78.31,7.28Z"/><path class="cls-3" d="M4.84,26.08C4.75,26,.39,31.17,2,33.53c1.11,1.59,4.46,1.26,4.55.87s-2.49-.49-3.38-2.22C2,29.76,4.92,26.12,4.84,26.08Z"/><path class="cls-3" d="M68.75,59.49c4.6-.39,6.28-14.07,13.06-21.22,2.18-2.3,3-2.41,8.92-2.24.77,0-1.63-1.32-3.58-1.33-1.65,0-4.43-1.9-12.49,9.33C72.84,46.56,68,55.32,69.21,57.16,69.64,57.81,67.77,59.58,68.75,59.49Z"/><path class="cls-3" d="M90.6,4.76c-.17-1.28,7.54-5.18,14.61-2.9,5.62,1.81,9.42,7.06,8.71,8.13s-4.49-1.83-13-3.58C94.05,5,90.71,5.59,90.6,4.76Z"/><path class="cls-3" d="M53,4.32c-.28-.16-15,5.48-6.28,21.26,2.14,3.89,7.83,5.3,8.15,4.81s-3.9-2.21-5.75-6C45,15.9,53.24,4.47,53,4.32Z"/><path class="cls-3" d="M47.85,29.26C36.49,47.17,36,60.84,41.57,75.78c8.82,23.8,33.92,40,64.44,31.42,12.64-3.56,21.12-11.76,21.52-13.1.27-.9-8.83,7.93-22.73,9.63-16.23,2-40.14-5-50.8-25.41-11.51-22.08,2-47,2-47C52,30.73,48.53,28.2,47.85,29.26Z"/><path class="cls-3" d="M86.66,110.83c-3.4-.89-6.87-1.75-7.84-2-4-1.18,2,5.14,8,6.07,25.07,3.87,36.75-2.51,36.68-3,0-.28,5.77-5.2,4.13-7.23a66.34,66.34,0,0,0-4.26-5.13c-.46-.52-13,8.33-16.64,8.71C102.63,108.64,90.34,111,86.66,110.83Z"/><path class="cls-2" d="M62.08,103.15c27.32,9.29,25,7.4,31.49,8,8.38.77,18.91-6.31,18.36-5.23-6.52,12.67-41.72,14.65-48.39,3.29C63,108.31,60,102.42,62.08,103.15Z"/><path class="cls-3" d="M59.9,105.1c0,4.13,4.65,9,10.63,9.89,25.07,3.87,36.75-2.51,36.68-3,0-.28-5.67,2.83-21.29,3.19-10.82.25-16-2.26-19.35-6-.47-.52-2.33-1.62-1.91-4.23C65.31,100.92,59.89,99.93,59.9,105.1Z"/><path class="cls-4" d="M118.08,20.05c-5.08,2.43-4.48,12.35-1.42,19.36,3.2,7.33,10.08,13.39,14.58,11.22,2.43-1.17,2.52-3.83,2.2-6.45-1.29-10.32-3.54-16-9.29-22.19C122.21,19.92,120.84,18.73,118.08,20.05Z"/><path class="cls-4" d="M98.6,22.12c-5.08,2.43-4.48,12.34-1.42,19.35,3.2,7.33,10.07,13.39,14.58,11.23,2.43-1.17,3-4.35,2.71-7-1.29-10.32-3-16.06-8.77-22.19A5.67,5.67,0,0,0,98.6,22.12Z"/><path class="cls-5" d="M134.21,53.73c2.66-3.38,6.9-3,7.49-1.42.36,1,.93,2.38.64,2.58-3.31,2.29-8.24,1.54-8.64.13C133.56,54.56,133.92,54.1,134.21,53.73Z"/><path class="cls-5" d="M98.47,64.31c2.66-3.38,9.74-3.31,10.32-1.68.37,1-1.9,2.64-2.19,2.84-3.31,2.29-8.24,1.54-8.65.13C97.82,65.14,98.18,64.68,98.47,64.31Z"/><path class="cls-6" d="M6.38,28.68a1.34,1.34,0,0,0,.22,2A1.08,1.08,0,0,0,8,30.44c.32-.47-.11-1.22-.59-1.56C7.35,28.86,6.75,28.45,6.38,28.68Z"/><path class="cls-6" d="M59.05,9.54c-1.17,2.53,5.2,9.17,7.74,8.12,1.7-.69,3-5.34.2-8.12S59.81,7.88,59.05,9.54Z"/><path class="cls-7" d="M88.93,38.38c.59-.08,1.85,1.72,1.36,3.46C90,42.94,89,44,88.48,43.75,87.54,43.36,88,38.51,88.93,38.38Z"/><path class="cls-8" d="M121,29.11c-4.59,3.5,2.57,20.39,7.48,20,3.22-.26,6.33-6.36,3.52-8.93-1.76-1.61-5.29.21-6.58-1.55-.79-1.09.82-2.26,1-5.42,0-.55.64-3.23-1.52-4.49A3.83,3.83,0,0,0,121,29.11Z"/><path class="cls-8" d="M102.62,31.82c-4.58,3.5,3.22,20,8.13,19.61,3.23-.25,6.07-7.52,3.27-10.09-1.77-1.61-5.29.21-6.58-1.55-.8-1.09.81-2.25,1-5.42a3.06,3.06,0,0,0-1.53-3.58C105.73,30.12,103.57,31.09,102.62,31.82Z"/><path class="cls-9" d="M117.82,66.5c-1.82-4.29,6.87,7.64,13.52-2.55,1.7-2.6-.08,9.21-5.49,9.67S118.49,68.08,117.82,66.5Z"/><path class="cls-10" d="M122.21,31.15a1.66,1.66,0,0,0,1,2.19,1.53,1.53,0,0,0,1.42-1.68A1.73,1.73,0,0,0,122.21,31.15Z"/><path class="cls-10" d="M104,32.57a1.53,1.53,0,0,0,1.16,2.06,1.38,1.38,0,0,0,1.42-1,1.41,1.41,0,0,0-2.58-1Z"/><path class="cls-11" d="M74.07,18.36a15.21,15.21,0,1,0-30.42,0A18.51,18.51,0,0,0,48,29.5"/><path class="cls-11" d="M74.06,18.36a15.16,15.16,0,0,0-2.68-8.63A51.77,51.77,0,0,1,90.11,6.25c.8,0,1.6,0,2.39.06A52,52,0,0,1,122.61,98.9"/><path class="cls-11" d="M47.47,28.46c-6.66,9.7-9.82,19.45-9.39,29.82C38.83,76.2,47.73,92,61.3,101.38"/><path class="cls-11" d="M89.1,6.31A51.47,51.47,0,0,1,115,12.22,15.19,15.19,0,0,0,89.1,6.31Z"/><path class="cls-12" d="M47.68,90.26c-.8,2-1.58,4.47-3.16,6s-3.43.84-4.89-.38c-2.91-2.46-4.52-6.44-5.73-10-3.24-9.39-4-19.47-5.15-29.28-.59-4.94-1.22-9.9-2.28-14.77-.95-4.37-2.23-8.93-4.69-12.72-1.52-2.35-5.05-6.19-8.21-4.27-1.62,1-2.15,3.2-2.48,4.94-.43,2.23-.47,4.57-1.08,6.77a2.61,2.61,0,0,1-.36.9c-.13.23.12-.11.14,0s0,.05-.18-.1-.3-.23-.45-.36a11.74,11.74,0,0,1-1.45-1.7c-.85-1.17-2.82,0-1.95,1.14,1,1.35,2.9,4.15,5,3,1.5-.81,1.69-3.12,1.91-4.61a34.12,34.12,0,0,1,1.17-6.58c.22-.61.55-1.43,1.14-1.61,1.81-.54,3.84,2,4.68,3.27,2.76,4.07,4,9.11,4.95,13.86,1.07,5.31,1.68,10.71,2.3,16.09,1.15,9.93,2.06,20.27,6,29.57,1.49,3.53,3.64,7.72,7.33,9.37,5.55,2.48,8.07-4,9.67-8,.55-1.36-1.65-2-2.18-.61Z"/><path class="cls-11" d="M130.51,39c3.7,2,2,9.49-1.43,10.55s-8.51-4.38-9.57-13.07c-.42-3.38.22-7.45,2.6-8.22,2.13-.7,5.54.89,5.51,4,0,2.77-2.71,4.32-2.14,5.27S128.43,37.81,130.51,39Z"/><path class="cls-13" d="M112.19,40.33c3.75,2.05,2.52,9.9-.92,11-3.29,1-9.14-4.73-10.22-13.52-.42-3.43.33-6.86,2.74-7.64,2.15-.7,5.51.22,5.48,3.34,0,2.81-2.74,4.37-2.17,5.34S110.09,39.18,112.19,40.33Z"/><path class="cls-13" d="M131.52,63.62c1.75-2.89-.78,10.18-5.64,10.64-4.52.42-10.27-10.6-7.59-8.56C123.79,69.88,128.43,68.72,131.52,63.62Z"/><path class="cls-11" d="M74.16,18.21a15.21,15.21,0,1,0-30.42,0c0,3.88,1.57,12.27,12.5,13.14"/><ellipse class="cls-14" cx="5.5" cy="30.73" rx="4.5" ry="4.63"/><path class="cls-11" d="M127.8,105.54c0,3-2.88,5.79-7.53,7.8s-11.32,3.3-18.6,3.3a59.34,59.34,0,0,1-7.7-.49,40.18,40.18,0,0,0,10-2.68c4.63-2,7.51-4.74,7.53-7.77a52,52,0,0,0,11.07-6.8C125.87,100.75,127.8,103.05,127.8,105.54Z"/><path class="cls-11" d="M111.54,105.7c0,3-2.9,5.77-7.53,7.77a40.18,40.18,0,0,1-10,2.68,56.87,56.87,0,0,1-8.56.62c-14.43,0-26.13-5-26.13-11.1a6.16,6.16,0,0,1,2-4.29,50.32,50.32,0,0,0,15.17,7.09,50.87,50.87,0,0,0,13.64,1.84A51.79,51.79,0,0,0,111.54,105.7Z"/><path class="cls-12" d="M69.66,58.77a53.8,53.8,0,0,1,4.6-11.48c1.89-3.48,4.14-7.2,7.12-9.86a7.46,7.46,0,0,1,5.42-2.17,5,5,0,0,1,4.11,3.31c1.58,3.94-.11,8.76-1.79,12.37C87,55.59,84.29,60,81.76,64.48a1.25,1.25,0,0,0,2.16,1.26c2.6-4.58,5.38-9.14,7.55-13.94,1.88-4.16,3.54-9.39,1.85-13.89a7.57,7.57,0,0,0-10.22-4.5c-4.21,1.71-7.06,6.12-9.37,9.82A56.56,56.56,0,0,0,67.25,58.1a1.25,1.25,0,0,0,2.41.67Z"/><path class="cls-15" d="M142.86,49.77c-1-4.49,1.85-2.65,10.22,1.45,4.43,2.17,1.29,6.64.63,8.46-.56,1.54-11.22,5.79-10.54,3.71C144,60.87,143.48,52.55,142.86,49.77Z"/><path class="cls-12" d="M142,65.81a21.15,21.15,0,0,0,8.25-1.24c2.92-1.24,5.82-3.1,7.05-6.15a7.56,7.56,0,0,0-2.43-8.66c-1.75-1.44-3.86-1.81-6-2.18-1.45-.24-2.91-.44-4.37-.62l-1.74-.22-.71-.09-.44-.06a1.28,1.28,0,0,0-1.52.86,1.24,1.24,0,0,0,.86,1.52c1.77.26,3.55.44,5.32.69a29.91,29.91,0,0,1,5.85,1.19,1.1,1.1,0,0,1,.23.1,5.72,5.72,0,0,1,.58.37,6.74,6.74,0,0,1,1.46,1.41,4.8,4.8,0,0,1,1,3.63c-.46,3-3.19,4.61-5.68,5.79s-5.07,1.17-7.65,1.19a1.24,1.24,0,0,0,0,2.47Z"/><path class="cls-2" d="M61.79,103.17c8.9-10.71,27-7.82,33.48-7.22,8.39.77,16.91,8.92,16.36,10-6.52,12.68-41.71,14.66-48.39,3.29C62.71,108.33,60.34,104.91,61.79,103.17Z"/><path class="cls-3" d="M59.6,105.12c0,4.14,4.65,9,10.64,9.89,25.06,3.87,36.74-2.51,36.67-3,0-.28-5.67,2.84-21.29,3.2-10.82.24-16-2.26-19.35-6-.46-.52-2.33-1.62-1.9-4.23C65,101,59.59,100,59.6,105.12Z"/><path class="cls-6" d="M107.39,104.84c.48-.72-1-3.45-3.58-3.84-1.62-.26-3.57.45-3.61,1.23C100.11,103.7,106.65,106,107.39,104.84Z"/><path class="cls-11" d="M111.51,105.57v0c0,2.7-2.3,5.16-6.07,7.08l-.61.31-.85.38c-4.74,2-11.32,3.3-18.6,3.3-14.43,0-26.13-5-26.13-11.1a6,6,0,0,1,1.85-4.1,8.42,8.42,0,0,1,.8-.77s0,0,0,0a15.62,15.62,0,0,1,2.9-2c4.78-2.6,12.22-4.26,20.57-4.26C99.81,94.47,111.51,99.44,111.51,105.57Z"/></g></g></svg>