<svg xmlns="http://www.w3.org/2000/svg" viewBox="0 0 157.69 118.05"><defs><style>.cls-1,.cls-2{fill:#eca082;stroke:#eca082;}.cls-1,.cls-10,.cls-12,.cls-13,.cls-2,.cls-3,.cls-4,.cls-5,.cls-6,.cls-7,.cls-8,.cls-9{stroke-miterlimit:10;}.cls-1,.cls-4,.cls-5,.cls-6,.cls-7,.cls-8,.cls-9{stroke-width:0.75px;}.cls-2,.cls-3{stroke-width:0.75px;}.cls-3{fill:#f1876d;stroke:#f1876d;}.cls-4{fill:#d36e5b;stroke:#d36e5b;}.cls-5{fill:#ec6095;stroke:#ec6094;}.cls-6{fill:#e4b998;stroke:#e4b998;}.cls-7{fill:#1f1f1f;stroke:#1f1f1f;}.cls-8{fill:#582d29;stroke:#582d29;}.cls-9{fill:#4c4947;stroke:#494645;}.cls-10,.cls-12,.cls-13{fill:none;stroke:#1d1d1b;}.cls-10{stroke-width:2px;}.cls-11{fill:#1d1d1b;}.cls-12{stroke-width:2.03px;}.cls-13{stroke-width:2.03px;}</style></defs><g id="Capa_2" data-name="Capa 2"><g id="Capa_1" data-name="Capa 1"><path class="cls-1" d="M3.83,35.54c1.67.88,7.08-2.86,6.2-6.2C9.54,27.51,7.2,26,5.58,26.44,2.67,27.29,2,34.59,3.83,35.54Z"/><path class="cls-2" d="M56.87,30.44A13.8,13.8,0,0,1,46.61,18.25,13.65,13.65,0,0,1,53.77,5.09C61.2,1.29,68.6,7,69.64,7.8c1.46,1.16,4.55,3.62,5,7.35C75.63,22.55,66,32.55,56.87,30.44Z"/><path class="cls-2" d="M78.71,7.41C55.93,12.77,38.17,34.16,38.25,57.93c.09,24.51,19.13,39.14,21.68,41,14.73,10.93,35.9,14.67,53,6.38,13-6.28,19.76-17.59,21.68-20.9a54.38,54.38,0,0,0,6.77-19.55,50.41,50.41,0,0,0-2.32-25.35,51.14,51.14,0,0,0-13.93-20.13C114,9.63,96.51,3.22,78.71,7.41Z"/><path class="cls-3" d="M4.9,26.34c-.09-.05-4.45,5.1-2.81,7.46,1.11,1.58,4.46,1.25,4.55.87s-2.49-.49-3.39-2.23C2,30,5,26.39,4.9,26.34Z"/><path class="cls-3" d="M70.11,70c2.09-4.12,15.4-.58,24.57-4.21,2.95-1.16,3.34-1.84,5.4-7.44.27-.72.62,2-.1,3.81-.61,1.54.11,4.82-13.32,8.12-3,.74-13,2-14.21.16C72,69.83,69.67,70.91,70.11,70Z"/><path class="cls-3" d="M91,4.89C90.83,3.61,98.54-.29,105.61,2c5.62,1.81,9.42,7.07,8.71,8.13s-4.49-1.83-13-3.58C94.45,5.11,91.1,5.72,91,4.89Z"/><path class="cls-3" d="M53.39,4.45c-.28-.16-15,5.48-6.29,21.26,2.15,3.89,7.84,5.31,8.16,4.81s-3.9-2.21-5.75-6C45.39,16,53.64,4.6,53.39,4.45Z"/><path class="cls-3" d="M47.86,29C36.5,46.92,36,60.58,41.58,75.53,50.4,99.33,75.5,115.54,106,107c12.64-3.57,21.12-11.77,21.52-13.1.27-.9-8.83,7.92-22.73,9.62-16.23,2-40.14-5-50.8-25.4-11.51-22.08,2-47,2-47C52,30.48,48.54,27.94,47.86,29Z"/><path class="cls-3" d="M87.06,111c-3.41-.88-6.87-1.74-7.84-2-4-1.19,2,5.14,8,6.06,25.06,3.87,36.75-2.51,36.68-3,0-.28,5.77-5.19,4.13-7.23-1-1.28-.93-1.38-4.26-5.12-.47-.52-13,8.32-16.65,8.7C103,108.77,90.74,111.15,87.06,111Z"/><path class="cls-2" d="M62.48,103.28c27.32,9.3,25,7.41,31.48,8,8.39.77,18.92-6.31,18.36-5.23-6.51,12.68-41.71,14.65-48.38,3.29C63.41,108.44,60.34,102.55,62.48,103.28Z"/><path class="cls-3" d="M60.29,105.23c0,4.14,4.66,9,10.64,9.89,25.07,3.87,36.75-2.51,36.68-3,0-.28-5.68,2.84-21.29,3.19-10.83.25-16-2.25-19.36-6-.46-.52-2.32-1.62-1.9-4.22C65.71,101.05,60.29,100.06,60.29,105.23Z"/><path class="cls-4" d="M118.48,20.18c-5.08,2.44-4.48,12.35-1.42,19.36,3.2,7.33,10.07,13.39,14.58,11.22,2.43-1.16,2.52-3.83,2.19-6.45-1.29-10.32-3.53-16-9.29-22.19C122.61,20.05,121.23,18.87,118.48,20.18Z"/><path class="cls-4" d="M99,22.25c-5.08,2.43-4.48,12.34-1.42,19.35,3.2,7.34,10.07,13.39,14.58,11.23,2.43-1.17,3-4.35,2.71-7-1.29-10.32-3-16-8.78-22.19A5.65,5.65,0,0,0,99,22.25Z"/><path class="cls-5" d="M134.61,53.86c2.65-3.38,6.9-3,7.48-1.42.37,1,.94,2.38.65,2.58-3.31,2.29-8.24,1.54-8.65.13C134,54.7,134.32,54.23,134.61,53.86Z"/><path class="cls-5" d="M98.87,64.44c2.65-3.38,9.74-3.31,10.32-1.68.37,1-1.9,2.64-2.19,2.84-3.31,2.29-8.24,1.54-8.65.13C98.22,65.28,98.58,64.81,98.87,64.44Z"/><path class="cls-6" d="M6.44,29a1.35,1.35,0,0,0,.22,2A1.09,1.09,0,0,0,8,30.71c.32-.48-.11-1.23-.59-1.56C7.41,29.12,6.81,28.71,6.44,29Z"/><path class="cls-6" d="M59.45,9.67c-1.17,2.53,5.2,9.17,7.74,8.13,1.69-.7,3-5.35.19-8.13S60.21,8,59.45,9.67Z"/><path class="cls-6" d="M95.48,60.12c.43-.75-1.25-3.38-3.81-3.62-1.63-.16-3.53.67-3.53,1.45C88.14,59.42,94.81,61.28,95.48,60.12Z"/><path class="cls-7" d="M121.34,29.24c-4.58,3.5,2.57,20.39,7.49,20,3.22-.25,6.32-6.36,3.52-8.93-1.76-1.61-5.29.21-6.58-1.55-.8-1.09.81-2.25,1-5.42,0-.54.63-3.23-1.53-4.49A3.86,3.86,0,0,0,121.34,29.24Z"/><path class="cls-7" d="M103,32c-4.59,3.5,3.22,20,8.13,19.61,3.22-.25,6.07-7.52,3.26-10.09-1.76-1.61-5.29.22-6.58-1.54-.79-1.09.82-2.26,1-5.42a3,3,0,0,0-1.52-3.59C106.13,30.25,104,31.22,103,32Z"/><path class="cls-8" d="M118.22,66.64c3.51-3.08,8.8-6.3,13.52-2.56,2.43,1.93.73,9.55-4.62,10.49S115.89,68.67,118.22,66.64Z"/><path class="cls-9" d="M122.61,31.28a1.64,1.64,0,0,0,1,2.19,1.53,1.53,0,0,0,1.42-1.67A1.73,1.73,0,0,0,122.61,31.28Z"/><path class="cls-9" d="M104.41,32.7a1.53,1.53,0,0,0,1.17,2.06,1.37,1.37,0,0,0,1.42-1,1.4,1.4,0,0,0-.78-1.55A1.42,1.42,0,0,0,104.41,32.7Z"/><path class="cls-10" d="M74.47,18.49a15.21,15.21,0,1,0-30.42,0,18.53,18.53,0,0,0,4.37,11.15"/><path class="cls-10" d="M74.46,18.5a15.16,15.16,0,0,0-2.68-8.63A51.77,51.77,0,0,1,90.51,6.39c.8,0,1.6,0,2.39.06A52,52,0,0,1,123,99"/><path class="cls-10" d="M47.87,28.6c-6.66,9.7-9.82,19.45-9.39,29.82.75,17.92,9.65,33.75,23.22,43.1"/><path class="cls-10" d="M89.5,6.44a51.63,51.63,0,0,1,25.89,5.91A15.2,15.2,0,0,0,89.5,6.44Z"/><path class="cls-11" d="M48.07,90.4c-.8,2-1.58,4.46-3.15,6S41.49,97.25,40,96c-2.91-2.46-4.52-6.44-5.73-9.94-3.25-9.4-4-19.48-5.15-29.29-.59-4.94-1.22-9.9-2.28-14.76-1-4.38-2.23-8.93-4.69-12.73C20.65,27,17.12,23.11,14,25c-1.63,1-2.15,3.21-2.48,4.94-.43,2.24-.47,4.57-1.08,6.77a3.08,3.08,0,0,1-.36.9c-.14.23.11-.11.14,0s0,0-.19-.1-.29-.22-.44-.35a11.31,11.31,0,0,1-1.45-1.71c-.85-1.17-2.82,0-2,1.14,1,1.36,2.91,4.15,5,3.05,1.51-.81,1.7-3.12,1.91-4.61a34.68,34.68,0,0,1,1.18-6.57c.22-.62.55-1.43,1.14-1.61,1.81-.55,3.83,2,4.68,3.26C22.78,34.21,24,39.25,25,44c1.06,5.32,1.68,10.71,2.3,16.09,1.15,9.94,2.06,20.27,6,29.58,1.49,3.52,3.65,7.71,7.34,9.37,5.54,2.47,8.07-4,9.67-8,.54-1.36-1.65-1.94-2.19-.6Z"/><path class="cls-10" d="M130.9,39.09c3.7,2,2,9.48-1.43,10.54-3.24,1-8.5-4.38-9.57-13.07-.41-3.38.23-7.45,2.6-8.22,2.13-.69,5.55.9,5.51,4,0,2.76-2.7,4.31-2.13,5.26S128.82,38,130.9,39.09Z"/><path class="cls-12" d="M112.59,40.46c3.75,2.06,2.52,9.91-.92,11s-9.14-4.73-10.22-13.52c-.42-3.42.32-6.85,2.73-7.64,2.16-.7,5.52.22,5.48,3.35,0,2.8-2.74,4.37-2.16,5.33S110.48,39.31,112.59,40.46Z"/><path class="cls-12" d="M131.92,63.75c2.9,1.74-.79,10.18-5.65,10.64-4.51.42-10.34-6.62-7.59-8.56C126.06,60.61,125.62,60,131.92,63.75Z"/><path class="cls-10" d="M74.56,18.34a15.21,15.21,0,0,0-30.42,0c0,3.88,1.56,12.27,12.5,13.14"/><ellipse class="cls-13" cx="5.56" cy="30.99" rx="4.5" ry="4.63"/><path class="cls-10" d="M128.2,105.68c0,3-2.88,5.79-7.53,7.8s-11.32,3.3-18.6,3.3a59.34,59.34,0,0,1-7.7-.49,40.18,40.18,0,0,0,10-2.68c4.63-2,7.51-4.74,7.53-7.77A52,52,0,0,0,123,99C126.27,100.89,128.2,103.19,128.2,105.68Z"/><path class="cls-10" d="M111.94,105.84c0,3-2.9,5.77-7.53,7.77a40.18,40.18,0,0,1-10,2.68,56.87,56.87,0,0,1-8.56.62c-14.43,0-26.13-5-26.13-11.1a6.16,6.16,0,0,1,2-4.29,50.32,50.32,0,0,0,15.17,7.09,50.87,50.87,0,0,0,13.64,1.84A51.79,51.79,0,0,0,111.94,105.84Z"/><path class="cls-11" d="M70.07,55.62a53.17,53.17,0,0,1,13.19-1.29,51.34,51.34,0,0,1,6.67.6,17.72,17.72,0,0,1,5.8,1.66,6.4,6.4,0,0,1,3.35,4,5.45,5.45,0,0,1-2,5.1c-3,2.73-7.64,3.35-11.54,3.52-5,.22-10,0-15-.17-1.61,0-1.61,2.45,0,2.5,5.19.14,10.45.44,15.63.13,4.45-.26,9.43-1.17,12.79-4.34a7.6,7.6,0,0,0,.5-10.94c-3.19-3.44-8.58-4-13-4.34A56.36,56.36,0,0,0,69.41,53.2c-1.57.36-.91,2.77.66,2.42Z"/><path class="cls-3" d="M143.09,50c-1.05-4.5-2.61-2.05,7.15-.72,4.26.58,8.58,6.77,4.9,10.32-2.24,2.16-12.43,6.1-11.73,4C144.25,61.05,143.73,52.72,143.09,50Z"/><path class="cls-11" d="M142.44,66.62a14.86,14.86,0,0,0,6.71-1.35c2.24-1.15,4.8-2.31,6.43-4.29a7.48,7.48,0,0,0,1-8.5,9.4,9.4,0,0,0-5.8-4.3,57.52,57.52,0,0,0-7.48-1.48,1.3,1.3,0,0,0-1.54.88,1.25,1.25,0,0,0,.88,1.53c1.88.28,3.77.6,5.63,1s3.67.84,5.06,2.21A4.93,4.93,0,0,1,154,59c-1.32,1.87-3.65,2.79-5.6,3.85a12,12,0,0,1-5.92,1.27,1.25,1.25,0,0,0,0,2.5Z"/><path class="cls-2" d="M62,103.24c8.9-10.71,27-7.82,33.48-7.22,8.39.77,16.92,8.91,16.36,10-6.51,12.68-41.71,14.65-48.38,3.29C62.92,108.4,60.55,105,62,103.24Z"/><path class="cls-3" d="M59.8,105.19c0,4.14,4.66,9,10.64,9.89,25.06,3.87,36.75-2.51,36.68-3,0-.28-5.68,2.84-21.29,3.19-10.83.25-16-2.25-19.36-6-.46-.52-2.32-1.62-1.9-4.22C65.22,101,59.8,100,59.8,105.19Z"/><path class="cls-6" d="M107.6,104.91c.47-.72-1-3.45-3.59-3.85-1.62-.25-3.56.46-3.61,1.24C100.31,103.76,106.86,106,107.6,104.91Z"/><path class="cls-10" d="M111.71,105.64v0c0,2.7-2.3,5.16-6.07,7.08l-.61.31-.85.38c-4.74,2-11.32,3.3-18.6,3.3-14.43,0-26.13-5-26.13-11.1a6,6,0,0,1,1.85-4.1,8.42,8.42,0,0,1,.8-.77h0a15.62,15.62,0,0,1,2.9-2c4.78-2.6,12.22-4.26,20.57-4.26C100,94.54,111.71,99.51,111.71,105.64Z"/></g></g></svg>