<svg xmlns="http://www.w3.org/2000/svg" viewBox="0 0 157.69 118.05"><defs><style>.cls-1,.cls-2{fill:#eca082;stroke:#eca082;}.cls-1,.cls-10,.cls-12,.cls-13,.cls-2,.cls-3,.cls-4,.cls-5,.cls-6,.cls-7,.cls-8,.cls-9{stroke-miterlimit:10;}.cls-1,.cls-4,.cls-5,.cls-6,.cls-7,.cls-8,.cls-9{stroke-width:0.75px;}.cls-2,.cls-3{stroke-width:0.75px;}.cls-3{fill:#f1876d;stroke:#f1876d;}.cls-4{fill:#d36e5b;stroke:#d36e5b;}.cls-5{fill:#ec6095;stroke:#ec6094;}.cls-6{fill:#e4b998;stroke:#e4b998;}.cls-7{fill:#1f1f1f;stroke:#1f1f1f;}.cls-8{fill:#582d29;stroke:#582d29;}.cls-9{fill:#4c4947;stroke:#494645;}.cls-10,.cls-12,.cls-13{fill:none;stroke:#1d1d1b;}.cls-10{stroke-width:2px;}.cls-11{fill:#1d1d1b;}.cls-12{stroke-width:2.03px;}.cls-13{stroke-width:2.03px;}</style></defs><g id="Capa_9" data-name="Capa 9"><path class="cls-1" d="M3.79,45c1.66.88,7.07-2.85,6.19-6.19-.49-1.84-2.83-3.38-4.45-2.9C2.62,36.73,2,44,3.79,45Z"/><path class="cls-2" d="M56.82,30.46A13.72,13.72,0,0,1,53.72,5.1C61.15,1.3,68.55,7,69.59,7.81c1.46,1.17,4.55,3.63,5,7.36C75.58,22.57,66,32.57,56.82,30.46Z"/><path class="cls-2" d="M141.36,64.91a54.5,54.5,0,0,1-6.77,19.55c-1.92,3.3-8.67,14.61-21.68,20.9l-.76.36v0c0-6.13-11.7-11.1-26.13-11.1-8.35,0-15.79,1.66-20.57,4.26a15.62,15.62,0,0,0-2.9,2h0c-.91-.59-1.8-1.21-2.66-1.85-2.55-1.89-21.59-16.52-21.68-41C38.11,34.18,55.87,12.78,78.65,7.42c17.81-4.18,35.33,2.22,46.46,12A51.21,51.21,0,0,1,139,39.55,50.44,50.44,0,0,1,141.36,64.91Z"/><path class="cls-3" d="M4.85,35.78C4.76,35.73.4,40.87,2,43.23c1.11,1.59,4.46,1.26,4.55.87S4.1,43.61,3.2,41.88C2,39.46,4.93,35.82,4.85,35.78Z"/><path class="cls-3" d="M73.46,67.72c4.55-.83,9.77,11.91,18.2,17,2.71,1.64,3.48,1.55,9.19-.19.74-.23-1.23,1.7-3.1,2.22-1.59.44-3.77,3-14.51-5.71-2.42-2-9.39-9.14-8.71-11.22C74.77,69.11,72.5,67.89,73.46,67.72Z"/><path class="cls-3" d="M91,4.91C90.78,3.63,98.49-.27,105.56,2c5.62,1.81,9.42,7.06,8.71,8.13s-4.49-1.83-13-3.58C94.4,5.13,91.06,5.74,91,4.91Z"/><path class="cls-3" d="M53.34,4.47c-.28-.16-15,5.48-6.29,21.26,2.15,3.89,7.84,5.3,8.16,4.81s-3.9-2.22-5.75-6C45.34,16,53.59,4.62,53.34,4.47Z"/><path class="cls-3" d="M48.2,29C36.84,46.94,36.38,60.6,41.92,75.55c8.82,23.79,33.92,40,64.44,31.41,12.64-3.56,21.12-11.76,21.52-13.1.27-.9-8.83,7.93-22.73,9.63-16.23,2-40.14-5-50.8-25.4-11.51-22.08,2-47,2-47C52.34,30.49,48.88,28,48.2,29Z"/><path class="cls-3" d="M87,111c-3.4-.88-6.87-1.74-7.84-2-4-1.19,2,5.14,8,6.07,25.06,3.87,36.75-2.51,36.68-3,0-.28,5.77-5.2,4.13-7.23-1-1.28-.93-1.38-4.26-5.13-.46-.52-13,8.32-16.65,8.71C103,108.79,90.69,111.17,87,111Z"/><path class="cls-2" d="M62.43,103.3c8.9-10.71,27-7.82,33.48-7.23,8.39.78,16.92,8.92,16.37,10-6.52,12.67-41.72,14.65-48.39,3.29C63.36,108.46,61,105,62.43,103.3Z"/><path class="cls-3" d="M60.24,105.25c0,4.13,4.66,9,10.64,9.89,25.07,3.87,36.75-2.51,36.68-3,0-.28-5.67,2.83-21.29,3.19-10.83.25-16-2.26-19.36-6-.46-.52-2.32-1.62-1.9-4.23C65.66,101.07,60.24,100.08,60.24,105.25Z"/></g><g id="Capa_10" data-name="Capa 10"><path class="cls-4" d="M118.43,20.2C113.35,22.63,114,32.55,117,39.56c3.2,7.33,10.08,13.39,14.58,11.22,2.43-1.17,2.52-3.83,2.2-6.45-1.29-10.32-3.54-16-9.29-22.19C122.56,20.07,121.18,18.88,118.43,20.2Z"/><path class="cls-4" d="M99,22.27c-5.08,2.43-4.48,12.34-1.42,19.35C100.73,49,107.6,55,112.11,52.85c2.43-1.17,3-4.35,2.71-7-1.29-10.32-3-16.06-8.78-22.2A5.66,5.66,0,0,0,99,22.27Z"/><path class="cls-5" d="M134.56,53.88c2.66-3.38,6.9-3.05,7.48-1.42.37,1,.94,2.38.65,2.58-3.31,2.29-8.24,1.54-8.65.13C133.91,54.71,134.27,54.25,134.56,53.88Z"/><path class="cls-5" d="M98.82,64.46c2.65-3.38,9.74-3.31,10.32-1.68.37,1-1.9,2.64-2.19,2.84-3.31,2.29-8.24,1.54-8.65.13C98.17,65.29,98.53,64.83,98.82,64.46Z"/><path class="cls-6" d="M6.39,38.39a1.33,1.33,0,0,0,.22,2A1.08,1.08,0,0,0,8,40.14c.32-.47-.11-1.22-.59-1.55C7.36,38.56,6.76,38.15,6.39,38.39Z"/><path class="cls-6" d="M59.4,9.68c-1.17,2.54,5.2,9.18,7.74,8.13,1.7-.7,3-5.34.19-8.13S60.16,8,59.4,9.68Z"/><path class="cls-6" d="M96.69,81.94c.85-.1,1.93-3,.58-5.22-.86-1.4-2.67-2.41-3.29-1.94C92.81,75.67,95.36,82.11,96.69,81.94Z"/><path class="cls-6" d="M108,105c.48-.72-1-3.45-3.58-3.85-1.62-.25-3.57.45-3.62,1.23C100.75,103.82,107.3,106.08,108,105Z"/><path class="cls-7" d="M120.88,27.75c-4.58,3.5,3.22,25.93,8.13,25.55,3.23-.26,6.1-10.41,3.29-13-1.76-1.61-5.29.21-6.58-1.55-.8-1.09.81-2.26,1-5.42,0-.55.22-4.55-1.94-5.8A3.82,3.82,0,0,0,120.88,27.75Z"/><path class="cls-7" d="M102.56,28.91c-4.59,3.5,3.22,25.94,8.13,25.55,3.22-.25,6.09-10.4,3.29-13-1.76-1.61-5.29.21-6.58-1.55-.8-1.09.81-2.25,1-5.42,0-.55.22-4.55-1.94-5.8A3.82,3.82,0,0,0,102.56,28.91Z"/><path class="cls-8" d="M118.17,66.65c3.1.78,8.88-1.2,13.52-2.55,3-.87.73,9.55-4.61,10.49S115.17,65.9,118.17,66.65Z"/><path class="cls-9" d="M122.56,31.3a1.64,1.64,0,0,0,1,2.19A1.53,1.53,0,0,0,125,31.81,1.72,1.72,0,0,0,122.56,31.3Z"/><path class="cls-9" d="M104.37,32.72a1.52,1.52,0,0,0,1.16,2.06,1.37,1.37,0,1,0-1.16-2.06Z"/></g><g id="Capa_2" data-name="Capa 2"><g id="Capa_11" data-name="Capa 11"><path class="cls-10" d="M74.42,18.51a15.21,15.21,0,0,0-30.42,0,18.51,18.51,0,0,0,4.38,11.14"/><path class="cls-10" d="M74.41,18.51a15.16,15.16,0,0,0-2.68-8.63A51.77,51.77,0,0,1,90.46,6.4c.8,0,1.6,0,2.39.06A52,52,0,0,1,123,99.05"/><path class="cls-10" d="M47.82,28.61c-6.66,9.7-9.82,19.45-9.39,29.82.75,17.92,9.65,33.75,23.22,43.1"/><path class="cls-10" d="M89.45,6.46a51.52,51.52,0,0,1,25.89,5.91A15.19,15.19,0,0,0,89.45,6.46Z"/><path class="cls-11" d="M48,90.41C47,93,45.23,98.77,41.4,97c-2.41-1.13-4-3.75-5.14-6-3.37-6.61-4.64-14.23-5.64-21.51-1.1-8-1.72-16.15-3.16-24.15a59.05,59.05,0,0,0-3-11.16c-1.11-2.83-2.56-5.84-4.95-7.83C13,20.77,9.16,31.49,6.1,35.49c-.88,1.16,1.09,2.3,2,1.15,1.83-2.4,3-5.21,4.9-7.59.69-.9,1.69-2.09,2.94-2.08,1.55,0,2.91,1.6,3.76,2.75a29.59,29.59,0,0,1,4.28,10,103.19,103.19,0,0,1,2.25,12c1.1,8,1.73,16.08,3.14,24,1.18,6.64,2.86,14,7,19.54,1.67,2.25,4.23,4.66,7.27,4.24C47.45,99,49,94.12,50.21,91c.54-1.36-1.65-2-2.18-.61Z"/><path class="cls-10" d="M130.85,39.1c3.7,2,3.44,12.67,0,13.72-3.24,1-10-7.55-11-16.24-.41-3.38-.27-9.29,2.1-10.06,2.13-.69,6,2.73,6,5.82,0,2.77-2.7,4.32-2.13,5.27S128.77,38,130.85,39.1Z"/><path class="cls-12" d="M112.54,40.48c3.75,2.05,3.49,12.82,0,13.89-3.29,1-10.1-7.65-11.18-16.44-.42-3.43-.28-9.41,2.13-10.19,2.15-.7,6.12,2.76,6.08,5.89,0,2.81-2.73,4.37-2.16,5.34S110.43,39.33,112.54,40.48Z"/><path class="cls-12" d="M131.87,63.77c3.35-.45-.79,10.18-5.65,10.64-4.51.42-10.92-8-7.59-8.56C125.44,64.8,124.93,64.69,131.87,63.77Z"/><path class="cls-10" d="M74.51,18.35a15.21,15.21,0,0,0-30.42,0c0,3.88,1.56,12.28,12.5,13.15"/></g><g id="Capa_1" data-name="Capa 1"><ellipse class="cls-13" cx="5.51" cy="40.43" rx="4.5" ry="4.63"/><path class="cls-10" d="M128.15,105.69c0,3-2.88,5.79-7.53,7.8s-11.32,3.3-18.6,3.3a59.34,59.34,0,0,1-7.7-.49,40.18,40.18,0,0,0,10-2.68c4.63-2,7.51-4.74,7.53-7.77A52,52,0,0,0,123,99.05C126.22,100.9,128.15,103.2,128.15,105.69Z"/><path class="cls-10" d="M105.47,113.11l-1.11.51a40.18,40.18,0,0,1-10,2.68,56.87,56.87,0,0,1-8.56.62c-14.43,0-26.13-5-26.13-11.1a6.16,6.16,0,0,1,2-4.29l.09.06a6,6,0,0,0-1.85,4.1c0,6.13,11.7,11.1,26.13,11.1,7.28,0,13.86-1.26,18.6-3.3Z"/><path class="cls-11" d="M84.8,58.87a53.25,53.25,0,0,1,8.48,8.95c2.41,3.23,5,7,6.08,10.88A7.39,7.39,0,0,1,99,84.3a5,5,0,0,1-5,2.39c-4.13-.31-7.67-3.78-10.21-6.75-3.33-3.88-6.22-8.19-9.19-12.34-.93-1.3-3.1,0-2.16,1.26,3,4.22,6,8.56,9.31,12.53,2.92,3.47,6.81,7.06,11.49,7.71a7.57,7.57,0,0,0,8.89-6.76c.53-4.71-2.46-9.41-4.93-13.19A56,56,0,0,0,86.57,57.1c-1.22-1-3,.73-1.77,1.77Z"/><path class="cls-10" d="M112.15,105.69v0c0,2.7-2.3,5.16-6.07,7.08l-.61.31-.85.38c-4.74,2-11.32,3.3-18.6,3.3-14.43,0-26.13-5-26.13-11.1a6,6,0,0,1,1.85-4.1,8.42,8.42,0,0,1,.8-.77h0a15.62,15.62,0,0,1,2.9-2c4.78-2.6,12.22-4.26,20.57-4.26C100.45,94.59,112.15,99.56,112.15,105.69Z"/></g></g></svg>