<svg xmlns="http://www.w3.org/2000/svg" viewBox="0 0 157.69 118.05"><defs><style>.cls-1,.cls-2,.cls-3,.cls-6{fill:#eca082;}.cls-1,.cls-2,.cls-4,.cls-6{stroke:#eca082;}.cls-1,.cls-10,.cls-11,.cls-12,.cls-13,.cls-14,.cls-16,.cls-2,.cls-4,.cls-5,.cls-6,.cls-7,.cls-8,.cls-9{stroke-miterlimit:10;}.cls-1,.cls-10,.cls-11,.cls-12,.cls-7,.cls-8,.cls-9{stroke-width:0.75px;}.cls-2,.cls-4,.cls-5{stroke-width:0.75px;}.cls-13,.cls-14,.cls-16,.cls-4{fill:none;}.cls-5{fill:#f1876d;stroke:#f1876d;}.cls-6{stroke-width:0.77px;}.cls-7{fill:#d36e5b;stroke:#d36e5b;}.cls-8{fill:#ec6095;stroke:#ec6094;}.cls-9{fill:#e4b998;stroke:#e4b998;}.cls-10{fill:#1f1f1f;stroke:#1f1f1f;}.cls-11{fill:#582d29;stroke:#582d29;}.cls-12{fill:#4c4947;stroke:#494645;}.cls-13,.cls-14,.cls-16{stroke:#1d1d1b;}.cls-13{stroke-width:2px;}.cls-14{stroke-width:2.03px;}.cls-15{fill:#1d1d1b;}.cls-16{stroke-width:2.03px;}</style></defs><g id="Capa_2" data-name="Capa 2"><g id="Capa_4" data-name="Capa 4"><path class="cls-1" d="M3.73,31.27c1.66.88,7.07-2.85,6.19-6.19-.48-1.84-2.83-3.38-4.45-2.91C2.57,23,1.94,30.32,3.73,31.27Z"/><path class="cls-2" d="M55.21,32.24A13.8,13.8,0,0,1,45,20,13.62,13.62,0,0,1,52.12,6.88C59.55,3.08,66.94,8.76,68,9.59c1.46,1.17,4.55,3.63,5,7.36C74,24.35,64.39,34.35,55.21,32.24Z"/><path class="cls-3" d="M78.05,9.21C55.27,14.56,37.51,36,37.6,59.72c.09,24.51,19.13,39.14,21.68,41,14.73,10.93,35.89,14.67,53,6.39,13-6.28,19.76-17.59,21.68-20.9a54.63,54.63,0,0,0,6.77-19.55,50.45,50.45,0,0,0-2.32-25.36A51.16,51.16,0,0,0,124.5,21.21C113.37,11.42,95.86,5,78.05,9.21Z"/><path class="cls-4" d="M78.05,9.21C55.27,14.56,37.51,36,37.6,59.72c.09,24.51,19.13,39.14,21.68,41,14.73,10.93,35.89,14.67,53,6.39,13-6.28,19.76-17.59,21.68-20.9a54.63,54.63,0,0,0,6.77-19.55,50.45,50.45,0,0,0-2.32-25.36A51.16,51.16,0,0,0,124.5,21.21C113.37,11.42,95.86,5,78.05,9.21Z"/><path class="cls-3" d="M78.05,9.21C55.27,14.56,37.51,36,37.6,59.72c.09,24.51,19.13,39.14,21.68,41,14.73,10.93,35.89,14.67,53,6.39,13-6.28,19.76-17.59,21.68-20.9a54.63,54.63,0,0,0,6.77-19.55,50.45,50.45,0,0,0-2.32-25.36A51.16,51.16,0,0,0,124.5,21.21C113.37,11.42,95.86,5,78.05,9.21Z"/><path class="cls-3" d="M78.05,9.21C55.27,14.56,37.51,36,37.6,59.72c.09,24.51,19.13,39.14,21.68,41,14.73,10.93,35.89,14.67,53,6.39,13-6.28,19.76-17.59,21.68-20.9a54.63,54.63,0,0,0,6.77-19.55,50.45,50.45,0,0,0-2.32-25.36A51.16,51.16,0,0,0,124.5,21.21C113.37,11.42,95.86,5,78.05,9.21Z"/><path class="cls-3" d="M78.05,9.21C55.27,14.56,37.51,36,37.6,59.72c.09,24.51,19.13,39.14,21.68,41,14.73,10.93,35.89,14.67,53,6.39,13-6.28,19.76-17.59,21.68-20.9a54.63,54.63,0,0,0,6.77-19.55,50.45,50.45,0,0,0-2.32-25.36A51.16,51.16,0,0,0,124.5,21.21C113.37,11.42,95.86,5,78.05,9.21Z"/><path class="cls-5" d="M4.79,22.08C4.7,22,.34,27.17,2,29.53c1.1,1.58,4.46,1.26,4.55.87S4,29.91,3.15,28.17C1.9,25.76,4.87,22.12,4.79,22.08Z"/><path class="cls-5" d="M75.74,66.43c1.21-4.46-11-10.76-15.4-19.6-1.4-2.84-1.24-3.6,1-9.14.29-.72-1.81,1.07-2.49,2.89-.58,1.55-3.31,3.5,4.44,15,1.74,2.58,8.29,10.14,10.43,9.64C74.46,65,75.48,67.37,75.74,66.43Z"/><path class="cls-5" d="M90.15,6.69c-.17-1.28,7.54-5.18,14.61-2.9,5.62,1.81,9.42,7.06,8.71,8.12s-4.49-1.82-13-3.58C93.6,6.9,90.26,7.51,90.15,6.69Z"/><path class="cls-5" d="M53,6.51c-.27-.17-15,5.48-6.28,21.25,2.14,3.9,7.84,5.31,8.15,4.82s-3.9-2.22-5.74-6C45,18.08,53.28,6.66,53,6.51Z"/><path class="cls-5" d="M47.18,30.8C35.81,48.72,35.35,62.38,40.89,77.33c8.83,23.79,33.92,40,64.44,31.41C118,105.18,126.45,97,126.86,95.64c.26-.9-8.84,7.93-22.73,9.63-16.24,2-40.15-5-50.8-25.4-11.52-22.09,2-47,2-47C51.32,32.27,47.85,29.74,47.18,30.8Z"/><path class="cls-6" d="M121.76,100.3c8-7.7,6.09-4.33,15.23-18.45,2.16-3.35,8.56,1.64,8.8,2.85,2.68,13.21-30.67,33.09-43,27.21C100.19,110.66,115.44,106.37,121.76,100.3Z"/><path class="cls-2" d="M55.43,110.51c-3.25-10.33,27.68-29,37-27.22,3.79.7,6.6,2.52,6.66,3.73.77,14.23-28.62,33.7-40.11,27.25A7,7,0,0,1,55.43,110.51Z"/><path class="cls-5" d="M112.74,105.65c-3,5.19-21.71-3.39-10.83,5.94,6.32,5.42,41.73-7.81,43.46-24.06.08-.68-22.65,21.77-27.34,18.12S113.67,104,112.74,105.65Z"/><path class="cls-5" d="M66.92,94c-3.39,1-15.78,14.07-13.17,18.53,2.09,3.57,8.54,5.39,14.17,3.17,23.59-9.3,30.46-20.7,30.15-21.09-.17-.22-3.46,5.31-16.77,13.5-9.22,5.67-15,6.13-19.73,4.58a8.35,8.35,0,0,1-4.06-4.24C56,104.66,60.73,100.55,66.92,94Z"/><path class="cls-7" d="M117.61,22c-5.08,2.43-4.48,12.35-1.42,19.35,3.2,7.34,10.07,13.4,14.58,11.23,2.43-1.17,2.52-3.83,2.19-6.45-1.29-10.32-3.53-16.06-9.29-22.2C121.74,21.85,120.36,20.66,117.61,22Z"/><path class="cls-7" d="M98.25,24.17c-5.07,2.44-4.47,12.35-1.41,19.36,3.2,7.33,10.07,13.39,14.58,11.23,2.43-1.17,3-4.36,2.71-7-1.29-10.33-3-16.06-8.78-22.2A5.69,5.69,0,0,0,98.25,24.17Z"/><path class="cls-8" d="M134,55.91c2.65-3.37,6.9-3,7.48-1.41.37,1,.94,2.37.65,2.58-3.31,2.28-8.24,1.53-8.65.13C133.34,56.75,133.7,56.28,134,55.91Z"/><path class="cls-8" d="M97.21,66.24c2.66-3.38,9.74-3.31,10.33-1.68.36,1-1.91,2.64-2.2,2.84-3.3,2.29-8.24,1.54-8.64.13C96.57,67.07,96.92,66.61,97.21,66.24Z"/><path class="cls-9" d="M6.33,24.68a1.35,1.35,0,0,0,.22,2,1.11,1.11,0,0,0,1.39-.2c.31-.47-.11-1.22-.6-1.56C7.31,24.85,6.7,24.45,6.33,24.68Z"/><path class="cls-9" d="M57.79,11.46C56.63,14,63,20.64,65.54,19.59c1.69-.7,3-5.35.19-8.13S58.56,9.81,57.79,11.46Z"/><path class="cls-9" d="M62.85,41.27c.14-.85,3.11-1.81,5.24-.37,1.36.92,2.3,2.76,1.8,3.37C69,45.4,62.63,42.59,62.85,41.27Z"/><path class="cls-9" d="M84.57,89.75c.2,1.15,5.29,2.48,7.37,0,.7-.85,1.28-2.41.67-3.08C91.26,85.15,84.32,88.32,84.57,89.75Z"/><path class="cls-10" d="M120.06,29.53c-4.59,3.5,3.22,25.93,8.13,25.55,3.22-.26,6.09-10.41,3.29-13-1.76-1.61-5.29.21-6.58-1.55-.8-1.09.81-2.26,1-5.42,0-.55.22-4.55-1.94-5.81A3.84,3.84,0,0,0,120.06,29.53Z"/><path class="cls-10" d="M101.61,30.82c-4.59,3.5,3.22,25.93,8.13,25.55,3.22-.26,6.09-10.4,3.29-13-1.76-1.61-5.29.21-6.58-1.55-.8-1.09.81-2.26,1-5.42,0-.55.22-4.55-1.94-5.8A3.82,3.82,0,0,0,101.61,30.82Z"/><path class="cls-11" d="M118.3,67.65c.78-3,4.7-12.91,11.79-1.77,1.66,2.61.73,9.55-4.62,10.49S117.52,70.64,118.3,67.65Z"/><path class="cls-12" d="M121.74,33.08a1.64,1.64,0,0,0,1,2.19,1.53,1.53,0,0,0,1.42-1.68A1.72,1.72,0,0,0,121.74,33.08Z"/><path class="cls-12" d="M103.67,34.63a1.53,1.53,0,0,0,1.17,2.06,1.35,1.35,0,0,0,.64-2.58A1.42,1.42,0,0,0,103.67,34.63Z"/><path class="cls-13" d="M73.49,20.28a15.21,15.21,0,1,0-30.42,0,18.5,18.5,0,0,0,4.37,11.14"/><path class="cls-13" d="M73.49,20.28a15.16,15.16,0,0,0-2.68-8.63A51.77,51.77,0,0,1,89.54,8.17c.8,0,1.6,0,2.39.06a52.06,52.06,0,0,1,45.64,72"/><path class="cls-13" d="M46.9,30.38c-6.67,9.7-9.83,19.45-9.39,29.82a55.12,55.12,0,0,0,20.75,41.29"/><path class="cls-13" d="M79.67,111.28a51.54,51.54,0,0,0,9.87,1,52.24,52.24,0,0,0,11.87-1.36"/><path class="cls-13" d="M88.52,8.22a51.73,51.73,0,0,1,25.89,5.91A15.2,15.2,0,0,0,88.52,8.22Z"/><path class="cls-13" d="M129.92,40.87c3.7,2,3.44,12.66,0,13.72-3.24,1-10-7.56-11-16.24-.41-3.38-.27-9.29,2.1-10.07,2.13-.69,6,2.74,6,5.83,0,2.77-2.7,4.31-2.13,5.26S127.84,39.73,129.92,40.87Z"/><path class="cls-14" d="M111.61,42.24c3.75,2.06,3.48,12.83,0,13.9s-10.1-7.66-11.18-16.45c-.42-3.42-.28-9.41,2.13-10.19,2.15-.7,6.12,2.77,6.08,5.9,0,2.8-2.74,4.37-2.16,5.33S109.5,41.09,111.61,42.24Z"/><path class="cls-14" d="M130.94,65.53c1.71,2.92-.79,10.18-5.65,10.64-4.51.43-8.32-5.27-7.59-8.56C119.84,58,126.75,58.44,130.94,65.53Z"/><path class="cls-13" d="M96.66,96.91a40.13,40.13,0,0,1-6.79,7.33C89,105,88,105.81,87,106.58q-2,1.55-4.33,3c-1,.61-2,1.19-3,1.73-6.81,3.74-13.5,5.69-18.36,5.58-2.65-.06-4.77-.74-6.08-2.08l-.13-.23-.11-.16a5.94,5.94,0,0,0-.55-.67,5,5,0,0,1-.57-1.71,7.21,7.21,0,0,1,0-1.8,11.85,11.85,0,0,1,1-3.28,15.45,15.45,0,0,1,.87-1.72,27,27,0,0,1,2.58-3.72A51.39,51.39,0,0,1,70.88,90.71c1.53-.95,3.05-1.82,4.57-2.59h0l1.5-.72.55-.26c9.28-4.27,17.71-5,20.87-1.51a4.15,4.15,0,0,1,.42.52,1.63,1.63,0,0,1,.11.17,4.52,4.52,0,0,1,.58,1.35C100.16,90.15,99.08,93.41,96.66,96.91Z"/><path class="cls-13" d="M143.34,93.72a40.13,40.13,0,0,1-6.79,7.33c-.92.79-1.9,1.57-2.92,2.34-1.36,1-2.8,2-4.33,3-7.81,4.87-15.75,7.44-21.31,7.31-2.65-.06-4.77-.74-6.08-2.08a1.71,1.71,0,0,0-.13-.23,1.77,1.77,0,0,0-.12-.17,3.92,3.92,0,0,0-.25-.32,52.15,52.15,0,0,0,36.16-30.63c3.36-.16,6,.55,7.5,2.19a4.15,4.15,0,0,1,.42.52,1.63,1.63,0,0,1,.11.17,4.26,4.26,0,0,1,.57,1.35C146.84,87,145.76,90.22,143.34,93.72Z"/><path class="cls-15" d="M74.66,65.58a54.11,54.11,0,0,1-9-8.47C63.1,54,60.25,50.34,59,46.45a7.06,7.06,0,0,1,.23-5.52,5.16,5.16,0,0,1,5-2.41c4.13.26,7.78,3.51,10.49,6.36,3.5,3.68,6.63,7.76,9.83,11.71,1,1.25,2.77-.53,1.77-1.77-3.29-4-6.49-8.26-10.13-12-3.15-3.25-7.25-6.5-12-6.79a7.59,7.59,0,0,0-8.22,7.61c-.11,4.73,3.22,9.25,6,12.84A57,57,0,0,0,73.39,67.74c1.29,1,2.54-1.21,1.27-2.16Z"/><path class="cls-15" d="M49.38,94.21A20,20,0,0,1,46.45,100c-1.33,1.52-3,1.33-4.59.26C39.17,98.37,37.57,95,36.39,92c-3.33-8.31-4.31-17.39-5.33-26.21-.54-4.64-1-9.28-1.77-13.9A61.06,61.06,0,0,0,26.24,39c-.48-1.22-1.3-2.53-2.77-2.55-1.27,0-2.34,1-3.25,1.72-.17.14-.75.48-.8.66s1,.19,1,.26a5.44,5.44,0,0,0-.3-.84c-.31-1-.52-2.1-.75-3.16-.26-1.23-.51-2.46-.83-3.68a5,5,0,0,0-1-2.35c-1.06-1-2.74.09-3.75.67a15.36,15.36,0,0,1-2.18,1.19c-1.06.38-1.68-.19-2.35-1-.93-1.12-2.53.49-1.6,1.61a4.06,4.06,0,0,0,4.16,1.68,7.76,7.76,0,0,0,2-.88c.75-.43,1.64-.79,2.35-1.27s-.53-.17-.29-.48a2.64,2.64,0,0,0,.15.29c.08.39.28.89.39,1.33.29,1.11.52,2.24.76,3.37s.46,2.26.79,3.35a3.21,3.21,0,0,0,1.13,2c1.14.65,2.17-.67,3-1.31.3-.24,1-.91,1.39-.87s.84,1.47,1,1.89c3.05,9.23,3.63,19.17,4.8,28.75,1.08,8.92,2.29,18.26,6.37,26.39,1.51,3,3.82,6.57,7.28,7.51,5.1,1.37,7.25-4.76,8.71-8.4.54-1.35-1.65-1.94-2.19-.6Z"/><ellipse class="cls-16" cx="5.84" cy="26.58" rx="4.5" ry="4.63"/><path class="cls-13" d="M73.42,20.19a15.21,15.21,0,0,0-30.42,0c0,3.88,1.57,12.28,12.5,13.15"/></g></g></svg>