<svg xmlns="http://www.w3.org/2000/svg" viewBox="0 0 147.27 115.67"><defs><style>.cls-1,.cls-2,.cls-4{fill:#eca082;stroke:#eca082;}.cls-1,.cls-10,.cls-11,.cls-12,.cls-14,.cls-15,.cls-2,.cls-3,.cls-4,.cls-5,.cls-6,.cls-7,.cls-8,.cls-9{stroke-miterlimit:10;}.cls-1,.cls-10,.cls-11,.cls-5,.cls-6,.cls-7,.cls-9{stroke-width:0.75px;}.cls-2,.cls-3{stroke-width:0.75px;}.cls-3{fill:#f1876d;stroke:#f1876d;}.cls-4{stroke-width:0.77px;}.cls-5{fill:#d36e5b;stroke:#d36e5b;}.cls-6{fill:#ec6095;stroke:#ec6094;}.cls-7,.cls-8{fill:#e4b998;stroke:#e4b998;}.cls-8{stroke-width:0.6px;}.cls-9{fill:#1f1f1f;stroke:#1f1f1f;}.cls-10{fill:#582d29;stroke:#582d29;}.cls-11{fill:#4c4947;stroke:#494645;}.cls-12,.cls-14,.cls-15{fill:none;stroke:#1d1d1b;}.cls-12{stroke-width:2px;}.cls-13{fill:#1d1d1b;}.cls-14{stroke-width:2.03px;}.cls-15{stroke-width:2.03px;}</style></defs><g id="Capa_9" data-name="Capa 9"><path class="cls-1" d="M3.45,26.06c1.66.88,7.07-2.85,6.19-6.19C9.16,18,6.81,16.49,5.19,17,2.29,17.81,1.66,25.12,3.45,26.06Z"/><path class="cls-2" d="M54.4,30.32A13.8,13.8,0,0,1,44.14,18.13,13.65,13.65,0,0,1,51.3,5c7.43-3.79,14.82,1.88,15.87,2.71,1.46,1.17,4.55,3.63,5,7.36C73.16,22.43,63.57,32.43,54.4,30.32Z"/><path class="cls-2" d="M78.23,7.29C55.45,12.64,37.7,34,37.78,57.8c.09,24.52,19.13,39.14,21.68,41,14.73,10.93,35.9,14.66,53,6.38,13-6.28,19.76-17.59,21.68-20.9a54.38,54.38,0,0,0,6.77-19.55,50.41,50.41,0,0,0-2.32-25.35,51.14,51.14,0,0,0-13.93-20.13C113.56,9.5,96,3.1,78.23,7.29Z"/><path class="cls-3" d="M4.51,16.87C4.42,16.82.06,22,1.71,24.32c1.1,1.59,4.46,1.26,4.55.87S3.76,24.7,2.87,23C1.62,20.55,4.59,16.91,4.51,16.87Z"/><path class="cls-3" d="M83.6,69.06c-1-4.51-14.79-4.32-22.8-10.07-2.58-1.85-2.79-2.6-3.42-8.54-.08-.76-1.09,1.8-.84,3.72.22,1.64-1.28,4.65,10.94,11.12,2.75,1.46,12.08,5.06,13.74,3.62C81.8,68.41,83.81,70,83.6,69.06Z"/><path class="cls-3" d="M89.33,4.77c-.17-1.28,7.54-5.18,14.61-2.9,5.63,1.81,9.43,7.06,8.71,8.13s-4.49-1.83-13-3.58C92.78,5,89.44,5.6,89.33,4.77Z"/><path class="cls-3" d="M52.21,4.59c-.28-.17-15,5.48-6.29,21.25,2.15,3.9,7.84,5.31,8.16,4.82s-3.9-2.22-5.75-6C44.21,16.16,52.46,4.74,52.21,4.59Z"/><path class="cls-3" d="M47.36,28.88C36,46.8,35.53,60.46,41.08,75.41c8.82,23.79,33.91,40,64.43,31.41,12.65-3.56,21.13-11.76,21.53-13.1.27-.9-8.83,7.93-22.73,9.63-16.23,2-40.14-5-50.8-25.4-11.52-22.08,2-47,2-47C51.5,30.35,48,27.82,47.36,28.88Z"/><path class="cls-2" d="M55,108.63C51.74,98.29,82.69,79.7,92,81.44c3.78.71,6.59,2.52,6.66,3.73C99.41,99.4,70,118.85,58.52,112.39A6.91,6.91,0,0,1,55,108.63Z"/><path class="cls-3" d="M66.48,92.15c-3.39,1-15.79,14.07-13.18,18.53,2.08,3.57,8.53,5.4,14.17,3.18C91.07,104.58,98,93.18,97.64,92.79c-.18-.22-3.47,5.31-16.78,13.49-9.23,5.66-15,6.12-19.74,4.56a8.29,8.29,0,0,1-4-4.25C55.6,102.78,60.29,98.67,66.48,92.15Z"/><path class="cls-4" d="M121.53,98.63c8-7.71,6.09-4.34,15.22-18.45,2.17-3.35,8.56,1.64,8.81,2.85,2.67,13.21-30.67,33.09-43,27.2C100,109,115.2,104.69,121.53,98.63Z"/><path class="cls-3" d="M113.5,104.36c-3,5.2-20.3-4.42-9.42,4.91,6.33,5.42,33.58-7.8,42.06-23,.33-.59-22.65,21.77-27.35,18.12S114.44,102.73,113.5,104.36Z"/></g><g id="Capa_10" data-name="Capa 10"><path class="cls-5" d="M127.79,24.57c-5.6.55-8.42,10.08-7.93,17.71.5,8,4.9,16,9.87,15.52,2.68-.26,3.68-2.74,4.27-5.31,2.3-10.15,4-17.4-1.17-24C131.2,26.37,130.83,24.27,127.79,24.57Z"/><path class="cls-5" d="M108.12,20.25c-5.57.79-8,10.43-7.17,18,.85,8,5.59,15.8,10.54,15.09,2.66-.38,4.2-3.23,4.67-5.83,1.88-10.23,2-16.22-1.69-23.8A5.68,5.68,0,0,0,108.12,20.25Z"/><path class="cls-6" d="M133.56,59.8c2.65-3.38,6.9-3,7.48-1.42.37,1,.94,2.38.65,2.58-3.31,2.29-8.24,1.54-8.65.13C132.91,60.64,133.27,60.17,133.56,59.8Z"/><path class="cls-6" d="M99.52,60.58c3.08-3,10.09-2,10.46-.32.23,1.07-2.23,2.37-2.55,2.53-3.57,1.84-8.37.46-8.58-1C98.77,61.33,99.19,60.91,99.52,60.58Z"/><path class="cls-7" d="M6.05,19.47a1.35,1.35,0,0,0,.22,2,1.11,1.11,0,0,0,1.39-.2c.31-.47-.11-1.22-.6-1.56C7,19.65,6.42,19.24,6.05,19.47Z"/><path class="cls-7" d="M57,9.54c-1.17,2.54,5.2,9.18,7.74,8.13,1.69-.69,3-5.34.19-8.13S57.74,7.89,57,9.54Z"/><path class="cls-8" d="M60.27,52.88c-.24-.62,1.53-2.52,3.63-2.48,1.35,0,2.76.82,2.64,1.43C66.31,53,60.63,53.84,60.27,52.88Z"/><path class="cls-7" d="M84.14,87.89c.2,1.15,5.29,2.49,7.37,0,.7-.85,1.28-2.41.67-3.08C90.83,83.3,83.9,86.47,84.14,87.89Z"/><path class="cls-9" d="M126.93,31.64c-5.4,2-4.41,25.76.41,26.81,3.16.69,8.84-8.2,6.89-11.47-1.22-2-5.13-1.32-5.85-3.38-.45-1.27,1.43-1.93,2.49-4.91.18-.52,1.53-4.29-.18-6.12A3.83,3.83,0,0,0,126.93,31.64Z"/><path class="cls-9" d="M109.33,27.6c-5.43,2-4.73,25.7.07,26.81,3.15.72,8.94-8.09,7-11.38-1.2-2.07-5.11-1.39-5.81-3.46-.44-1.28,1.45-1.91,2.55-4.88.19-.51,1.58-4.27-.1-6.12A3.83,3.83,0,0,0,109.33,27.6Z"/><path class="cls-10" d="M113.17,67.29c3.58-1.31,2.42.69,7.07-.66,3-.87,7.41,6,2.06,7S110.26,68.34,113.17,67.29Z"/><path class="cls-11" d="M128.16,35.52a1.66,1.66,0,0,0,.35,2.4,1.54,1.54,0,0,0,1.85-1.19A1.73,1.73,0,0,0,128.16,35.52Z"/><path class="cls-11" d="M110.15,31.85a1.53,1.53,0,0,0,.49,2.31,1.37,1.37,0,0,0,1.66-.55A1.39,1.39,0,0,0,112,31.9,1.42,1.42,0,0,0,110.15,31.85Z"/></g><g id="Capa_2" data-name="Capa 2"><g id="Capa_8" data-name="Capa 8"><path class="cls-12" d="M73.39,18.09a15.21,15.21,0,0,0-30.42,0,18.51,18.51,0,0,0,4.38,11.14"/><path class="cls-12" d="M73.4,18.09a15.16,15.16,0,0,0-2.68-8.63A51.77,51.77,0,0,1,89.45,6c.8,0,1.6,0,2.39.06a52.06,52.06,0,0,1,45.64,72"/><path class="cls-12" d="M46.81,28.19C40.14,37.89,37,47.64,37.42,58A55.12,55.12,0,0,0,58.17,99.3"/><path class="cls-12" d="M79.58,109.09a51.54,51.54,0,0,0,9.87,1,52.24,52.24,0,0,0,11.87-1.36"/><path class="cls-12" d="M88.43,6A51.52,51.52,0,0,1,114.32,12,15.19,15.19,0,0,0,88.43,6Z"/><path class="cls-13" d="M47,90c-.9,2.27-2.43,7.52-5.73,6.86-2.27-.45-4-2.79-5.07-4.63-3.27-5.36-4.72-11.81-5.78-17.93-1.22-7-1.84-14.13-2.75-21.19-.45-3.54-1-7.07-1.68-10.57-.33-1.57-.69-3.13-1.13-4.68a12.68,12.68,0,0,0-1.13-3.36c-1.83-2.85-3.75,2-4.22,3.19-1,2.52-1.75,5.73-3.24,7.82,0,.06-.16.14-.18.2-.08.24-.08-.06,0,0-.14-.2.65.14.66.13l-.14-.26c-.13-.25-.24-.5-.34-.75-.67-1.66-1.18-3.38-1.71-5.08-.42-1.34-.78-2.72-1.32-4a1.56,1.56,0,0,0-1-1.06c-1.15-.32-1.43.77-1.54,1.61A31.87,31.87,0,0,1,10,40.4a7,7,0,0,1-.28.92c-.17.43-.25.22,0,.19s.46,0,.66,0,.09.2.07,0a3.66,3.66,0,0,0-.28-.52,13.19,13.19,0,0,1-.71-2.29A112.24,112.24,0,0,1,7.4,27c-.2-1.44-2.39-.83-2.18.6.35,2.44.71,4.89,1.14,7.31A36.6,36.6,0,0,0,8,41.52c.49,1.26,1.74,3.13,3.21,1.71a5.06,5.06,0,0,0,1.09-2.45c.18-.75.32-1.51.44-2.28.07-.46.14-.93.2-1.4,0-.27.07-.54.11-.81s0-.25-.25.28l-.8.34-.9-.48,0,0c-.06.12,0-.11,0,0a2.2,2.2,0,0,0,.2.54c.18.52.35,1,.51,1.58.43,1.33.83,2.67,1.27,4a35.86,35.86,0,0,0,1.31,3.59c.32.72.71,1.51,1.56,1.7,1.89.43,2.89-2.23,3.45-3.55,1-2.27,1.68-4.63,2.64-6.9a11.21,11.21,0,0,1,.52-1.11l.27-.45s.06,0,0,0a1.72,1.72,0,0,1-.6,0s-.5-.26-.44-.27.2.5.19.5c.41,1.27.8,2.54,1.12,3.84a130.06,130.06,0,0,1,2.76,16.64c1.25,10.5,2,21.45,5.83,31.39,1.49,3.81,3.61,8.46,7.45,10.43a5.21,5.21,0,0,0,6.33-.84c1.86-1.87,2.78-4.61,3.74-7,.54-1.35-1.65-1.94-2.19-.6Z"/><ellipse class="cls-14" cx="5.51" cy="21.38" rx="4.5" ry="4.63"/><path class="cls-12" d="M132.92,46c2.86,3.1-.75,13.11-4.31,13-3.4-.07-7.07-10.33-5.33-18.9.68-3.34,2.68-8.9,5.18-8.88,2.24,0,4.87,4.51,3.86,7.43-.91,2.61-3.94,3.23-3.7,4.32S131.3,44.3,132.92,46Z"/><path class="cls-15" d="M115.11,41.55c2.9,3.14-.76,13.27-4.36,13.19-3.44-.07-7.16-10.45-5.4-19.14.69-3.38,2.71-9,5.24-9,2.27,0,4.94,4.57,3.91,7.52-.92,2.65-4,3.28-3.74,4.38S113.48,39.79,115.11,41.55Z"/><path class="cls-15" d="M124.75,72.24c2-.88-.72-5.24-4.64-6-4.45-.86-9.36,1.7-7.16,4.26C117.59,75.92,118.75,75,124.75,72.24Z"/><path class="cls-12" d="M96.57,94.72a40.13,40.13,0,0,1-6.79,7.33c-.92.79-1.89,1.57-2.92,2.34q-2,1.55-4.33,3c-1,.61-2,1.19-3,1.73-6.81,3.74-13.5,5.69-18.36,5.58-2.65-.06-4.77-.74-6.08-2.08l-.13-.23-.11-.16a5.94,5.94,0,0,0-.55-.67,5,5,0,0,1-.57-1.71,7.21,7.21,0,0,1,0-1.8,11.85,11.85,0,0,1,.95-3.28,15.45,15.45,0,0,1,.87-1.72,27,27,0,0,1,2.58-3.72A51.39,51.39,0,0,1,70.79,88.52c1.53-1,3-1.82,4.57-2.59h0l1.5-.72.55-.26c9.28-4.27,17.71-5,20.87-1.51a4.15,4.15,0,0,1,.42.52,1.63,1.63,0,0,1,.11.17,4.52,4.52,0,0,1,.58,1.35C100.07,88,99,91.22,96.57,94.72Z"/><path class="cls-12" d="M143.25,91.53a40.13,40.13,0,0,1-6.79,7.33c-.92.79-1.9,1.57-2.92,2.34-1.36,1-2.8,2-4.33,3-7.81,4.87-15.75,7.44-21.31,7.31-2.65-.06-4.77-.74-6.08-2.08a1.71,1.71,0,0,0-.13-.23,1.77,1.77,0,0,0-.12-.17,3.92,3.92,0,0,0-.25-.32,52.15,52.15,0,0,0,36.16-30.63c3.36-.16,6,.55,7.5,2.19a4.15,4.15,0,0,1,.42.52,1.63,1.63,0,0,1,.11.17,4.26,4.26,0,0,1,.57,1.35C146.75,84.76,145.67,88,143.25,91.53Z"/><path class="cls-13" d="M82.81,67.69a53.42,53.42,0,0,1-12.46-2.33c-3.72-1.17-7.86-2.63-11-5.08s-4.31-6.81-.61-9.31,8.77-1.69,12.74-.74c4.94,1.19,9.79,2.91,14.63,4.49,1.53.49,2.19-1.92.66-2.42-5-1.64-10.13-3.49-15.32-4.64-4.51-1-10.11-1.52-14.13,1.25a7.56,7.56,0,0,0-2,10.67c2.5,3.76,7.31,5.63,11.36,7.16a55.89,55.89,0,0,0,16.1,3.45c1.61.11,1.6-2.39,0-2.5Z"/></g><g id="Capa_4" data-name="Capa 4"><path class="cls-12" d="M73.38,18.16a15.21,15.21,0,1,0-30.42,0c0,3.88,1.57,12.28,12.5,13.15"/></g></g></svg>