<svg xmlns="http://www.w3.org/2000/svg" viewBox="0 0 157.69 118.05"><defs><style>.cls-1,.cls-2{fill:#eca082;stroke:#eca082;}.cls-1,.cls-10,.cls-11,.cls-12,.cls-13,.cls-14,.cls-15,.cls-17,.cls-18,.cls-2,.cls-3,.cls-4,.cls-5,.cls-6,.cls-7,.cls-8,.cls-9{stroke-miterlimit:10;}.cls-1,.cls-11,.cls-12,.cls-14,.cls-6,.cls-7,.cls-8{stroke-width:0.75px;}.cls-2,.cls-3{stroke-width:0.75px;}.cls-3,.cls-4{fill:#f1876d;stroke:#f1876d;}.cls-4{stroke-width:0.73px;}.cls-5,.cls-6{fill:#d36e5b;stroke:#d36e5b;}.cls-10,.cls-13,.cls-5{stroke-width:0.57px;}.cls-7{fill:#ec6095;stroke:#ec6094;}.cls-8,.cls-9{fill:#e4b998;stroke:#e4b998;}.cls-9{stroke-width:0.54px;}.cls-10,.cls-11{fill:#1f1f1f;stroke:#1f1f1f;}.cls-12{fill:#582d29;stroke:#582d29;}.cls-13,.cls-14{fill:#4c4947;stroke:#494645;}.cls-15,.cls-17,.cls-18{fill:none;stroke:#1d1d1b;}.cls-15{stroke-width:2px;}.cls-16{fill:#1d1d1b;}.cls-17{stroke-width:2.03px;}.cls-18{stroke-width:1.74px;}</style></defs><g id="Capa_2" data-name="Capa 2"><g id="Capa_4" data-name="Capa 4"><path class="cls-1" d="M3.1,25.25c1.66.88,7.07-2.85,6.19-6.19-.48-1.84-2.83-3.38-4.45-2.91C1.94,17,1.31,24.3,3.1,25.25Z"/><path class="cls-2" d="M57.29,31.51A13.8,13.8,0,0,1,47,19.31,13.62,13.62,0,0,1,54.2,6.15C61.63,2.35,69,8,70.07,8.86c1.46,1.17,4.55,3.63,5,7.36C76.06,23.62,66.47,33.62,57.29,31.51Z"/><path class="cls-2" d="M80.13,8.48C57.35,13.83,39.59,35.23,39.68,59c.09,24.52,19.13,39.14,21.68,41,14.73,10.93,35.89,14.67,53,6.39,13-6.28,19.76-17.59,21.68-20.9A54.44,54.44,0,0,0,142.84,66a50.45,50.45,0,0,0-2.32-25.36,51.16,51.16,0,0,0-13.94-20.12C115.46,10.69,97.94,4.29,80.13,8.48Z"/><path class="cls-3" d="M4.17,16.06c-.1,0-4.46,5.09-2.81,7.45,1.1,1.58,4.46,1.26,4.55.87s-2.5-.49-3.39-2.23C1.28,19.74,4.24,16.1,4.17,16.06Z"/><path class="cls-3" d="M76.73,56.06c3,3.51-5.39,14.43-5.57,24.29-.06,3.17.41,3.79,4.79,7.85.56.52-2.09-.2-3.48-1.56C71.28,85.49,68,84.89,70.1,71.22c.48-3.07,3.18-12.7,5.33-13.17C76.18,57.89,76.09,55.31,76.73,56.06Z"/><path class="cls-3" d="M92.23,6c-.17-1.28,7.54-5.18,14.61-2.9,5.62,1.81,9.42,7.06,8.71,8.13s-4.49-1.83-13-3.59C95.68,6.17,92.34,6.78,92.23,6Z"/><path class="cls-3" d="M55.1,5.78c-.27-.17-15,5.48-6.28,21.25,2.15,3.9,7.84,5.31,8.16,4.82s-3.9-2.22-5.75-6C47.1,17.35,55.36,5.93,55.1,5.78Z"/><path class="cls-3" d="M49.26,30.07C37.89,48,37.43,61.65,43,76.6c8.83,23.79,33.92,40,64.44,31.41,12.65-3.56,21.13-11.76,21.53-13.1.27-.9-8.83,7.93-22.73,9.63-16.23,2-40.15-5-50.8-25.4-11.52-22.09,2-47,2-47C53.4,31.54,49.93,29,49.26,30.07Z"/><path class="cls-2" d="M100,102.92c2.41-10.56,38.51-11,45.68-4.84,2.91,2.52,4.42,5.51,3.87,6.59-6.52,12.67-41.72,14.65-48.39,3.29A7,7,0,0,1,100,102.92Z"/><path class="cls-3" d="M57.23,96.09c-5.08,3.14-15.35,4.51-8.9,12.9,4,5.26,39.35,12.39,48.64-1.06.39-.56-24.07,3.29-26.45-2.16S58.83,95.1,57.23,96.09Z"/><path class="cls-3" d="M118.75,94.15C115.34,93.27,98,98.34,98,103.51c0,4.13,4.65,9,10.64,9.89,25.06,3.87,36.74-2.51,36.67-3,0-.28-5.67,2.83-21.29,3.19-10.82.25-16-2.26-19.35-6a8.32,8.32,0,0,1-1.36-5.71C104,97.85,110.12,96.65,118.75,94.15Z"/><path class="cls-4" d="M143.44,66.31c-.27,2.77,4.31,6,8.63,5.37,3.62-.5,3.65-2.43,3.34-5.76-.24-2.52-1.16-6.14-3.1-7.64C139.34,48.26,144,61,143.44,66.31Z"/><path class="cls-5" d="M125.67,23.68c-3.87,1.85-3.28,7.2-1,12.54,2.44,5.58,7.54,12.38,11,10.74,1.85-.89,1.92-2.92,1.67-4.91-1-7.86-2.69-12.23-7.07-16.9C128.81,23.58,127.76,22.68,125.67,23.68Z"/><path class="cls-6" d="M109.36,22.41c-5.08,2.43-4.48,12.35-1.42,19.36C111.14,49.1,118,55.16,122.52,53c2.43-1.17,3.24-4.38,2.71-7-2.06-10.06-2.83-16.24-8.77-22.19A6,6,0,0,0,109.36,22.41Z"/><path class="cls-7" d="M137.49,48.86c2.65-3.38,4.45-3,5-1.42.37,1,.94,2.38.65,2.58-3.31,2.29-5.79,1.54-6.2.13C136.84,49.7,137.2,49.23,137.49,48.86Z"/><path class="cls-7" d="M108.71,60.73c2.66-3.37,9.75-3.3,10.33-1.67.37,1-1.91,2.63-2.2,2.84-3.3,2.28-8.24,1.53-8.64.12C108.07,61.57,108.42,61.1,108.71,60.73Z"/><path class="cls-8" d="M5.7,18.66a1.35,1.35,0,0,0,.22,2,1.11,1.11,0,0,0,1.39-.2c.31-.47-.11-1.22-.6-1.56C6.68,18.84,6.07,18.43,5.7,18.66Z"/><path class="cls-8" d="M59.88,10.73c-1.17,2.54,5.2,9.18,7.74,8.13,1.69-.7,3-5.35.19-8.13S60.64,9.08,59.88,10.73Z"/><path class="cls-9" d="M74.93,84c.18.59,2.41,1,3.8-.23.89-.79,1.4-2.21,1-2.59C78.93,80.41,74.65,83,74.93,84Z"/><path class="cls-8" d="M135.62,99.7c-.41,1.1,3.31,4.81,6.38,3.68,1-.38,2.32-1.44,2.13-2.32C143.71,99.1,136.12,98.35,135.62,99.7Z"/><path class="cls-10" d="M127.1,28.84c-3.49,2.66,2.45,19.74,6.19,19.44,2.45-.19,4.64-7.91,2.5-9.87-1.34-1.23-4,.16-5-1.18-.6-.83.62-1.71.74-4.12,0-.42.17-3.47-1.47-4.42A2.9,2.9,0,0,0,127.1,28.84Z"/><path class="cls-11" d="M112.26,28.67c-4.58,3.5,3.22,25.93,8.13,25.55,3.22-.26,6.1-10.4,3.29-13-1.76-1.61-5.29.21-6.58-1.55-.8-1.09.81-2.26,1-5.42,0-.55.22-4.55-1.94-5.8A3.82,3.82,0,0,0,112.26,28.67Z"/><path class="cls-12" d="M126.68,57.48c3.09.78,6.94-2.49,11.58-3.84,3-.87.83,8.35-4.51,9.29S123.68,56.73,126.68,57.48Z"/><path class="cls-13" d="M128.38,31.54a1.25,1.25,0,0,0,.78,1.67,1.17,1.17,0,0,0,1.08-1.28A1.31,1.31,0,0,0,128.38,31.54Z"/><path class="cls-14" d="M114.78,32.86a1.54,1.54,0,0,0,1.16,2.07,1.38,1.38,0,0,0,1.42-1,1.4,1.4,0,0,0-.78-1.55A1.42,1.42,0,0,0,114.78,32.86Z"/><path class="cls-15" d="M93.56,111.09a23.61,23.61,0,0,1-3,1.57,40.25,40.25,0,0,1-9.64,2.63,59.1,59.1,0,0,1-9,.67c-14.43,0-26.13-5-26.13-11.1a5.64,5.64,0,0,1,1.38-3.56A11.65,11.65,0,0,1,49.73,99a17,17,0,0,1,1.64-1,27.69,27.69,0,0,1,4.43-1.89,50.5,50.5,0,0,0,36.08,15Q92.72,111.12,93.56,111.09Z"/><path class="cls-15" d="M49.79,30.31c-.23-.26-.46-.54-.68-.84"/><path class="cls-15" d="M150,104.16a4.53,4.53,0,0,1-.23,1.45c-.75,2.46-3.4,4.66-7.3,6.35a40.25,40.25,0,0,1-9.64,2.63,59.1,59.1,0,0,1-9,.67c-9.2,0-17.3-2-22-5.07-2.22-1.46-3.66-3.16-4.06-5a2.44,2.44,0,0,0,0-.27,1.34,1.34,0,0,0,0-.2,4.82,4.82,0,0,0-.11-.85,5.69,5.69,0,0,1,1.37-3.29,11.65,11.65,0,0,1,2.54-2.28,17,17,0,0,1,1.64-1c4.78-2.6,12.22-4.26,20.57-4.26a57.29,57.29,0,0,1,6.93.4l.6.07C142,94.88,149.75,99,150,104A1.34,1.34,0,0,1,150,104.16Z"/><path class="cls-15" d="M49.24,29.27l-.13.2"/><path class="cls-16" d="M48.46,88.93c-.78,1.95-1.53,4.16-2.93,5.76s-3,1.34-4.59.27c-2.69-1.87-4.29-5.29-5.47-8.23-3.33-8.31-4.31-17.4-5.33-26.22-.54-4.64-1.05-9.28-1.77-13.89a61.15,61.15,0,0,0-3.05-12.95c-.48-1.21-1.3-2.53-2.77-2.54-1.27,0-2.34.95-3.25,1.71-.17.15-.75.48-.8.67s1,.19,1,.25a6.3,6.3,0,0,0-.3-.84c-.31-1-.52-2.1-.75-3.15-.26-1.23-.5-2.47-.83-3.68a5,5,0,0,0-1-2.36c-1.06-1-2.74.1-3.75.67a15.36,15.36,0,0,1-2.18,1.19c-1.06.39-1.68-.18-2.35-1-.93-1.13-2.53.49-1.6,1.6a4.08,4.08,0,0,0,4.16,1.69,8.51,8.51,0,0,0,2-.88c.75-.43,1.64-.8,2.35-1.28s-.53-.17-.29-.47a2.49,2.49,0,0,0,.15.28c.08.4.28.9.39,1.34.29,1.11.52,2.24.76,3.36s.46,2.26.79,3.36a3.21,3.21,0,0,0,1.13,2c1.14.66,2.17-.67,3-1.31.3-.24,1-.91,1.39-.86s.84,1.47,1,1.89c3.05,9.23,3.63,19.16,4.8,28.75C29.37,73,30.58,82.3,34.66,90.43c1.51,3,3.82,6.57,7.28,7.5,5.1,1.37,7.25-4.76,8.71-8.39.54-1.36-1.65-2-2.19-.61Z"/><ellipse class="cls-17" cx="5.58" cy="20.51" rx="4.5" ry="4.63"/><path class="cls-15" d="M73.15,10.54a15.16,15.16,0,0,1,2.68,8.63"/><path class="cls-15" d="M119.61,15.07A51.56,51.56,0,0,0,94.27,7.12l-.36,0c-1,0-2,0-3,0l0,0a51.64,51.64,0,0,0-17.77,3.47,15.21,15.21,0,0,0-27.74,8.63,18.52,18.52,0,0,0,3.7,10.3c-6.57,9.63-9.69,19.32-9.26,29.62a55.62,55.62,0,0,0,15.95,37,50.5,50.5,0,0,0,36.08,15q.84,0,1.68,0a51.33,51.33,0,0,0,8.56-1c-.68-.44-3.79-2.8-4.4-5.22-.49-2,1.43-4.16,1.6-4.37a11.65,11.65,0,0,1,2.54-2.28,17,17,0,0,1,1.64-1c4.78-2.6,12.22-4.26,20.57-4.26a57.29,57.29,0,0,1,6.93.4,52,52,0,0,0-11.39-78.31Zm7.81,12.68c1.66-.54,4.72,2.13,4.69,4.54,0,2.16-2.11,3.37-1.67,4.12s2.3.27,3.92,1.16c2.89,1.58,2.69,9.88,0,10.71s-7.78-5.9-8.61-12.68C125.46,33,125.56,28.35,127.42,27.75ZM122.13,54C118.84,55,112,46.32,111,37.52c-.42-3.42-.28-9.4,2.13-10.19,2.15-.7,6.12,2.77,6.08,5.9,0,2.81-2.74,4.37-2.16,5.34s3,.35,5.09,1.51C125.83,42.13,125.57,52.9,122.13,54Zm12.15,9.31c-3.77.93-10.27-5.45-7.51-6.31,5.64-1.74,5.19-1.77,11-3.42C140.52,52.74,138.35,62.28,134.28,63.28Z"/><path class="cls-15" d="M73.15,10.54a15.16,15.16,0,0,1,2.68,8.63"/><path class="cls-15" d="M90.92,7.07h1c.68,0,1.36,0,2,0"/><path class="cls-15" d="M116.76,13A51.55,51.55,0,0,0,93.91,7.1c-1,0-2,0-3,0l0,0a15.19,15.19,0,0,1,25.84,6Z"/><path class="cls-18" d="M134.28,63.28c-3.77.93-10.27-5.45-7.51-6.31,5.64-1.74,5.19-1.77,11-3.42C140.52,52.74,138.35,62.28,134.28,63.28Z"/><path class="cls-16" d="M89.37,61a53.78,53.78,0,0,1-3.1,12.29c-1.4,3.69-3.18,7.89-5.93,10.8s-7.11,3.46-9.24-.41-1-8.72.17-12.56c1.48-4.88,3.51-9.64,5.37-14.38.59-1.5-1.83-2.15-2.41-.67-1.92,4.89-4,9.78-5.5,14.83-1.29,4.41-2.13,9.82.21,14a7.57,7.57,0,0,0,10.57,3c4-2.19,6.18-7,7.93-11A57.09,57.09,0,0,0,91.87,61c.2-1.59-2.3-1.58-2.5,0Z"/><path class="cls-15" d="M75.6,19.14a15.21,15.21,0,1,0-30.42,0c0,3.88,1.57,12.27,12.5,13.14"/><path class="cls-15" d="M143.53,68c4.79,4.62,8.87,5.53,11.34,3.35s2-4.9.83-7.52c-2.3-5.22-5.8-7.6-12.45-10.58"/></g></g></svg>