<svg xmlns="http://www.w3.org/2000/svg" viewBox="0 0 144.61 117.17"><defs><style>.cls-1,.cls-2{fill:#eca082;stroke:#eca082;}.cls-1,.cls-10,.cls-11,.cls-12,.cls-13,.cls-15,.cls-16,.cls-17,.cls-2,.cls-3,.cls-4,.cls-5,.cls-6,.cls-7,.cls-8,.cls-9{stroke-miterlimit:10;}.cls-1,.cls-10,.cls-11,.cls-13,.cls-5,.cls-6,.cls-7{stroke-width:0.75px;}.cls-2,.cls-3{stroke-width:0.75px;}.cls-3{fill:#f1876d;stroke:#f1876d;}.cls-4,.cls-5{fill:#d36e5b;stroke:#d36e5b;}.cls-12,.cls-4{stroke-width:0.67px;}.cls-6{fill:#ec6095;stroke:#ec6094;}.cls-7,.cls-8{fill:#e4b998;stroke:#e4b998;}.cls-8{stroke-width:0.37px;}.cls-10,.cls-9{fill:#1f1f1f;stroke:#1f1f1f;}.cls-9{stroke-width:0.65px;}.cls-11{fill:#582d29;stroke:#582d29;}.cls-12,.cls-13{fill:#4c4947;stroke:#494645;}.cls-14{fill:#1d1d1b;}.cls-15,.cls-16,.cls-17{fill:none;stroke:#1d1d1b;}.cls-15{stroke-width:2.03px;}.cls-16{stroke-width:2px;}.cls-17{stroke-width:1.81px;}</style></defs><g id="Capa_9" data-name="Capa 9"><path class="cls-1" d="M3.53,28.18c1.67.88,7.08-2.86,6.2-6.2-.49-1.84-2.83-3.37-4.45-2.9C2.37,19.93,1.75,27.23,3.53,28.18Z"/><path class="cls-2" d="M57.21,30.31A13.82,13.82,0,0,1,47,18.11,13.65,13.65,0,0,1,54.12,5C61.55,1.15,68.94,6.83,70,7.66c1.46,1.17,4.54,3.62,5,7.36C76,22.42,66.39,32.42,57.21,30.31Z"/><path class="cls-2" d="M80.05,7.27C57.27,12.63,39.51,34,39.6,57.79c.09,24.51,19.13,39.14,21.68,41,14.73,10.93,35.89,14.67,53,6.39,13-6.29,19.76-17.59,21.68-20.9a54.83,54.83,0,0,0,6.77-19.55,50.45,50.45,0,0,0-2.32-25.36A51.23,51.23,0,0,0,126.5,19.27C115.37,9.49,97.86,3.09,80.05,7.27Z"/><path class="cls-3" d="M4.6,19c-.09-.05-4.45,5.09-2.81,7.46,1.11,1.58,4.46,1.25,4.55.87S3.85,26.82,3,25.08C1.71,22.66,4.68,19,4.6,19Z"/><path class="cls-3" d="M75.41,57.69C79.64,59.54,76.88,73,81,82c1.33,2.88,2,3.23,7.74,5,.74.22-2,.73-3.81.12-1.57-.52-4.81.39-8.88-12.83-.91-3-2.7-12.82-1-14.17C75.71,59.58,74.51,57.3,75.41,57.69Z"/><path class="cls-3" d="M92.15,4.76C92,3.48,99.69-.42,106.76,1.86c5.62,1.81,9.42,7.06,8.71,8.12S111,8.16,102.5,6.4C95.6,5,92.26,5.58,92.15,4.76Z"/><path class="cls-3" d="M55,4.57c-.27-.16-15,5.49-6.28,21.26,2.14,3.9,7.83,5.31,8.15,4.81s-3.9-2.21-5.75-6C47,16.15,55.27,4.73,55,4.57Z"/><path class="cls-3" d="M49.17,28.87C37.81,46.79,37.35,60.45,42.89,75.39c8.83,23.8,33.92,40,64.44,31.42,12.65-3.56,21.12-11.76,21.52-13.1.27-.9-8.83,7.93-22.72,9.63-16.24,2-40.15-5-50.81-25.41-11.51-22.08,2-47,2-47C53.32,30.34,49.85,27.81,49.17,28.87Z"/><path class="cls-1" d="M114.44,106.69c10.19-10.13,12.19-8.58,14.9-5.35,2.46,2.93,1.57,3.37.9,4.39-2.71,4.13-8.45,9.16-19.29,6.25C109.94,111.71,112.81,108.31,114.44,106.69Z"/><path class="cls-2" d="M64.09,103.72c2.41-10.56,38.52-11,45.68-4.84,2.91,2.52,4.42,5.51,3.87,6.58-6.52,12.68-41.72,14.66-48.39,3.29A7,7,0,0,1,64.09,103.72Z"/><path class="cls-3" d="M103.53,113.08c-6.47,2.42,14.23,6.84,26.33-5,.48-.48-24.13,5.74-17.29,1.22"/><path class="cls-3" d="M82.81,94.85C79.41,94,62.08,99,62.09,104.21c0,4.13,4.65,9,10.64,9.89,25.06,3.87,36.74-2.51,36.68-3,0-.28-5.68,2.83-21.29,3.19-10.83.25-16-2.26-19.36-6a8.33,8.33,0,0,1-1.35-5.71C68.06,98.55,74.18,97.36,82.81,94.85Z"/></g><g id="Capa_10" data-name="Capa 10"><path class="cls-4" d="M126.7,21.14c-4.79,1.57-4,10.26-2.13,16.84,2,6.89,6,13.25,10.24,11.85,2.29-.75,2.68-3.11,2.7-5.47.06-9.31-2-14.32-6.43-20.44C129.61,21.86,129.3,20.3,126.7,21.14Z"/><path class="cls-5" d="M110.53,20.7c-5.34,1.77-6,11.68-3.84,19,2.25,7.68,8.31,14.55,13.06,13,2.55-.85,3.55-3.93,3.56-6.57,0-10.4-1-16.31-5.92-23.12A5.67,5.67,0,0,0,110.53,20.7Z"/><path class="cls-6" d="M136,54c2.65-3.37,6.9-3,7.48-1.42.37,1,.94,2.38.65,2.59-3.31,2.28-8.24,1.53-8.65.12C135.34,54.82,135.7,54.35,136,54Z"/><path class="cls-6" d="M106.89,61.53c2.66-3.38,9.74-3.31,10.32-1.67.37,1-1.9,2.63-2.19,2.83-3.31,2.29-8.24,1.54-8.65.13C106.24,62.37,106.6,61.9,106.89,61.53Z"/><path class="cls-7" d="M6.14,21.59a1.35,1.35,0,0,0,.22,2,1.09,1.09,0,0,0,1.38-.2c.32-.48-.11-1.23-.59-1.56C7.11,21.76,6.51,21.35,6.14,21.59Z"/><path class="cls-7" d="M59.79,9.53c-1.16,2.54,5.2,9.18,7.74,8.13,1.7-.7,3-5.35.2-8.13S60.55,7.88,59.79,9.53Z"/><path class="cls-7" d="M86.16,83.72c.8.31,3.14-1.76,3-4.33-.1-1.64-1.2-3.39-2-3.27C85.71,76.35,84.91,83.23,86.16,83.72Z"/><path class="cls-8" d="M125.7,100.94c-.36.24-.25,1.78.8,2.31.61.31,1.5.26,1.65-.09C128.43,102.5,126.22,100.6,125.7,100.94Z"/><path class="cls-7" d="M99.73,100.5c-.41,1.09,3.32,4.81,6.39,3.68,1-.39,2.32-1.44,2.12-2.32C107.82,99.9,100.24,99.15,99.73,100.5Z"/><path class="cls-9" d="M127.89,28.67c-4.37,2.51-.17,22.84,4.13,23.07,2.82.14,6.47-8.32,4.33-10.86-1.34-1.6-4.61-.42-5.52-2.1-.57-1,1-1.86,1.45-4.58.09-.47.72-3.92-1-5.25A3.36,3.36,0,0,0,127.89,28.67Z"/><path class="cls-10" d="M113,27.71c-5,2.9-.06,26.14,4.86,26.37,3.23.15,7.35-9.55,4.89-12.45-1.54-1.82-5.28-.46-6.33-2.36-.66-1.19,1.09-2.14,1.64-5.26.09-.54.79-4.49-1.19-6A3.84,3.84,0,0,0,113,27.71Z"/><path class="cls-11" d="M123.86,60.69c3,1.21,9,.07,13.74-.62,3.07-.43-.63,9.56-6,9.74S121,59.53,123.86,60.69Z"/><path class="cls-12" d="M129.07,31.48a1.48,1.48,0,0,0,.66,2.07,1.38,1.38,0,0,0,1.46-1.33A1.55,1.55,0,0,0,129.07,31.48Z"/><path class="cls-13" d="M114.59,31.75a1.53,1.53,0,0,0,.9,2.19A1.37,1.37,0,0,0,117,33.1a1.4,1.4,0,0,0-.57-1.64A1.42,1.42,0,0,0,114.59,31.75Z"/></g><g id="Capa_2" data-name="Capa 2"><path class="cls-14" d="M49.06,91.18c-.86,2.14-2.3,7.15-5.34,6.92-2.1-.16-3.83-2.22-4.92-3.83C35.52,89.43,34,83.4,32.89,77.74,30.33,64.67,30.51,51,26.67,38.19c-.48-1.6-.82-3-2.38-3.76a11.27,11.27,0,0,0-4-1,32.62,32.62,0,0,0-9.8.68,7.35,7.35,0,0,0-3,1.12,1.51,1.51,0,0,0,.06,2.54,3.66,3.66,0,0,0,2.36.11,25.82,25.82,0,0,0,3.68-.85c2.68-.81,6.26-2,7.93-4.39,2.18-3.19-1.86-5.43-4.32-6.43-1.18-.49-2.05,1.56-.87,2.07.18.07.65.41.75.42s-.08-.2,0-.19c-.16,0,.44-.14-.05,0-.2.06-.43.3-.64.39a4.77,4.77,0,0,1-1.28.35,6.54,6.54,0,0,1-6.14-2.44c-.93-1.13-2.52.48-1.61,1.61a8.75,8.75,0,0,0,9.36,2.77,3.62,3.62,0,0,0,2.56-2.13c.36-1.3-.68-2.27-1.77-2.74l-.87,2.07c1.05.43,2.76,1.07,3.24,2.22a.64.64,0,0,1,0,.5,3.24,3.24,0,0,1-.7.85c-1.78,1.6-4.42,2.41-6.68,3a22.62,22.62,0,0,1-3.09.68,4.38,4.38,0,0,0-.86.05s.23,0,.4.2-.06,1,0,1.08-.09,0,.2-.12.13-.07.34-.14a10.46,10.46,0,0,1,1.66-.46,28.86,28.86,0,0,1,4.14-.59c2.48-.19,5.78-.5,8.08.7a1.53,1.53,0,0,1,.62.53A18.42,18.42,0,0,1,25,40.73a90.34,90.34,0,0,1,1.83,9.21c1.83,12,2.11,24.31,5.71,35.91C34,90.51,36.05,96,40.18,99c2,1.43,4.58,1.93,6.64.37,2.35-1.77,3.38-5,4.42-7.6.54-1.35-1.65-1.94-2.18-.6Z"/><ellipse class="cls-15" cx="5.51" cy="23.56" rx="4.5" ry="4.63"/><g id="Capa_4" data-name="Capa 4"><path class="cls-16" d="M49.48,29.23c-.23-.26-.46-.54-.68-.83"/><path class="cls-17" d="M119.31,14A51.56,51.56,0,0,0,94,6h-.36c-1,0-2,0-3,0l0,0A51.58,51.58,0,0,0,72.85,9.46a15.21,15.21,0,0,0-27.74,8.63A18.51,18.51,0,0,0,48.8,28.4C42.22,38,39.11,47.7,39.55,58c.76,18.17,9.9,34.19,23.8,43.5a11.65,11.65,0,0,1,2.54-2.28,17,17,0,0,1,1.64-1C72.31,95.63,79.75,94,88.1,94a58.65,58.65,0,0,1,7.53.47c10.62,1.35,18.39,5.5,18.59,10.43A52,52,0,0,0,119.31,14Zm-5.24,12.7c2.22-.42,5.71,3.53,5.27,6.63-.39,2.77-3.28,4-2.83,5s2.91.74,4.85,2.15c3.45,2.52,1.81,13.17-1.75,13.79-3.39.58-9-8.89-9-17.75C110.67,33.07,111.58,27.15,114.07,26.69Zm16.49,43.39c-4.53-.16-9.79-9.39-6.42-9.47,6.88-.16,6.39-.33,13.39-.35C140.91,60.25,135.44,70.26,130.56,70.08Zm2.88-18.28c-3,.52-8.07-7.93-8-15.84,0-3.07.83-8.36,3.05-8.78,2-.37,5.1,3.16,4.71,5.92-.35,2.48-2.93,3.55-2.53,4.48s2.59.66,4.33,1.92C138.08,41.75,136.61,51.25,133.44,51.8Z"/><path class="cls-16" d="M90.61,6h1c.68,0,1.36,0,2,0"/><path class="cls-16" d="M48.94,28.19l-.14.21"/><path class="cls-16" d="M116.45,12A51.34,51.34,0,0,0,93.72,6h-.11c-1,0-2,0-3,0l0,0a15.19,15.19,0,0,1,25.84,6Z"/><path class="cls-16" d="M114.23,105.07a4.53,4.53,0,0,1-.23,1.45c-.75,2.46-3.4,4.66-7.3,6.35a40.25,40.25,0,0,1-9.64,2.63,59.1,59.1,0,0,1-9,.67c-14.43,0-26.13-5-26.13-11.1a5.64,5.64,0,0,1,1.38-3.56,11.65,11.65,0,0,1,2.54-2.28,17,17,0,0,1,1.64-1C72.31,95.63,79.75,94,88.1,94a58.65,58.65,0,0,1,7.53.47c10.62,1.35,18.39,5.5,18.59,10.43A1.34,1.34,0,0,1,114.23,105.07Z"/><path class="cls-16" d="M130.68,104.87a4.53,4.53,0,0,1-.23,1.45c-.75,2.46-3.4,4.66-7.3,6.35-4.74,2-11.32,3.3-18.6,3.3a58,58,0,0,1-7.49-.47,40.25,40.25,0,0,0,9.64-2.63c3.9-1.69,6.55-3.89,7.3-6.35a4.53,4.53,0,0,0,.23-1.45,1.34,1.34,0,0,0,0-.2,52.07,52.07,0,0,0,10.72-6.94C128.53,99.83,130.68,102.25,130.68,104.87Z"/><path class="cls-14" d="M89,56.78a53.47,53.47,0,0,1,2.28,13c.19,4,.35,8.79-1.27,12.56a6.49,6.49,0,0,1-3.68,3.74,5.39,5.39,0,0,1-5.26-1.52c-3-2.81-4-7.32-4.42-11.22-.58-4.94-.7-10-.93-14.93-.07-1.6-2.57-1.61-2.5,0,.25,5.19.34,10.45,1,15.6.57,4.39,1.81,9.35,5.21,12.46,3.22,2.94,7.9,3.09,11-.18,3.2-3.44,3.37-8.79,3.44-13.23a56.25,56.25,0,0,0-2.43-17c-.47-1.53-2.88-.88-2.41.67Z"/><path class="cls-16" d="M75.74,18.16a15.21,15.21,0,1,0-30.42,0c0,3.88,1.57,12.28,12.51,13.15"/></g></g></svg>