<svg xmlns="http://www.w3.org/2000/svg" viewBox="0 0 157.69 118.05"><defs><style>.cls-1,.cls-2{fill:#eca082;stroke:#eca082;}.cls-1,.cls-10,.cls-11,.cls-13,.cls-2,.cls-3,.cls-4,.cls-5,.cls-6,.cls-7,.cls-8,.cls-9{stroke-miterlimit:10;}.cls-1,.cls-4,.cls-5,.cls-6,.cls-7,.cls-8,.cls-9{stroke-width:0.75px;}.cls-2,.cls-3{stroke-width:0.75px;}.cls-3{fill:#f1876d;stroke:#f1876d;}.cls-4{fill:#d36e5b;stroke:#d36e5b;}.cls-5{fill:#ec6095;stroke:#ec6094;}.cls-6{fill:#e4b998;stroke:#e4b998;}.cls-7{fill:#1f1f1f;stroke:#1f1f1f;}.cls-8{fill:#582d29;stroke:#582d29;}.cls-9{fill:#4c4947;stroke:#494645;}.cls-10,.cls-11,.cls-13{fill:none;stroke:#1d1d1b;}.cls-10{stroke-width:2px;}.cls-11{stroke-width:2.03px;}.cls-12{fill:#1d1d1b;}.cls-13{stroke-width:2.03px;}</style></defs><g id="Capa_2" data-name="Capa 2"><path class="cls-1" d="M3.59,26.39c1.66.88,7.07-2.85,6.19-6.19C9.29,18.36,7,16.82,5.33,17.29,2.42,18.14,1.8,25.44,3.59,26.39Z"/><path class="cls-2" d="M56.88,30.45A13.8,13.8,0,0,1,46.62,18.26,13.63,13.63,0,0,1,53.78,5.1C61.21,1.3,68.6,7,69.65,7.81c1.46,1.16,4.55,3.62,5,7.35C75.64,22.56,66.05,32.56,56.88,30.45Z"/><path class="cls-2" d="M79.71,7.42C56.93,12.78,39.17,34.17,39.26,57.94c.09,24.51,19.13,39.14,21.68,41,14.73,10.93,35.9,14.67,53,6.39,13-6.29,19.76-17.6,21.68-20.91a54.4,54.4,0,0,0,6.77-19.54,50.44,50.44,0,0,0-2.32-25.36,51.14,51.14,0,0,0-13.93-20.13C115,9.64,97.52,3.23,79.71,7.42Z"/><path class="cls-3" d="M4.65,17.2c-.09-.06-4.45,5.09-2.81,7.45C3,26.23,6.3,25.9,6.39,25.52S3.9,25,3,23.29C1.76,20.88,4.73,17.24,4.65,17.2Z"/><path class="cls-3" d="M77.27,72.81c3.53-3,14.39,5.51,24.24,5.77,3.17.09,3.8-.38,7.89-4.73.53-.56-.22,2.09-1.59,3.47-1.16,1.18-1.79,4.48-15.43,2.24-3.08-.5-12.68-3.28-13.13-5.43C79.09,73.37,76.52,73.44,77.27,72.81Z"/><path class="cls-3" d="M91.81,4.91C91.64,3.63,99.35-.28,106.42,2c5.63,1.81,9.43,7.07,8.71,8.13s-4.49-1.82-13-3.58C95.26,5.12,91.92,5.73,91.81,4.91Z"/><path class="cls-3" d="M54.68,4.72c-.27-.16-15,5.48-6.28,21.26,2.15,3.89,7.84,5.31,8.16,4.81s-3.9-2.21-5.75-6C46.69,16.3,54.94,4.87,54.68,4.72Z"/><path class="cls-3" d="M48.84,29C37.47,46.93,37,60.6,42.55,75.54c8.83,23.8,33.92,40,64.44,31.42,12.65-3.56,21.13-11.77,21.53-13.1.27-.9-8.83,7.92-22.73,9.62-16.23,2-40.14-5-50.8-25.4-11.52-22.08,2-47,2-47C53,30.49,49.51,28,48.84,29Z"/><path class="cls-1" d="M112.15,106.68c18.58-7.23,22.61-25.15,29.42-28,3.52-1.48,13,.71,13.31,1.9,3.19,14-30.15,35.62-42.47,30.74C111.43,110.94,110,107.51,112.15,106.68Z"/><path class="cls-2" d="M59.43,104.45c2.41-10.56,38.52-11,45.68-4.84,2.91,2.52,4.42,5.5,3.87,6.58-6.52,12.68-41.72,14.65-48.39,3.29A7,7,0,0,1,59.43,104.45Z"/><path class="cls-3" d="M114.23,103.55c-3.35,5-4.59,2.28-2.19,5.55,8.9,12.13,37.93-10.58,41.67-19.23,1.7-3.91-24.77,18.33-32.25,19.49C108,111.45,115.29,102,114.23,103.55Z"/><path class="cls-3" d="M77.67,96c-3.41-.88-20.73,4.2-20.72,9.36,0,4.14,4.65,9,10.64,9.89,25.06,3.87,36.74-2.51,36.67-3,0-.28-5.67,2.84-21.29,3.19-10.82.25-16-2.25-19.35-6a8.32,8.32,0,0,1-1.36-5.71C62.91,99.71,69,98.52,77.67,96Z"/><path class="cls-4" d="M119.78,20.2c-5.08,2.43-4.48,12.34-1.42,19.35,3.2,7.33,10.07,13.39,14.58,11.23,2.43-1.17,2.52-3.84,2.19-6.46-1.29-10.32-3.53-16-9.29-22.19C123.91,20.07,122.53,18.88,119.78,20.2Z"/><path class="cls-4" d="M100.68,22.39c-5.08,2.43-4.48,12.35-1.42,19.35,3.2,7.34,10.08,13.39,14.58,11.23,2.43-1.17,3-4.35,2.71-7-1.29-10.32-3-16-8.77-22.19A5.67,5.67,0,0,0,100.68,22.39Z"/><path class="cls-5" d="M135.65,54.13c2.66-3.38,6.9-3.05,7.48-1.42.37,1,.94,2.38.65,2.58-3.31,2.29-8.24,1.54-8.65.13C135,55,135.36,54.5,135.65,54.13Z"/><path class="cls-5" d="M105.71,60.71c2.66-3.38,9.75-3.31,10.33-1.68.37,1-1.91,2.64-2.2,2.84-3.3,2.29-8.24,1.54-8.64.13C105.07,61.55,105.42,61.08,105.71,60.71Z"/><path class="cls-6" d="M6.19,19.8a1.35,1.35,0,0,0,.22,2,1.09,1.09,0,0,0,1.38-.2c.32-.48-.11-1.23-.59-1.56C7.16,20,6.56,19.56,6.19,19.8Z"/><path class="cls-6" d="M59.46,9.68c-1.17,2.53,5.2,9.18,7.74,8.13,1.69-.7,3-5.35.19-8.13S60.22,8,59.46,9.68Z"/><path class="cls-6" d="M103.07,76.91c.86-.11,1.93-3,.58-5.23-.86-1.39-2.67-2.41-3.29-1.94C99.19,70.63,101.74,77.07,103.07,76.91Z"/><path class="cls-6" d="M144.44,81.14c-.17.85,2.18,2.83,4.42,2.08,1.29-.43,2.47-1.76,2.17-2.47C150.48,79.43,144.68,79.92,144.44,81.14Z"/><path class="cls-6" d="M93.78,100.45c-.41,1.1,3.32,4.82,6.39,3.68,1-.38,2.32-1.44,2.12-2.32C101.87,99.86,94.29,99.1,93.78,100.45Z"/><path class="cls-7" d="M122.23,27.23c-4.59,3.5,3.22,25.93,8.13,25.55,3.22-.26,6.09-10.41,3.29-13-1.76-1.61-5.29.21-6.58-1.55-.8-1.09.81-2.26,1-5.42,0-.55.22-4.55-1.94-5.81A3.84,3.84,0,0,0,122.23,27.23Z"/><path class="cls-7" d="M103.91,28.91c-4.59,3.5,3.21,25.93,8.13,25.54,3.22-.25,6.09-10.4,3.29-13-1.77-1.62-5.3.21-6.58-1.55-.8-1.09.81-2.26,1-5.42,0-.55.23-4.55-1.93-5.81A3.82,3.82,0,0,0,103.91,28.91Z"/><path class="cls-8" d="M119.65,65.87c3.1.78,8.87-1.2,13.52-2.55,3-.87.73,9.55-4.62,10.49S116.65,65.12,119.65,65.87Z"/><path class="cls-9" d="M123.78,31.29a1.66,1.66,0,0,0,1,2.2,1.53,1.53,0,0,0,1.42-1.68A1.73,1.73,0,0,0,123.78,31.29Z"/><path class="cls-9" d="M105.71,32.58a1.54,1.54,0,0,0,1.17,2.07,1.35,1.35,0,0,0,.64-2.58A1.42,1.42,0,0,0,105.71,32.58Z"/><path class="cls-10" d="M153.06,90.94c-2.73,4.38-7.42,9.16-13.41,13.31-11.86,8.22-24.31,10.8-27.8,5.76a5.59,5.59,0,0,1-.89-3.57A52.2,52.2,0,0,0,138.9,79.67c7.38-2.76,13.6-2.76,15.91.57C156.54,82.74,155.74,86.64,153.06,90.94Z"/><path class="cls-10" d="M111,106.44c-.68.28-1.36.54-2,.78"/><path class="cls-10" d="M75.45,18.26a15.16,15.16,0,0,0-2.68-8.63A51.77,51.77,0,0,1,91.5,6.15c.8,0,1.6,0,2.39.06a52.05,52.05,0,0,1,45,73.46"/><path class="cls-10" d="M48.86,28.36C42.2,38.06,39,47.81,39.47,58.18A55.12,55.12,0,0,0,60.8,99.93"/><path class="cls-10" d="M90.48,6.21a51.64,51.64,0,0,1,25.9,5.91,15.2,15.2,0,0,0-25.9-5.91Z"/><path class="cls-10" d="M131.89,38.85c3.7,2,3.44,12.67,0,13.72-3.25,1-10-7.55-11-16.24-.42-3.38-.28-9.29,2.1-10.06,2.13-.69,6,2.73,6,5.82,0,2.77-2.71,4.32-2.14,5.27S129.81,37.71,131.89,38.85Z"/><path class="cls-11" d="M113.57,40.23c3.75,2.05,3.49,12.83,0,13.89-3.28,1-10.1-7.65-11.18-16.44-.42-3.43-.28-9.41,2.13-10.19,2.16-.7,6.12,2.77,6.09,5.9,0,2.8-2.74,4.36-2.17,5.33S111.47,39.08,113.57,40.23Z"/><path class="cls-11" d="M132.9,63.52c3.35-.45-.78,10.18-5.64,10.64-4.52.42-10.92-8-7.59-8.56C126.47,64.55,126,64.45,132.9,63.52Z"/><path class="cls-10" d="M109.14,105.77a4.53,4.53,0,0,1-.23,1.45c-.75,2.46-3.4,4.66-7.3,6.35-4.74,2-11.32,3.3-18.6,3.3-14.43,0-26.13-5-26.13-11.1,0-2.15,1.44-4.15,3.92-5.84a17,17,0,0,1,1.64-1c4.78-2.6,12.22-4.26,20.57-4.26C97.44,94.67,109.14,99.64,109.14,105.77Z"/><path class="cls-12" d="M82.45,59.43a54,54,0,0,1,11.81,3.82c3.57,1.65,7.43,3.65,10.28,6.41s3.83,7.46-.33,9.58c-3.76,1.93-8.71.55-12.42-.83C87,76.6,82.34,74.18,77.71,72c-1.44-.69-2.71,1.46-1.26,2.16,4.69,2.26,9.38,4.67,14.25,6.54,4.31,1.67,9.6,3,14,1.08a7.56,7.56,0,0,0,4-10.45c-1.87-4.1-6.51-6.67-10.31-8.71A56,56,0,0,0,83.11,57c-1.57-.32-2.24,2.09-.66,2.41Z"/><path class="cls-10" d="M75.38,18A15.21,15.21,0,1,0,45,18c0,3.88,1.56,12.27,12.5,13.15"/><path class="cls-12" d="M49,89c-.78,1.94-1.53,4.16-2.92,5.76s-3,1.34-4.6.27c-2.69-1.87-4.29-5.29-5.47-8.23-3.33-8.31-4.31-17.4-5.33-26.22-.54-4.64-1-9.28-1.77-13.89A61.15,61.15,0,0,0,25.9,33.71c-.47-1.21-1.3-2.53-2.77-2.54-1.27,0-2.33.95-3.25,1.71-.17.15-.74.48-.8.66s1,.2,1,.26a5.14,5.14,0,0,0-.3-.84c-.31-1-.52-2.1-.75-3.15-.26-1.23-.5-2.47-.83-3.68a5,5,0,0,0-1-2.36c-1.06-1-2.73.1-3.75.67a14.83,14.83,0,0,1-2.18,1.19c-1.05.39-1.68-.18-2.35-1-.93-1.13-2.53.48-1.6,1.6a4.08,4.08,0,0,0,4.16,1.69,8.51,8.51,0,0,0,2-.88c.75-.43,1.64-.8,2.35-1.28s-.52-.17-.29-.47c0,0,.15.28.15.28.08.4.28.9.4,1.33.28,1.12.51,2.25.75,3.37s.46,2.26.8,3.36a3.15,3.15,0,0,0,1.12,2c1.14.66,2.18-.67,3-1.31.29-.24,1-.91,1.39-.86s.83,1.47,1,1.89c3.05,9.23,3.63,19.16,4.8,28.75C30,73,31.16,82.34,35.24,90.46c1.51,3,3.82,6.58,7.29,7.51,5.09,1.37,7.24-4.76,8.7-8.4.54-1.35-1.65-1.94-2.19-.6Z"/><ellipse class="cls-13" cx="5.5" cy="21.35" rx="4.5" ry="4.63"/></g></svg>