<svg xmlns="http://www.w3.org/2000/svg" viewBox="0 0 161.34 115.83"><defs><style>.cls-1,.cls-4{fill:#f1876d;stroke:#f1876d;}.cls-1,.cls-10,.cls-11,.cls-12,.cls-14,.cls-2,.cls-3,.cls-4,.cls-5,.cls-6,.cls-7,.cls-8,.cls-9{stroke-miterlimit:10;}.cls-1,.cls-3{stroke-width:0.75px;}.cls-2,.cls-3{fill:#eca082;stroke:#eca082;}.cls-10,.cls-2,.cls-5,.cls-6,.cls-7,.cls-8,.cls-9{stroke-width:0.75px;}.cls-4{stroke-width:0.73px;}.cls-5{fill:#d36e5b;stroke:#d36e5b;}.cls-6{fill:#ec6095;stroke:#ec6094;}.cls-7{fill:#e4b998;stroke:#e4b998;}.cls-8{fill:#1f1f1f;stroke:#1f1f1f;}.cls-9{fill:#582d29;stroke:#582d29;}.cls-10{fill:#4c4947;stroke:#494645;}.cls-11,.cls-12,.cls-14{fill:none;stroke:#1d1d1b;}.cls-11{stroke-width:2px;}.cls-12{stroke-width:2.03px;}.cls-13{fill:#1d1d1b;}.cls-14{stroke-width:2.03px;}</style></defs><g id="Capa_9" data-name="Capa 9"><path class="cls-1" d="M57.34,94.84C52.26,98,42,99.35,48.44,107.74c4,5.25,39.35,12.39,48.64-1.07.39-.55-24.07,3.29-26.45-2.16S58.94,93.84,57.34,94.84Z"/><path class="cls-2" d="M3.34,44.24c1.66.88,7.08-2.85,6.19-6.19-.48-1.84-2.83-3.38-4.45-2.9C2.18,36,1.55,43.3,3.34,44.24Z"/><path class="cls-3" d="M56.37,29.73a13.8,13.8,0,0,1-10.25-12.2A13.62,13.62,0,0,1,53.28,4.37C60.71.57,68.1,6.25,69.15,7.08c1.46,1.17,4.55,3.63,5,7.36C75.14,21.84,65.55,31.84,56.37,29.73Z"/><path class="cls-3" d="M80,6.69C57.21,12.05,39.45,33.45,39.53,57.21c.1,24.51,19.13,39.14,21.68,41,14.73,10.93,35.9,14.67,53,6.39,13-6.29,19.76-17.59,21.68-20.9a54.68,54.68,0,0,0,6.78-19.55,50.6,50.6,0,0,0-2.33-25.36,51.28,51.28,0,0,0-13.93-20.13C115.31,8.91,97.79,2.51,80,6.69Z"/><path class="cls-1" d="M4.41,35.05C4.31,35,0,40.14,1.6,42.5c1.1,1.59,4.46,1.26,4.55.87s-2.5-.49-3.39-2.22C1.52,38.73,4.48,35.09,4.41,35.05Z"/><path class="cls-1" d="M75.3,54.73C78.19,58.33,69.46,69,69,78.83c-.16,3.17.3,3.8,4.54,8,.55.54-2.08-.27-3.43-1.67C68.94,84,65.65,83.27,68.2,69.67c.58-3.06,3.58-12.6,5.73-13C74.69,56.53,74.69,54,75.3,54.73Z"/><path class="cls-1" d="M92.76,5.15C92.59,3.87,100.3,0,107.37,2.24c5.63,1.81,9.42,7.07,8.71,8.13s-4.49-1.82-13-3.58C96.21,5.36,92.87,6,92.76,5.15Z"/><path class="cls-1" d="M54.47,4.87c-.27-.17-15,5.48-6.28,21.25,2.14,3.9,7.84,5.31,8.15,4.82s-3.89-2.22-5.74-6C46.47,16.44,54.73,5,54.47,4.87Z"/><path class="cls-1" d="M49.21,28.29C37.84,46.21,37.38,59.87,42.92,74.81c8.83,23.8,33.92,40,64.44,31.42,12.65-3.56,21.13-11.76,21.53-13.1.27-.9-8.83,7.93-22.73,9.63-16.23,2-40.15-5-50.8-25.4-11.52-22.09,2-47,2-47C53.35,29.76,49.88,27.23,49.21,28.29Z"/><path class="cls-3" d="M106.41,108.87C102.84,98.64,133.16,79,142.52,80.48c3.81.58,6.67,2.31,6.78,3.51,1.22,14.2-27.54,34.6-39.23,28.52A6.91,6.91,0,0,1,106.41,108.87Z"/><path class="cls-1" d="M117.32,91.59C114,92.65,102,106.16,104.75,110.53c2.2,3.5,8.71,5.12,14.27,2.72,23.28-10,29.78-21.66,29.46-22-.18-.22-3.29,5.42-16.33,14-9,6-14.77,6.61-19.58,5.21a8.34,8.34,0,0,1-4.19-4.11C106.79,102.57,111.34,98.3,117.32,91.59Z"/><path class="cls-4" d="M143.86,61.28c-.27,2.76,5.35,4.23,9.66,3.64,3.63-.5,6.95-3.77,6.64-7.1-.24-2.52-2.8-3.23-4.87-4.54C138.7,42.89,144.37,56,143.86,61.28Z"/></g><g id="Capa_10" data-name="Capa 10"><path class="cls-5" d="M120.41,20.08c-5.08,2.43-4.48,12.35-1.42,19.36,3.2,7.33,10.07,13.39,14.58,11.22,2.43-1.16,2.52-3.83,2.19-6.45-1.29-10.32-3.53-16-9.29-22.19C124.53,20,123.16,18.76,120.41,20.08Z"/><path class="cls-5" d="M101,21.73c-5.08,2.43-4.48,12.34-1.42,19.35,3.2,7.33,10.07,13.39,14.58,11.23,2.43-1.17,3-4.35,2.71-7-1.29-10.32-3-16.05-8.77-22.19A5.67,5.67,0,0,0,101,21.73Z"/><path class="cls-6" d="M135.15,53.4c2.65-3.37,6.9-3,7.48-1.41.37,1,.94,2.37.65,2.58-3.31,2.28-8.24,1.53-8.65.12C134.5,54.24,134.86,53.77,135.15,53.4Z"/><path class="cls-6" d="M98.37,63.73c2.66-3.38,9.74-3.31,10.33-1.68.36,1-1.91,2.64-2.2,2.84-3.3,2.28-8.24,1.54-8.64.13C97.73,64.56,98.08,64.1,98.37,63.73Z"/><path class="cls-7" d="M5.94,37.65a1.35,1.35,0,0,0,.22,2,1.11,1.11,0,0,0,1.39-.2c.31-.47-.11-1.22-.6-1.56C6.92,37.83,6.31,37.42,5.94,37.65Z"/><path class="cls-7" d="M59,9c-1.16,2.54,5.2,9.18,7.75,8.13,1.69-.7,3-5.35.19-8.13S59.72,7.3,59,9Z"/><path class="cls-7" d="M72,83.19c.35.78,3.47.94,5.16-1,1.07-1.24,1.5-3.26.86-3.72C76.85,77.61,71.46,82,72,83.19Z"/><path class="cls-7" d="M134.88,87.19c.23,1.14,5.37,2.31,7.36-.28.68-.88,1.2-2.46.57-3.1C141.41,82.38,134.59,85.77,134.88,87.19Z"/><path class="cls-8" d="M122.86,27.63c-4.59,3.5,3.21,25.94,8.13,25.55,3.22-.26,6.09-10.4,3.29-13-1.77-1.61-5.3.21-6.58-1.55-.8-1.09.81-2.25,1-5.42,0-.55.23-4.55-1.93-5.8A3.82,3.82,0,0,0,122.86,27.63Z"/><path class="cls-8" d="M104.37,28.37c-4.58,3.51,3.22,25.94,8.13,25.55,3.23-.25,6.1-10.4,3.29-13-1.76-1.61-5.29.21-6.58-1.55-.8-1.09.82-2.25,1-5.41,0-.55.22-4.56-1.94-5.81A3.84,3.84,0,0,0,104.37,28.37Z"/><path class="cls-9" d="M119.28,65.63c3.09.77,8.87-1.2,13.52-2.56,3-.86.73,9.56-4.62,10.5S116.28,64.88,119.28,65.63Z"/><path class="cls-10" d="M124.53,31.18a1.65,1.65,0,0,0,1,2.19A1.53,1.53,0,0,0,127,31.69,1.74,1.74,0,0,0,124.53,31.18Z"/><path class="cls-10" d="M106.44,32.18a1.52,1.52,0,0,0,1.16,2.06,1.36,1.36,0,0,0,1.42-1,1.41,1.41,0,0,0-2.58-1Z"/></g><g id="Capa_2" data-name="Capa 2"><g id="Capa_6" data-name="Capa 6"><path class="cls-11" d="M75.75,18.09a15.21,15.21,0,0,0-30.42,0,18.51,18.51,0,0,0,4.38,11.14"/><path class="cls-11" d="M75.75,18.09a15.16,15.16,0,0,0-2.68-8.63A51.77,51.77,0,0,1,91.8,6c.8,0,1.6,0,2.39.06a52,52,0,0,1,44.38,74.78"/><path class="cls-11" d="M49.16,28.19C42.5,37.89,39.34,47.64,39.77,58c1.2,28.7,23.3,52,52,52a52,52,0,0,0,12.11-1.42"/><path class="cls-11" d="M90.79,6A51.52,51.52,0,0,1,116.68,12,15.19,15.19,0,0,0,90.79,6Z"/><path class="cls-11" d="M132.42,39c3.66,2.11,3.18,12.74-.24,13.72s-9.82-7.76-10.7-16.47c-.34-3.38-.08-9.29,2.31-10,2.14-.65,6,2.86,5.89,5.95-.09,2.76-2.8,4.25-2.25,5.22S130.37,37.78,132.42,39Z"/><path class="cls-12" d="M114.09,40c3.7,2.13,3.21,12.89-.26,13.89-3.3.95-9.93-7.87-10.83-16.68-.34-3.43-.08-9.41,2.34-10.14,2.17-.66,6.07,2.89,6,6-.1,2.8-2.84,4.31-2.28,5.29S112,38.76,114.09,40Z"/><path class="cls-12" d="M132.92,63.65c3.36-.38-1,10.16-5.87,10.51-4.52.33-10.74-8.27-7.4-8.72C126.47,64.54,126,64.43,132.92,63.65Z"/><path class="cls-11" d="M146.73,94.05A40.45,40.45,0,0,1,140,101.4a59,59,0,0,1-7.24,5.32c-7.79,4.88-15.73,7.47-21.29,7.35-2.66-.06-4.78-.74-6.09-2.07a1.34,1.34,0,0,0-.13-.23l-.11-.17a5.83,5.83,0,0,0-.55-.66,5,5,0,0,1-.63-2.32,6.85,6.85,0,0,1,0-1.19,11.48,11.48,0,0,1,.94-3.28,16.22,16.22,0,0,1,.86-1.72c2.67-4.74,8.1-10.1,15.17-14.53A57.4,57.4,0,0,1,127,84.57l.55-.26a41.35,41.35,0,0,1,11-3.49c4.84-.73,8.63,0,10.29,2.46a1.63,1.63,0,0,1,.11.17,4.52,4.52,0,0,1,.58,1.35C150.22,87.28,149.14,90.55,146.73,94.05Z"/><path class="cls-11" d="M93.46,110a23.61,23.61,0,0,1-3,1.57,40.25,40.25,0,0,1-9.64,2.63,59.1,59.1,0,0,1-9,.67c-14.43,0-26.13-5-26.13-11.1a5.64,5.64,0,0,1,1.38-3.56,11.65,11.65,0,0,1,2.54-2.28,17,17,0,0,1,1.64-1A27.69,27.69,0,0,1,55.7,95a50.5,50.5,0,0,0,36.08,15Q92.62,110,93.46,110Z"/><path class="cls-13" d="M88,60.73a54.13,54.13,0,0,1-4,11.76c-1.7,3.56-3.74,7.39-6.54,10.2S70,86.4,68,82.22c-1.88-3.8-.43-8.72,1-12.41,1.86-4.8,4.35-9.4,6.63-14,.72-1.44-1.44-2.7-2.16-1.26-2.31,4.67-4.77,9.33-6.71,14.17C65,73,63.62,78.36,65.5,82.85a7.55,7.55,0,0,0,10.37,4c4.13-1.84,6.74-6.42,8.83-10.2a56.1,56.1,0,0,0,5.74-15.3c.34-1.56-2.07-2.24-2.41-.66Z"/><path class="cls-13" d="M48.93,88.87c-1,2.59-2.8,8.36-6.63,6.55-2.41-1.13-4-3.75-5.13-6-3.38-6.61-4.64-14.23-5.65-21.51-1.1-8-1.72-16.15-3.16-24.15a58.31,58.31,0,0,0-3-11.16c-1.11-2.83-2.56-5.84-4.95-7.83C13.87,19.23,10.06,30,7,34c-.89,1.16,1.08,2.29,2,1.14,1.83-2.4,3-5.21,4.9-7.59.69-.9,1.69-2.09,2.94-2.08,1.55,0,2.92,1.6,3.76,2.75a29.59,29.59,0,0,1,4.28,10,99.14,99.14,0,0,1,2.25,12c1.1,8,1.73,16.08,3.14,24,1.18,6.64,2.86,14,7,19.54C38.85,96,41.41,98.43,44.45,98c3.9-.54,5.42-5.44,6.66-8.54.54-1.36-1.65-2-2.18-.61Z"/><ellipse class="cls-14" cx="5.51" cy="39.32" rx="4.5" ry="4.63"/></g><g id="Capa_4" data-name="Capa 4"><path class="cls-11" d="M75.94,18.26a15.21,15.21,0,0,0-30.42,0c0,3.88,1.56,12.28,12.5,13.15"/><path class="cls-11" d="M144.06,63.49c5,4.38,12,1,14.39-1.25s2.55-5.59.47-7.55c-3.64-3.45-9-3.26-15.82-5.93"/></g></g></svg>