<svg xmlns="http://www.w3.org/2000/svg" viewBox="0 0 157.69 118.05"><defs><style>.cls-1,.cls-2{fill:#eca082;stroke:#eca082;}.cls-1,.cls-10,.cls-11,.cls-13,.cls-2,.cls-3,.cls-4,.cls-5,.cls-6,.cls-7,.cls-8,.cls-9{stroke-miterlimit:10;}.cls-1,.cls-4,.cls-5,.cls-6,.cls-7,.cls-8,.cls-9{stroke-width:0.75px;}.cls-2,.cls-3{stroke-width:0.75px;}.cls-3{fill:#f1876d;stroke:#f1876d;}.cls-4{fill:#d36e5b;stroke:#d36e5b;}.cls-5{fill:#ec6095;stroke:#ec6094;}.cls-6{fill:#e4b998;stroke:#e4b998;}.cls-7{fill:#1f1f1f;stroke:#1f1f1f;}.cls-8{fill:#582d29;stroke:#582d29;}.cls-9{fill:#4c4947;stroke:#494645;}.cls-10,.cls-11,.cls-13{fill:none;stroke:#1d1d1b;}.cls-10{stroke-width:2px;}.cls-11{stroke-width:2.03px;}.cls-12{fill:#1d1d1b;}.cls-13{stroke-width:2.03px;}</style></defs><g id="Capa_9" data-name="Capa 9"><path class="cls-1" d="M3.79,45c1.66.88,7.07-2.85,6.19-6.19-.49-1.84-2.83-3.38-4.45-2.9C2.62,36.73,2,44,3.79,45Z"/><path class="cls-2" d="M56.82,30.46A13.72,13.72,0,0,1,53.72,5.1C61.15,1.3,68.55,7,69.59,7.81c1.46,1.17,4.55,3.63,5,7.36C75.58,22.57,66,32.57,56.82,30.46Z"/><path class="cls-2" d="M79.66,7.43C56.88,12.78,39.12,34.18,39.2,57.94c.1,24.52,19.13,39.14,21.68,41,14.73,10.94,34.16,11.33,53,6.39,14-3.65,19.76-17.59,21.68-20.9a54.62,54.62,0,0,0,6.78-19.55A50.56,50.56,0,0,0,140,39.56a51.14,51.14,0,0,0-13.93-20.13C115,9.64,97.46,3.24,79.66,7.43Z"/><path class="cls-3" d="M4.85,35.78C4.76,35.73.4,40.87,2,43.23c1.11,1.59,4.46,1.26,4.55.87S4.1,43.61,3.2,41.88C2,39.46,4.93,35.82,4.85,35.78Z"/><path class="cls-3" d="M73.46,67.72c4.55-.83,9.77,11.91,18.2,17,2.71,1.64,3.48,1.55,9.19-.19.74-.23-1.23,1.7-3.1,2.22-1.59.44-3.77,3-14.51-5.71-2.42-2-9.39-9.14-8.71-11.22C74.77,69.11,72.5,67.89,73.46,67.72Z"/><path class="cls-3" d="M91.75,4.91C91.58,3.63,99.29-.27,106.37,2c5.62,1.81,9.42,7.06,8.71,8.13s-4.49-1.83-13-3.58C95.2,5.13,91.86,5.74,91.75,4.91Z"/><path class="cls-3" d="M54.63,4.73c-.28-.17-15,5.48-6.29,21.25,2.15,3.9,7.84,5.31,8.16,4.82s-3.9-2.22-5.75-6C46.63,16.3,54.88,4.88,54.63,4.73Z"/><path class="cls-3" d="M48.78,29C37.42,46.94,37,60.6,42.5,75.55c8.82,23.79,33.92,40,64.44,31.41,12.64-3.56,21.12-11.76,21.52-13.1.27-.9-8.83,7.93-22.73,9.63-16.23,2-40.14-5-50.8-25.4-11.51-22.08,2-47,2-47C52.93,30.49,49.46,28,48.78,29Z"/><path class="cls-1" d="M125.14,100.14c2.35-10.74,12.44-10,28-4,3.57,1.37,4.31,5.59,3.77,6.69-6.34,12.89-40.62,14.9-47.11,3.35C109.23,105.22,124.65,102.37,125.14,100.14Z"/><path class="cls-2" d="M56,103.94c2.41-10.56,38.51-11,45.68-4.84,2.91,2.52,4.42,5.5,3.87,6.58-6.52,12.68-41.72,14.65-48.39,3.29A7,7,0,0,1,56,103.94Z"/><path class="cls-3" d="M132.35,92c-5.08,3.14-9.82,9.19-22.5,15.87C104,111,146,119.39,155.24,105.94c.38-.56-31.3,7.68-33.68,2.23S134,91,132.35,92Z"/><path class="cls-3" d="M74.26,95.5c-3.41-.88-20.73,4.19-20.73,9.36,0,4.14,4.66,9,10.64,9.89,25.07,3.87,36.75-2.51,36.68-3,0-.28-5.67,2.84-21.29,3.19-10.83.25-16-2.25-19.36-6a8.39,8.39,0,0,1-1.35-5.71C59.5,99.2,65.62,98,74.26,95.5Z"/></g><g id="Capa_10" data-name="Capa 10"><path class="cls-4" d="M118.43,20.2C113.35,22.63,114,32.55,117,39.56c3.2,7.33,10.08,13.39,14.58,11.22,2.43-1.17,2.52-3.83,2.2-6.45-1.29-10.32-3.54-16-9.29-22.19C122.56,20.07,121.18,18.88,118.43,20.2Z"/><path class="cls-4" d="M99,22.27c-5.08,2.43-4.48,12.34-1.42,19.35C100.73,49,107.6,55,112.11,52.85c2.43-1.17,3-4.35,2.71-7-1.29-10.32-3-16.06-8.78-22.2A5.66,5.66,0,0,0,99,22.27Z"/><path class="cls-5" d="M135.59,54.14c2.66-3.38,6.9-3,7.49-1.42.36,1,.93,2.38.64,2.58-3.31,2.28-8.24,1.54-8.64.13C135,55,135.3,54.51,135.59,54.14Z"/><path class="cls-5" d="M98.82,64.46c2.65-3.38,9.74-3.31,10.32-1.68.37,1-1.9,2.64-2.19,2.84-3.31,2.29-8.24,1.54-8.65.13C98.17,65.29,98.53,64.83,98.82,64.46Z"/><path class="cls-6" d="M6.39,38.39a1.33,1.33,0,0,0,.22,2A1.08,1.08,0,0,0,8,40.14c.32-.47-.11-1.22-.59-1.55C7.36,38.56,6.76,38.15,6.39,38.39Z"/><path class="cls-6" d="M59.4,9.68c-1.17,2.54,5.2,9.18,7.74,8.13,1.7-.7,3-5.34.19-8.13S60.16,8,59.4,9.68Z"/><path class="cls-6" d="M96.69,81.94c.85-.1,1.93-3,.58-5.22-.86-1.4-2.67-2.41-3.29-1.94C92.81,75.67,95.36,82.11,96.69,81.94Z"/><path class="cls-6" d="M143.72,96.65c-.29.81,1.75,3.13,4.07,2.71,1.34-.24,2.7-1.38,2.51-2.13C150,95.84,144.14,95.48,143.72,96.65Z"/><path class="cls-6" d="M91.66,100.72c-.41,1.09,3.31,4.81,6.38,3.67,1-.38,2.32-1.44,2.13-2.32C99.75,100.12,92.16,99.36,91.66,100.72Z"/><path class="cls-7" d="M120.88,27.75c-4.58,3.5,3.22,25.93,8.13,25.55,3.23-.26,6.1-10.41,3.29-13-1.76-1.61-5.29.21-6.58-1.55-.8-1.09.81-2.26,1-5.42,0-.55.22-4.55-1.94-5.8A3.82,3.82,0,0,0,120.88,27.75Z"/><path class="cls-7" d="M102.3,28.91c-4.59,3.5,3.22,25.94,8.13,25.55,3.22-.25,6.1-10.4,3.29-13-1.76-1.61-5.29.21-6.58-1.55-.8-1.09.81-2.25,1-5.42,0-.55.22-4.55-1.94-5.8A3.82,3.82,0,0,0,102.3,28.91Z"/><path class="cls-8" d="M118.17,66.65c3.1.78,8.88-1.2,13.52-2.55,3-.87.73,9.55-4.61,10.49S115.17,65.9,118.17,66.65Z"/><path class="cls-9" d="M122.56,31.3a1.64,1.64,0,0,0,1,2.19A1.53,1.53,0,0,0,125,31.81,1.72,1.72,0,0,0,122.56,31.3Z"/><path class="cls-9" d="M104.37,32.72a1.52,1.52,0,0,0,1.16,2.06,1.37,1.37,0,1,0-1.16-2.06Z"/></g><g id="Capa_2" data-name="Capa 2"><g id="Capa_1" data-name="Capa 1"><path class="cls-10" d="M75.32,18.09a15.16,15.16,0,0,0-2.68-8.63A51.77,51.77,0,0,1,91.37,6c.8,0,1.6,0,2.39.06a52,52,0,0,1,37.7,85.14"/><path class="cls-10" d="M59.33,98.39C48.88,91.17,40,72.62,39.34,58c-.43-10.37,2.73-20.12,9.39-29.82"/><path class="cls-10" d="M90.35,6A51.47,51.47,0,0,1,116.24,12,15.19,15.19,0,0,0,90.35,6Z"/><path class="cls-10" d="M130.68,39.43c3.7,2,3.44,12.66,0,13.72-3.25,1-10-7.56-11-16.24-.41-3.38-.28-9.29,2.1-10.06,2.13-.69,6,2.73,6,5.82,0,2.77-2.7,4.31-2.14,5.27S128.6,38.29,130.68,39.43Z"/><path class="cls-11" d="M112.37,40.81c3.74,2,3.48,12.82,0,13.89-3.29,1-10.1-7.65-11.18-16.45-.42-3.42-.28-9.4,2.12-10.19,2.16-.7,6.13,2.77,6.09,5.9,0,2.81-2.74,4.37-2.16,5.34S110.26,39.65,112.37,40.81Z"/><path class="cls-11" d="M131.69,64.1c3.36-.45-.78,10.18-5.64,10.64-4.51.42-10.92-8-7.59-8.57C125.27,65.13,124.75,65,131.69,64.1Z"/><path class="cls-10" d="M75.32,18.09a15.21,15.21,0,1,0-30.42,0c0,3.88,1.56,12.27,12.5,13.14"/><path class="cls-12" d="M48.93,90c-1,2.59-2.8,8.35-6.63,6.55-2.41-1.14-4-3.76-5.13-6-3.38-6.61-4.64-14.22-5.65-21.5-1.1-8-1.72-16.16-3.16-24.15a58.21,58.21,0,0,0-3-11.17c-1.11-2.83-2.56-5.84-4.95-7.83C13.87,20.35,10.06,31.07,7,35.07c-.89,1.16,1.08,2.29,2,1.15,1.83-2.4,3-5.21,4.9-7.6.69-.89,1.69-2.09,2.94-2.07,1.55,0,2.92,1.59,3.76,2.74a29.68,29.68,0,0,1,4.28,10,99.51,99.51,0,0,1,2.25,12c1.1,8,1.73,16.08,3.14,24,1.18,6.64,2.86,14,7,19.54,1.66,2.24,4.22,4.66,7.26,4.24,3.9-.53,5.42-5.44,6.66-8.54.54-1.35-1.65-1.94-2.18-.6Z"/><ellipse class="cls-13" cx="5.51" cy="40.43" rx="4.5" ry="4.63"/><path class="cls-10" d="M107.49,107.49c4.4,3.49,13.08,5.87,23.07,5.87,14.43,0,26.13-5,26.13-11.09s-11.21-10.89-25.23-11.09A52.13,52.13,0,0,1,107.49,107.49Z"/><path class="cls-10" d="M52.93,106c0,6.13,11.7,11.1,26.13,11.1,7.28,0,13.86-1.26,18.6-3.3s7.53-4.76,7.53-7.8c0-6.13-11.7-11.1-26.13-11.1-8.35,0-15.79,1.66-20.57,4.26C55,101,52.93,103.36,52.93,106Z"/><path class="cls-12" d="M84.8,58.87a53.25,53.25,0,0,1,8.48,8.95c2.41,3.23,5,7,6.08,10.88A7.39,7.39,0,0,1,99,84.3a5,5,0,0,1-5,2.39c-4.13-.31-7.67-3.78-10.21-6.75-3.33-3.88-6.22-8.19-9.19-12.34-.93-1.3-3.1,0-2.16,1.26,3,4.22,6,8.56,9.31,12.53,2.92,3.47,6.81,7.06,11.49,7.71a7.57,7.57,0,0,0,8.89-6.76c.53-4.71-2.46-9.41-4.93-13.19A56,56,0,0,0,86.57,57.1c-1.22-1-3,.73-1.77,1.77Z"/></g></g></svg>