<svg xmlns="http://www.w3.org/2000/svg" viewBox="0 0 157.69 118.05"><defs><style>.cls-1,.cls-2{fill:#e4b998;stroke:#e4b998;}.cls-1,.cls-10,.cls-11,.cls-2,.cls-3,.cls-4,.cls-5,.cls-6,.cls-7,.cls-9{stroke-miterlimit:10;}.cls-1,.cls-4,.cls-5,.cls-6,.cls-7{stroke-width:0.75px;}.cls-2{stroke-width:0.74px;}.cls-3{fill:#eca082;stroke:#eca082;stroke-width:0.75px;}.cls-4{fill:#f3988d;stroke:#f3988d;}.cls-5{fill:#db82a6;stroke:#db82a6;}.cls-6{fill:#582d29;stroke:#582d29;}.cls-7{fill:#1f1f1f;stroke:#1f1f1f;}.cls-8{fill:#1d1d1b;}.cls-10,.cls-11,.cls-9{fill:none;stroke:#1d1d1b;}.cls-9{stroke-width:2px;}.cls-10{stroke-width:2.03px;}.cls-11{stroke-width:2.03px;}</style></defs><g id="Capa_2" data-name="Capa 2"><g id="Capa_1" data-name="Capa 1"><path class="cls-1" d="M57.07,30.24A13.82,13.82,0,0,1,46.81,18.05,13.66,13.66,0,0,1,54,4.89C61.41,1.09,68.8,6.77,69.84,7.6c1.47,1.16,4.55,3.62,5,7.35C75.84,22.35,66.25,32.35,57.07,30.24Z"/><path class="cls-2" d="M79.74,7c-22.48,5.35-40,26.7-39.92,50.42.09,24.46,18.88,39.06,21.39,40.94,14.54,10.91,35.43,14.64,52.34,6.38,12.83-6.27,19.5-17.56,21.39-20.86a55.09,55.09,0,0,0,6.69-19.51,50.85,50.85,0,0,0-2.3-25.3A51,51,0,0,0,125.58,19C114.6,9.21,97.31,2.82,79.74,7Z"/><path class="cls-3" d="M73.91,64.43c4.57-.65,5.5-14.39,11.88-21.91,2-2.42,2.81-2.57,8.78-2.72.77,0-1.7-1.24-3.64-1.14-1.65.09-4.53-1.65-12,10-1.67,2.62-6,11.64-4.71,13.4C74.71,62.7,72.94,64.57,73.91,64.43Z"/><path class="cls-3" d="M91.2,4.7C91,3.42,98.74-.48,105.81,1.79c5.62,1.81,9.42,7.07,8.71,8.13s-4.49-1.82-13-3.58C94.65,4.91,91.31,5.52,91.2,4.7Z"/><path class="cls-3" d="M53.59,4.25c-.28-.16-15,5.49-6.28,21.26,2.14,3.9,7.83,5.31,8.15,4.81s-3.9-2.21-5.75-6C45.59,15.83,53.84,4.4,53.59,4.25Z"/><path class="cls-3" d="M49.07,28.39C37.7,46.3,37.24,60,42.78,74.91c8.83,23.8,33.92,40,64.44,31.42,12.65-3.56,21.12-11.76,21.52-13.1.27-.9-8.83,7.93-22.72,9.62-16.24,2-40.15-5-50.81-25.4-11.51-22.08,2-47,2-47C53.21,29.86,49.74,27.33,49.07,28.39Z"/><path class="cls-3" d="M125.51,97.31c-2.72,2.23-5.46,4.52-6.27,5.13-3.3,2.49,6.49,6.25,10.77,2,17.93-17.94,18.51-35.95,18.07-36.19-.24-.13-.78-7.73-3.39-7.6-1.64.08,3.67-1.2-1.32-.73-.7.07-3.56,16.94-5.42,20.13C135.89,83.55,127.84,94.46,125.51,97.31Z"/><path class="cls-4" d="M118.68,20c-5.08,2.43-4.48,12.34-1.42,19.35,3.2,7.33,7.28,12.78,11.78,10.62,2.43-1.17,5-4.67,4.65-7.29-1.29-10.32-3.19-14.61-8.94-20.75C122.81,19.86,121.44,18.67,118.68,20Z"/><path class="cls-4" d="M99.2,22.05c-5.08,2.43-4.48,12.35-1.42,19.36,3.2,7.33,10.07,13.39,14.58,11.22,2.43-1.17,3-4.35,2.71-7-1.29-10.32-3-16-8.77-22.19A5.68,5.68,0,0,0,99.2,22.05Z"/><path class="cls-5" d="M134.81,53.66c2.66-3.37,6.9-3,7.49-1.42.36,1,.93,2.38.64,2.59-3.31,2.28-8.24,1.53-8.64.12C134.16,54.5,134.52,54,134.81,53.66Z"/><path class="cls-5" d="M101.2,61.15c2.66-3.38,9.74-3.31,10.32-1.68.37,1-1.9,2.64-2.19,2.84-3.31,2.29-8.24,1.54-8.65.13C100.55,62,100.91,61.52,101.2,61.15Z"/><path class="cls-6" d="M118.23,65.47c3.51-3.07,8.8-6.3,13.52-2.55,2.43,1.92.51,1.65-4.83,2.59S115.9,67.51,118.23,65.47Z"/><path class="cls-3" d="M133.69,27.57c-3.29-3.24,1.59-6.69,9.63-13.23,3.51-2.85,5.34,1,5.49,3.95.14,2.52,1.82,2.21.3,10C148.18,33,142,46.32,141.73,43,141.44,39,136,29.84,133.69,27.57Z"/><path class="cls-1" d="M83.69,113.91c-6.59-12.27,2.89-28,5.86-33.75,3.86-7.49,14.61-12.34,15.4-11.42,9.31,10.79-2.06,44.16-15.09,46.09C88.82,115,84.76,115.89,83.69,113.91Z"/><path class="cls-3" d="M83.81,116c3.83,1.55,10-1,13.16-6.15,13-21.79,11.45-35,11-35.13-.27-.07.5,6.32-5,20.93-3.83,10.13-8.1,14-12.82,15.7-.66.23-2.38,1.54-4.64.18C82,109.41,79,114.07,83.81,116Z"/><path class="cls-1" d="M2.76,28.81C4.42,29.69,9.83,26,9,22.62c-.48-1.84-2.83-3.38-4.45-2.9C1.6,20.56,1,27.87,2.76,28.81Z"/><path class="cls-3" d="M3.83,19.62c-.1-.05-4.46,5.09-2.81,7.45,1.1,1.59,4.46,1.26,4.55.87s-2.5-.49-3.39-2.22C.94,23.3,3.9,19.66,3.83,19.62Z"/><path class="cls-7" d="M121.88,34.93c-4.58,3.5,2.25,15.42,7.16,15,3.23-.25,5.71-7.63,2.91-10.19-1.77-1.62-.58-1.17-2.52-1.75-1.29-.38-3.5,1.93-3.35-1.23,0-.55,3.77-3.51,1.61-4.77C126.54,31.36,122.83,34.2,121.88,34.93Z"/><path class="cls-7" d="M103.3,35.12c-4.45.39,3.8,17.85,8.71,17.46,3.23-.25,4.74-9.09,1.94-11.65-1.77-1.62-4.33-.76-5.62-2.52-.79-1.09,3.13-4.36,1-5.61C108.15,32.13,104.49,35,103.3,35.12Z"/><path class="cls-8" d="M74.18,63.44A54,54,0,0,1,77.91,51.6c1.62-3.59,3.58-7.47,6.32-10.34s7.43-3.89,9.59.24c2,3.76.63,8.71-.73,12.43-1.77,4.83-4.15,9.48-6.35,14.13-.68,1.45,1.48,2.72,2.16,1.26,2.22-4.71,4.6-9.42,6.44-14.3,1.63-4.32,2.88-9.61,1-14.05a7.57,7.57,0,0,0-10.48-4c-4.1,1.89-6.63,6.56-8.64,10.37a56.23,56.23,0,0,0-5.43,15.41c-.3,1.57,2.11,2.24,2.41.66Z"/><path class="cls-8" d="M134,25.3c1.27-1.93,2.58-3.83,4-5.67,1.59-2.1,3.2-4.22,6-4.47,4.21-.37,5.76,4.18,5.69,7.6-.08,4.16-1.7,8.12-3.38,11.86s-3.22,7.43-4.94,11.1c-.67,1.44,1.48,2.71,2.16,1.26,1.82-3.87,3.49-7.82,5.22-11.73,1.84-4.14,3.53-8.53,3.44-13.14-.08-3.88-1.89-8.29-6-9.27-3.39-.8-6.55.88-8.68,3.41A79.85,79.85,0,0,0,131.84,24c-.89,1.35,1.27,2.6,2.15,1.26Z"/></g><g id="Capa_4" data-name="Capa 4"><path class="cls-9" d="M74.8,17.88a15.21,15.21,0,1,0-30.42,0A18.51,18.51,0,0,0,48.76,29"/><path class="cls-9" d="M74.8,17.88a15.16,15.16,0,0,0-2.68-8.63A51.77,51.77,0,0,1,90.85,5.77c.8,0,1.6,0,2.39.06a52,52,0,0,1,49.64,52c0,.59,0,1.18,0,1.76"/><path class="cls-9" d="M98.54,109.26a51.48,51.48,0,0,0,19.66-7.2"/><path class="cls-9" d="M48.21,28c-6.67,9.7-9.82,19.45-9.39,29.82,1,24.69,17.53,45.41,40.42,50.72"/><path class="cls-9" d="M89.84,5.83a51.52,51.52,0,0,1,25.89,5.91A15.23,15.23,0,0,0,99.92.84,15.07,15.07,0,0,0,89.84,5.83Z"/><path class="cls-8" d="M48.41,89.78c-1.16,2.91-3.06,8.77-7.19,6.24-2.56-1.56-4.12-4.61-5.3-7.26C32.46,81,31.39,72.3,30.39,64c-1-8.64-1.7-17.45-4-25.87a30.48,30.48,0,0,0-4.6-10.42c-1.59-2.1-4.65-4.8-7.42-3.08-1.87,1.15-2.9,3.47-4.17,5.18-.42.57-1.13,1.66-1.91,1.76s-1.59-1.36-1.94-2c-.71-1.28-2.67-.14-2,1.14,1,1.88,2.86,4,5.2,2.78,1.86-.95,3-3.13,4.11-4.78a7.6,7.6,0,0,1,1.74-2.08c1.34-.87,3,.68,3.92,1.66,2.76,3.06,4.07,7.41,5.07,11.31,2.34,9.12,2.92,18.61,4.13,27.91C29.65,75.8,31,84.6,35,92.09c1.55,2.85,3.95,6.22,7.39,6.81,4.82.82,6.79-5,8.18-8.51.54-1.36-1.65-2-2.19-.61Z"/><ellipse class="cls-10" cx="5" cy="24.22" rx="4.5" ry="4.63"/><path class="cls-9" d="M131.24,38.47c3.7,2,1.21,10.43-2.2,11.49-3.24,1-7.74-5.33-8.8-14-.42-3.38.49-.7,2.87-1.47,2.13-.7,5.28-5.86,5.24-2.77,0,2.77-2.71,4.32-2.14,5.27S129.16,37.33,131.24,38.47Z"/><path class="cls-11" d="M112.92,39.85c3.75,2,3.31,11.62-.13,12.69s-9.93-6.45-11-15.24c-.42-3.43.85-1.4,3.25-2.18,2.16-.7,5-5.25,5-2.12,0,2.81-2.74,4.37-2.16,5.34S110.82,38.69,112.92,39.85Z"/><path class="cls-11" d="M132.25,63.14c3,1.59-1.54,2.74-6,3.59s-9.53.91-7.19-1.51C124.53,59.51,126,59.77,132.25,63.14Z"/><path class="cls-9" d="M74.89,17.72a15.21,15.21,0,1,0-30.42,0C44.47,21.6,46,30,57,30.87"/><path class="cls-9" d="M108.5,78.11A40.4,40.4,0,0,1,107.44,88c-.26,1.19-.58,2.39-1,3.63-.47,1.63-1,3.29-1.69,5-.42,1.07-.87,2.13-1.33,3.15a55,55,0,0,1-3.72,6.84,31.12,31.12,0,0,1-7.66,8.6c-2.16,1.54-4.28,2.26-6.12,2a2.56,2.56,0,0,0-.24-.11l-.2-.06a5.73,5.73,0,0,0-.84-.21,5.08,5.08,0,0,1-1.47-1,6.61,6.61,0,0,1-1.08-1.44,11.72,11.72,0,0,1-1.21-3.19,15,15,0,0,1-.32-1.9c0-.13,0-.27,0-.41a27.51,27.51,0,0,1-.11-4.12,51.29,51.29,0,0,1,3.68-16.18c.65-1.68,1.35-3.29,2.11-4.81,0,0,0,0,0,0,.26-.49.51-1,.77-1.47.09-.19.19-.36.29-.54,4.89-9,11.21-14.6,15.84-13.68a3,3,0,0,1,.64.16l.19.07a4.31,4.31,0,0,1,1.27.74C107.27,70.59,108.35,73.85,108.5,78.11Z"/><path class="cls-9" d="M148.67,70.36a40.31,40.31,0,0,1-2.07,9.78c-.38,1.15-.81,2.32-1.3,3.51q-1,2.37-2.19,4.77c-.53,1-1.08,2-1.65,3-3.92,6.7-8.66,11.81-12.88,14.21-2.31,1.31-4.48,1.82-6.29,1.34l-.23-.13-.18-.08a4.9,4.9,0,0,0-.81-.29,5,5,0,0,1-1.37-1.18,7.08,7.08,0,0,1-.93-1.54,9.85,9.85,0,0,1-.57-1.69,52,52,0,0,0,24.64-42.5,5.74,5.74,0,0,1,1.51.23A3.38,3.38,0,0,1,145,60a.76.76,0,0,1,.18.09,4.16,4.16,0,0,1,1.19.86C148.2,62.76,148.94,66.12,148.67,70.36Z"/></g></g></svg>