<svg xmlns="http://www.w3.org/2000/svg" viewBox="0 0 157.69 118.05"><defs><style>.cls-1,.cls-8{fill:#eca082;stroke:#eca082;}.cls-1,.cls-10,.cls-11,.cls-12,.cls-13,.cls-2,.cls-3,.cls-4,.cls-5,.cls-6,.cls-8,.cls-9{stroke-miterlimit:10;}.cls-1,.cls-2{stroke-width:0.75px;}.cls-2{fill:#f1876d;stroke:#f1876d;}.cls-3{fill:#d36e5b;stroke:#d36e5b;}.cls-10,.cls-3,.cls-4,.cls-5,.cls-6,.cls-8,.cls-9{stroke-width:0.75px;}.cls-4{fill:#ec6095;stroke:#ec6094;}.cls-5{fill:#e4b998;stroke:#e4b998;}.cls-6{fill:#582d29;stroke:#582d29;}.cls-7{fill:#1d1d1b;}.cls-9{fill:#1f1f1f;stroke:#1f1f1f;}.cls-10{fill:#4c4947;stroke:#494645;}.cls-11,.cls-12,.cls-13{fill:none;stroke:#1d1d1b;}.cls-11{stroke-width:2px;}.cls-12{stroke-width:2.03px;}.cls-13{stroke-width:2.03px;}</style></defs><g id="Capa_2" data-name="Capa 2"><g id="Capa_1" data-name="Capa 1"><path class="cls-1" d="M56.29,31.14A13.81,13.81,0,0,1,46,18.94,13.64,13.64,0,0,1,53.19,5.78C60.62,2,68,7.66,69.06,8.49c1.46,1.17,4.55,3.62,5,7.36C75.05,23.24,65.46,33.24,56.29,31.14Z"/><path class="cls-1" d="M78.12,8.1C55.34,13.46,37.58,34.86,37.67,58.62c.09,24.51,19.13,39.14,21.68,41,14.73,10.93,35.9,14.67,53,6.39,13-6.29,19.76-17.59,21.68-20.9a54.44,54.44,0,0,0,6.77-19.55,50.44,50.44,0,0,0-2.32-25.36A51.28,51.28,0,0,0,124.58,20.1C113.45,10.32,95.93,3.92,78.12,8.1Z"/><path class="cls-2" d="M71.27,69c2.09-4.12,15.4-.58,24.57-4.2,3-1.17,3.34-1.84,5.4-7.45.27-.72.62,2-.1,3.82-.61,1.53.11,4.82-13.32,8.11-3,.75-12.95,2-14.21.16C73.17,68.79,70.83,69.86,71.27,69Z"/><path class="cls-2" d="M90.41,5.59C90.25,4.31,98,.41,105,2.68c5.62,1.81,9.42,7.07,8.71,8.13s-4.49-1.82-13-3.58C93.87,5.8,90.52,6.41,90.41,5.59Z"/><path class="cls-2" d="M52.8,5.15c-.27-.17-15,5.48-6.28,21.25,2.15,3.9,7.84,5.31,8.16,4.82s-3.9-2.22-5.75-6C44.8,16.72,53.06,5.3,52.8,5.15Z"/><path class="cls-2" d="M47.28,29.7C35.92,47.61,35.46,61.28,41,76.22c8.82,23.8,33.92,40,64.44,31.42,12.64-3.56,21.12-11.76,21.52-13.1.27-.9-8.83,7.93-22.73,9.62-16.23,2-40.14-5-50.8-25.4-11.51-22.08,2-47,2-47C51.42,31.17,48,28.64,47.28,29.7Z"/><path class="cls-2" d="M124.73,98.2c-2.73,2.23-5.47,4.52-6.27,5.13-3.3,2.49,6.49,6.26,10.77,2,17.93-17.94,18.51-35.95,18.07-36.19-.25-.13-.78-7.72-3.39-7.6-1.65.08,3.66-1.2-1.33-.72-.69.06-3.56,16.93-5.42,20.12C135.11,84.45,127.05,95.35,124.73,98.2Z"/><path class="cls-3" d="M117.9,20.88c-5.08,2.43-4.48,12.34-1.42,19.35,3.2,7.33,10.07,13.39,14.58,11.23,2.43-1.17,2.52-3.84,2.19-6.45C132,34.68,129.72,29,124,22.81,122,20.75,120.65,19.56,117.9,20.88Z"/><path class="cls-3" d="M98.41,22.94C93.34,25.37,93.94,35.29,97,42.3c3.2,7.33,10.07,13.39,14.58,11.22,2.43-1.16,3-4.35,2.71-7-1.29-10.32-3-16-8.78-22.19A5.68,5.68,0,0,0,98.41,22.94Z"/><path class="cls-4" d="M134,54.55c2.65-3.37,6.9-3,7.48-1.41.37,1,.94,2.37.65,2.58-3.31,2.28-8.24,1.53-8.65.13C133.38,55.39,133.74,54.92,134,54.55Z"/><path class="cls-4" d="M98.29,65.14c2.65-3.38,9.74-3.31,10.32-1.68.37,1-1.9,2.64-2.2,2.84-3.3,2.28-8.24,1.54-8.64.13C97.64,66,98,65.5,98.29,65.14Z"/><path class="cls-5" d="M58.87,10.36c-1.17,2.53,5.2,9.18,7.74,8.13,1.69-.7,3-5.35.19-8.13S59.63,8.71,58.87,10.36Z"/><path class="cls-5" d="M96.64,59.07c.44-.75-1.25-3.38-3.81-3.62-1.63-.15-3.53.67-3.53,1.45C89.3,58.37,96,60.23,96.64,59.07Z"/><path class="cls-6" d="M117.45,66.36c3.51-3.07,8.8-6.3,13.52-2.55,2.43,1.92.73,9.55-4.62,10.49S115.12,68.4,117.45,66.36Z"/><path class="cls-2" d="M140.45,42.79c-2.32-4,1.23-2.69,11-1.36,4.26.58,5,4,4.3,5.81-.57,1.55,1.17,2.44-2.51,6-2.24,2.16-12.12,5.95-11.42,3.87C142.65,54.59,142.08,45.57,140.45,42.79Z"/><path class="cls-1" d="M81.57,114c-4.92-13,6.56-27.37,10.26-32.68C96.64,74.42,107.94,71,108.6,72c7.8,11.93-7.87,43.51-21,43.7C86.51,115.75,82.36,116.12,81.57,114Z"/><path class="cls-2" d="M82,116.1c3.6,2,10.09.38,13.85-4.36,15.75-19.88,16-33.19,15.51-33.38-.26-.1-.33,6.34-7.74,20.09-5.13,9.54-9.87,12.82-14.78,13.87-.68.14-2.55,1.22-4.61-.44C81,109.33,77.5,113.55,82,116.1Z"/><path class="cls-5" d="M105.55,75.18c-.39-.77-3.51-.8-5.12,1.22-1,1.28-1.36,3.32-.71,3.75C101,81,106.16,76.38,105.55,75.18Z"/><path class="cls-7" d="M71.72,56.29a52.47,52.47,0,0,1,19.55-2.73,18.44,18.44,0,0,1,6.17,1.06,6.38,6.38,0,0,1,3.77,3.67,5.5,5.5,0,0,1-1.53,5.28c-2.7,2.9-7,4-10.8,4.57-5,.78-10,1-15.06,1.36-1.59.12-1.6,2.62,0,2.5,5.1-.37,10.24-.64,15.3-1.39,4.34-.64,9.22-2,12.33-5.27s3.34-8,0-11.11S92.66,51,88.22,51a56,56,0,0,0-17.17,2.88c-1.52.5-.87,2.92.67,2.41Z"/><path class="cls-7" d="M140,41.84c1.93,0,3.86,0,5.79.1,1.71.08,3.76,0,5.36.72,2.5,1.09,4.1,3.54,3.26,6.27s-3.59,4.45-6,5.75c-2,1-4.21,1.15-6.41,1.48a1.26,1.26,0,0,0-.87,1.54,1.28,1.28,0,0,0,1.54.87c2.3-.35,4.56-.49,6.67-1.56,2.81-1.42,5.74-3.38,7.08-6.35a7.34,7.34,0,0,0-2-8.87c-2-1.67-4.21-2-6.75-2.24s-5.11-.21-7.67-.21a1.25,1.25,0,0,0,0,2.5Z"/><path class="cls-8" d="M3,45.19c1.66.88,7.07-2.86,6.19-6.19-.49-1.84-2.83-3.38-4.45-2.91C1.82,36.94,1.19,44.24,3,45.19Z"/><path class="cls-2" d="M4,36C4,35.94-.41,41.09,1.23,43.45c1.11,1.58,4.46,1.25,4.55.87s-2.49-.49-3.38-2.23C1.15,39.67,4.12,36,4,36Z"/><path class="cls-5" d="M4.58,38.6a1.35,1.35,0,0,0,.22,2,1.09,1.09,0,0,0,1.38-.2c.32-.48-.11-1.23-.59-1.56C5.55,38.77,5,38.36,4.58,38.6Z"/><path class="cls-9" d="M121.32,32.29c-4.59,3.51,2.57,20.39,7.48,20,3.23-.25,6.33-6.36,3.52-8.92-1.76-1.62-1.74-3.87-3.67-4.46-1.3-.38-3.51,1.93-3.35-1.23,0-.55,3.18-5.25,1-6.51C125.18,30.51,122.27,31.57,121.32,32.29Z"/><path class="cls-9" d="M103.1,33.86c-4.59,3.5,3.21,20,8.13,19.61,3.22-.25,4.74-9.09,1.93-11.65-1.76-1.61-4.32-.76-5.61-2.52-.8-1.09,1.17.28,1.33-2.89a3,3,0,0,0-1.52-3.58C106.21,32.16,104.05,33.13,103.1,33.86Z"/><path class="cls-10" d="M122.69,33.19a1.64,1.64,0,0,0,1,2.19,1.53,1.53,0,0,0,1.42-1.68A1.73,1.73,0,0,0,122.69,33.19Z"/><path class="cls-10" d="M104.49,34.61a1.53,1.53,0,0,0,1.16,2.06,1.38,1.38,0,0,0,1.42-1,1.4,1.4,0,0,0-.77-1.55A1.42,1.42,0,0,0,104.49,34.61Z"/></g><g id="Capa_4" data-name="Capa 4"><path class="cls-11" d="M73.89,18.58a15.21,15.21,0,1,0-30.42,0,18.51,18.51,0,0,0,4.38,11.14"/><path class="cls-11" d="M73.89,18.58A15.16,15.16,0,0,0,71.21,10,51.77,51.77,0,0,1,89.94,6.47c.8,0,1.6,0,2.39.06A52,52,0,0,1,142,58.5c0,.59,0,1.18,0,1.76"/><path class="cls-11" d="M97.63,110a51.48,51.48,0,0,0,19.66-7.2"/><path class="cls-11" d="M47.3,28.68c-6.67,9.7-9.82,19.45-9.39,29.82,1,24.69,17.53,45.41,40.42,50.72"/><path class="cls-11" d="M88.92,6.53a51.47,51.47,0,0,1,25.89,5.91A15.19,15.19,0,0,0,88.92,6.53Z"/><path class="cls-7" d="M47.5,90.48c-1,2.59-2.8,8.36-6.63,6.55-2.41-1.14-4-3.76-5.14-6-3.37-6.61-4.63-14.22-5.64-21.5-1.1-8-1.72-16.15-3.16-24.15a58.11,58.11,0,0,0-3-11.16c-1.11-2.84-2.56-5.84-4.95-7.84-6.58-5.5-10.39,5.22-13.44,9.22-.89,1.16,1.08,2.29,2,1.15,1.83-2.4,3.05-5.21,4.9-7.59.69-.9,1.69-2.1,2.94-2.08,1.55,0,2.92,1.59,3.76,2.74a29.68,29.68,0,0,1,4.28,10,99.51,99.51,0,0,1,2.25,12c1.1,8,1.73,16.08,3.14,24.05,1.18,6.64,2.86,14,7,19.54C37.42,97.62,40,100,43,99.62c3.9-.53,5.42-5.44,6.66-8.54.54-1.35-1.65-1.94-2.18-.6Z"/><ellipse class="cls-12" cx="5.08" cy="40.92" rx="4.5" ry="4.63"/><path class="cls-11" d="M130.32,39.17c3.7,2,3.45,12.66,0,13.72-3.24,1-10-7.56-11-16.24-.41-3.38.76-3.93,3.13-4.7,2.13-.69,5-2.63,5,.46,0,2.77-2.71,4.31-2.14,5.27S128.24,38,130.32,39.17Z"/><path class="cls-13" d="M112,40.55c3.75,2.05,3.49,12.82,0,13.89-3.29,1-10.1-7.65-11.18-16.45-.42-3.42.47-3.32,2.87-4.11,2.16-.7,5.38-3.31,5.35-.18,0,2.8-2.74,4.37-2.17,5.34S109.9,39.39,112,40.55Z"/><path class="cls-13" d="M131.34,63.84c3.13,1.26-.79,10.18-5.65,10.63-4.51.43-9.92-6.13-7.59-8.56C123.61,60.21,123.81,60.79,131.34,63.84Z"/><path class="cls-11" d="M74,18.42a15.21,15.21,0,1,0-30.42,0c0,3.88,1.57,12.28,12.5,13.15"/><path class="cls-11" d="M111.64,82.12a40.2,40.2,0,0,1-2.57,9.65c-.44,1.13-.94,2.27-1.49,3.44q-1.08,2.31-2.43,4.65c-.58,1-1.19,2-1.8,2.91A53.72,53.72,0,0,1,98.63,109a31.22,31.22,0,0,1-8.89,7.33c-2.37,1.19-4.57,1.58-6.35,1a1.7,1.7,0,0,0-.22-.15l-.18-.09a5.6,5.6,0,0,0-.8-.33,5,5,0,0,1-1.3-1.25A6.8,6.8,0,0,1,80,113.9a12,12,0,0,1-.7-3.34,15.35,15.35,0,0,1,0-1.93c0-.13,0-.27,0-.41a26.31,26.31,0,0,1,.52-4.09A51.34,51.34,0,0,1,86,88.7q1.35-2.34,2.82-4.43s0,0,0,0c.33-.44.66-.9,1-1.33.12-.17.24-.33.37-.49,6.2-8.12,13.31-12.71,17.74-11.1a3.61,3.61,0,0,1,.61.26l.18.1a4.35,4.35,0,0,1,1.14.92C111.57,74.5,112.14,77.89,111.64,82.12Z"/><path class="cls-11" d="M147.76,71.06a40.31,40.31,0,0,1-2.07,9.78c-.38,1.15-.81,2.32-1.3,3.51q-1,2.37-2.19,4.77c-.53,1-1.08,2-1.65,3-3.92,6.7-8.66,11.81-12.88,14.21-2.31,1.31-4.48,1.82-6.29,1.34l-.23-.13-.18-.08a4.9,4.9,0,0,0-.81-.29,5,5,0,0,1-1.37-1.18,7.08,7.08,0,0,1-.93-1.54,9.85,9.85,0,0,1-.57-1.69,52,52,0,0,0,24.64-42.5,5.74,5.74,0,0,1,1.51.23,3.38,3.38,0,0,1,.63.23.76.76,0,0,1,.18.09,4.16,4.16,0,0,1,1.19.86C147.29,63.46,148,66.82,147.76,71.06Z"/></g></g></svg>