<svg xmlns="http://www.w3.org/2000/svg" viewBox="0 0 157.69 118.05"><defs><style>.cls-1,.cls-2{fill:#eca082;stroke:#eca082;}.cls-1,.cls-10,.cls-12,.cls-13,.cls-2,.cls-3,.cls-4,.cls-5,.cls-6,.cls-7,.cls-8,.cls-9{stroke-miterlimit:10;}.cls-1,.cls-4,.cls-5,.cls-6,.cls-7,.cls-8,.cls-9{stroke-width:0.75px;}.cls-2,.cls-3{stroke-width:0.75px;}.cls-3{fill:#f1876d;stroke:#f1876d;}.cls-4{fill:#d36e5b;stroke:#d36e5b;}.cls-5{fill:#ec6095;stroke:#ec6094;}.cls-6{fill:#e4b998;stroke:#e4b998;}.cls-7{fill:#1f1f1f;stroke:#1f1f1f;}.cls-8{fill:#582d29;stroke:#582d29;}.cls-9{fill:#4c4947;stroke:#494645;}.cls-10,.cls-12,.cls-13{fill:none;stroke:#1d1d1b;}.cls-10{stroke-width:2px;}.cls-11{fill:#1d1d1b;}.cls-12{stroke-width:2.03px;}.cls-13{stroke-width:2.03px;}</style></defs><g id="Capa_2" data-name="Capa 2"><g id="Capa_1" data-name="Capa 1"><path class="cls-1" d="M3.88,44.83c1.67.87,7.08-2.86,6.2-6.2-.49-1.84-2.83-3.37-4.46-2.9C2.72,36.58,2.09,43.88,3.88,44.83Z"/><path class="cls-2" d="M56.92,30.31A13.8,13.8,0,0,1,46.66,18.12,13.65,13.65,0,0,1,53.82,5c7.43-3.79,14.82,1.88,15.87,2.71,1.46,1.17,4.55,3.63,5,7.36C75.68,22.42,66.09,32.42,56.92,30.31Z"/><path class="cls-2" d="M141.46,64.76a54.5,54.5,0,0,1-6.77,19.55c-1.92,3.3-8.67,14.61-21.68,20.9l-.76.36v0c0-6.13-11.7-11.1-26.13-11.1-8.35,0-15.79,1.66-20.57,4.26a15.62,15.62,0,0,0-2.9,2s0,0,0,0c-.91-.59-1.8-1.21-2.66-1.85-2.55-1.89-21.59-16.52-21.68-41C38.21,34,56,12.63,78.75,7.27c17.81-4.18,35.33,2.22,46.46,12A51.21,51.21,0,0,1,139.14,39.4,50.44,50.44,0,0,1,141.46,64.76Z"/><path class="cls-3" d="M5,35.63c-.09-.05-4.45,5.09-2.81,7.45,1.11,1.59,4.46,1.26,4.55.87S4.2,43.47,3.3,41.73C2.06,39.31,5,35.67,5,35.63Z"/><path class="cls-3" d="M73.56,67.57c4.54-.83,9.77,11.91,18.19,17,2.71,1.64,3.49,1.55,9.2-.19.74-.23-1.23,1.7-3.1,2.22-1.59.44-3.77,3-14.52-5.71C80.92,79,74,71.78,74.62,69.7,74.86,69,72.6,67.74,73.56,67.57Z"/><path class="cls-3" d="M91,4.76c-.16-1.28,7.54-5.18,14.62-2.9,5.62,1.81,9.42,7.06,8.71,8.13s-4.49-1.83-13-3.58C94.5,5,91.15,5.59,91,4.76Z"/><path class="cls-3" d="M53.43,4.32c-.27-.16-15,5.48-6.28,21.26,2.15,3.89,7.84,5.3,8.16,4.81s-3.9-2.21-5.75-6C45.43,15.9,53.69,4.47,53.43,4.32Z"/><path class="cls-3" d="M48.3,28.87C36.93,46.79,36.47,60.45,42,75.4c8.83,23.79,33.92,40,64.44,31.41,12.65-3.56,21.13-11.76,21.53-13.1.27-.9-8.83,7.93-22.73,9.63-16.23,2-40.15-5-50.8-25.4-11.52-22.08,2-47,2-47C52.44,30.34,49,27.81,48.3,28.87Z"/><path class="cls-3" d="M87.11,110.83c-3.41-.89-6.87-1.75-7.84-2-4-1.18,2,5.14,8,6.07,25.06,3.87,36.74-2.51,36.68-3,0-.28,5.77-5.2,4.12-7.23a64.87,64.87,0,0,0-4.25-5.13c-.47-.52-13,8.33-16.65,8.71C103.08,108.64,90.79,111,87.11,110.83Z"/><path class="cls-2" d="M62.53,103.15c8.9-10.71,27-7.82,33.48-7.23,8.39.78,16.92,8.92,16.36,10-6.51,12.67-41.71,14.65-48.38,3.29C63.46,108.31,61.09,104.88,62.53,103.15Z"/><path class="cls-3" d="M60.34,105.1c0,4.13,4.65,9,10.64,9.89,25.06,3.87,36.75-2.51,36.68-3,0-.28-5.68,2.83-21.29,3.19-10.83.25-16-2.26-19.36-6-.46-.52-2.32-1.62-1.9-4.23C65.76,100.92,60.34,99.93,60.34,105.1Z"/><path class="cls-4" d="M118.53,20.05c-5.08,2.43-4.48,12.35-1.42,19.36,3.2,7.33,10.07,13.39,14.58,11.22,2.43-1.17,2.52-3.83,2.19-6.45-1.29-10.32-3.53-16-9.29-22.19C122.66,19.92,121.28,18.73,118.53,20.05Z"/><path class="cls-4" d="M99,22.12C94,24.55,94.57,34.46,97.62,41.47c3.21,7.33,10.08,13.39,14.59,11.23,2.43-1.17,3-4.35,2.71-7-1.3-10.32-3-16.06-8.78-22.19A5.66,5.66,0,0,0,99,22.12Z"/><path class="cls-5" d="M134.66,53.73c2.65-3.38,6.9-3,7.48-1.42.37,1,.94,2.38.65,2.58-3.31,2.29-8.24,1.54-8.65.13C134,54.56,134.37,54.1,134.66,53.73Z"/><path class="cls-5" d="M98.92,64.31c2.65-3.38,9.74-3.31,10.32-1.68.37,1-1.9,2.64-2.2,2.84-3.3,2.29-8.24,1.54-8.64.13C98.27,65.14,98.63,64.68,98.92,64.31Z"/><path class="cls-6" d="M6.49,38.24a1.34,1.34,0,0,0,.21,1.95A1.1,1.1,0,0,0,8.09,40c.32-.47-.11-1.22-.59-1.55C7.46,38.41,6.85,38,6.49,38.24Z"/><path class="cls-6" d="M59.5,9.54c-1.17,2.53,5.2,9.17,7.74,8.12,1.69-.69,3-5.34.19-8.12S60.26,7.88,59.5,9.54Z"/><path class="cls-6" d="M96.79,81.79c.85-.1,1.93-3,.58-5.22-.87-1.4-2.67-2.41-3.29-1.94C92.91,75.52,95.46,82,96.79,81.79Z"/><path class="cls-6" d="M108.14,104.82c.47-.72-1-3.45-3.59-3.85-1.62-.25-3.56.45-3.61,1.23C100.85,103.67,107.4,105.93,108.14,104.82Z"/><path class="cls-7" d="M121,27.6c-4.59,3.5,3.22,25.93,8.13,25.55,3.22-.26,6.09-10.4,3.29-13-1.76-1.61-5.29.21-6.58-1.55-.8-1.09.81-2.26,1-5.42,0-.55.22-4.55-1.94-5.8A3.82,3.82,0,0,0,121,27.6Z"/><path class="cls-7" d="M102.66,28.76c-4.59,3.51,3.21,25.94,8.13,25.55,3.22-.25,6.09-10.4,3.29-13-1.77-1.61-5.3.21-6.58-1.55-.8-1.09.81-2.25,1-5.42,0-.54.23-4.55-1.93-5.8A3.84,3.84,0,0,0,102.66,28.76Z"/><path class="cls-8" d="M118.27,66.5c3.1.78,8.88-1.2,13.52-2.55,3-.87.73,9.55-4.62,10.49S115.27,65.75,118.27,66.5Z"/><path class="cls-9" d="M122.66,31.15a1.64,1.64,0,0,0,1,2.19,1.53,1.53,0,0,0,1.42-1.68A1.73,1.73,0,0,0,122.66,31.15Z"/><path class="cls-9" d="M104.46,32.57a1.53,1.53,0,0,0,1.16,2.06,1.35,1.35,0,0,0,.65-2.58A1.42,1.42,0,0,0,104.46,32.57Z"/><path class="cls-10" d="M74.51,18.36a15.21,15.21,0,0,0-30.42,0A18.51,18.51,0,0,0,48.47,29.5"/><path class="cls-10" d="M74.51,18.36a15.16,15.16,0,0,0-2.68-8.63A51.77,51.77,0,0,1,90.56,6.25c.8,0,1.6,0,2.39.06A52,52,0,0,1,123.06,98.9"/><path class="cls-10" d="M47.92,28.46c-6.66,9.7-9.82,19.45-9.39,29.82.75,17.92,9.65,33.75,23.22,43.1"/><path class="cls-10" d="M89.55,6.31a51.52,51.52,0,0,1,25.89,5.91A15.19,15.19,0,0,0,89.55,6.31Z"/><path class="cls-11" d="M48.12,90.26c-1,2.59-2.79,8.36-6.62,6.55-2.41-1.13-4-3.75-5.14-6C33,84.17,31.72,76.55,30.72,69.27c-1.1-8-1.72-16.15-3.16-24.15A59.81,59.81,0,0,0,24.6,34c-1.12-2.83-2.57-5.84-5-7.83-6.59-5.5-10.39,5.21-13.45,9.22-.88,1.16,1.09,2.29,2,1.14,1.83-2.4,3.05-5.2,4.89-7.59.7-.9,1.69-2.09,2.94-2.08,1.56,0,2.92,1.6,3.77,2.75A29.46,29.46,0,0,1,24,39.6a101.15,101.15,0,0,1,2.26,12c1.1,8,1.72,16.08,3.14,24,1.18,6.64,2.85,14,7,19.54,1.67,2.25,4.23,4.66,7.27,4.25,3.89-.54,5.42-5.44,6.66-8.54.54-1.36-1.65-2-2.19-.61Z"/><path class="cls-10" d="M131,39c3.7,2,3.44,12.67,0,13.72-3.24,1-10-7.55-11-16.24-.41-3.38-.28-9.29,2.1-10.06,2.13-.69,6,2.73,6,5.82,0,2.77-2.7,4.32-2.13,5.27S128.87,37.81,131,39Z"/><path class="cls-12" d="M112.64,40.33c3.74,2.05,3.48,12.82,0,13.89s-10.1-7.65-11.18-16.44c-.42-3.43-.28-9.41,2.13-10.19,2.15-.7,6.12,2.77,6.08,5.89,0,2.81-2.74,4.37-2.16,5.34S110.53,39.18,112.64,40.33Z"/><path class="cls-12" d="M132,63.62c3.36-.45-.78,10.18-5.64,10.64-4.51.42-10.92-8.05-7.59-8.56C125.54,64.65,125,64.54,132,63.62Z"/><path class="cls-10" d="M74.61,18.21a15.21,15.21,0,0,0-30.42,0c0,3.88,1.56,12.27,12.5,13.14"/><ellipse class="cls-13" cx="5.61" cy="40.28" rx="4.5" ry="4.63"/><path class="cls-10" d="M128.25,105.54c0,3-2.88,5.79-7.53,7.8s-11.32,3.3-18.6,3.3a59.34,59.34,0,0,1-7.7-.49,40.18,40.18,0,0,0,10-2.68c4.63-2,7.51-4.74,7.53-7.77a52,52,0,0,0,11.07-6.8C126.32,100.75,128.25,103.05,128.25,105.54Z"/><path class="cls-10" d="M105.57,113l-1.11.51a40.18,40.18,0,0,1-10,2.68,56.87,56.87,0,0,1-8.56.62c-14.43,0-26.13-5-26.13-11.1a6.16,6.16,0,0,1,2-4.29l.09.06a6,6,0,0,0-1.85,4.1c0,6.13,11.7,11.1,26.13,11.1,7.28,0,13.86-1.26,18.6-3.3Z"/><path class="cls-11" d="M84.9,58.72a53.25,53.25,0,0,1,8.48,9c2.41,3.23,5,7,6.08,10.88a7.39,7.39,0,0,1-.33,5.6,5,5,0,0,1-5,2.39C90,86.23,86.49,82.76,84,79.79c-3.34-3.88-6.22-8.19-9.19-12.34-.93-1.3-3.1,0-2.16,1.26,3,4.22,6,8.56,9.31,12.53C84.83,84.71,88.72,88.3,93.4,89a7.57,7.57,0,0,0,8.89-6.76c.53-4.71-2.46-9.41-4.94-13.19A56,56,0,0,0,86.67,57c-1.23-1-3,.73-1.77,1.77Z"/><path class="cls-10" d="M112.25,105.54v0c0,2.7-2.3,5.16-6.07,7.08l-.61.31-.85.38c-4.74,2-11.32,3.3-18.6,3.3-14.43,0-26.13-5-26.13-11.1a6,6,0,0,1,1.85-4.1,8.42,8.42,0,0,1,.8-.77s0,0,0,0a15.62,15.62,0,0,1,2.9-2c4.78-2.6,12.22-4.26,20.57-4.26C100.55,94.44,112.25,99.41,112.25,105.54Z"/></g></g></svg>