<svg xmlns="http://www.w3.org/2000/svg" viewBox="0 0 157.69 118.05"><defs><style>.cls-1,.cls-2,.cls-4{fill:#eca082;stroke:#eca082;}.cls-1,.cls-10,.cls-11,.cls-12,.cls-14,.cls-15,.cls-2,.cls-3,.cls-4,.cls-5,.cls-6,.cls-7,.cls-8,.cls-9{stroke-miterlimit:10;}.cls-1,.cls-10,.cls-11,.cls-5,.cls-6,.cls-7,.cls-9{stroke-width:0.75px;}.cls-2,.cls-3{stroke-width:0.75px;}.cls-3{fill:#f1876d;stroke:#f1876d;}.cls-4{stroke-width:0.77px;}.cls-5{fill:#d36e5b;stroke:#d36e5b;}.cls-6{fill:#ec6095;stroke:#ec6094;}.cls-7,.cls-8{fill:#e4b998;stroke:#e4b998;}.cls-8{stroke-width:0.6px;}.cls-9{fill:#1f1f1f;stroke:#1f1f1f;}.cls-10{fill:#582d29;stroke:#582d29;}.cls-11{fill:#4c4947;stroke:#494645;}.cls-12,.cls-14,.cls-15{fill:none;stroke:#1d1d1b;}.cls-12{stroke-width:2px;}.cls-13{fill:#1d1d1b;}.cls-14{stroke-width:2.03px;}.cls-15{stroke-width:2.03px;}</style></defs><g id="Capa_2" data-name="Capa 2"><g id="Capa_4" data-name="Capa 4"><path class="cls-1" d="M3.66,28.25c1.66.88,7.07-2.85,6.19-6.19C9.37,20.22,7,18.68,5.4,19.15,2.5,20,1.87,27.3,3.66,28.25Z"/><path class="cls-2" d="M54.6,32.51a13.8,13.8,0,0,1-10.25-12.2A13.62,13.62,0,0,1,51.51,7.15C58.94,3.35,66.33,9,67.38,9.86c1.46,1.17,4.55,3.63,5,7.36C73.37,24.62,63.78,34.62,54.6,32.51Z"/><path class="cls-2" d="M78.44,9.47C55.66,14.83,37.9,36.23,38,60c.09,24.51,19.13,39.14,21.68,41,14.73,10.93,35.89,14.67,53,6.39,13-6.28,19.76-17.59,21.68-20.9A54.44,54.44,0,0,0,141.15,67a50.45,50.45,0,0,0-2.32-25.36,51.23,51.23,0,0,0-13.94-20.13C113.77,11.69,96.25,5.29,78.44,9.47Z"/><path class="cls-3" d="M4.72,19.06c-.09-.06-4.45,5.09-2.8,7.45,1.1,1.58,4.46,1.25,4.54.87S4,26.89,3.08,25.15C1.83,22.74,4.8,19.1,4.72,19.06Z"/><path class="cls-3" d="M83.8,71.25C82.79,66.74,69,66.92,61,61.18c-2.58-1.85-2.79-2.6-3.42-8.54-.09-.77-1.09,1.8-.84,3.72C57,58,55.47,61,67.69,67.48c2.75,1.46,12.08,5.06,13.74,3.62C82,70.59,84,72.2,83.8,71.25Z"/><path class="cls-3" d="M89.54,7c-.17-1.28,7.54-5.18,14.61-2.9,5.63,1.81,9.42,7.06,8.71,8.12s-4.49-1.82-13-3.58C93,7.17,89.65,7.78,89.54,7Z"/><path class="cls-3" d="M52.41,6.78c-.27-.17-15,5.48-6.28,21.25,2.15,3.9,7.84,5.31,8.16,4.81s-3.9-2.21-5.75-6C44.41,18.35,52.67,6.93,52.41,6.78Z"/><path class="cls-3" d="M47.57,31.07C36.2,49,35.74,62.65,41.28,77.6c8.83,23.79,33.92,40,64.44,31.41,12.65-3.56,21.13-11.76,21.53-13.1.27-.9-8.83,7.93-22.73,9.63-16.23,2-40.15-5-50.8-25.4-11.52-22.09,2-47,2-47C51.71,32.54,48.24,30,47.57,31.07Z"/><path class="cls-2" d="M55.19,110.82C52,100.48,82.9,81.88,92.2,83.63c3.79.7,6.6,2.52,6.66,3.73.76,14.23-28.65,33.67-40.14,27.22A6.93,6.93,0,0,1,55.19,110.82Z"/><path class="cls-3" d="M66.69,94.34c-3.39,1-15.79,14.07-13.18,18.53,2.08,3.57,8.53,5.4,14.17,3.18C91.28,106.76,98.15,95.37,97.85,95c-.18-.22-3.47,5.31-16.78,13.48-9.23,5.67-15,6.13-19.75,4.57a8.32,8.32,0,0,1-4-4.25C55.81,105,60.5,100.86,66.69,94.34Z"/><path class="cls-4" d="M121.74,100.82c8-7.71,6.08-4.34,15.22-18.45,2.17-3.35,8.56,1.64,8.81,2.85,2.67,13.2-30.67,33.08-43,27.2C100.17,111.18,115.41,106.88,121.74,100.82Z"/><path class="cls-3" d="M113.71,106.55c-3,5.19-20.3-4.42-9.42,4.91,6.32,5.42,33.57-7.8,42.06-23,.33-.59-22.65,21.77-27.35,18.12S114.64,104.92,113.71,106.55Z"/><path class="cls-5" d="M128,26.76c-5.6.55-8.42,10.07-7.94,17.71.51,8,4.91,16,9.88,15.52,2.68-.27,3.68-2.74,4.26-5.31,2.31-10.15,4-17.41-1.16-24C131.41,28.56,131,26.46,128,26.76Z"/><path class="cls-5" d="M108.33,22.44c-5.57.79-8,10.43-7.17,18,.85,8,5.59,15.8,10.53,15.09,2.67-.38,4.21-3.24,4.68-5.83,1.87-10.23,1.95-16.22-1.69-23.81A5.68,5.68,0,0,0,108.33,22.44Z"/><path class="cls-6" d="M133.77,62c2.65-3.38,6.9-3.05,7.48-1.42.37,1,.94,2.38.64,2.58-3.3,2.29-8.23,1.54-8.64.13C133.12,62.83,133.48,62.36,133.77,62Z"/><path class="cls-6" d="M99.73,62.77c3.08-3,10.09-2,10.46-.32.23,1.07-2.23,2.37-2.55,2.53-3.57,1.84-8.37.46-8.59-1C99,63.52,99.4,63.1,99.73,62.77Z"/><path class="cls-7" d="M6.26,21.66a1.35,1.35,0,0,0,.22,2,1.09,1.09,0,0,0,1.38-.2c.32-.48-.1-1.23-.59-1.56C7.24,21.83,6.63,21.42,6.26,21.66Z"/><path class="cls-7" d="M57.19,11.73c-1.17,2.54,5.2,9.18,7.74,8.13,1.69-.7,3-5.35.19-8.13S58,10.08,57.19,11.73Z"/><path class="cls-8" d="M60.48,55.07c-.24-.62,1.53-2.52,3.63-2.48,1.35,0,2.75.82,2.63,1.43C66.52,55.17,60.84,56,60.48,55.07Z"/><path class="cls-7" d="M84.35,90.08c.19,1.15,5.29,2.49,7.37,0,.7-.85,1.28-2.41.67-3.08C91,85.49,84.1,88.65,84.35,90.08Z"/><path class="cls-9" d="M127.14,33.83c-5.4,2-4.41,25.76.41,26.81,3.16.68,8.84-8.2,6.89-11.47-1.22-2.05-5.13-1.32-5.85-3.38-.45-1.27,1.43-1.93,2.49-4.91.18-.52,1.52-4.29-.18-6.12A3.83,3.83,0,0,0,127.14,33.83Z"/><path class="cls-9" d="M109.54,29.78c-5.43,2-4.73,25.71.07,26.81,3.15.73,8.94-8.09,7-11.38-1.2-2.06-5.12-1.38-5.82-3.45-.43-1.28,1.46-1.91,2.56-4.88.19-.51,1.58-4.27-.1-6.12A3.86,3.86,0,0,0,109.54,29.78Z"/><path class="cls-10" d="M113.38,69.47c3.58-1.3,2.42.7,7.07-.65,3-.87,7.41,6,2.06,7S110.47,70.53,113.38,69.47Z"/><path class="cls-11" d="M128.37,37.71a1.65,1.65,0,0,0,.35,2.4,1.53,1.53,0,0,0,1.84-1.2C130.57,38.05,129,37.28,128.37,37.71Z"/><path class="cls-11" d="M110.36,34a1.54,1.54,0,0,0,.49,2.32,1.36,1.36,0,0,0,1.66-.56,1.38,1.38,0,0,0-.27-1.7A1.42,1.42,0,0,0,110.36,34Z"/><path class="cls-12" d="M73.6,20.28a15.21,15.21,0,1,0-30.42,0,18.51,18.51,0,0,0,4.38,11.14"/><path class="cls-12" d="M73.6,20.28a15.16,15.16,0,0,0-2.68-8.63A51.77,51.77,0,0,1,89.65,8.17c.8,0,1.6,0,2.39.06a52.06,52.06,0,0,1,45.64,72"/><path class="cls-12" d="M47,30.38c-6.67,9.7-9.83,19.45-9.39,29.82a55.12,55.12,0,0,0,20.75,41.29"/><path class="cls-12" d="M79.78,111.28a51.54,51.54,0,0,0,9.87,1,52.24,52.24,0,0,0,11.87-1.36"/><path class="cls-12" d="M88.64,8.22a51.73,51.73,0,0,1,25.89,5.91A15.2,15.2,0,0,0,88.64,8.22Z"/><path class="cls-13" d="M47.21,92.18c-.91,2.26-2.43,7.52-5.74,6.86-2.26-.45-3.95-2.8-5.07-4.63-3.26-5.36-4.71-11.81-5.78-17.93-1.22-7-1.83-14.13-2.74-21.19-.45-3.54-1-7.07-1.68-10.57-.33-1.57-.7-3.14-1.13-4.68a12.68,12.68,0,0,0-1.13-3.36c-1.83-2.85-3.75,2-4.22,3.19-1,2.52-1.76,5.73-3.24,7.82,0,.05-.16.13-.18.2-.08.24-.08-.06,0,0-.14-.2.65.14.66.13a1.59,1.59,0,0,1-.15-.26q-.18-.37-.33-.75c-.67-1.66-1.18-3.38-1.71-5.08-.42-1.34-.78-2.72-1.32-4-.2-.46-.43-.92-1-1.06-1.15-.32-1.43.77-1.53,1.6a31.71,31.71,0,0,1-.73,4.12,7.49,7.49,0,0,1-.28.92c-.17.42-.25.22,0,.19s.46,0,.66,0,.09.2.06,0a2.36,2.36,0,0,0-.28-.52A14.08,14.08,0,0,1,9.7,41,112.24,112.24,0,0,1,7.61,29.15c-.2-1.44-2.39-.83-2.18.6.35,2.44.71,4.88,1.14,7.31a37,37,0,0,0,1.59,6.65c.48,1.26,1.74,3.12,3.21,1.71A5.15,5.15,0,0,0,12.46,43c.18-.75.31-1.51.44-2.28.07-.47.13-.93.2-1.4,0-.27.07-.54.1-.82s0-.24-.24.29l-.81.33-.89-.48,0,.06c-.06.11,0-.11,0,0a2.2,2.2,0,0,0,.2.54c.18.52.34,1,.51,1.58.42,1.33.83,2.67,1.27,4a36,36,0,0,0,1.31,3.6c.32.72.71,1.51,1.56,1.7,1.89.43,2.89-2.24,3.45-3.55,1-2.27,1.68-4.64,2.64-6.9a11.21,11.21,0,0,1,.52-1.11c.08-.16.18-.3.27-.46s.06,0,0,0a1.72,1.72,0,0,1-.6,0s-.5-.26-.44-.27.19.5.19.5c.41,1.27.79,2.54,1.12,3.84a131.54,131.54,0,0,1,2.76,16.64c1.24,10.5,2,21.44,5.83,31.39,1.49,3.81,3.61,8.45,7.45,10.43a5.22,5.22,0,0,0,6.33-.84c1.86-1.87,2.78-4.61,3.74-7,.54-1.35-1.65-1.94-2.19-.6Z"/><ellipse class="cls-14" cx="5.72" cy="23.57" rx="4.5" ry="4.63"/><path class="cls-12" d="M133.12,48.23c2.87,3.1-.74,13.1-4.3,13-3.4-.08-7.07-10.33-5.33-18.9.68-3.34,2.68-8.9,5.18-8.88,2.23,0,4.87,4.51,3.85,7.43-.9,2.61-3.93,3.23-3.69,4.32S131.51,46.49,133.12,48.23Z"/><path class="cls-15" d="M115.32,43.74c2.9,3.13-.76,13.27-4.36,13.19-3.44-.07-7.16-10.45-5.4-19.14.68-3.38,2.71-9,5.24-9,2.27,0,4.94,4.56,3.91,7.52-.92,2.65-4,3.28-3.74,4.38S113.68,42,115.32,43.74Z"/><path class="cls-15" d="M125,74.43c2-.88-.72-5.24-4.64-6-4.46-.86-9.36,1.7-7.17,4.26C117.8,78.11,119,77.14,125,74.43Z"/><path class="cls-12" d="M96.77,96.91A40.13,40.13,0,0,1,90,104.24c-.92.79-1.89,1.57-2.92,2.34q-2,1.55-4.33,3c-1,.61-2,1.19-3,1.73C73,115,66.28,117,61.42,116.86c-2.65-.06-4.77-.74-6.08-2.08l-.13-.23-.11-.16a5.94,5.94,0,0,0-.55-.67A5,5,0,0,1,54,112a7.21,7.21,0,0,1,0-1.8,11.85,11.85,0,0,1,1-3.28,15.45,15.45,0,0,1,.87-1.72,27,27,0,0,1,2.58-3.72A51.39,51.39,0,0,1,71,90.71c1.53-.95,3.05-1.82,4.57-2.59h0l1.5-.72.55-.26c9.28-4.27,17.71-5,20.87-1.51a4.15,4.15,0,0,1,.42.52,1.63,1.63,0,0,1,.11.17,4.52,4.52,0,0,1,.58,1.35C100.27,90.15,99.19,93.41,96.77,96.91Z"/><path class="cls-12" d="M143.45,93.72a40.13,40.13,0,0,1-6.79,7.33c-.92.79-1.9,1.57-2.92,2.34-1.36,1-2.8,2-4.33,3-7.81,4.87-15.75,7.44-21.31,7.31-2.65-.06-4.77-.74-6.08-2.08a1.71,1.71,0,0,0-.13-.23,1.77,1.77,0,0,0-.12-.17,3.92,3.92,0,0,0-.25-.32,52.15,52.15,0,0,0,36.16-30.63c3.36-.16,6,.55,7.5,2.19a4.15,4.15,0,0,1,.42.52,1.63,1.63,0,0,1,.11.17,4.26,4.26,0,0,1,.57,1.35C147,87,145.87,90.22,143.45,93.72Z"/><path class="cls-13" d="M83,69.88a53.94,53.94,0,0,1-12.46-2.33c-3.72-1.17-7.86-2.63-11-5.08s-4.31-6.81-.62-9.31,8.78-1.69,12.75-.74c4.94,1.19,9.79,2.91,14.63,4.48,1.53.5,2.19-1.91.66-2.41C82,52.85,76.89,51,71.69,49.85c-4.5-1-10.1-1.53-14.12,1.25a7.55,7.55,0,0,0-2,10.66c2.5,3.77,7.31,5.64,11.36,7.17A56.22,56.22,0,0,0,83,72.38c1.61.1,1.6-2.4,0-2.5Z"/><path class="cls-12" d="M73.59,20.35a15.21,15.21,0,0,0-30.42,0c0,3.88,1.57,12.28,12.5,13.15"/></g></g></svg>