<svg xmlns="http://www.w3.org/2000/svg" viewBox="0 0 147.04 115.67"><defs><style>.cls-1,.cls-2,.cls-3,.cls-6{fill:#eca082;}.cls-1,.cls-2,.cls-4,.cls-6{stroke:#eca082;}.cls-1,.cls-10,.cls-11,.cls-12,.cls-13,.cls-14,.cls-16,.cls-2,.cls-4,.cls-5,.cls-6,.cls-7,.cls-8,.cls-9{stroke-miterlimit:10;}.cls-1,.cls-10,.cls-11,.cls-12,.cls-7,.cls-8,.cls-9{stroke-width:0.75px;}.cls-2,.cls-4,.cls-5{stroke-width:0.75px;}.cls-13,.cls-14,.cls-16,.cls-4{fill:none;}.cls-5{fill:#f1876d;stroke:#f1876d;}.cls-6{stroke-width:0.77px;}.cls-7{fill:#d36e5b;stroke:#d36e5b;}.cls-8{fill:#ec6095;stroke:#ec6094;}.cls-9{fill:#e4b998;stroke:#e4b998;}.cls-10{fill:#1f1f1f;stroke:#1f1f1f;}.cls-11{fill:#582d29;stroke:#582d29;}.cls-12{fill:#4c4947;stroke:#494645;}.cls-13,.cls-14,.cls-16{stroke:#1d1d1b;}.cls-13{stroke-width:2px;}.cls-14{stroke-width:2.03px;}.cls-15{fill:#1d1d1b;}.cls-16{stroke-width:2.03px;}</style></defs><g id="Capa_9" data-name="Capa 9"><path class="cls-1" d="M3.41,29.08c1.66.88,7.07-2.85,6.19-6.19C9.11,21.05,6.77,19.51,5.15,20,2.24,20.83,1.62,28.14,3.41,29.08Z"/><path class="cls-2" d="M54.89,30.05A13.82,13.82,0,0,1,44.63,17.86,13.66,13.66,0,0,1,51.79,4.69C59.22.9,66.62,6.57,67.66,7.4c1.47,1.17,4.55,3.63,5,7.36C73.65,22.16,64.07,32.16,54.89,30.05Z"/><path class="cls-3" d="M77.73,7C55,12.37,37.19,33.77,37.28,57.53c.09,24.52,19.12,39.14,21.67,41,14.73,10.93,35.9,14.67,53,6.38,13-6.28,19.75-17.59,21.67-20.9a54.62,54.62,0,0,0,6.78-19.55,50.52,50.52,0,0,0-2.32-25.35A51.33,51.33,0,0,0,124.18,19C113.05,9.23,95.53,2.83,77.73,7Z"/><path class="cls-4" d="M77.73,7C55,12.37,37.19,33.77,37.28,57.53c.09,24.52,19.12,39.14,21.67,41,14.73,10.93,35.9,14.67,53,6.38,13-6.28,19.75-17.59,21.67-20.9a54.62,54.62,0,0,0,6.78-19.55,50.52,50.52,0,0,0-2.32-25.35A51.33,51.33,0,0,0,124.18,19C113.05,9.23,95.53,2.83,77.73,7Z"/><path class="cls-3" d="M77.73,7C55,12.37,37.19,33.77,37.28,57.53c.09,24.52,19.12,39.14,21.67,41,14.73,10.93,35.9,14.67,53,6.38,13-6.28,19.75-17.59,21.67-20.9a54.62,54.62,0,0,0,6.78-19.55,50.52,50.52,0,0,0-2.32-25.35A51.33,51.33,0,0,0,124.18,19C113.05,9.23,95.53,2.83,77.73,7Z"/><path class="cls-3" d="M77.73,7C55,12.37,37.19,33.77,37.28,57.53c.09,24.52,19.12,39.14,21.67,41,14.73,10.93,35.9,14.67,53,6.38,13-6.28,19.75-17.59,21.67-20.9a54.62,54.62,0,0,0,6.78-19.55,50.52,50.52,0,0,0-2.32-25.35A51.33,51.33,0,0,0,124.18,19C113.05,9.23,95.53,2.83,77.73,7Z"/><path class="cls-3" d="M77.73,7C55,12.37,37.19,33.77,37.28,57.53c.09,24.52,19.12,39.14,21.67,41,14.73,10.93,35.9,14.67,53,6.38,13-6.28,19.75-17.59,21.67-20.9a54.62,54.62,0,0,0,6.78-19.55,50.52,50.52,0,0,0-2.32-25.35A51.33,51.33,0,0,0,124.18,19C113.05,9.23,95.53,2.83,77.73,7Z"/><path class="cls-5" d="M4.47,19.89C4.38,19.84,0,25,1.66,27.34c1.11,1.59,4.46,1.26,4.55.87S3.72,27.72,2.82,26C1.58,23.57,4.55,19.93,4.47,19.89Z"/><path class="cls-5" d="M75.41,64.24c1.22-4.45-11-10.76-15.39-19.6-1.41-2.84-1.24-3.6,1-9.14.29-.72-1.8,1.07-2.48,2.89-.58,1.55-3.32,3.5,4.43,15C64.7,55.93,71.24,63.49,73.38,63,74.14,62.82,75.15,65.19,75.41,64.24Z"/><path class="cls-5" d="M89.82,4.5c-.16-1.28,7.55-5.18,14.62-2.9,5.62,1.81,9.42,7.06,8.71,8.13s-4.49-1.83-13-3.58C93.28,4.72,89.93,5.33,89.82,4.5Z"/><path class="cls-5" d="M52.7,4.32c-.28-.17-15,5.48-6.28,21.25,2.14,3.9,7.83,5.31,8.15,4.82s-3.9-2.22-5.75-6C44.7,15.89,53,4.47,52.7,4.32Z"/><path class="cls-5" d="M46.85,28.61C35.49,46.53,35,60.19,40.57,75.14c8.82,23.79,33.92,40,64.44,31.41,12.64-3.56,21.12-11.76,21.52-13.1.27-.9-8.83,7.93-22.73,9.63-16.23,2-40.14-5-50.8-25.4-11.51-22.08,2-47,2-47C51,30.08,47.53,27.55,46.85,28.61Z"/><path class="cls-6" d="M121.44,98.11c8-7.7,6.09-4.33,15.22-18.45,2.17-3.35,8.56,1.64,8.81,2.86,2.68,13.2-30.67,33.08-43,27.2C99.87,108.48,115.12,104.18,121.44,98.11Z"/><path class="cls-2" d="M55.1,108.32C51.86,98,82.79,79.37,92.1,81.1c3.78.71,6.59,2.52,6.66,3.73.77,14.23-28.62,33.7-40.12,27.25A6.94,6.94,0,0,1,55.1,108.32Z"/><path class="cls-5" d="M112.41,103.46c-3,5.19-21.7-3.39-10.83,5.94,6.33,5.42,41.74-7.8,43.47-24.06.07-.67-22.65,21.77-27.35,18.12S113.35,101.82,112.41,103.46Z"/><path class="cls-5" d="M66.59,91.84c-3.38,1-15.78,14.08-13.17,18.53,2.09,3.57,8.54,5.4,14.18,3.17,23.59-9.3,30.46-20.7,30.15-21.09-.18-.22-3.47,5.31-16.77,13.5-9.22,5.67-15,6.13-19.74,4.58a8.34,8.34,0,0,1-4.05-4.24C55.72,102.48,60.4,98.36,66.59,91.84Z"/></g><g id="Capa_10" data-name="Capa 10"><path class="cls-7" d="M117.28,19.79c-5.07,2.43-4.47,12.35-1.41,19.36,3.2,7.33,10.07,13.39,14.58,11.22,2.43-1.17,2.52-3.83,2.19-6.45-1.29-10.32-3.54-16-9.29-22.19C121.41,19.66,120,18.47,117.28,19.79Z"/><path class="cls-7" d="M97.93,22c-5.08,2.43-4.48,12.34-1.42,19.35,3.2,7.33,10.08,13.39,14.58,11.23,2.43-1.17,3-4.35,2.71-7-1.29-10.32-3-16.06-8.77-22.19A5.67,5.67,0,0,0,97.93,22Z"/><path class="cls-8" d="M133.66,53.73c2.66-3.38,6.91-3,7.49-1.42.37,1,.93,2.38.64,2.58-3.3,2.28-8.24,1.54-8.64.13C133,54.56,133.37,54.1,133.66,53.73Z"/><path class="cls-8" d="M96.89,64.05c2.66-3.38,9.74-3.31,10.32-1.68.37,1-1.9,2.64-2.19,2.84-3.31,2.29-8.24,1.54-8.65.13C96.24,64.88,96.6,64.42,96.89,64.05Z"/><path class="cls-9" d="M6,22.49a1.35,1.35,0,0,0,.22,2,1.09,1.09,0,0,0,1.38-.2C7.93,23.78,7.5,23,7,22.69,7,22.67,6.38,22.26,6,22.49Z"/><path class="cls-9" d="M57.47,9.28c-1.17,2.53,5.2,9.17,7.74,8.12,1.7-.69,3-5.34.2-8.12S58.23,7.62,57.47,9.28Z"/><path class="cls-9" d="M62.52,39.08c.14-.85,3.12-1.81,5.25-.37,1.36.92,2.3,2.76,1.8,3.37C68.63,43.21,62.3,40.4,62.52,39.08Z"/><path class="cls-9" d="M84.25,87.56c.19,1.15,5.29,2.48,7.37,0,.7-.85,1.27-2.41.66-3.07C90.93,83,84,86.14,84.25,87.56Z"/><path class="cls-10" d="M119.74,27.34c-4.59,3.5,3.21,25.93,8.13,25.55,3.22-.26,6.09-10.4,3.29-13-1.77-1.61-5.3.21-6.59-1.55-.79-1.09.82-2.26,1-5.42,0-.55.23-4.55-1.93-5.8A3.82,3.82,0,0,0,119.74,27.34Z"/><path class="cls-10" d="M101.29,28.63c-4.59,3.51,3.21,25.94,8.12,25.55,3.23-.25,6.1-10.4,3.3-13-1.77-1.61-5.3.21-6.59-1.55-.79-1.09.82-2.25,1-5.42,0-.54.22-4.55-1.93-5.8A3.84,3.84,0,0,0,101.29,28.63Z"/><path class="cls-11" d="M118,65.46c.78-3,4.69-12.9,11.78-1.77,1.67,2.61.73,9.55-4.61,10.49S117.2,68.46,118,65.46Z"/><path class="cls-12" d="M121.41,30.89a1.65,1.65,0,0,0,1,2.19,1.53,1.53,0,0,0,1.42-1.68A1.74,1.74,0,0,0,121.41,30.89Z"/><path class="cls-12" d="M103.35,32.44a1.53,1.53,0,0,0,1.16,2.06,1.38,1.38,0,0,0,1.42-1,1.4,1.4,0,0,0-.77-1.55A1.42,1.42,0,0,0,103.35,32.44Z"/></g><g id="Capa_2" data-name="Capa 2"><g id="Capa_8" data-name="Capa 8"><path class="cls-13" d="M73.16,18.09a15.21,15.21,0,1,0-30.42,0,18.51,18.51,0,0,0,4.38,11.14"/><path class="cls-13" d="M73.16,18.09a15.16,15.16,0,0,0-2.68-8.63A51.77,51.77,0,0,1,89.21,6c.8,0,1.6,0,2.39.06a52.06,52.06,0,0,1,45.64,72"/><path class="cls-13" d="M46.57,28.19C39.9,37.89,36.74,47.64,37.18,58A55.12,55.12,0,0,0,57.93,99.3"/><path class="cls-13" d="M79.34,109.09a51.54,51.54,0,0,0,9.87,1,52.24,52.24,0,0,0,11.87-1.36"/><path class="cls-13" d="M88.2,6A51.52,51.52,0,0,1,114.09,12,15.19,15.19,0,0,0,88.2,6Z"/><path class="cls-13" d="M129.6,38.68c3.7,2,3.44,12.66,0,13.72-3.25,1-10-7.56-11-16.24-.41-3.38-.28-9.29,2.1-10.06,2.13-.7,6,2.73,6,5.82,0,2.77-2.7,4.31-2.14,5.27S127.52,37.54,129.6,38.68Z"/><path class="cls-14" d="M111.29,40.06c3.74,2,3.48,12.82,0,13.89C108,55,101.22,46.3,100.15,37.5c-.42-3.42-.29-9.4,2.12-10.19,2.16-.7,6.13,2.77,6.09,5.9,0,2.8-2.74,4.37-2.16,5.33S109.18,38.9,111.29,40.06Z"/><path class="cls-14" d="M130.61,63.34c1.72,2.92-.78,10.19-5.64,10.64-4.52.43-8.32-5.27-7.59-8.56C119.51,55.85,126.43,56.25,130.61,63.34Z"/><path class="cls-13" d="M96.33,94.72a40.13,40.13,0,0,1-6.79,7.33c-.92.79-1.89,1.57-2.92,2.34q-2,1.55-4.33,3c-1,.61-2,1.19-3,1.73-6.81,3.74-13.5,5.69-18.36,5.58-2.65-.06-4.77-.74-6.08-2.08l-.13-.23-.11-.16a5.94,5.94,0,0,0-.55-.67,5,5,0,0,1-.57-1.71,7.21,7.21,0,0,1,0-1.8,11.85,11.85,0,0,1,.95-3.28,15.45,15.45,0,0,1,.87-1.72,27,27,0,0,1,2.58-3.72A51.39,51.39,0,0,1,70.55,88.52c1.53-1,3-1.82,4.57-2.59h0l1.5-.72.55-.26c9.28-4.27,17.71-5,20.87-1.51a4.15,4.15,0,0,1,.42.52,1.63,1.63,0,0,1,.11.17,4.52,4.52,0,0,1,.58,1.35C99.83,88,98.75,91.22,96.33,94.72Z"/><path class="cls-13" d="M143,91.53a40.13,40.13,0,0,1-6.79,7.33c-.92.79-1.9,1.57-2.92,2.34-1.36,1-2.8,2-4.33,3-7.81,4.87-15.75,7.44-21.31,7.31-2.65-.06-4.77-.74-6.08-2.08a1.71,1.71,0,0,0-.13-.23,1.77,1.77,0,0,0-.12-.17,3.92,3.92,0,0,0-.25-.32,52.15,52.15,0,0,0,36.16-30.63c3.36-.16,6,.55,7.5,2.19a4.15,4.15,0,0,1,.42.52,1.63,1.63,0,0,1,.11.17,4.26,4.26,0,0,1,.57,1.35C146.51,84.76,145.43,88,143,91.53Z"/><path class="cls-15" d="M74.33,63.39a53.63,53.63,0,0,1-9-8.47c-2.59-3.09-5.45-6.77-6.68-10.65a7.12,7.12,0,0,1,.23-5.53,5.2,5.2,0,0,1,5-2.41c4.13.26,7.78,3.52,10.48,6.36,3.5,3.69,6.63,7.76,9.84,11.71,1,1.25,2.77-.53,1.76-1.77-3.28-4.05-6.49-8.26-10.12-12-3.15-3.25-7.26-6.5-12-6.79a7.58,7.58,0,0,0-8.22,7.61c-.12,4.73,3.22,9.25,5.94,12.85A57.27,57.27,0,0,0,73.07,65.55c1.29,1,2.54-1.21,1.26-2.16Z"/><path class="cls-15" d="M49.06,92c-.78,1.94-1.53,4.16-2.93,5.76s-3.05,1.33-4.59.26c-2.69-1.86-4.3-5.28-5.48-8.23-3.32-8.3-4.3-17.39-5.33-26.21C30.2,59,29.68,54.32,29,49.71a61.13,61.13,0,0,0-3-13c-.48-1.21-1.31-2.53-2.77-2.55-1.27,0-2.34,1-3.26,1.72-.17.14-.74.48-.79.66s1,.19,1,.26c0-.11-.24-.65-.3-.84-.3-1-.52-2.1-.74-3.16-.26-1.22-.51-2.46-.83-3.67a5,5,0,0,0-1-2.36c-1.06-1-2.73.09-3.74.67a15.36,15.36,0,0,1-2.18,1.19c-1.06.39-1.69-.19-2.35-1-.94-1.12-2.54.49-1.61,1.61A4.07,4.07,0,0,0,11.48,31a7.85,7.85,0,0,0,2-.88c.76-.43,1.65-.79,2.35-1.27s-.52-.17-.28-.47a2.44,2.44,0,0,0,.14.28c.09.4.29.9.4,1.33.29,1.12.52,2.24.76,3.37s.46,2.26.79,3.36a3.21,3.21,0,0,0,1.13,2c1.14.65,2.17-.67,3-1.31.29-.24,1-.91,1.39-.86s.84,1.46,1,1.88c3,9.23,3.63,19.17,4.79,28.76C30,76,31.17,85.38,35.25,93.51c1.51,3,3.82,6.57,7.29,7.51,5.1,1.37,7.25-4.76,8.7-8.4.54-1.35-1.65-1.94-2.18-.6Z"/><ellipse class="cls-16" cx="5.51" cy="24.4" rx="4.5" ry="4.63"/></g><g id="Capa_4" data-name="Capa 4"><path class="cls-13" d="M73.1,18a15.21,15.21,0,1,0-30.42,0c0,3.88,1.56,12.28,12.5,13.15"/></g></g></svg>