<svg xmlns="http://www.w3.org/2000/svg" viewBox="0 0 156.74 117.7"><defs><style>.cls-1,.cls-2{fill:#eca082;stroke:#eca082;}.cls-1,.cls-10,.cls-11,.cls-13,.cls-2,.cls-3,.cls-4,.cls-5,.cls-6,.cls-7,.cls-8,.cls-9{stroke-miterlimit:10;}.cls-1,.cls-4,.cls-5,.cls-6,.cls-7,.cls-8,.cls-9{stroke-width:0.75px;}.cls-2,.cls-3{stroke-width:0.75px;}.cls-3{fill:#f1876d;stroke:#f1876d;}.cls-4{fill:#d36e5b;stroke:#d36e5b;}.cls-5{fill:#ec6095;stroke:#ec6094;}.cls-6{fill:#e4b998;stroke:#e4b998;}.cls-7{fill:#1f1f1f;stroke:#1f1f1f;}.cls-8{fill:#582d29;stroke:#582d29;}.cls-9{fill:#4c4947;stroke:#494645;}.cls-10,.cls-11,.cls-13{fill:none;stroke:#1d1d1b;}.cls-10{stroke-width:2px;}.cls-11{stroke-width:2.03px;}.cls-12{fill:#1d1d1b;}.cls-13{stroke-width:2.03px;}</style></defs><g id="Capa_9" data-name="Capa 9"><path class="cls-1" d="M3.6,26.21c1.66.88,7.07-2.85,6.19-6.19-.48-1.84-2.83-3.38-4.45-2.9C2.44,18,1.81,25.27,3.6,26.21Z"/><path class="cls-2" d="M56.89,30.28a13.82,13.82,0,0,1-10.26-12.2A13.66,13.66,0,0,1,53.79,4.92c7.43-3.8,14.83,1.88,15.87,2.71,1.47,1.17,4.55,3.63,5,7.36C75.65,22.39,66.07,32.39,56.89,30.28Z"/><path class="cls-2" d="M79.73,7.25C57,12.6,39.19,34,39.28,57.76,39.37,82.28,58.4,96.9,61,98.79c14.73,10.93,35.9,14.67,53,6.39,13-6.28,19.75-17.59,21.67-20.9a54.68,54.68,0,0,0,6.78-19.55,50.57,50.57,0,0,0-2.32-25.36,51.39,51.39,0,0,0-13.94-20.12C115.05,9.46,97.53,3.06,79.73,7.25Z"/><path class="cls-3" d="M4.66,17c-.09-.05-4.45,5.09-2.8,7.45,1.1,1.59,4.46,1.26,4.55.87S3.91,24.85,3,23.12C1.77,20.7,4.74,17.06,4.66,17Z"/><path class="cls-3" d="M77.28,72.63c3.54-3,14.39,5.51,24.25,5.78,3.17.08,3.79-.39,7.88-4.73.53-.56-.21,2.09-1.58,3.47-1.17,1.17-1.79,4.47-15.44,2.24C89.32,78.88,79.71,76.1,79.26,74,79.1,73.2,76.53,73.27,77.28,72.63Z"/><path class="cls-3" d="M91.82,4.73c-.16-1.28,7.55-5.18,14.62-2.9,5.62,1.81,9.42,7.06,8.71,8.13s-4.49-1.83-13-3.59C95.28,4.94,91.93,5.55,91.82,4.73Z"/><path class="cls-3" d="M54.7,4.55c-.28-.17-15,5.48-6.28,21.25,2.14,3.9,7.83,5.31,8.15,4.82s-3.9-2.22-5.75-6C46.7,16.12,55,4.7,54.7,4.55Z"/><path class="cls-3" d="M48.85,28.84C37.49,46.76,37,60.42,42.57,75.37c8.82,23.79,33.92,40,64.44,31.41,12.64-3.56,21.12-11.76,21.52-13.1.27-.9-8.83,7.93-22.73,9.63-16.23,2-40.14-5-50.8-25.4-11.51-22.09,2-47,2-47C53,30.31,49.53,27.78,48.85,28.84Z"/><path class="cls-1" d="M112.16,106.5c18.58-7.22,22.62-25.14,29.42-28,3.53-1.47,13,.72,13.31,1.91,3.2,14-30.14,35.62-42.47,30.74C111.44,110.76,110,107.33,112.16,106.5Z"/><path class="cls-2" d="M59.44,104.27c2.42-10.56,38.52-11,45.68-4.83,2.91,2.51,4.43,5.5,3.87,6.58-6.51,12.67-41.71,14.65-48.38,3.29A7,7,0,0,1,59.44,104.27Z"/><path class="cls-3" d="M114.24,103.37c-3.35,4.95-4.59,2.29-2.19,5.55C121,121.05,150,98.34,153.73,89.7c1.69-3.92-24.78,18.32-32.26,19.48C108,111.27,115.3,101.81,114.24,103.37Z"/><path class="cls-3" d="M77.68,95.84C74.28,95,57,100,57,105.2c0,4.13,4.65,9,10.64,9.88,25.06,3.88,36.75-2.51,36.68-3,0-.27-5.68,2.84-21.29,3.2-10.83.25-16-2.26-19.36-6a8.39,8.39,0,0,1-1.35-5.71C62.93,99.54,69.05,98.34,77.68,95.84Z"/></g><g id="Capa_10" data-name="Capa 10"><path class="cls-4" d="M119.79,20c-5.08,2.43-4.48,12.35-1.42,19.35,3.2,7.34,10.08,13.4,14.58,11.23,2.43-1.17,2.52-3.83,2.2-6.45-1.29-10.32-3.54-16.06-9.29-22.19C123.92,19.89,122.55,18.7,119.79,20Z"/><path class="cls-4" d="M100.7,22.21c-5.08,2.44-4.48,12.35-1.42,19.36,3.2,7.33,10.07,13.39,14.58,11.22,2.43-1.16,3-4.35,2.71-7-1.29-10.33-3-16.06-8.78-22.2A5.68,5.68,0,0,0,100.7,22.21Z"/><path class="cls-5" d="M135.66,54c2.66-3.38,6.91-3.05,7.49-1.42.37,1,.93,2.38.64,2.58-3.3,2.28-8.24,1.54-8.64.13C135,54.79,135.37,54.32,135.66,54Z"/><path class="cls-5" d="M105.73,60.54c2.65-3.38,9.74-3.31,10.32-1.68.37,1-1.9,2.64-2.19,2.84-3.31,2.28-8.24,1.54-8.65.13C105.08,61.37,105.44,60.91,105.73,60.54Z"/><path class="cls-6" d="M6.2,19.62a1.35,1.35,0,0,0,.22,2,1.08,1.08,0,0,0,1.38-.2c.32-.47-.1-1.22-.59-1.56C7.18,19.8,6.57,19.39,6.2,19.62Z"/><path class="cls-6" d="M59.47,9.5c-1.17,2.54,5.2,9.18,7.74,8.13,1.7-.7,3-5.35.2-8.13S60.23,7.85,59.47,9.5Z"/><path class="cls-6" d="M103.08,76.73c.86-.11,1.94-3,.58-5.23-.86-1.39-2.66-2.41-3.29-1.93C99.2,70.46,101.75,76.9,103.08,76.73Z"/><path class="cls-6" d="M144.45,81c-.16.84,2.19,2.83,4.42,2.08,1.3-.44,2.47-1.77,2.18-2.48C150.5,79.25,144.69,79.75,144.45,81Z"/><path class="cls-6" d="M93.79,100.28c-.41,1.09,3.32,4.81,6.39,3.68,1-.39,2.32-1.45,2.13-2.33C101.89,99.68,94.3,98.92,93.79,100.28Z"/><path class="cls-7" d="M122.24,27.05c-4.58,3.51,3.22,25.94,8.13,25.55,3.23-.25,6.1-10.4,3.29-13-1.76-1.61-5.29.21-6.58-1.55-.79-1.08.82-2.25,1-5.41,0-.55.22-4.56-1.93-5.81A3.86,3.86,0,0,0,122.24,27.05Z"/><path class="cls-7" d="M103.92,28.73c-4.59,3.5,3.22,25.93,8.13,25.55,3.22-.26,6.1-10.4,3.29-13-1.76-1.61-5.29.21-6.58-1.55-.8-1.09.81-2.26,1-5.42,0-.55.22-4.55-1.94-5.8A3.82,3.82,0,0,0,103.92,28.73Z"/><path class="cls-8" d="M119.66,65.7c3.1.77,8.88-1.2,13.52-2.56,3-.87.73,9.55-4.61,10.49S116.66,65,119.66,65.7Z"/><path class="cls-9" d="M123.79,31.12a1.66,1.66,0,0,0,1,2.19,1.53,1.53,0,0,0,1.42-1.68A1.72,1.72,0,0,0,123.79,31.12Z"/><path class="cls-9" d="M105.73,32.41a1.53,1.53,0,0,0,1.16,2.06,1.38,1.38,0,0,0,1.42-1,1.41,1.41,0,0,0-2.58-1Z"/></g><g id="Capa_2" data-name="Capa 2"><path class="cls-10" d="M153.07,90.77c-2.73,4.38-7.42,9.16-13.41,13.31-11.86,8.22-24.31,10.8-27.8,5.76a5.59,5.59,0,0,1-.89-3.57A52.2,52.2,0,0,0,138.91,79.5c7.38-2.76,13.6-2.76,15.91.57C156.55,82.57,155.75,86.47,153.07,90.77Z"/><path class="cls-10" d="M111,106.27c-.68.28-1.36.54-2,.78"/><path class="cls-10" d="M75.46,18.09a15.16,15.16,0,0,0-2.68-8.63A51.77,51.77,0,0,1,91.51,6c.8,0,1.6,0,2.39.06a52.05,52.05,0,0,1,45,73.46"/><path class="cls-10" d="M48.87,28.19c-6.66,9.7-9.82,19.45-9.39,29.82A55.12,55.12,0,0,0,60.81,99.76"/><path class="cls-10" d="M90.5,6A51.52,51.52,0,0,1,116.39,12,15.19,15.19,0,0,0,90.5,6Z"/><path class="cls-10" d="M131.9,38.68c3.7,2,3.44,12.66,0,13.72-3.24,1-10-7.56-11-16.24-.41-3.38-.28-9.29,2.1-10.06,2.13-.7,6.05,2.73,6,5.82,0,2.77-2.7,4.31-2.13,5.27S129.82,37.54,131.9,38.68Z"/><path class="cls-11" d="M113.59,40.06c3.74,2,3.48,12.82,0,13.89-3.29,1-10.1-7.65-11.18-16.45-.42-3.42-.28-9.4,2.13-10.19,2.15-.7,6.12,2.77,6.08,5.9,0,2.8-2.74,4.37-2.16,5.33S111.48,38.9,113.59,40.06Z"/><path class="cls-11" d="M132.91,63.34c3.36-.44-.78,10.19-5.64,10.64-4.51.43-10.92-8-7.59-8.56C126.49,64.38,126,64.27,132.91,63.34Z"/><path class="cls-10" d="M109.15,105.6a4.53,4.53,0,0,1-.23,1.45c-.75,2.46-3.4,4.66-7.3,6.35-4.74,2-11.32,3.3-18.6,3.3-14.43,0-26.13-5-26.13-11.1,0-2.15,1.44-4.15,3.92-5.84a17,17,0,0,1,1.64-1C67.23,96.16,74.67,94.5,83,94.5,97.45,94.5,109.15,99.47,109.15,105.6Z"/><path class="cls-12" d="M82.46,59.26a53.78,53.78,0,0,1,11.81,3.82c3.58,1.65,7.44,3.64,10.29,6.41s3.82,7.45-.33,9.58c-3.77,1.93-8.71.55-12.42-.84C87,76.43,82.36,74,77.72,71.78c-1.44-.7-2.71,1.46-1.26,2.15,4.7,2.26,9.39,4.67,14.25,6.55,4.31,1.66,9.6,3,14.05,1.08a7.56,7.56,0,0,0,4-10.45c-1.87-4.11-6.5-6.67-10.3-8.71a55.81,55.81,0,0,0-15.37-5.55c-1.57-.32-2.24,2.09-.66,2.41Z"/><path class="cls-10" d="M75.39,17.84a15.21,15.21,0,0,0-30.42,0c0,3.88,1.57,12.28,12.5,13.15"/><path class="cls-12" d="M49.06,88.8a20,20,0,0,1-2.93,5.76c-1.33,1.52-3.05,1.33-4.59.26-2.69-1.87-4.3-5.28-5.48-8.23-3.32-8.31-4.3-17.4-5.33-26.21-.53-4.64-1.05-9.28-1.77-13.9a60.9,60.9,0,0,0-3-12.94C25.44,32.32,24.61,31,23.15,31c-1.27,0-2.34,1-3.26,1.72-.17.14-.74.48-.79.66s1,.19,1,.25c0-.1-.24-.64-.3-.83-.3-1-.52-2.1-.74-3.16-.26-1.23-.51-2.46-.83-3.68a5,5,0,0,0-1-2.35c-1.06-1-2.73.09-3.74.67a15.36,15.36,0,0,1-2.18,1.19c-1.06.38-1.69-.19-2.35-1C8,23.35,6.38,25,7.31,26.07a4.07,4.07,0,0,0,4.17,1.69,7.85,7.85,0,0,0,2-.88c.76-.43,1.65-.79,2.35-1.28s-.52-.16-.28-.47a2.59,2.59,0,0,0,.14.29c.09.39.29.89.4,1.33.29,1.11.52,2.24.76,3.37s.46,2.25.79,3.35a3.21,3.21,0,0,0,1.13,2c1.14.65,2.17-.67,3-1.31.29-.24,1-.91,1.39-.87s.84,1.47,1,1.89c3,9.23,3.63,19.17,4.79,28.75,1.09,8.92,2.29,18.26,6.37,26.39,1.51,3,3.82,6.57,7.29,7.5,5.1,1.38,7.25-4.75,8.7-8.39.54-1.36-1.65-1.94-2.18-.6Z"/><ellipse class="cls-13" cx="5.51" cy="21.17" rx="4.5" ry="4.63"/></g></svg>