<svg xmlns="http://www.w3.org/2000/svg" viewBox="0 0 158.34 115.88"><defs><style>.cls-1,.cls-2{fill:#eca082;stroke:#eca082;}.cls-1,.cls-10,.cls-11,.cls-12,.cls-13,.cls-14,.cls-15,.cls-17,.cls-18,.cls-2,.cls-3,.cls-4,.cls-5,.cls-6,.cls-7,.cls-8,.cls-9{stroke-miterlimit:10;}.cls-1,.cls-11,.cls-12,.cls-14,.cls-6,.cls-7,.cls-8{stroke-width:0.75px;}.cls-2,.cls-3{stroke-width:0.75px;}.cls-3,.cls-4{fill:#f1876d;stroke:#f1876d;}.cls-4{stroke-width:0.73px;}.cls-5,.cls-6{fill:#d36e5b;stroke:#d36e5b;}.cls-10,.cls-13,.cls-5{stroke-width:0.57px;}.cls-7{fill:#ec6095;stroke:#ec6094;}.cls-8,.cls-9{fill:#e4b998;stroke:#e4b998;}.cls-9{stroke-width:0.54px;}.cls-10,.cls-11{fill:#1f1f1f;stroke:#1f1f1f;}.cls-12{fill:#582d29;stroke:#582d29;}.cls-13,.cls-14{fill:#4c4947;stroke:#494645;}.cls-15,.cls-17,.cls-18{fill:none;stroke:#1d1d1b;}.cls-15{stroke-width:2px;}.cls-16{fill:#1d1d1b;}.cls-17{stroke-width:2.03px;}.cls-18{stroke-width:1.74px;}</style></defs><g id="Capa_9" data-name="Capa 9"><path class="cls-1" d="M3.43,24.16C5.09,25,10.5,21.31,9.62,18c-.48-1.84-2.83-3.38-4.45-2.9C2.27,15.92,1.64,23.22,3.43,24.16Z"/><path class="cls-2" d="M57.62,30.42A13.82,13.82,0,0,1,47.36,18.23,13.64,13.64,0,0,1,54.53,5.07C62,1.27,69.35,6.94,70.4,7.78c1.46,1.16,4.55,3.62,5,7.35C76.39,22.53,66.8,32.53,57.62,30.42Z"/><path class="cls-2" d="M80.46,7.39C57.68,12.75,39.92,34.14,40,57.91c.09,24.51,19.13,39.14,21.68,41,14.73,10.93,35.89,14.67,53,6.39,13-6.29,19.76-17.6,21.68-20.91a54.77,54.77,0,0,0,6.77-19.55,50.41,50.41,0,0,0-2.32-25.35,51.09,51.09,0,0,0-13.94-20.13C115.78,9.61,98.27,3.2,80.46,7.39Z"/><path class="cls-3" d="M4.49,15c-.09-.05-4.45,5.09-2.8,7.45,1.1,1.59,4.46,1.26,4.55.87s-2.5-.49-3.39-2.22C1.6,18.65,4.57,15,4.49,15Z"/><path class="cls-3" d="M77.06,55c3,3.51-5.39,14.44-5.57,24.29-.06,3.17.41,3.79,4.79,7.85.56.53-2.09-.2-3.48-1.55-1.19-1.16-4.49-1.76-2.37-15.42.48-3.08,3.18-12.71,5.32-13.18C76.51,56.8,76.42,54.23,77.06,55Z"/><path class="cls-3" d="M92.56,4.87C92.39,3.6,100.1-.31,107.17,2c5.62,1.81,9.42,7.07,8.71,8.13s-4.49-1.82-13-3.58C96,5.09,92.67,5.7,92.56,4.87Z"/><path class="cls-3" d="M55.43,4.69c-.27-.16-15,5.48-6.28,21.26,2.14,3.89,7.84,5.3,8.15,4.81s-3.9-2.21-5.75-6C47.43,16.27,55.68,4.84,55.43,4.69Z"/><path class="cls-3" d="M49.59,29C38.22,46.9,37.76,60.56,43.3,75.51c8.83,23.8,33.92,40,64.44,31.42,12.65-3.56,21.12-11.77,21.52-13.1.27-.9-8.83,7.92-22.72,9.62-16.24,2-40.15-5-50.8-25.4-11.52-22.08,2-47,2-47C53.73,30.46,50.26,27.92,49.59,29Z"/><path class="cls-2" d="M100.31,101.84c2.41-10.56,38.51-11,45.67-4.84,2.92,2.52,4.43,5.5,3.88,6.58-6.52,12.67-41.72,14.65-48.39,3.29A6.91,6.91,0,0,1,100.31,101.84Z"/><path class="cls-3" d="M57.56,95c-5.08,3.15-15.36,4.52-8.9,12.91,4,5.25,39.35,12.38,48.64-1.07.39-.56-24.07,3.29-26.45-2.16S59.16,94,57.56,95Z"/><path class="cls-3" d="M119.08,93.06c-3.41-.88-20.73,4.19-20.72,9.36,0,4.14,4.65,9,10.63,9.89,25.07,3.87,36.75-2.51,36.68-3,0-.28-5.67,2.84-21.29,3.19-10.82.25-16-2.25-19.35-6a8.32,8.32,0,0,1-1.36-5.71C104.32,96.76,110.45,95.57,119.08,93.06Z"/><path class="cls-4" d="M144.56,65.36c-.27,2.77,4.31,6,8.63,5.37,3.62-.5,3.65-2.43,3.34-5.76-.24-2.52-1.16-6.15-3.1-7.64C140.46,47.31,145.07,60.07,144.56,65.36Z"/></g><g id="Capa_10" data-name="Capa 10"><path class="cls-5" d="M126,22.59c-3.86,1.85-3.28,7.21-.95,12.54,2.44,5.58,7.54,12.39,11,10.74,1.85-.89,1.92-2.92,1.67-4.91-1-7.86-2.69-12.22-7.07-16.89C129.14,22.5,128.09,21.59,126,22.59Z"/><path class="cls-6" d="M109.69,21.33c-5.08,2.43-4.48,12.34-1.42,19.35,3.2,7.33,10.07,13.39,14.58,11.23,2.43-1.17,3.24-4.39,2.71-7-2.07-10.07-2.83-16.25-8.78-22.19A6,6,0,0,0,109.69,21.33Z"/><path class="cls-7" d="M137.82,47.78c2.65-3.38,4.45-3.05,5-1.42.37,1,.94,2.38.64,2.58-3.3,2.29-5.78,1.54-6.19.13C137.17,48.61,137.53,48.15,137.82,47.78Z"/><path class="cls-7" d="M109,59.65c2.66-3.38,9.74-3.31,10.32-1.68.37,1-1.9,2.64-2.19,2.84-3.31,2.29-8.24,1.54-8.64.13C108.4,60.48,108.75,60,109,59.65Z"/><path class="cls-8" d="M6,17.57a1.35,1.35,0,0,0,.22,2,1.08,1.08,0,0,0,1.38-.2c.32-.47-.1-1.22-.59-1.55C7,17.75,6.4,17.34,6,17.57Z"/><path class="cls-8" d="M60.2,9.65C59,12.18,65.4,18.83,68,17.78c1.69-.7,3-5.35.19-8.13S61,8,60.2,9.65Z"/><path class="cls-9" d="M75.26,82.87c.18.6,2.41,1,3.8-.23.89-.79,1.4-2.2,1-2.59C79.26,79.32,75,81.94,75.26,82.87Z"/><path class="cls-8" d="M136,98.62c-.41,1.09,3.31,4.81,6.38,3.67,1-.38,2.32-1.44,2.13-2.32C144,98,136.45,97.26,136,98.62Z"/><path class="cls-10" d="M127.43,27.75c-3.49,2.67,2.45,19.74,6.19,19.45,2.45-.2,4.63-7.92,2.5-9.87-1.34-1.23-4,.16-5-1.18-.61-.83.62-1.72.74-4.13,0-.41.17-3.46-1.48-4.42A2.93,2.93,0,0,0,127.43,27.75Z"/><path class="cls-11" d="M112.59,27.58c-4.59,3.51,3.22,25.94,8.13,25.55,3.22-.25,6.09-10.4,3.29-13-1.76-1.61-5.29.22-6.58-1.54-.8-1.09.81-2.26,1-5.42,0-.55.22-4.55-1.94-5.81A3.84,3.84,0,0,0,112.59,27.58Z"/><path class="cls-12" d="M127,56.4c3.09.77,6.94-2.49,11.58-3.85,3-.87.83,8.35-4.52,9.29S124,55.65,127,56.4Z"/><path class="cls-13" d="M128.7,30.45a1.26,1.26,0,0,0,.79,1.67,1.16,1.16,0,0,0,1.08-1.27A1.31,1.31,0,0,0,128.7,30.45Z"/><path class="cls-14" d="M115.11,31.78a1.52,1.52,0,0,0,1.16,2.06,1.35,1.35,0,0,0,.64-2.58A1.41,1.41,0,0,0,115.11,31.78Z"/></g><g id="Capa_2" data-name="Capa 2"><g id="Capa_5" data-name="Capa 5"><path class="cls-15" d="M93.89,110a23.61,23.61,0,0,1-3,1.57,40.25,40.25,0,0,1-9.64,2.63,59.1,59.1,0,0,1-9,.67c-14.43,0-26.13-5-26.13-11.1a5.64,5.64,0,0,1,1.38-3.56,11.65,11.65,0,0,1,2.54-2.28,17,17,0,0,1,1.64-1,27.69,27.69,0,0,1,4.43-1.89,50.5,50.5,0,0,0,36.08,15Q93.05,110,93.89,110Z"/><path class="cls-15" d="M50.12,29.23c-.23-.26-.46-.54-.68-.84"/><path class="cls-15" d="M150.29,103.07a4.53,4.53,0,0,1-.23,1.45c-.75,2.46-3.4,4.66-7.3,6.35a40.25,40.25,0,0,1-9.64,2.63,59.1,59.1,0,0,1-9,.67c-9.2,0-17.3-2-22-5.07-2.22-1.46-3.66-3.16-4.06-5a2.44,2.44,0,0,0,0-.27,1.34,1.34,0,0,0,0-.2,4.82,4.82,0,0,0-.11-.85,5.69,5.69,0,0,1,1.37-3.29A11.65,11.65,0,0,1,102,97.23a17,17,0,0,1,1.64-1c4.78-2.6,12.22-4.26,20.57-4.26a57.29,57.29,0,0,1,6.93.4l.6.07c10.62,1.35,18.39,5.5,18.59,10.43A1.34,1.34,0,0,1,150.29,103.07Z"/><path class="cls-15" d="M49.57,28.19l-.13.2"/><path class="cls-16" d="M48.79,87.85a20,20,0,0,1-2.93,5.76c-1.33,1.52-3,1.33-4.59.26C38.58,92,37,88.59,35.79,85.64c-3.32-8.31-4.3-17.39-5.32-26.21-.54-4.64-1-9.28-1.78-13.9a60.9,60.9,0,0,0-3-12.94c-.48-1.22-1.31-2.53-2.77-2.55-1.27,0-2.34,1-3.25,1.72-.18.14-.75.48-.8.66s1,.19,1,.26a4.68,4.68,0,0,0-.31-.84c-.3-1-.51-2.1-.74-3.16-.26-1.23-.51-2.46-.83-3.68a5.13,5.13,0,0,0-1-2.35c-1.06-1-2.74.09-3.75.67A15.36,15.36,0,0,1,11,24.51c-1.06.38-1.69-.19-2.35-1C7.71,22.4,6.12,24,7,25.12a4.08,4.08,0,0,0,4.17,1.69,7.76,7.76,0,0,0,2-.88c.75-.43,1.64-.79,2.35-1.27s-.53-.17-.29-.48a2.64,2.64,0,0,0,.15.29c.08.39.28.89.39,1.33.29,1.11.52,2.24.76,3.37s.46,2.25.79,3.35a3.21,3.21,0,0,0,1.13,2c1.14.65,2.17-.67,3-1.31.3-.24,1-.91,1.39-.87s.84,1.47,1,1.89c3.05,9.23,3.63,19.17,4.8,28.75C29.7,71.87,30.91,81.21,35,89.34c1.52,3,3.82,6.57,7.29,7.51,5.1,1.37,7.25-4.76,8.7-8.4.55-1.36-1.65-1.94-2.18-.6Z"/><ellipse class="cls-17" cx="5.51" cy="19.42" rx="4.5" ry="4.63"/></g><g id="Capa_4" data-name="Capa 4"><path class="cls-15" d="M73.48,9.46a15.16,15.16,0,0,1,2.68,8.63"/><path class="cls-15" d="M119.94,14A51.56,51.56,0,0,0,94.6,6l-.36,0c-1,0-2,0-3,0l0,0A51.64,51.64,0,0,0,73.48,9.46a15.21,15.21,0,0,0-27.74,8.63,18.52,18.52,0,0,0,3.7,10.3C42.87,38,39.75,47.71,40.18,58a55.62,55.62,0,0,0,16,37,50.5,50.5,0,0,0,36.08,15q.84,0,1.68,0a51.33,51.33,0,0,0,8.56-1c-.68-.45-3.8-2.8-4.4-5.23-.5-2,1.43-4.15,1.6-4.36a11.65,11.65,0,0,1,2.54-2.28,17,17,0,0,1,1.64-1c4.78-2.6,12.22-4.26,20.57-4.26a57.29,57.29,0,0,1,6.93.4A52,52,0,0,0,119.94,14Zm7.8,12.68c1.67-.54,4.73,2.13,4.69,4.54,0,2.16-2.1,3.36-1.66,4.11s2.3.27,3.92,1.16c2.89,1.59,2.68,9.88,0,10.71s-7.78-5.9-8.61-12.67C125.79,31.88,125.89,27.27,127.74,26.67Zm-5.28,26.21c-3.29,1-10.1-7.65-11.18-16.45-.42-3.42-.28-9.4,2.13-10.19,2.15-.7,6.12,2.77,6.08,5.9,0,2.81-2.74,4.37-2.16,5.34s3,.35,5.09,1.51C126.16,41,125.9,51.81,122.46,52.88Zm12.15,9.32c-3.77.92-10.28-5.45-7.52-6.32,5.65-1.74,5.2-1.77,11-3.42C140.85,51.65,138.68,61.19,134.61,62.2Z"/><path class="cls-15" d="M73.48,9.46a15.16,15.16,0,0,1,2.68,8.63"/><path class="cls-15" d="M91.25,6h1c.68,0,1.36,0,2,0"/><path class="cls-15" d="M117.09,12A51.55,51.55,0,0,0,94.24,6c-1,0-2,0-3,0l0,0a15.19,15.19,0,0,1,25.84,6Z"/><path class="cls-18" d="M134.61,62.2c-3.77.92-10.28-5.45-7.52-6.32,5.65-1.74,5.2-1.77,11-3.42C140.85,51.65,138.68,61.19,134.61,62.2Z"/><path class="cls-16" d="M89.69,59.9A53.12,53.12,0,0,1,86.6,72.19c-1.4,3.69-3.18,7.9-5.93,10.8s-7.11,3.47-9.24-.41-1-8.71.17-12.55c1.48-4.89,3.5-9.64,5.37-14.39.59-1.5-1.83-2.15-2.41-.66-1.92,4.88-4,9.78-5.51,14.82-1.28,4.41-2.12,9.83.22,14a7.56,7.56,0,0,0,10.57,3c4-2.18,6.18-7,7.93-10.94a56.71,56.71,0,0,0,4.42-16c.21-1.59-2.29-1.57-2.5,0Z"/><path class="cls-15" d="M75.93,18.05a15.21,15.21,0,0,0-30.42,0c0,3.88,1.56,12.28,12.5,13.15"/><path class="cls-15" d="M144.25,66.9c4.79,4.61,8.87,5.53,11.34,3.35s2-4.91.83-7.52c-2.3-5.22-5.8-7.61-12.44-10.59"/></g></g></svg>