<svg xmlns="http://www.w3.org/2000/svg" viewBox="0 0 157.69 118.05"><defs><style>.cls-1,.cls-2{fill:#eca082;stroke:#eca082;}.cls-1,.cls-10,.cls-11,.cls-12,.cls-13,.cls-15,.cls-2,.cls-3,.cls-4,.cls-5,.cls-6,.cls-7,.cls-8,.cls-9{stroke-miterlimit:10;}.cls-1,.cls-10,.cls-11,.cls-5,.cls-6,.cls-7,.cls-9{stroke-width:0.75px;}.cls-2,.cls-3{stroke-width:0.75px;}.cls-3,.cls-4{fill:#f1876d;stroke:#f1876d;}.cls-4{stroke-width:0.73px;}.cls-5{fill:#d36e5b;stroke:#d36e5b;}.cls-6{fill:#ec6095;stroke:#ec6094;}.cls-7,.cls-8{fill:#e4b998;stroke:#e4b998;}.cls-8{stroke-width:0.66px;}.cls-9{fill:#1f1f1f;stroke:#1f1f1f;}.cls-10{fill:#582d29;stroke:#582d29;}.cls-11{fill:#4c4947;stroke:#494645;}.cls-12,.cls-13,.cls-15{fill:none;stroke:#1d1d1b;}.cls-12{stroke-width:2px;}.cls-13{stroke-width:2.03px;}.cls-14{fill:#1d1d1b;}.cls-15{stroke-width:2.03px;}</style></defs><g id="Capa_2" data-name="Capa 2"><g id="Capa_4" data-name="Capa 4"><path class="cls-1" d="M3.86,30.71c1.67.87,7.08-2.86,6.2-6.2-.49-1.84-2.83-3.37-4.45-2.9C2.7,22.46,2.08,29.76,3.86,30.71Z"/><path class="cls-2" d="M55.48,30.77A13.8,13.8,0,0,1,45.22,18.58,13.65,13.65,0,0,1,52.38,5.42c7.43-3.8,14.83,1.87,15.87,2.71,1.46,1.16,4.55,3.62,5,7.35C74.24,22.88,64.66,32.88,55.48,30.77Z"/><path class="cls-2" d="M78.32,7.74C55.54,13.09,37.78,34.49,37.86,58.25,38,82.77,57,97.4,59.54,99.29c14.73,10.93,35.9,14.67,53,6.38,13-6.28,19.76-17.59,21.68-20.9A54.62,54.62,0,0,0,141,65.22a50.56,50.56,0,0,0-2.33-25.35,51.14,51.14,0,0,0-13.93-20.13C113.64,10,96.12,3.55,78.32,7.74Z"/><path class="cls-3" d="M4.93,21.51C4.84,21.46.48,26.6,2.12,29c1.11,1.59,4.46,1.26,4.55.88s-2.49-.49-3.39-2.23C2,25.19,5,21.56,4.93,21.51Z"/><path class="cls-3" d="M75,57c1.4,4.41-10.58,11.2-14.6,20.2-1.29,2.9-1.09,3.65,1.35,9.1.32.7-1.84-1-2.59-2.79C58.51,82,55.69,80.17,63,68.42,64.62,65.77,70.86,58,73,58.36,73.78,58.5,74.7,56.1,75,57Z"/><path class="cls-3" d="M90.41,5.22C90.24,3.94,98,0,105,2.32c5.62,1.81,9.42,7.07,8.71,8.13s-4.49-1.83-13-3.58C93.86,5.44,90.52,6.05,90.41,5.22Z"/><path class="cls-3" d="M53,5.09c-.28-.17-15,5.48-6.29,21.25,2.15,3.9,7.84,5.31,8.16,4.82s-3.9-2.22-5.75-6C45,16.66,53.2,5.24,53,5.09Z"/><path class="cls-3" d="M47.44,29.33C36.08,47.25,35.62,60.91,41.16,75.86c8.82,23.8,33.92,40,64.44,31.42,12.64-3.57,21.12-11.77,21.52-13.11.27-.89-8.83,7.93-22.73,9.63-16.23,2-40.14-5-50.8-25.4-11.51-22.08,2-47,2-47C51.59,30.81,48.12,28.27,47.44,29.33Z"/><path class="cls-2" d="M65.52,103.73c2.41-10.56,38.51-11,45.67-4.83,2.92,2.51,4.43,5.5,3.88,6.58-6.52,12.67-41.72,14.65-48.39,3.29A6.93,6.93,0,0,1,65.52,103.73Z"/><path class="cls-3" d="M116.45,104.25c-5.09,3.15.87,3.46-11.81,10.13-5.87,3.09,16.71-1.09,19.93-8.19.29-.62,1,.8-1.41-4.65S118.05,103.26,116.45,104.25Z"/><path class="cls-3" d="M83.11,94.78C79.7,93.9,62.38,99,62.39,104.14c0,4.13,4.65,9,10.64,9.89,25.06,3.87,36.74-2.51,36.67-3,0-.28-5.67,2.84-21.29,3.19-10.82.25-16-2.25-19.35-6a8.38,8.38,0,0,1-1.36-5.71C68.36,98.48,74.48,97.29,83.11,94.78Z"/><path class="cls-4" d="M141.47,66.83c-.27,2.77,4.11-.19,7.75-2.58,3.35-2.19,5.15-9.25,4.84-12.58-.24-2.52-8.32-1.09-9.55-.19C139.58,55.11,142,61.54,141.47,66.83Z"/><path class="cls-5" d="M117.86,20.25c-5.07,2.44-4.47,12.35-1.41,19.36C119.65,46.94,126.52,53,131,50.84c2.43-1.17,2.52-3.84,2.19-6.46-1.29-10.32-3.54-16.05-9.29-22.19C122,20.13,120.62,18.94,117.86,20.25Z"/><path class="cls-5" d="M98.77,23c-5.08,2.44-4.48,12.35-1.42,19.36,3.2,7.33,10.07,13.39,14.58,11.22,2.43-1.16,3-4.35,2.71-7-1.29-10.33-3-16.06-8.78-22.2A5.68,5.68,0,0,0,98.77,23Z"/><path class="cls-6" d="M134.25,54.45c2.66-3.38,6.9-3.05,7.49-1.42.36,1,.93,2.38.64,2.58-3.31,2.29-8.24,1.54-8.64.13C133.61,55.28,134,54.82,134.25,54.45Z"/><path class="cls-6" d="M97.48,64.77c2.65-3.38,9.74-3.31,10.32-1.68.37,1-1.9,2.64-2.19,2.84-3.31,2.29-8.24,1.54-8.65.13C96.83,65.61,97.19,65.14,97.48,64.77Z"/><path class="cls-7" d="M6.47,24.12a1.33,1.33,0,0,0,.22,1.95,1.07,1.07,0,0,0,1.38-.2c.32-.47-.11-1.22-.59-1.55C7.44,24.29,6.84,23.88,6.47,24.12Z"/><path class="cls-7" d="M58.06,10c-1.17,2.53,5.2,9.17,7.74,8.13,1.7-.7,3-5.35.19-8.13S58.82,8.34,58.06,10Z"/><path class="cls-8" d="M61.87,82.06c.05.75,2.59,1.83,4.57.73,1.26-.7,2.24-2.24,1.85-2.81C67.56,78.91,61.78,80.88,61.87,82.06Z"/><path class="cls-7" d="M100.51,100c-.41,1.09,3.32,4.81,6.39,3.67,1-.38,2.32-1.44,2.13-2.32C108.6,99.4,101,98.64,100.51,100Z"/><path class="cls-9" d="M120.32,27.8c-4.59,3.51,3.21,25.94,8.13,25.55,3.22-.25,6.09-10.4,3.29-13-1.77-1.61-5.3.21-6.58-1.54-.8-1.09.81-2.26,1-5.42,0-.55.23-4.56-1.93-5.81A3.84,3.84,0,0,0,120.32,27.8Z"/><path class="cls-9" d="M102.12,29.22c-4.58,3.51,3.22,25.94,8.13,25.55,3.23-.25,6.1-10.4,3.29-13-1.76-1.61-5.29.21-6.58-1.55-.8-1.08.81-2.25,1-5.41,0-.55.22-4.56-1.94-5.81A3.84,3.84,0,0,0,102.12,29.22Z"/><path class="cls-10" d="M116.83,67c3.1.78,8.88-1.2,13.52-2.55,3-.87.73,9.55-4.61,10.49S113.83,66.21,116.83,67Z"/><path class="cls-11" d="M122,31.35a1.65,1.65,0,0,0,1,2.19,1.52,1.52,0,0,0,1.42-1.67A1.74,1.74,0,0,0,122,31.35Z"/><path class="cls-11" d="M104.19,33.42a1.52,1.52,0,0,0,1.16,2.06,1.38,1.38,0,0,0,1.42-1,1.41,1.41,0,0,0-2.58-1Z"/><path class="cls-12" d="M73.71,18.81a15.21,15.21,0,1,0-30.42,0A18.5,18.5,0,0,0,47.66,30"/><path class="cls-12" d="M114.76,104.36a52,52,0,0,0,2.72-89.65,51.56,51.56,0,0,0-25.34-8c-.79,0-1.59-.06-2.39-.06A51.77,51.77,0,0,0,71,10.18a15.16,15.16,0,0,1,2.68,8.63"/><path class="cls-12" d="M47.11,28.91c-6.66,9.7-9.82,19.45-9.39,29.82C38.51,77.56,48.28,94.07,63,103.2"/><path class="cls-12" d="M88.74,6.76a51.52,51.52,0,0,1,25.89,5.91A15.19,15.19,0,0,0,88.74,6.76Z"/><path class="cls-12" d="M130.14,39.4c3.7,2,3.44,12.66,0,13.72-3.24,1-10-7.56-11-16.24-.41-3.38-.27-9.29,2.1-10.06,2.13-.7,6.05,2.73,6,5.82,0,2.77-2.7,4.31-2.13,5.27S128.06,38.26,130.14,39.4Z"/><path class="cls-13" d="M111.83,40.78c3.75,2,3.48,12.82,0,13.89S101.77,47,100.69,38.22c-.42-3.42-.28-9.4,2.13-10.19,2.15-.7,6.12,2.77,6.08,5.9,0,2.8-2.74,4.37-2.16,5.34S109.72,39.62,111.83,40.78Z"/><path class="cls-13" d="M131.16,64.07c3.35-.45-.79,10.18-5.65,10.63-4.51.43-10.92-8-7.59-8.56C124.73,65.1,124.22,65,131.16,64.07Z"/><path class="cls-12" d="M114.85,105.23a4.53,4.53,0,0,1-.23,1.45c-.75,2.46-3.4,4.66-7.3,6.35a40.25,40.25,0,0,1-9.64,2.63c-1.2.18-2.44.33-3.72.44-1.69.15-3.44.23-5.24.23-9.2,0-17.3-2-22-5.07-2.22-1.46-3.66-3.16-4.06-5a2.44,2.44,0,0,0,0-.27,1.34,1.34,0,0,0,0-.2,4.82,4.82,0,0,0-.11-.85A5,5,0,0,1,63,103.2a7,7,0,0,1,.95-1.53,11.65,11.65,0,0,1,2.54-2.28,17,17,0,0,1,1.64-1c4.78-2.6,12.22-4.26,20.57-4.26,1.8,0,3.55.07,5.25.22h0c.56.06,1.11.11,1.66.18l.6.07c10.14,1.29,17.68,5.13,18.51,9.76a3.83,3.83,0,0,1,.08.67A1.34,1.34,0,0,1,114.85,105.23Z"/><path class="cls-12" d="M125.3,105.23a4.53,4.53,0,0,1-.23,1.45c-.75,2.46-3.4,4.66-7.3,6.35a40.25,40.25,0,0,1-9.64,2.63,59.1,59.1,0,0,1-9,.67c-1.79,0-3.53-.08-5.21-.23,1.28-.11,2.52-.26,3.72-.44a40.25,40.25,0,0,0,9.64-2.63c3.9-1.69,6.55-3.89,7.3-6.35a4.53,4.53,0,0,0,.23-1.45,1.34,1.34,0,0,0,0-.2,3.83,3.83,0,0,0-.08-.67,51.9,51.9,0,0,0,7.06-4.66,7.83,7.83,0,0,1,3.39,4.66,3.83,3.83,0,0,1,.08.67A1.34,1.34,0,0,1,125.3,105.23Z"/><path class="cls-14" d="M84.59,67.05a53.89,53.89,0,0,1-8,9.41c-2.91,2.72-6.3,5.63-10,7.15a7.28,7.28,0,0,1-5.87.18,5.21,5.21,0,0,1-2.63-5.06c.14-4.07,3.06-7.78,5.74-10.6,3.49-3.69,7.4-7,11.17-10.44,1.2-1.08-.58-2.84-1.77-1.77-3.87,3.5-7.91,6.92-11.46,10.75C58.71,70,55.64,74.24,55.59,79a7.59,7.59,0,0,0,8.26,7.86c4.62-.29,8.74-3.65,12.16-6.49a56.1,56.1,0,0,0,10.74-12c.89-1.34-1.27-2.59-2.16-1.26Z"/><path class="cls-14" d="M49.26,93.77c-.78,2-1.53,4.16-2.93,5.76s-3,1.34-4.59.27c-2.69-1.87-4.3-5.29-5.48-8.23-3.32-8.31-4.3-17.4-5.32-26.22-.54-4.63-1.05-9.28-1.78-13.89a61.13,61.13,0,0,0-3-13C25.64,37.3,24.81,36,23.35,36c-1.27,0-2.34,1-3.25,1.71-.18.15-.75.48-.8.67s1,.19,1,.25c0-.1-.24-.64-.3-.84-.3-1-.52-2.1-.74-3.15-.26-1.23-.51-2.47-.83-3.68a5,5,0,0,0-1-2.36c-1.06-1-2.73.1-3.74.67a16.5,16.5,0,0,1-2.18,1.2c-1.06.38-1.69-.19-2.35-1-.94-1.13-2.53.49-1.61,1.6a4.1,4.1,0,0,0,4.17,1.69,8.44,8.44,0,0,0,2-.88c.76-.43,1.65-.8,2.35-1.28s-.52-.17-.28-.47a2.44,2.44,0,0,0,.14.28c.09.4.29.9.4,1.34.29,1.11.52,2.24.76,3.36s.46,2.26.79,3.36a3.27,3.27,0,0,0,1.13,2c1.14.65,2.17-.67,3-1.32.3-.24,1-.91,1.39-.86s.84,1.47,1,1.89c3.05,9.23,3.63,19.16,4.8,28.75,1.08,8.92,2.28,18.26,6.36,26.39,1.51,3,3.82,6.57,7.29,7.5,5.1,1.37,7.25-4.75,8.7-8.39.54-1.36-1.65-1.95-2.18-.61Z"/><ellipse class="cls-15" cx="5.71" cy="26.15" rx="4.5" ry="4.63"/><path class="cls-12" d="M73.78,18.89a15.21,15.21,0,1,0-30.42,0c0,3.88,1.57,12.27,12.51,13.14"/><path class="cls-12" d="M141.39,53.56c4.7-4.7,8.76-5.7,11.27-3.56s2.07,4.86,1,7.5c-2.2,5.26-5.65,7.71-12.24,10.82"/></g></g></svg>