<svg xmlns="http://www.w3.org/2000/svg" viewBox="0 0 157.69 118.05"><defs><style>.cls-1,.cls-4{fill:#f1876d;stroke:#f1876d;}.cls-1,.cls-10,.cls-11,.cls-12,.cls-14,.cls-2,.cls-3,.cls-4,.cls-5,.cls-6,.cls-7,.cls-8,.cls-9{stroke-miterlimit:10;}.cls-1,.cls-3{stroke-width:0.75px;}.cls-2,.cls-3{fill:#eca082;stroke:#eca082;}.cls-10,.cls-2,.cls-5,.cls-6,.cls-7,.cls-8,.cls-9{stroke-width:0.75px;}.cls-4{stroke-width:0.73px;}.cls-5{fill:#d36e5b;stroke:#d36e5b;}.cls-6{fill:#ec6095;stroke:#ec6094;}.cls-7{fill:#e4b998;stroke:#e4b998;}.cls-8{fill:#1f1f1f;stroke:#1f1f1f;}.cls-9{fill:#582d29;stroke:#582d29;}.cls-10{fill:#4c4947;stroke:#494645;}.cls-11,.cls-12,.cls-14{fill:none;stroke:#1d1d1b;}.cls-11{stroke-width:2px;}.cls-12{stroke-width:2.03px;}.cls-13{fill:#1d1d1b;}.cls-14{stroke-width:2.03px;}</style></defs><g id="Capa_2" data-name="Capa 2"><g id="Capa_4" data-name="Capa 4"><path class="cls-1" d="M55.52,95.94c-5.08,3.15-15.36,4.52-8.91,12.91,4,5.25,39.36,12.38,48.65-1.07.38-.56-24.08,3.29-26.45-2.16S57.12,95,55.52,95.94Z"/><path class="cls-2" d="M3.21,45.61c1.66.88,7.08-2.85,6.2-6.19C8.92,37.58,6.58,36,5,36.52,2.05,37.36,1.42,44.67,3.21,45.61Z"/><path class="cls-3" d="M54.55,30.83a13.71,13.71,0,0,1-3.1-25.35c7.43-3.8,14.83,1.88,15.87,2.71,1.46,1.16,4.55,3.62,5,7.35C73.31,22.94,63.73,32.94,54.55,30.83Z"/><path class="cls-3" d="M78.16,7.8C55.38,13.16,37.62,34.56,37.71,58.32c.09,24.51,19.13,39.14,21.68,41,14.72,10.93,35.89,14.67,53,6.39,13-6.29,19.76-17.6,21.68-20.91a54.79,54.79,0,0,0,6.77-19.54,50.56,50.56,0,0,0-2.32-25.36A51.33,51.33,0,0,0,124.61,19.8C113.48,10,96,3.62,78.16,7.8Z"/><path class="cls-1" d="M4.28,36.42c-.1-.05-4.46,5.09-2.81,7.45,1.11,1.59,4.46,1.26,4.55.87s-2.49-.49-3.39-2.22C1.39,40.1,4.35,36.46,4.28,36.42Z"/><path class="cls-1" d="M73.47,55.83c2.89,3.6-5.83,14.26-6.32,24.11-.16,3.16.29,3.8,4.54,8,.55.54-2.08-.26-3.43-1.66-1.15-1.19-4.44-1.9-1.88-15.49.57-3.06,3.57-12.6,5.73-13C72.87,57.64,72.86,55.07,73.47,55.83Z"/><path class="cls-1" d="M90.93,6.25c-.16-1.27,7.54-5.18,14.62-2.9,5.62,1.81,9.42,7.07,8.71,8.13s-4.49-1.82-13-3.58C94.39,6.47,91,7.08,90.93,6.25Z"/><path class="cls-1" d="M52.65,6c-.28-.16-15,5.49-6.29,21.26,2.15,3.89,7.84,5.31,8.16,4.81s-3.9-2.21-5.75-6C44.65,17.55,52.9,6.12,52.65,6Z"/><path class="cls-1" d="M47.38,29.4C36,47.31,35.56,61,41.1,75.92c8.82,23.8,33.92,40,64.44,31.42,12.64-3.56,21.12-11.76,21.52-13.1.27-.9-8.83,7.92-22.73,9.62-16.23,2-40.14-5-50.8-25.4-11.51-22.08,2-47,2-47C51.53,30.87,48.06,28.33,47.38,29.4Z"/><path class="cls-3" d="M104.58,110C101,99.75,131.33,80.15,140.69,81.59c3.81.58,6.68,2.31,6.78,3.51,1.22,14.2-27.53,34.6-39.23,28.52A7,7,0,0,1,104.58,110Z"/><path class="cls-1" d="M115.49,92.7c-3.35,1.06-15.32,14.57-12.57,18.94,2.2,3.5,8.71,5.12,14.27,2.72,23.28-10,29.78-21.67,29.47-22-.19-.21-3.3,5.42-16.34,14-9,6-14.76,6.61-19.58,5.21a8.33,8.33,0,0,1-4.18-4.11C105,103.68,109.52,99.41,115.49,92.7Z"/><path class="cls-4" d="M140.09,62.15c-.27,2.77,5.35,4.24,9.66,3.64,3.63-.49,6.95-3.77,6.64-7.09-.24-2.52-2.8-3.24-4.87-4.54C134.93,43.76,140.6,56.86,140.09,62.15Z"/><path class="cls-5" d="M118.58,21.19c-5.08,2.43-4.48,12.35-1.42,19.35,3.2,7.34,10.07,13.4,14.58,11.23,2.43-1.17,2.52-3.83,2.19-6.45-1.29-10.32-3.53-16.06-9.29-22.19C122.71,21.06,121.33,19.87,118.58,21.19Z"/><path class="cls-5" d="M99.19,22.83c-5.08,2.44-4.48,12.35-1.42,19.36,3.2,7.33,10.08,13.39,14.58,11.23,2.43-1.17,3-4.35,2.71-7-1.29-10.32-3-16.06-8.77-22.2A5.69,5.69,0,0,0,99.19,22.83Z"/><path class="cls-6" d="M133.32,54.51c2.66-3.38,6.9-3,7.49-1.42.36,1,.93,2.38.64,2.58-3.31,2.29-8.24,1.54-8.64.13C132.67,55.35,133,54.88,133.32,54.51Z"/><path class="cls-6" d="M96.55,64.83c2.65-3.37,9.74-3.3,10.32-1.67.37,1-1.9,2.63-2.19,2.84-3.31,2.28-8.24,1.53-8.65.13C95.9,65.67,96.26,65.2,96.55,64.83Z"/><path class="cls-7" d="M5.81,39A1.36,1.36,0,0,0,6,41a1.11,1.11,0,0,0,1.39-.2c.31-.47-.11-1.22-.59-1.56C6.79,39.2,6.18,38.79,5.81,39Z"/><path class="cls-7" d="M57.13,10.06c-1.17,2.53,5.2,9.18,7.74,8.13,1.69-.7,3-5.35.19-8.13S57.89,8.41,57.13,10.06Z"/><path class="cls-7" d="M70.19,84.3c.36.78,3.48.94,5.16-1,1.07-1.24,1.5-3.26.87-3.72C75,78.72,69.64,83.08,70.19,84.3Z"/><path class="cls-7" d="M133.05,88.3c.24,1.14,5.37,2.31,7.37-.29.67-.87,1.2-2.45.56-3.09C139.59,83.49,132.76,86.88,133.05,88.3Z"/><path class="cls-8" d="M121,28.74c-4.59,3.5,3.22,25.93,8.13,25.55,3.22-.26,6.1-10.41,3.29-13-1.76-1.61-5.29.21-6.58-1.55-.8-1.09.81-2.26,1-5.42,0-.55.22-4.55-1.94-5.81A3.84,3.84,0,0,0,121,28.74Z"/><path class="cls-8" d="M102.55,29.48C98,33,105.76,55.41,110.68,55c3.22-.26,6.09-10.4,3.29-13-1.77-1.61-5.3.21-6.58-1.55-.8-1.09.81-2.26,1-5.42,0-.55.23-4.55-1.93-5.8A3.82,3.82,0,0,0,102.55,29.48Z"/><path class="cls-9" d="M117.45,66.74c3.1.77,8.88-1.2,13.52-2.56,3-.87.73,9.55-4.62,10.49S114.45,66,117.45,66.74Z"/><path class="cls-10" d="M122.71,32.29a1.64,1.64,0,0,0,1,2.19,1.53,1.53,0,0,0,1.42-1.68A1.72,1.72,0,0,0,122.71,32.29Z"/><path class="cls-10" d="M104.61,33.29a1.53,1.53,0,0,0,1.16,2.06,1.35,1.35,0,0,0,.65-2.58A1.42,1.42,0,0,0,104.61,33.29Z"/><path class="cls-11" d="M73.93,19.19a15.21,15.21,0,0,0-30.42,0,18.53,18.53,0,0,0,4.37,11.15"/><path class="cls-11" d="M73.92,19.2a15.16,15.16,0,0,0-2.68-8.63A51.77,51.77,0,0,1,90,7.09c.8,0,1.6,0,2.39.06a52,52,0,0,1,44.38,74.78"/><path class="cls-11" d="M47.33,29.3c-6.66,9.7-9.82,19.45-9.39,29.82,1.2,28.7,23.3,52,52,52a52,52,0,0,0,12.11-1.42"/><path class="cls-11" d="M89,7.14a51.73,51.73,0,0,1,25.89,5.91A15.2,15.2,0,0,0,89,7.14Z"/><path class="cls-11" d="M130.6,40.07c3.65,2.11,3.17,12.74-.25,13.72-3.27.94-9.81-7.76-10.7-16.47-.34-3.39-.08-9.29,2.32-10,2.14-.64,6,2.86,5.88,5.95-.09,2.77-2.79,4.26-2.24,5.22S128.54,38.89,130.6,40.07Z"/><path class="cls-12" d="M112.26,41.06C116,43.19,115.47,54,112,55s-9.94-7.86-10.83-16.67c-.35-3.43-.09-9.41,2.34-10.15,2.17-.65,6.06,2.9,6,6-.09,2.8-2.83,4.31-2.28,5.29S110.18,39.87,112.26,41.06Z"/><path class="cls-12" d="M131.09,64.75c3.36-.37-1,10.17-5.86,10.52-4.53.33-10.75-8.28-7.41-8.72C124.65,65.65,124.14,65.53,131.09,64.75Z"/><path class="cls-11" d="M144.9,95.16a40.45,40.45,0,0,1-6.78,7.35,59,59,0,0,1-7.24,5.32c-7.79,4.88-15.73,7.47-21.29,7.35-2.66-.06-4.78-.74-6.09-2.07a1.34,1.34,0,0,0-.13-.23l-.11-.17a5.83,5.83,0,0,0-.55-.66,5,5,0,0,1-.63-2.32,6.85,6.85,0,0,1,0-1.19,11.48,11.48,0,0,1,.94-3.28,16.22,16.22,0,0,1,.86-1.72C106.6,98.8,112,93.44,119.1,89a57.4,57.4,0,0,1,6.09-3.33l.55-.26a41.35,41.35,0,0,1,11-3.49c4.84-.73,8.63,0,10.29,2.46a1.63,1.63,0,0,1,.11.17,4.52,4.52,0,0,1,.58,1.35C148.39,88.39,147.31,91.66,144.9,95.16Z"/><path class="cls-11" d="M91.63,111.07a23.61,23.61,0,0,1-3,1.57A40.25,40.25,0,0,1,79,115.27a59.1,59.1,0,0,1-9,.67c-14.43,0-26.13-5-26.13-11.1a5.64,5.64,0,0,1,1.38-3.56A11.65,11.65,0,0,1,47.8,99a17,17,0,0,1,1.64-1,27.69,27.69,0,0,1,4.43-1.89A50.5,50.5,0,0,0,90,111.1Q90.79,111.1,91.63,111.07Z"/><path class="cls-13" d="M86.2,61.84a53.78,53.78,0,0,1-4,11.76c-1.69,3.56-3.74,7.38-6.54,10.2s-7.51,3.71-9.57-.47c-1.87-3.8-.43-8.72,1-12.41,1.86-4.8,4.35-9.4,6.64-14,.71-1.44-1.45-2.71-2.16-1.26-2.32,4.66-4.78,9.32-6.72,14.17-1.73,4.31-3.09,9.64-1.2,14.13a7.56,7.56,0,0,0,10.37,4c4.12-1.84,6.73-6.42,8.83-10.2a56,56,0,0,0,5.73-15.3c.34-1.57-2.07-2.24-2.41-.66Z"/><path class="cls-13" d="M47.1,90c-1,2.59-2.8,8.36-6.62,6.55-2.42-1.14-4-3.75-5.14-6C32,83.89,30.7,76.27,29.7,69,28.59,61,28,52.84,26.53,44.84a58.83,58.83,0,0,0-3-11.16c-1.12-2.84-2.57-5.84-4.95-7.84C12,20.34,8.24,31.06,5.18,35.06c-.89,1.16,1.08,2.29,2,1.15C9,33.81,10.19,31,12,28.62c.7-.9,1.69-2.09,2.94-2.08,1.55,0,2.92,1.6,3.76,2.74a29.56,29.56,0,0,1,4.28,10,99.67,99.67,0,0,1,2.25,12c1.11,8,1.73,16.08,3.15,24,1.18,6.64,2.85,14,7,19.54,1.66,2.25,4.23,4.66,7.26,4.24,3.9-.53,5.43-5.44,6.67-8.53.54-1.36-1.65-2-2.19-.61Z"/><ellipse class="cls-14" cx="5.38" cy="40.68" rx="4.5" ry="4.63"/><path class="cls-11" d="M74.11,19.37a15.21,15.21,0,0,0-30.42,0c0,3.88,1.57,12.27,12.5,13.14"/><path class="cls-11" d="M141.9,64.7c5,4.39,10.92.81,13.28-1.49s2.56-5.58.48-7.55c-3.65-3.44-7.64-3.3-14.41-6"/></g></g></svg>