<svg xmlns="http://www.w3.org/2000/svg" viewBox="0 0 155.28 116.61"><defs><style>.cls-1,.cls-2{fill:#eca082;stroke:#eca082;}.cls-1,.cls-10,.cls-11,.cls-12,.cls-13,.cls-15,.cls-2,.cls-3,.cls-4,.cls-5,.cls-6,.cls-7,.cls-8,.cls-9{stroke-miterlimit:10;}.cls-1,.cls-10,.cls-11,.cls-5,.cls-6,.cls-7,.cls-9{stroke-width:0.75px;}.cls-2,.cls-3{stroke-width:0.75px;}.cls-3,.cls-4{fill:#f1876d;stroke:#f1876d;}.cls-4{stroke-width:0.73px;}.cls-5{fill:#d36e5b;stroke:#d36e5b;}.cls-6{fill:#ec6095;stroke:#ec6094;}.cls-7,.cls-8{fill:#e4b998;stroke:#e4b998;}.cls-8{stroke-width:0.66px;}.cls-9{fill:#1f1f1f;stroke:#1f1f1f;}.cls-10{fill:#582d29;stroke:#582d29;}.cls-11{fill:#4c4947;stroke:#494645;}.cls-12,.cls-13,.cls-15{fill:none;stroke:#1d1d1b;}.cls-12{stroke-width:2px;}.cls-13{stroke-width:2.03px;}.cls-14{fill:#1d1d1b;}.cls-15{stroke-width:2.03px;}</style></defs><g id="Capa_9" data-name="Capa 9"><path class="cls-1" d="M3.66,30c1.67.87,7.08-2.86,6.2-6.2C9.37,22,7,20.42,5.41,20.89,2.5,21.74,1.87,29,3.66,30Z"/><path class="cls-2" d="M55.28,30.05a13.72,13.72,0,0,1-3.1-25.36C59.61.9,67,6.57,68.05,7.4c1.46,1.17,4.55,3.63,5,7.36C74,22.16,64.45,32.16,55.28,30.05Z"/><path class="cls-2" d="M78.12,7C55.34,12.37,37.58,33.77,37.66,57.53c.09,24.52,19.13,39.14,21.68,41,14.73,10.93,35.9,14.67,53,6.38,13-6.28,19.76-17.59,21.68-20.9a54.38,54.38,0,0,0,6.77-19.55,50.41,50.41,0,0,0-2.32-25.35A51.14,51.14,0,0,0,124.57,19C113.44,9.23,95.92,2.83,78.12,7Z"/><path class="cls-3" d="M4.73,20.79c-.09-.05-4.45,5.09-2.81,7.45,1.11,1.59,4.46,1.26,4.55.87S4,28.62,3.08,26.89C1.84,24.47,4.81,20.83,4.73,20.79Z"/><path class="cls-3" d="M74.79,56.31c1.4,4.41-10.59,11.2-14.6,20.2-1.29,2.9-1.09,3.65,1.35,9.1.32.7-1.84-1-2.6-2.8-.64-1.52-3.45-3.36,3.84-15.12,1.64-2.64,7.88-10.46,10-10C73.57,57.78,74.5,55.38,74.79,56.31Z"/><path class="cls-3" d="M90.21,4.5C90,3.22,97.75-.68,104.82,1.6c5.63,1.81,9.43,7.06,8.71,8.13s-4.49-1.83-13-3.58C93.66,4.72,90.32,5.33,90.21,4.5Z"/><path class="cls-3" d="M52.75,4.37c-.28-.17-15,5.48-6.29,21.25,2.15,3.9,7.84,5.31,8.16,4.82s-3.9-2.22-5.75-6C44.75,15.94,53,4.52,52.75,4.37Z"/><path class="cls-3" d="M47.24,28.61C35.88,46.53,35.41,60.19,41,75.14c8.82,23.79,33.91,40,64.43,31.41C118,103,126.52,94.79,126.92,93.45c.27-.9-8.83,7.93-22.73,9.63-16.23,2-40.14-5-50.8-25.4-11.52-22.08,2-47,2-47C51.38,30.08,47.91,27.55,47.24,28.61Z"/><path class="cls-2" d="M65.32,103c2.41-10.56,38.51-11,45.67-4.84,2.92,2.52,4.43,5.51,3.87,6.58-6.51,12.68-41.71,14.66-48.38,3.3A7,7,0,0,1,65.32,103Z"/><path class="cls-3" d="M116.24,103.53c-5.08,3.15.88,3.46-11.8,10.13-5.87,3.09,16.71-1.09,19.93-8.19.28-.62,1,.8-1.42-4.65S117.85,102.54,116.24,103.53Z"/><path class="cls-3" d="M82.91,94.06c-3.41-.88-20.73,4.19-20.72,9.36,0,4.13,4.65,9,10.63,9.89,25.07,3.87,36.75-2.51,36.68-3,0-.28-5.67,2.83-21.29,3.19-10.82.25-16-2.26-19.35-6a8.32,8.32,0,0,1-1.36-5.71C68.15,97.76,74.28,96.57,82.91,94.06Z"/><path class="cls-4" d="M141.27,66.1c-.27,2.77,4.1-.18,7.75-2.57,3.35-2.19,5.15-9.25,4.84-12.58-.24-2.52-8.33-1.09-9.55-.19C139.38,54.39,141.78,60.81,141.27,66.1Z"/></g><g id="Capa_10" data-name="Capa 10"><path class="cls-5" d="M117.66,19.53c-5.08,2.44-4.47,12.35-1.42,19.36,3.2,7.33,10.08,13.39,14.58,11.22,2.43-1.16,2.53-3.83,2.2-6.45-1.29-10.32-3.54-16-9.29-22.19C121.79,19.4,120.42,18.22,117.66,19.53Z"/><path class="cls-5" d="M98.57,22.24c-5.08,2.44-4.48,12.35-1.42,19.36,3.2,7.33,10.07,13.39,14.58,11.22,2.43-1.16,3-4.35,2.71-7-1.29-10.33-3-16.06-8.78-22.2A5.67,5.67,0,0,0,98.57,22.24Z"/><path class="cls-6" d="M134.05,53.73c2.66-3.38,6.9-3,7.48-1.42.37,1,.94,2.38.65,2.58-3.31,2.28-8.24,1.54-8.65.13C133.4,54.56,133.76,54.1,134.05,53.73Z"/><path class="cls-6" d="M97.28,64.05c2.65-3.38,9.74-3.31,10.32-1.68.37,1-1.9,2.64-2.19,2.84-3.31,2.29-8.24,1.54-8.65.13C96.63,64.89,97,64.42,97.28,64.05Z"/><path class="cls-7" d="M6.27,23.4a1.34,1.34,0,0,0,.21,2,1.09,1.09,0,0,0,1.39-.2c.32-.47-.11-1.22-.59-1.55C7.24,23.57,6.63,23.16,6.27,23.4Z"/><path class="cls-7" d="M57.86,9.28c-1.17,2.53,5.2,9.17,7.74,8.12,1.69-.69,3-5.34.19-8.12S58.62,7.62,57.86,9.28Z"/><path class="cls-8" d="M61.67,81.33c0,.76,2.59,1.84,4.57.74,1.26-.7,2.23-2.24,1.84-2.81C67.35,78.19,61.58,80.16,61.67,81.33Z"/><path class="cls-7" d="M100.31,99.28c-.41,1.09,3.32,4.81,6.39,3.67,1-.38,2.32-1.44,2.12-2.32C108.4,98.68,100.82,97.92,100.31,99.28Z"/><path class="cls-9" d="M120.12,27.08c-4.59,3.51,3.21,25.94,8.12,25.55,3.23-.25,6.1-10.4,3.29-13-1.76-1.61-5.29.21-6.58-1.55-.79-1.09.82-2.25,1-5.42,0-.54.22-4.55-1.93-5.8A3.84,3.84,0,0,0,120.12,27.08Z"/><path class="cls-9" d="M101.92,28.5c-4.59,3.51,3.22,25.94,8.13,25.55,3.22-.25,6.1-10.4,3.29-13-1.76-1.61-5.29.21-6.58-1.55-.8-1.09.81-2.25,1-5.42,0-.54.22-4.55-1.94-5.8A3.84,3.84,0,0,0,101.92,28.5Z"/><path class="cls-10" d="M116.63,66.24c3.1.78,8.88-1.2,13.52-2.55,3-.87.73,9.55-4.62,10.49S113.63,65.49,116.63,66.24Z"/><path class="cls-11" d="M121.79,30.63a1.66,1.66,0,0,0,1,2.19,1.52,1.52,0,0,0,1.42-1.67A1.73,1.73,0,0,0,121.79,30.63Z"/><path class="cls-11" d="M104,32.69a1.53,1.53,0,0,0,1.16,2.07,1.35,1.35,0,0,0,.64-2.58A1.41,1.41,0,0,0,104,32.69Z"/></g><g id="Capa_2" data-name="Capa 2"><g id="Capa_7" data-name="Capa 7"><path class="cls-12" d="M73.5,18.09a15.21,15.21,0,0,0-30.42,0,18.51,18.51,0,0,0,4.38,11.14"/><path class="cls-12" d="M114.56,103.64A52,52,0,0,0,117.28,14,51.56,51.56,0,0,0,91.94,6C91.15,6,90.35,6,89.55,6A51.77,51.77,0,0,0,70.82,9.46a15.16,15.16,0,0,1,2.68,8.63"/><path class="cls-12" d="M46.91,28.19c-6.66,9.7-9.82,19.45-9.39,29.82.79,18.83,10.56,35.34,25.3,44.47"/><path class="cls-12" d="M88.54,6A51.52,51.52,0,0,1,114.43,12,15.19,15.19,0,0,0,88.54,6Z"/><path class="cls-12" d="M129.94,38.68c3.7,2,3.44,12.66,0,13.72-3.24,1-10-7.56-11-16.24-.41-3.38-.28-9.29,2.1-10.06,2.13-.7,6,2.73,6,5.82,0,2.77-2.7,4.31-2.13,5.27S127.86,37.54,129.94,38.68Z"/><path class="cls-13" d="M111.63,40.06c3.74,2,3.48,12.82,0,13.89s-10.1-7.65-11.18-16.45c-.42-3.42-.28-9.4,2.13-10.19,2.15-.7,6.12,2.77,6.08,5.9,0,2.8-2.74,4.37-2.16,5.33S109.52,38.9,111.63,40.06Z"/><path class="cls-13" d="M131,63.34c3.36-.44-.78,10.19-5.64,10.64-4.51.43-10.92-8-7.59-8.56C124.53,64.38,124,64.27,131,63.34Z"/><path class="cls-12" d="M114.65,104.51a4.53,4.53,0,0,1-.23,1.45c-.75,2.46-3.4,4.66-7.3,6.35a40.25,40.25,0,0,1-9.64,2.63c-1.2.18-2.44.33-3.72.44-1.69.15-3.44.23-5.24.23-9.2,0-17.3-2-22-5.07-2.22-1.46-3.66-3.16-4.06-5a2.44,2.44,0,0,0,0-.27,1.34,1.34,0,0,0,0-.2,4.82,4.82,0,0,0-.11-.85,5,5,0,0,1,.42-1.76,7,7,0,0,1,1-1.53,11.65,11.65,0,0,1,2.54-2.28,17,17,0,0,1,1.64-1c4.78-2.6,12.22-4.26,20.57-4.26,1.8,0,3.55.07,5.25.22h0c.56.06,1.11.11,1.66.18l.6.07c10.14,1.29,17.68,5.13,18.51,9.76a3.83,3.83,0,0,1,.08.67A1.34,1.34,0,0,1,114.65,104.51Z"/><path class="cls-12" d="M125.1,104.51a4.53,4.53,0,0,1-.23,1.45c-.75,2.46-3.4,4.66-7.3,6.35a40.25,40.25,0,0,1-9.64,2.63,59.1,59.1,0,0,1-9,.67c-1.79,0-3.53-.08-5.21-.23,1.28-.11,2.52-.26,3.72-.44a40.25,40.25,0,0,0,9.64-2.63c3.9-1.69,6.55-3.89,7.3-6.35a4.53,4.53,0,0,0,.23-1.45,1.34,1.34,0,0,0,0-.2,3.83,3.83,0,0,0-.08-.67A51.9,51.9,0,0,0,121.62,99a7.83,7.83,0,0,1,3.39,4.66,3.83,3.83,0,0,1,.08.67A1.34,1.34,0,0,1,125.1,104.51Z"/><path class="cls-14" d="M84.39,66.33a53.52,53.52,0,0,1-8,9.41c-2.91,2.71-6.29,5.63-10,7.15a7.28,7.28,0,0,1-5.87.18A5.24,5.24,0,0,1,57.89,78c.14-4.07,3.07-7.78,5.75-10.6,3.49-3.69,7.4-7,11.17-10.44,1.2-1.08-.58-2.84-1.77-1.77C69.17,58.7,65.13,62.12,61.58,66c-3.08,3.31-6.14,7.57-6.19,12.28a7.59,7.59,0,0,0,8.26,7.86c4.62-.29,8.74-3.65,12.15-6.49a55.88,55.88,0,0,0,10.75-12c.89-1.34-1.27-2.59-2.16-1.26Z"/><path class="cls-14" d="M49.06,93.05c-.78,1.94-1.53,4.16-2.93,5.76s-3.05,1.34-4.59.27c-2.69-1.87-4.3-5.29-5.48-8.23-3.32-8.31-4.3-17.4-5.33-26.22C30.2,60,29.68,55.35,29,50.74a61.13,61.13,0,0,0-3-13c-.48-1.21-1.31-2.53-2.77-2.54-1.27,0-2.34,1-3.26,1.71-.17.15-.74.48-.79.66s1,.2,1,.26c0-.1-.24-.64-.3-.84-.3-1-.52-2.1-.74-3.15-.26-1.23-.51-2.47-.83-3.68a5,5,0,0,0-1-2.36c-1.06-1-2.73.1-3.74.67a15.36,15.36,0,0,1-2.18,1.19c-1.06.39-1.69-.18-2.35-1-.94-1.13-2.54.48-1.61,1.6A4.09,4.09,0,0,0,11.48,32a8.62,8.62,0,0,0,2-.88c.76-.43,1.65-.8,2.35-1.28s-.52-.17-.28-.47a2.44,2.44,0,0,0,.14.28c.09.4.29.9.4,1.33.29,1.12.52,2.25.76,3.37s.46,2.26.79,3.36a3.21,3.21,0,0,0,1.13,2c1.14.66,2.17-.67,3-1.31.29-.24,1-.91,1.39-.86s.84,1.47,1,1.89c3,9.23,3.63,19.16,4.79,28.75,1.09,8.92,2.29,18.26,6.37,26.38,1.51,3,3.82,6.57,7.29,7.51,5.1,1.37,7.25-4.76,8.7-8.4.54-1.35-1.65-1.94-2.18-.6Z"/><ellipse class="cls-15" cx="5.51" cy="25.43" rx="4.5" ry="4.63"/></g><g id="Capa_4" data-name="Capa 4"><path class="cls-12" d="M73.58,18.16a15.21,15.21,0,0,0-30.42,0c0,3.88,1.57,12.28,12.5,13.15"/><path class="cls-12" d="M141.18,52.84c4.71-4.7,8.77-5.7,11.28-3.56s2.07,4.86,1,7.5c-2.2,5.26-5.65,7.71-12.24,10.82"/></g></g></svg>