<svg xmlns="http://www.w3.org/2000/svg" viewBox="0 0 157.69 118.05"><defs><style>.cls-1,.cls-2{fill:#eca082;stroke:#eca082;}.cls-1,.cls-10,.cls-11,.cls-12,.cls-13,.cls-14,.cls-15,.cls-16,.cls-18,.cls-2,.cls-3,.cls-4,.cls-5,.cls-6,.cls-7,.cls-8,.cls-9{stroke-miterlimit:10;}.cls-1,.cls-10,.cls-11,.cls-13,.cls-5,.cls-6,.cls-7{stroke-width:0.75px;}.cls-2,.cls-3{stroke-width:0.75px;}.cls-3{fill:#f1876d;stroke:#f1876d;}.cls-4,.cls-5{fill:#d36e5b;stroke:#d36e5b;}.cls-12,.cls-4{stroke-width:0.67px;}.cls-6{fill:#ec6095;stroke:#ec6094;}.cls-7,.cls-8{fill:#e4b998;stroke:#e4b998;}.cls-8{stroke-width:0.37px;}.cls-10,.cls-9{fill:#1f1f1f;stroke:#1f1f1f;}.cls-9{stroke-width:0.65px;}.cls-11{fill:#582d29;stroke:#582d29;}.cls-12,.cls-13{fill:#4c4947;stroke:#494645;}.cls-14,.cls-15,.cls-16,.cls-18{fill:none;stroke:#1d1d1b;}.cls-14{stroke-width:2px;}.cls-15{stroke-width:1.81px;}.cls-16{stroke-width:1.94px;}.cls-17{fill:#1d1d1b;}.cls-18{stroke-width:2.03px;}</style></defs><g id="Capa_2" data-name="Capa 2"><path class="cls-1" d="M3.52,28.62c1.66.88,7.07-2.86,6.19-6.2-.48-1.84-2.83-3.37-4.45-2.9C2.36,20.37,1.73,27.67,3.52,28.62Z"/><path class="cls-2" d="M57.2,30.75a13.8,13.8,0,0,1-10.26-12.2A13.66,13.66,0,0,1,54.1,5.39C61.53,1.59,68.93,7.27,70,8.1c1.46,1.17,4.55,3.62,5,7.36C76,22.86,66.38,32.86,57.2,30.75Z"/><path class="cls-2" d="M80,7.71C57.26,13.07,39.5,34.47,39.59,58.23c.09,24.51,19.12,39.14,21.67,41,14.73,10.93,35.9,14.67,53,6.39,13-6.29,19.76-17.59,21.68-20.9a54.68,54.68,0,0,0,6.78-19.55,50.6,50.6,0,0,0-2.33-25.36,51.28,51.28,0,0,0-13.93-20.13C115.36,9.93,97.84,3.53,80,7.71Z"/><path class="cls-3" d="M4.59,19.42c-.1-.05-4.46,5.09-2.81,7.46,1.1,1.58,4.46,1.25,4.55.87s-2.5-.49-3.39-2.23C1.7,23.1,4.66,19.47,4.59,19.42Z"/><path class="cls-3" d="M75.39,58.13C79.63,60,76.86,73.47,81,82.41c1.34,2.88,2,3.23,7.74,5,.74.22-2,.73-3.81.12-1.57-.52-4.8.39-8.87-12.83-.92-3-2.7-12.82-1-14.17C75.7,60,74.49,57.74,75.39,58.13Z"/><path class="cls-3" d="M92.52,5.32c-.17-1.27,7.54-5.18,14.62-2.9,5.62,1.81,9.42,7.07,8.71,8.13s-4.49-1.82-13-3.58C96,5.54,92.63,6.15,92.52,5.32Z"/><path class="cls-3" d="M55,5c-.28-.16-15,5.49-6.29,21.26,2.15,3.89,7.84,5.31,8.16,4.81s-3.9-2.21-5.75-6C47,16.59,55.26,5.16,55,5Z"/><path class="cls-3" d="M49.16,29.31C37.8,47.22,37.34,60.89,42.88,75.83c8.82,23.8,33.92,40,64.44,31.42,12.64-3.56,21.12-11.76,21.52-13.1.27-.9-8.83,7.93-22.73,9.63-16.23,2-40.14-5-50.8-25.41-11.51-22.08,2-47,2-47C53.31,30.78,49.84,28.25,49.16,29.31Z"/><path class="cls-1" d="M114.42,107.13c10.2-10.13,12.2-8.58,14.91-5.35,2.46,2.92,1.57,3.37.9,4.39-2.71,4.12-8.45,9.16-19.29,6.25C109.92,112.15,112.8,108.75,114.42,107.13Z"/><path class="cls-2" d="M64.08,104.16c2.41-10.56,38.51-11,45.67-4.84,2.92,2.52,4.43,5.51,3.87,6.58-6.51,12.68-41.71,14.66-48.38,3.29A6.91,6.91,0,0,1,64.08,104.16Z"/><path class="cls-3" d="M103.52,113.52c-6.48,2.42,14.23,6.84,26.32-5,.49-.48-24.13,5.74-17.29,1.22"/><path class="cls-3" d="M82.8,95.29c-3.41-.88-20.73,4.19-20.72,9.36,0,4.13,4.65,9,10.63,9.89,25.07,3.87,36.75-2.51,36.68-3,0-.28-5.67,2.83-21.29,3.19-10.82.25-16-2.26-19.35-6A8.32,8.32,0,0,1,67.39,103C68,99,74.17,97.79,82.8,95.29Z"/><path class="cls-4" d="M126.69,21.58c-4.79,1.57-4,10.26-2.14,16.84,2,6.89,6,13.25,10.24,11.85,2.29-.75,2.69-3.11,2.7-5.47.07-9.31-2-14.32-6.42-20.44C129.59,22.3,129.29,20.74,126.69,21.58Z"/><path class="cls-5" d="M110.52,21.14c-5.35,1.77-6,11.68-3.84,19,2.25,7.68,8.31,14.55,13,13,2.56-.85,3.56-3.93,3.57-6.57,0-10.4-1-16.31-5.92-23.12A5.68,5.68,0,0,0,110.52,21.14Z"/><path class="cls-6" d="M135,54.42c2.66-3.37,6.9-3.05,7.49-1.42.36,1,.93,2.38.64,2.59-3.31,2.28-8.24,1.53-8.64.12C134.33,55.26,134.68,54.79,135,54.42Z"/><path class="cls-6" d="M106.88,62c2.65-3.38,9.74-3.31,10.32-1.68.37,1-1.9,2.64-2.2,2.84-3.3,2.29-8.24,1.54-8.64.13C106.23,62.81,106.59,62.34,106.88,62Z"/><path class="cls-7" d="M6.12,22a1.35,1.35,0,0,0,.22,2,1.11,1.11,0,0,0,1.39-.2c.31-.48-.11-1.23-.6-1.56C7.1,22.2,6.49,21.79,6.12,22Z"/><path class="cls-7" d="M59.78,10c-1.17,2.53,5.2,9.18,7.74,8.13,1.7-.7,3-5.35.19-8.13S60.54,8.32,59.78,10Z"/><path class="cls-7" d="M86.14,84.15c.81.32,3.15-1.76,3-4.32-.1-1.64-1.21-3.39-2-3.27C85.7,76.79,84.89,83.67,86.14,84.15Z"/><path class="cls-8" d="M125.68,101.38c-.36.24-.24,1.78.81,2.31.61.31,1.5.26,1.65-.09C128.42,102.94,126.2,101,125.68,101.38Z"/><path class="cls-7" d="M99.71,100.94c-.41,1.09,3.32,4.81,6.39,3.68,1-.39,2.32-1.44,2.13-2.33C107.81,100.34,100.22,99.58,99.71,100.94Z"/><path class="cls-9" d="M127.88,29.11c-4.37,2.51.64,22.46,4.94,22.69,2.82.15,5.65-7.94,3.52-10.48-1.35-1.6-4.61-.42-5.53-2.1-.56-1,1-1.86,1.46-4.58.09-.47.71-3.92-1-5.25A3.36,3.36,0,0,0,127.88,29.11Z"/><path class="cls-10" d="M113,28.15c-5,2.9-.07,26.14,4.85,26.37,3.23.15,7.36-9.55,4.9-12.45-1.55-1.82-5.28-.46-6.34-2.37-.65-1.18,1.09-2.13,1.65-5.25.09-.54.79-4.49-1.2-6A3.82,3.82,0,0,0,113,28.15Z"/><path class="cls-11" d="M123.84,61.13c3,1.21,9,.07,13.75-.62,3.07-.44-.63,9.56-6.05,9.74S121,60,123.84,61.13Z"/><path class="cls-12" d="M129.06,31.92a1.47,1.47,0,0,0,.66,2.07,1.37,1.37,0,0,0,1.45-1.33A1.54,1.54,0,0,0,129.06,31.92Z"/><path class="cls-13" d="M114.58,32.19a1.53,1.53,0,0,0,.89,2.19,1.38,1.38,0,0,0,1.54-.84,1.4,1.4,0,0,0-.57-1.64A1.42,1.42,0,0,0,114.58,32.19Z"/><path class="cls-14" d="M49.46,29.67c-.23-.26-.46-.54-.68-.83"/><path class="cls-15" d="M119.29,14.43A51.56,51.56,0,0,0,94,6.48h-.36c-1,0-2,0-3,0l0-.05A51.58,51.58,0,0,0,72.83,9.9a15.21,15.21,0,0,0-27.74,8.63,18.51,18.51,0,0,0,3.69,10.31c-6.58,9.63-9.69,19.3-9.25,29.61.76,18.17,9.9,34.19,23.8,43.5a11.65,11.65,0,0,1,2.54-2.28,17,17,0,0,1,1.64-1c4.78-2.6,12.22-4.26,20.57-4.26a58.65,58.65,0,0,1,7.53.47c10.62,1.35,18.39,5.5,18.59,10.43a52,52,0,0,0,5.09-90.88Zm-5.24,12.7c2.22-.42,5.71,3.53,5.27,6.63-.39,2.77-3.28,4-2.83,5s2.91.74,4.85,2.15c3.45,2.52,1.81,13.17-1.75,13.79-3.39.58-9-8.89-9-17.75C110.65,33.51,111.56,27.59,114.05,27.13Zm17,42.57c-4.53-.16-10.33-8.27-7-8.65,6.71-.77,6.39-.33,13.39-.35C140.89,60.69,136,69.88,131.1,69.7Zm2.25-18c-3,.53-8-7.36-7.93-15.26,0-3.08.84-8.36,3.06-8.78,2-.37,5.1,3.16,4.71,5.92-.36,2.48-2.93,3.55-2.53,4.48s2.59.65,4.33,1.92C138.07,42.19,136.53,51.11,133.35,51.66Z"/><path class="cls-14" d="M90.59,6.43h1c.68,0,1.36,0,2,0"/><path class="cls-14" d="M48.92,28.63c-.05.07-.1.14-.14.21"/><path class="cls-16" d="M116.38,11.74A53.82,53.82,0,0,0,93.7,6.17h-.11c-1,0-2,0-3,0l0,0a15.42,15.42,0,0,1,10-4.65A15.13,15.13,0,0,1,116.38,11.74Z"/><path class="cls-14" d="M114.21,105.51A4.53,4.53,0,0,1,114,107c-.75,2.46-3.4,4.66-7.3,6.35A40.25,40.25,0,0,1,97,115.94a59.1,59.1,0,0,1-9,.67c-14.43,0-26.13-5-26.13-11.1A5.64,5.64,0,0,1,63.33,102a11.65,11.65,0,0,1,2.54-2.28,17,17,0,0,1,1.64-1c4.78-2.6,12.22-4.26,20.57-4.26a58.65,58.65,0,0,1,7.53.47c10.62,1.35,18.39,5.5,18.59,10.43A1.34,1.34,0,0,1,114.21,105.51Z"/><path class="cls-14" d="M130.66,105.31a4.53,4.53,0,0,1-.23,1.45c-.75,2.46-3.4,4.66-7.3,6.35-4.74,2-11.32,3.3-18.6,3.3a58,58,0,0,1-7.49-.47,40.25,40.25,0,0,0,9.64-2.63c3.9-1.69,6.55-3.89,7.3-6.35a4.53,4.53,0,0,0,.23-1.45,1.34,1.34,0,0,0,0-.2,52.07,52.07,0,0,0,10.72-6.94C128.51,100.27,130.66,102.69,130.66,105.31Z"/><path class="cls-17" d="M89,57.22a53.48,53.48,0,0,1,2.29,13c.18,4,.34,8.79-1.27,12.56a6.52,6.52,0,0,1-3.68,3.74,5.39,5.39,0,0,1-5.26-1.52c-2.95-2.81-3.95-7.32-4.42-11.22-.59-4.94-.7-10-.93-14.93-.08-1.6-2.58-1.61-2.5,0,.24,5.19.34,10.44,1,15.6.58,4.39,1.81,9.35,5.22,12.46,3.22,2.94,7.9,3.09,10.94-.18,3.21-3.44,3.38-8.79,3.44-13.23a55.94,55.94,0,0,0-2.43-17,1.25,1.25,0,0,0-2.41.67Z"/><path class="cls-14" d="M75.73,18.6a15.21,15.21,0,0,0-30.42,0c0,3.88,1.57,12.28,12.5,13.15"/><path class="cls-17" d="M49,91.62c-.86,2.14-2.29,7.15-5.33,6.92-2.11-.16-3.83-2.22-4.92-3.83C35.51,89.87,34,83.84,32.87,78.18c-2.55-13.07-2.38-26.74-6.22-39.55-.48-1.61-.81-3-2.38-3.76a11.22,11.22,0,0,0-4-1,32.23,32.23,0,0,0-9.79.68,7.3,7.3,0,0,0-3,1.12,1.51,1.51,0,0,0,.06,2.54,3.66,3.66,0,0,0,2.36.11,26.14,26.14,0,0,0,3.68-.85c2.68-.81,6.25-1.95,7.92-4.39,2.19-3.19-1.85-5.43-4.31-6.43-1.18-.49-2.06,1.56-.88,2.07.18.07.66.41.76.42S17,29,17,29c-.16,0,.44-.14-.06,0-.2.06-.42.3-.63.39a4.84,4.84,0,0,1-1.29.35A6.54,6.54,0,0,1,8.9,27.29c-.92-1.13-2.52.48-1.6,1.61a8.73,8.73,0,0,0,9.35,2.77,3.68,3.68,0,0,0,2.57-2.13c.35-1.3-.68-2.27-1.77-2.74l-.88,2.07c1.05.43,2.77,1.07,3.25,2.22a.69.69,0,0,1,0,.5,3.24,3.24,0,0,1-.7.85c-1.79,1.6-4.42,2.41-6.68,3.05a23.29,23.29,0,0,1-3.09.68,4.34,4.34,0,0,0-.86,0s.23,0,.4.2-.06,1,0,1.08-.09,0,.19-.12.14-.07.34-.14A11.08,11.08,0,0,1,11,36.78a29.2,29.2,0,0,1,4.15-.59c2.48-.19,5.78-.5,8.07.7a1.57,1.57,0,0,1,.63.53A18.42,18.42,0,0,1,25,41.17a93.14,93.14,0,0,1,1.83,9.21c1.82,11.95,2.1,24.31,5.71,35.91C34,91,36,96.48,40.16,99.45c2,1.43,4.58,1.93,6.65.37,2.34-1.77,3.37-5,4.42-7.6.54-1.35-1.65-1.94-2.19-.6Z"/><ellipse class="cls-18" cx="5.5" cy="24" rx="4.5" ry="4.63"/></g></svg>